%
M48
M72
T01C0.0150
T02C0.0320
T03C0.0354
T04C0.0400
T05C0.1260
%
T01
X11008Y15108
X11575Y15110
X14505Y15110
X15655Y16180
X14955Y16755
X14955Y17555
X14955Y18305
X14955Y19055
X14505Y19055
X15630Y19605
X16230Y20380
X16230Y21180
X16780Y21180
X17505Y21180
X17505Y20405
X16780Y19430
X16780Y17805
X17430Y17480
X16780Y16905
X17430Y16455
X17430Y15480
X19505Y16730
X20255Y15110
X22258Y16733
X23530Y16805
X23530Y17555
X23530Y18305
X23530Y19055
X23130Y19055
X22255Y18980
X20805Y19055
X19505Y18980
X20255Y20805
X21055Y21180
X22055Y21180
X22580Y21280
X23105Y21180
X23105Y20805
X23992Y21268
X23992Y21843
X24818Y22042
X25405Y22055
X25780Y22055
X26155Y22055
X26155Y21180
X25780Y21180
X25405Y21180
X24818Y21192
X24405Y20155
X25405Y19055
X25780Y19055
X26155Y19055
X26580Y18980
X27455Y18980
X28005Y18980
X29255Y19055
X29255Y18180
X30758Y19008
X31530Y18980
X31980Y18980
X31905Y18305
X31430Y18205
X31155Y17930
X31905Y17555
X31905Y16805
X32430Y16230
X32430Y15455
X31505Y15110
X30758Y16758
X28755Y15110
X28005Y16755
X26155Y16805
X25755Y16180
X25780Y17555
X25405Y18305
X26430Y20530
X26630Y21180
X28130Y21180
X28130Y21930
X28855Y20805
X29905Y21155
X30480Y21155
X30980Y21280
X31505Y21180
X31505Y20805
X32030Y21555
X32430Y19830
X32730Y19530
X33030Y19780
X33805Y18980
X34180Y18980
X34555Y18980
X34155Y18230
X33780Y18230
X33805Y17555
X33805Y16805
X35941Y16769
X36230Y17055
X36230Y17430
X36508Y16758
X37055Y17430
X37055Y17930
X37905Y17930
X37755Y19055
X36508Y19033
X36855Y20805
X37380Y21180
X37705Y21555
X37905Y20855
X36305Y21180
X36005Y21855
X34555Y21130
X34180Y21130
X33805Y21130
X33805Y21555
X34005Y21930
X34005Y22430
X34005Y22930
X34005Y23430
X34005Y23930
X34005Y24430
X33955Y24830
X33730Y26880
X34230Y26880
X34730Y26880
X35730Y26680
X36155Y26680
X36580Y26680
X37005Y26680
X36530Y24305
X39630Y20805
X40130Y19055
X40405Y18305
X40030Y17930
X40405Y17555
X39685Y15110
X37255Y15110
X29805Y21930
X29130Y23830
X28130Y23930
X25130Y25430
X25130Y26430
X25630Y29555
X26630Y29730
X26630Y29305
X27630Y28805
X26630Y30830
X25355Y30680
X27130Y32680
X27380Y32305
X26430Y32980
X26080Y32930
X25730Y32980
X25330Y32980
X24905Y32980
X24505Y32980
X24005Y34055
X23480Y35030
X22580Y34105
X21530Y33055
X21880Y32680
X22255Y32355
X20780Y32305
X21030Y33580
X20680Y36405
X20280Y36405
X18255Y39805
X17380Y39805
X16730Y39805
X17630Y41180
X17630Y42180
X16755Y42180
X15880Y42180
X15005Y42180
X14130Y42180
X18755Y42180
X19880Y42180
X20380Y42180
X19880Y41180
X24130Y42180
X25130Y42180
X25630Y42180
X26130Y42180
X26130Y41180
X25130Y41180
X27130Y42180
X29130Y41180
X32530Y44680
X33355Y42280
X33355Y41330
X34255Y41805
X37255Y41805
X37430Y44030
X28255Y35080
X27855Y34780
X26730Y35405
X26630Y35780
X26255Y34430
X24630Y36480
X29005Y33705
X23630Y29955
X23305Y30330
X22255Y30680
X21830Y29430
X19030Y23680
X20630Y22780
X19630Y21180
X14505Y20805
X13880Y21180
X12555Y21180
X11755Y20805
X11008Y21055
X12255Y19055
X14130Y23905
X11880Y25655
X11880Y26655
X11880Y27655
X11880Y28655
X10330Y35080
X15330Y36055
X31630Y26305
X34655Y28305
X41818Y25067
X23005Y15110
T02
X23155Y10430
X22155Y10430
X18130Y10430
X17130Y10430
X13130Y10430
X12130Y10430
X27130Y10430
X28130Y10430
X32155Y10430
X33155Y10430
X37130Y10430
X38130Y10430
X37930Y36050
X36930Y36050
X35930Y36050
X38930Y36050
X39930Y36050
X40930Y36050
X41930Y36050
X42930Y36050
X43930Y36050
X43930Y44710
X42930Y44710
X41930Y44710
X40930Y44710
X39930Y44710
X38930Y44710
X37930Y44710
X36930Y44710
X35930Y44710
X29130Y44710
X28130Y44710
X27130Y44710
X26130Y44710
X25130Y44710
X24130Y44710
X23130Y44710
X22130Y44710
X21130Y44710
X14330Y44710
X13330Y44710
X12330Y44710
X11330Y44710
X10330Y44710
X9330Y44710
X8330Y44710
X7330Y44710
X6330Y44710
X6330Y36050
X7330Y36050
X8330Y36050
X9330Y36050
X10330Y36050
X11330Y36050
X12330Y36050
X13330Y36050
X14330Y36050
X21130Y36050
X22130Y36050
X23130Y36050
X24130Y36050
X25130Y36050
X26130Y36050
X27130Y36050
X28130Y36050
X29130Y36050
T03
X26680Y28430
X26680Y27430
X26680Y26430
X26680Y25430
X26680Y24430
X23680Y24430
X23680Y25430
X23680Y26430
X23680Y27430
X23680Y28430
T04
X13505Y28155
X13505Y27155
X13505Y26155
X13505Y25155
X12505Y25155
X12505Y26155
X12505Y27155
X12505Y28155
X12505Y29155
X13505Y29155
T05
X10630Y6930
X10580Y30755
X39630Y30755
X39630Y6930
M30
