G75*
G70*
%OFA0B0*%
%FSLAX24Y24*%
%IPPOS*%
%LPD*%
%AMOC8*
5,1,8,0,0,1.08239X$1,22.5*
%
%ADD10C,0.0480*%
%ADD11OC8,0.0480*%
%ADD12OC8,0.0740*%
%ADD13C,0.0591*%
%ADD14C,0.0160*%
%ADD15OC8,0.1969*%
%ADD16C,0.0290*%
%ADD17C,0.0100*%
D10*
X006330Y035810D02*
X006330Y036290D01*
X007330Y036290D02*
X007330Y035810D01*
X008330Y035810D02*
X008330Y036290D01*
X009330Y036290D02*
X009330Y035810D01*
X010330Y035810D02*
X010330Y036290D01*
X011330Y036290D02*
X011330Y035810D01*
X012330Y035810D02*
X012330Y036290D01*
X013330Y036290D02*
X013330Y035810D01*
X014330Y035810D02*
X014330Y036290D01*
X021130Y036290D02*
X021130Y035810D01*
X022130Y035810D02*
X022130Y036290D01*
X023130Y036290D02*
X023130Y035810D01*
X024130Y035810D02*
X024130Y036290D01*
X025130Y036290D02*
X025130Y035810D01*
X026130Y035810D02*
X026130Y036290D01*
X027130Y036290D02*
X027130Y035810D01*
X028130Y035810D02*
X028130Y036290D01*
X029130Y036290D02*
X029130Y035810D01*
X035930Y035810D02*
X035930Y036290D01*
X036930Y036290D02*
X036930Y035810D01*
X037930Y035810D02*
X037930Y036290D01*
X038930Y036290D02*
X038930Y035810D01*
X039930Y035810D02*
X039930Y036290D01*
X040930Y036290D02*
X040930Y035810D01*
X041930Y035810D02*
X041930Y036290D01*
X042930Y036290D02*
X042930Y035810D01*
X043930Y035810D02*
X043930Y036290D01*
X043930Y044470D02*
X043930Y044950D01*
X042930Y044950D02*
X042930Y044470D01*
X041930Y044470D02*
X041930Y044950D01*
X040930Y044950D02*
X040930Y044470D01*
X039930Y044470D02*
X039930Y044950D01*
X038930Y044950D02*
X038930Y044470D01*
X037930Y044470D02*
X037930Y044950D01*
X036930Y044950D02*
X036930Y044470D01*
X035930Y044470D02*
X035930Y044950D01*
X029130Y044950D02*
X029130Y044470D01*
X028130Y044470D02*
X028130Y044950D01*
X027130Y044950D02*
X027130Y044470D01*
X026130Y044470D02*
X026130Y044950D01*
X025130Y044950D02*
X025130Y044470D01*
X024130Y044470D02*
X024130Y044950D01*
X023130Y044950D02*
X023130Y044470D01*
X022130Y044470D02*
X022130Y044950D01*
X021130Y044950D02*
X021130Y044470D01*
X014330Y044470D02*
X014330Y044950D01*
X013330Y044950D02*
X013330Y044470D01*
X012330Y044470D02*
X012330Y044950D01*
X011330Y044950D02*
X011330Y044470D01*
X010330Y044470D02*
X010330Y044950D01*
X009330Y044950D02*
X009330Y044470D01*
X008330Y044470D02*
X008330Y044950D01*
X007330Y044950D02*
X007330Y044470D01*
X006330Y044470D02*
X006330Y044950D01*
D11*
X012130Y010430D03*
X013130Y010430D03*
X017130Y010430D03*
X018130Y010430D03*
X022155Y010430D03*
X023155Y010430D03*
X027130Y010430D03*
X028130Y010430D03*
X032155Y010430D03*
X033155Y010430D03*
X037130Y010430D03*
X038130Y010430D03*
D12*
X013505Y025155D03*
X013505Y026155D03*
X013505Y027155D03*
X013505Y028155D03*
X013505Y029155D03*
X012505Y029155D03*
X012505Y028155D03*
X012505Y027155D03*
X012505Y026155D03*
X012505Y025155D03*
D13*
X023680Y025430D03*
X023680Y024430D03*
X023680Y026430D03*
X023680Y027430D03*
X023680Y028430D03*
X026680Y028430D03*
X026680Y027430D03*
X026680Y026430D03*
X026680Y025430D03*
X026680Y024430D03*
D14*
X003260Y005660D02*
X003260Y047070D01*
X047092Y047070D01*
X047092Y005660D01*
X003260Y005660D01*
X003260Y005747D02*
X047092Y005747D01*
X047092Y005906D02*
X003260Y005906D01*
X003260Y006064D02*
X047092Y006064D01*
X047092Y006223D02*
X003260Y006223D01*
X003260Y006381D02*
X047092Y006381D01*
X047092Y006540D02*
X003260Y006540D01*
X003260Y006698D02*
X047092Y006698D01*
X047092Y006857D02*
X003260Y006857D01*
X003260Y007015D02*
X047092Y007015D01*
X047092Y007174D02*
X003260Y007174D01*
X003260Y007332D02*
X047092Y007332D01*
X047092Y007491D02*
X003260Y007491D01*
X003260Y007649D02*
X047092Y007649D01*
X047092Y007808D02*
X003260Y007808D01*
X003260Y007966D02*
X047092Y007966D01*
X047092Y008125D02*
X003260Y008125D01*
X003260Y008283D02*
X047092Y008283D01*
X047092Y008442D02*
X003260Y008442D01*
X003260Y008600D02*
X047092Y008600D01*
X047092Y008759D02*
X003260Y008759D01*
X003260Y008917D02*
X047092Y008917D01*
X047092Y009076D02*
X003260Y009076D01*
X003260Y009234D02*
X047092Y009234D01*
X047092Y009393D02*
X003260Y009393D01*
X003260Y009551D02*
X047092Y009551D01*
X047092Y009710D02*
X003260Y009710D01*
X003260Y009868D02*
X012381Y009868D01*
X012539Y009710D02*
X036721Y009710D01*
X036850Y009839D01*
X036975Y009964D01*
X037061Y010050D01*
X037287Y010050D01*
X037510Y010273D01*
X037510Y010587D01*
X037287Y010810D01*
X036973Y010810D01*
X036750Y010587D01*
X036750Y010361D01*
X036664Y010275D01*
X036539Y010150D01*
X033412Y010150D01*
X033535Y010273D01*
X033535Y010587D01*
X033312Y010810D01*
X032998Y010810D01*
X032775Y010587D01*
X032775Y010273D01*
X032898Y010150D01*
X032412Y010150D01*
X032535Y010273D01*
X032535Y010587D01*
X032312Y010810D01*
X031998Y010810D01*
X031775Y010587D01*
X031775Y010273D01*
X031898Y010150D01*
X028387Y010150D01*
X028510Y010273D01*
X028510Y010587D01*
X028287Y010810D01*
X027973Y010810D01*
X027750Y010587D01*
X027750Y010273D01*
X027873Y010150D01*
X027387Y010150D01*
X027510Y010273D01*
X027510Y010587D01*
X027287Y010810D01*
X026973Y010810D01*
X026750Y010587D01*
X026750Y010273D01*
X026873Y010150D01*
X023412Y010150D01*
X023535Y010273D01*
X023535Y010587D01*
X023312Y010810D01*
X022998Y010810D01*
X022775Y010587D01*
X022775Y010273D01*
X022898Y010150D01*
X022412Y010150D01*
X022535Y010273D01*
X022535Y010587D01*
X022312Y010810D01*
X021998Y010810D01*
X021775Y010587D01*
X021775Y010273D01*
X021898Y010150D01*
X018387Y010150D01*
X018510Y010273D01*
X018510Y010587D01*
X018287Y010810D01*
X017973Y010810D01*
X017750Y010587D01*
X017750Y010273D01*
X017873Y010150D01*
X017387Y010150D01*
X017510Y010273D01*
X017510Y010587D01*
X017287Y010810D01*
X016973Y010810D01*
X016750Y010587D01*
X016750Y010273D01*
X016873Y010150D01*
X013387Y010150D01*
X013510Y010273D01*
X013510Y010587D01*
X013287Y010810D01*
X012973Y010810D01*
X012750Y010587D01*
X012750Y010273D01*
X012873Y010150D01*
X012721Y010150D01*
X012510Y010361D01*
X012510Y010587D01*
X012287Y010810D01*
X011973Y010810D01*
X011750Y010587D01*
X011750Y010273D01*
X011973Y010050D01*
X012199Y010050D01*
X012539Y009710D01*
X012630Y009930D02*
X012130Y010430D01*
X011838Y010185D02*
X003260Y010185D01*
X003260Y010027D02*
X012222Y010027D01*
X012630Y009930D02*
X036630Y009930D01*
X036755Y010055D01*
X037130Y010430D01*
X037422Y010185D02*
X037838Y010185D01*
X037750Y010273D02*
X037973Y010050D01*
X038287Y010050D01*
X038510Y010273D01*
X038510Y010587D01*
X038287Y010810D01*
X037973Y010810D01*
X037750Y010587D01*
X037750Y010273D01*
X037750Y010344D02*
X037510Y010344D01*
X037510Y010502D02*
X037750Y010502D01*
X037823Y010661D02*
X037437Y010661D01*
X036823Y010661D02*
X033462Y010661D01*
X033535Y010502D02*
X036750Y010502D01*
X036732Y010344D02*
X033535Y010344D01*
X033447Y010185D02*
X036574Y010185D01*
X036879Y009868D02*
X047092Y009868D01*
X047092Y010027D02*
X037038Y010027D01*
X038422Y010185D02*
X047092Y010185D01*
X047092Y010344D02*
X038510Y010344D01*
X038510Y010502D02*
X047092Y010502D01*
X047092Y010661D02*
X038437Y010661D01*
X037312Y014825D02*
X037198Y014825D01*
X037094Y014869D01*
X037042Y014920D01*
X031718Y014920D01*
X031666Y014869D01*
X031562Y014825D01*
X031448Y014825D01*
X031344Y014869D01*
X031292Y014920D01*
X028968Y014920D01*
X028916Y014869D01*
X028812Y014825D01*
X028698Y014825D01*
X028594Y014869D01*
X028542Y014920D01*
X023218Y014920D01*
X023166Y014869D01*
X023062Y014825D01*
X022948Y014825D01*
X022844Y014869D01*
X022792Y014920D01*
X020468Y014920D01*
X020416Y014869D01*
X020312Y014825D01*
X020198Y014825D01*
X020094Y014869D01*
X020042Y014920D01*
X014718Y014920D01*
X014666Y014869D01*
X014562Y014825D01*
X014448Y014825D01*
X014344Y014869D01*
X014292Y014920D01*
X011788Y014920D01*
X011736Y014869D01*
X011631Y014825D01*
X011518Y014825D01*
X011413Y014869D01*
X011333Y014949D01*
X011292Y015049D01*
X011249Y014946D01*
X011169Y014866D01*
X011064Y014823D01*
X010951Y014823D01*
X010846Y014866D01*
X010766Y014946D01*
X010723Y015051D01*
X010723Y015164D01*
X010766Y015269D01*
X010818Y015321D01*
X010818Y018384D01*
X010929Y018495D01*
X010929Y018495D01*
X011114Y018680D01*
X010818Y018976D01*
X010818Y020842D01*
X010766Y020894D01*
X010723Y020998D01*
X010723Y021112D01*
X010766Y021216D01*
X010818Y021268D01*
X010818Y021386D01*
X011065Y021634D01*
X012815Y023384D01*
X012926Y023495D01*
X018812Y023495D01*
X018788Y023519D01*
X018745Y023623D01*
X018745Y023737D01*
X018788Y023841D01*
X018840Y023893D01*
X018840Y030634D01*
X020495Y032289D01*
X020495Y032362D01*
X020538Y032466D01*
X020619Y032547D01*
X020723Y032590D01*
X020734Y032590D01*
X020060Y033264D01*
X020060Y036222D01*
X020038Y036244D01*
X019995Y036348D01*
X019995Y036462D01*
X020015Y036510D01*
X018421Y036510D01*
X017150Y035239D01*
X017021Y035110D01*
X011959Y035110D01*
X011563Y035506D01*
X011545Y035488D01*
X011406Y035430D01*
X011254Y035430D01*
X011115Y035488D01*
X011008Y035595D01*
X010950Y035734D01*
X010950Y036366D01*
X011008Y036505D01*
X011115Y036612D01*
X011254Y036670D01*
X011406Y036670D01*
X011545Y036612D01*
X011652Y036505D01*
X011710Y036366D01*
X011710Y035981D01*
X011950Y035741D01*
X011950Y036366D01*
X012008Y036505D01*
X012115Y036612D01*
X012254Y036670D01*
X012406Y036670D01*
X012545Y036612D01*
X012652Y036505D01*
X012710Y036366D01*
X012710Y035734D01*
X012652Y035595D01*
X012607Y035550D01*
X013053Y035550D01*
X013008Y035595D01*
X012950Y035734D01*
X012950Y036366D01*
X013008Y036505D01*
X013115Y036612D01*
X013254Y036670D01*
X013406Y036670D01*
X013545Y036612D01*
X013563Y036594D01*
X014219Y037250D01*
X022241Y037250D01*
X022897Y036594D01*
X022915Y036612D01*
X023054Y036670D01*
X023206Y036670D01*
X023345Y036612D01*
X023452Y036505D01*
X023510Y036366D01*
X023510Y035734D01*
X023452Y035595D01*
X023345Y035488D01*
X023206Y035430D01*
X023054Y035430D01*
X022915Y035488D01*
X022808Y035595D01*
X022750Y035734D01*
X022750Y036119D01*
X022510Y036359D01*
X022510Y035734D01*
X022452Y035595D01*
X022345Y035488D01*
X022206Y035430D01*
X022061Y035430D01*
X022241Y035250D01*
X023297Y035250D01*
X023319Y035272D01*
X023423Y035315D01*
X023537Y035315D01*
X023641Y035272D01*
X023663Y035250D01*
X024014Y035250D01*
X024194Y035430D01*
X024054Y035430D01*
X023915Y035488D01*
X023808Y035595D01*
X023750Y035734D01*
X023750Y036366D01*
X023808Y036505D01*
X023915Y036612D01*
X024054Y036670D01*
X024206Y036670D01*
X024345Y036612D01*
X024452Y036505D01*
X024510Y036366D01*
X024510Y035746D01*
X024750Y035986D01*
X024750Y036366D01*
X024808Y036505D01*
X024915Y036612D01*
X025054Y036670D01*
X025206Y036670D01*
X025345Y036612D01*
X025363Y036594D01*
X026215Y037446D01*
X026215Y037446D01*
X026344Y037575D01*
X034716Y037575D01*
X035697Y036594D01*
X035715Y036612D01*
X035854Y036670D01*
X036006Y036670D01*
X036145Y036612D01*
X036163Y036594D01*
X036469Y036900D01*
X039391Y036900D01*
X039697Y036594D01*
X039715Y036612D01*
X039854Y036670D01*
X040006Y036670D01*
X040145Y036612D01*
X040252Y036505D01*
X040310Y036366D01*
X040310Y035734D01*
X040252Y035595D01*
X040157Y035500D01*
X040703Y035500D01*
X040608Y035595D01*
X040550Y035734D01*
X040550Y036366D01*
X040608Y036505D01*
X040715Y036612D01*
X040854Y036670D01*
X041006Y036670D01*
X041145Y036612D01*
X041252Y036505D01*
X041310Y036366D01*
X041310Y035734D01*
X041252Y035595D01*
X041157Y035500D01*
X041703Y035500D01*
X041608Y035595D01*
X041550Y035734D01*
X041550Y036366D01*
X041608Y036505D01*
X041715Y036612D01*
X041854Y036670D01*
X042006Y036670D01*
X042145Y036612D01*
X042252Y036505D01*
X042310Y036366D01*
X042310Y035741D01*
X042550Y035981D01*
X042550Y036366D01*
X042608Y036505D01*
X042715Y036612D01*
X042854Y036670D01*
X043006Y036670D01*
X043145Y036612D01*
X043252Y036505D01*
X043310Y036366D01*
X043310Y035734D01*
X043252Y035595D01*
X043145Y035488D01*
X043006Y035430D01*
X042854Y035430D01*
X042715Y035488D01*
X042697Y035506D01*
X042251Y035060D01*
X038589Y035060D01*
X038460Y035189D01*
X038153Y035496D01*
X038145Y035488D01*
X038006Y035430D01*
X037854Y035430D01*
X037715Y035488D01*
X037697Y035506D01*
X036901Y034710D01*
X033789Y034710D01*
X033660Y034839D01*
X031989Y036510D01*
X029447Y036510D01*
X029452Y036505D01*
X029510Y036366D01*
X029510Y035734D01*
X029452Y035595D01*
X029345Y035488D01*
X029206Y035430D01*
X029054Y035430D01*
X028915Y035488D01*
X028808Y035595D01*
X028750Y035734D01*
X028750Y036359D01*
X028510Y036119D01*
X028510Y035734D01*
X028465Y035625D01*
X028721Y035625D01*
X029096Y035250D01*
X029225Y035121D01*
X029225Y033888D01*
X029247Y033866D01*
X029290Y033762D01*
X029290Y033648D01*
X029247Y033544D01*
X029225Y033522D01*
X029225Y027146D01*
X029846Y026525D01*
X031447Y026525D01*
X031469Y026547D01*
X031573Y026590D01*
X031687Y026590D01*
X031791Y026547D01*
X031872Y026466D01*
X031915Y026362D01*
X031915Y026248D01*
X031872Y026144D01*
X031791Y026063D01*
X031687Y026020D01*
X031573Y026020D01*
X031469Y026063D01*
X031447Y026085D01*
X029664Y026085D01*
X029535Y026214D01*
X028785Y026964D01*
X028785Y033522D01*
X028763Y033544D01*
X028720Y033648D01*
X028720Y033762D01*
X028763Y033866D01*
X028785Y033888D01*
X028785Y034939D01*
X028539Y035185D01*
X028520Y035185D01*
X028540Y035137D01*
X028540Y035023D01*
X028497Y034919D01*
X028416Y034838D01*
X028312Y034795D01*
X028198Y034795D01*
X028140Y034819D01*
X028140Y034723D01*
X028097Y034619D01*
X028016Y034538D01*
X027912Y034495D01*
X027881Y034495D01*
X027850Y034464D01*
X027850Y032464D01*
X027721Y032335D01*
X027665Y032279D01*
X027665Y032248D01*
X027622Y032144D01*
X027541Y032063D01*
X027437Y032020D01*
X027351Y032020D01*
X027721Y031650D01*
X027850Y031521D01*
X027850Y028988D01*
X027872Y028966D01*
X027915Y028862D01*
X027915Y028748D01*
X027872Y028644D01*
X027791Y028563D01*
X027687Y028520D01*
X027573Y028520D01*
X027469Y028563D01*
X027388Y028644D01*
X027345Y028748D01*
X027345Y028784D01*
X027104Y028543D01*
X027115Y028517D01*
X027115Y028343D01*
X027049Y028183D01*
X026927Y028061D01*
X026767Y027995D01*
X026593Y027995D01*
X026433Y028061D01*
X026350Y028144D01*
X026350Y028071D01*
X026567Y027854D01*
X026593Y027865D01*
X026767Y027865D01*
X026927Y027799D01*
X027049Y027677D01*
X027115Y027517D01*
X027115Y027343D01*
X027049Y027183D01*
X026927Y027061D01*
X026767Y026995D01*
X026593Y026995D01*
X026433Y027061D01*
X026311Y027183D01*
X026245Y027343D01*
X026245Y027517D01*
X026256Y027543D01*
X026039Y027760D01*
X025910Y027889D01*
X025910Y029864D01*
X025660Y030114D01*
X025660Y031639D01*
X025225Y032074D01*
X025225Y027196D01*
X026567Y025854D01*
X026593Y025865D01*
X026767Y025865D01*
X026927Y025799D01*
X027049Y025677D01*
X027115Y025517D01*
X027115Y025343D01*
X027049Y025183D01*
X026927Y025061D01*
X026767Y024995D01*
X026593Y024995D01*
X026433Y025061D01*
X026311Y025183D01*
X026245Y025343D01*
X026245Y025517D01*
X026256Y025543D01*
X024785Y027014D01*
X024785Y032721D01*
X024744Y032738D01*
X024725Y032757D01*
X024725Y029539D01*
X024146Y028960D01*
X023471Y028960D01*
X023100Y028589D01*
X023100Y026321D01*
X023567Y025854D01*
X023593Y025865D01*
X023767Y025865D01*
X023927Y025799D01*
X024049Y025677D01*
X024115Y025517D01*
X024115Y025343D01*
X024049Y025183D01*
X023927Y025061D01*
X023767Y024995D01*
X023593Y024995D01*
X023433Y025061D01*
X023311Y025183D01*
X023245Y025343D01*
X023245Y025517D01*
X023256Y025543D01*
X022850Y025949D01*
X022850Y025571D01*
X023567Y024854D01*
X023593Y024865D01*
X023767Y024865D01*
X023927Y024799D01*
X024049Y024677D01*
X024115Y024517D01*
X024115Y024343D01*
X024049Y024183D01*
X023927Y024061D01*
X023767Y023995D01*
X023593Y023995D01*
X023433Y024061D01*
X023311Y024183D01*
X023245Y024343D01*
X023245Y024517D01*
X023256Y024543D01*
X022410Y025389D01*
X022410Y028896D01*
X022539Y029025D01*
X023164Y029650D01*
X023539Y029650D01*
X023563Y029674D01*
X023469Y029713D01*
X023388Y029794D01*
X023345Y029898D01*
X023345Y030012D01*
X023359Y030045D01*
X023248Y030045D01*
X023144Y030088D01*
X023063Y030169D01*
X023020Y030273D01*
X023020Y030304D01*
X021065Y032259D01*
X021065Y032248D01*
X021022Y032144D01*
X020941Y032063D01*
X020837Y032020D01*
X020764Y032020D01*
X019220Y030476D01*
X019220Y023893D01*
X019272Y023841D01*
X019315Y023737D01*
X019315Y023623D01*
X019272Y023519D01*
X019248Y023495D01*
X022896Y023495D01*
X021640Y024751D01*
X021640Y029217D01*
X021588Y029269D01*
X021545Y029373D01*
X021545Y029487D01*
X021588Y029591D01*
X021669Y029672D01*
X021773Y029715D01*
X021887Y029715D01*
X021991Y029672D01*
X022072Y029591D01*
X022115Y029487D01*
X022115Y029373D01*
X022072Y029269D01*
X022020Y029217D01*
X022020Y024909D01*
X023170Y023759D01*
X023170Y023759D01*
X023184Y023745D01*
X028857Y023745D01*
X028845Y023773D01*
X028845Y023887D01*
X028888Y023991D01*
X028969Y024072D01*
X029073Y024115D01*
X029187Y024115D01*
X029291Y024072D01*
X029343Y024020D01*
X032351Y024020D01*
X032590Y024259D01*
X032590Y027759D01*
X033215Y028384D01*
X033326Y028495D01*
X034442Y028495D01*
X034494Y028547D01*
X034598Y028590D01*
X034712Y028590D01*
X034816Y028547D01*
X034868Y028495D01*
X040484Y028495D01*
X040595Y028384D01*
X042008Y026970D01*
X042008Y025280D01*
X042060Y025228D01*
X042103Y025123D01*
X042103Y025010D01*
X042060Y024905D01*
X041980Y024825D01*
X041875Y024782D01*
X041762Y024782D01*
X041657Y024825D01*
X041577Y024905D01*
X041533Y025010D01*
X041533Y025123D01*
X041577Y025228D01*
X041628Y025280D01*
X041628Y026813D01*
X040326Y028115D01*
X034868Y028115D01*
X034816Y028063D01*
X034712Y028020D01*
X034598Y028020D01*
X034494Y028063D01*
X034442Y028115D01*
X033484Y028115D01*
X032970Y027601D01*
X032970Y024114D01*
X033670Y024814D01*
X033670Y024887D01*
X033713Y024991D01*
X033794Y025072D01*
X033898Y025115D01*
X034012Y025115D01*
X034090Y025083D01*
X034090Y025501D01*
X033651Y025940D01*
X033540Y026051D01*
X033540Y026667D01*
X033488Y026719D01*
X033445Y026823D01*
X033445Y026937D01*
X033488Y027041D01*
X033569Y027122D01*
X033673Y027165D01*
X033787Y027165D01*
X033891Y027122D01*
X033972Y027041D01*
X033980Y027021D01*
X033988Y027041D01*
X034069Y027122D01*
X034173Y027165D01*
X034287Y027165D01*
X034391Y027122D01*
X034472Y027041D01*
X034480Y027021D01*
X034488Y027041D01*
X034569Y027122D01*
X034673Y027165D01*
X034787Y027165D01*
X034891Y027122D01*
X034972Y027041D01*
X035015Y026937D01*
X035015Y026823D01*
X034972Y026719D01*
X034920Y026667D01*
X034920Y025751D01*
X034845Y025676D01*
X034845Y021151D01*
X034840Y021146D01*
X034840Y021073D01*
X034808Y020995D01*
X036087Y020995D01*
X036063Y021019D01*
X036020Y021123D01*
X036020Y021237D01*
X036063Y021341D01*
X036115Y021393D01*
X036115Y021476D01*
X036021Y021570D01*
X035948Y021570D01*
X035844Y021613D01*
X035763Y021694D01*
X035720Y021798D01*
X035720Y021912D01*
X035763Y022016D01*
X035844Y022097D01*
X035948Y022140D01*
X036062Y022140D01*
X036166Y022097D01*
X036247Y022016D01*
X036290Y021912D01*
X036290Y021839D01*
X036495Y021634D01*
X036495Y021393D01*
X036547Y021341D01*
X036590Y021237D01*
X036590Y021123D01*
X036547Y021019D01*
X036523Y020995D01*
X036642Y020995D01*
X036694Y021047D01*
X036730Y021062D01*
X036726Y021065D01*
X036615Y021176D01*
X036615Y023951D01*
X036546Y024020D01*
X036473Y024020D01*
X036369Y024063D01*
X036288Y024144D01*
X036245Y024248D01*
X036245Y024321D01*
X035701Y024865D01*
X035540Y025026D01*
X035540Y026467D01*
X035488Y026519D01*
X035445Y026623D01*
X035445Y026737D01*
X035488Y026841D01*
X035569Y026922D01*
X035673Y026965D01*
X035787Y026965D01*
X035891Y026922D01*
X035943Y026871D01*
X035994Y026922D01*
X036098Y026965D01*
X036212Y026965D01*
X036316Y026922D01*
X036368Y026871D01*
X036419Y026922D01*
X036523Y026965D01*
X036637Y026965D01*
X036741Y026922D01*
X036792Y026871D01*
X036844Y026922D01*
X036948Y026965D01*
X037062Y026965D01*
X037166Y026922D01*
X037247Y026841D01*
X037290Y026737D01*
X037290Y026623D01*
X037247Y026519D01*
X037195Y026467D01*
X037195Y025409D01*
X037220Y025384D01*
X039820Y022784D01*
X039820Y021018D01*
X039872Y020966D01*
X039915Y020862D01*
X039915Y020748D01*
X039872Y020644D01*
X039791Y020563D01*
X039687Y020520D01*
X039614Y020520D01*
X039459Y020365D01*
X037026Y020365D01*
X036871Y020520D01*
X036798Y020520D01*
X036694Y020563D01*
X036642Y020615D01*
X031718Y020615D01*
X031666Y020563D01*
X031562Y020520D01*
X031448Y020520D01*
X031344Y020563D01*
X031292Y020615D01*
X029068Y020615D01*
X029016Y020563D01*
X028912Y020520D01*
X028798Y020520D01*
X028694Y020563D01*
X028642Y020615D01*
X023318Y020615D01*
X023266Y020563D01*
X023162Y020520D01*
X023048Y020520D01*
X022944Y020563D01*
X022892Y020615D01*
X020468Y020615D01*
X020416Y020563D01*
X020312Y020520D01*
X020198Y020520D01*
X020094Y020563D01*
X020042Y020615D01*
X014718Y020615D01*
X014666Y020563D01*
X014562Y020520D01*
X014448Y020520D01*
X014344Y020563D01*
X014292Y020615D01*
X011968Y020615D01*
X011916Y020563D01*
X011812Y020520D01*
X011698Y020520D01*
X011594Y020563D01*
X011513Y020644D01*
X011470Y020748D01*
X011470Y020862D01*
X011513Y020966D01*
X011594Y021047D01*
X011698Y021090D01*
X011812Y021090D01*
X011916Y021047D01*
X011968Y020995D01*
X013662Y020995D01*
X013638Y021019D01*
X013595Y021123D01*
X013595Y021237D01*
X013638Y021341D01*
X013719Y021422D01*
X013823Y021465D01*
X013896Y021465D01*
X015546Y023115D01*
X013084Y023115D01*
X011334Y021365D01*
X011217Y021249D01*
X011249Y021216D01*
X011293Y021112D01*
X011293Y020998D01*
X011249Y020894D01*
X011198Y020842D01*
X011198Y019134D01*
X011461Y018870D01*
X012037Y018870D01*
X012013Y018894D01*
X011970Y018998D01*
X011970Y019112D01*
X012013Y019216D01*
X012094Y019297D01*
X012198Y019340D01*
X012312Y019340D01*
X012416Y019297D01*
X012468Y019245D01*
X014292Y019245D01*
X014315Y019268D01*
X014315Y019484D01*
X014951Y020120D01*
X020009Y020120D01*
X020789Y019340D01*
X020846Y019340D01*
X020865Y019359D01*
X020976Y019470D01*
X022984Y019470D01*
X023114Y019340D01*
X023146Y019340D01*
X023326Y019520D01*
X029059Y019520D01*
X029170Y019409D01*
X029239Y019340D01*
X029271Y019340D01*
X029315Y019384D01*
X029426Y019495D01*
X031284Y019495D01*
X031342Y019436D01*
X032251Y020345D01*
X036734Y020345D01*
X037739Y019340D01*
X037812Y019340D01*
X037916Y019297D01*
X037968Y019245D01*
X039917Y019245D01*
X039969Y019297D01*
X040073Y019340D01*
X040187Y019340D01*
X040291Y019297D01*
X040372Y019216D01*
X040415Y019112D01*
X040415Y018998D01*
X040372Y018894D01*
X040291Y018813D01*
X040187Y018770D01*
X040073Y018770D01*
X039969Y018813D01*
X039917Y018865D01*
X037968Y018865D01*
X037916Y018813D01*
X037812Y018770D01*
X037698Y018770D01*
X037594Y018813D01*
X037513Y018894D01*
X037470Y018998D01*
X037470Y019071D01*
X036576Y019965D01*
X033248Y019965D01*
X033272Y019941D01*
X033315Y019837D01*
X033315Y019723D01*
X033272Y019619D01*
X033220Y019567D01*
X033220Y018420D01*
X033567Y018420D01*
X033619Y018472D01*
X033723Y018515D01*
X033837Y018515D01*
X033941Y018472D01*
X033968Y018446D01*
X033994Y018472D01*
X034030Y018487D01*
X033821Y018695D01*
X033748Y018695D01*
X033644Y018738D01*
X033563Y018819D01*
X033520Y018923D01*
X033520Y019037D01*
X033563Y019141D01*
X033644Y019222D01*
X033748Y019265D01*
X033862Y019265D01*
X033966Y019222D01*
X033993Y019196D01*
X034019Y019222D01*
X034123Y019265D01*
X034237Y019265D01*
X034341Y019222D01*
X034367Y019196D01*
X034394Y019222D01*
X034498Y019265D01*
X034612Y019265D01*
X034716Y019222D01*
X034797Y019141D01*
X034840Y019037D01*
X034840Y018964D01*
X036113Y017690D01*
X036173Y017715D01*
X036287Y017715D01*
X036318Y017702D01*
X036318Y018134D01*
X036489Y018305D01*
X036318Y018476D01*
X036318Y018820D01*
X036266Y018871D01*
X036223Y018976D01*
X036223Y019089D01*
X036266Y019194D01*
X036346Y019274D01*
X036451Y019318D01*
X036564Y019318D01*
X036669Y019274D01*
X036749Y019194D01*
X036793Y019089D01*
X036793Y018976D01*
X036749Y018871D01*
X036698Y018820D01*
X036698Y018634D01*
X036836Y018495D01*
X040192Y018495D01*
X040244Y018547D01*
X040348Y018590D01*
X040462Y018590D01*
X040566Y018547D01*
X040647Y018466D01*
X040690Y018362D01*
X040690Y018248D01*
X040647Y018144D01*
X040566Y018063D01*
X040462Y018020D01*
X040348Y018020D01*
X040291Y018044D01*
X040315Y017987D01*
X040315Y017873D01*
X040291Y017816D01*
X040348Y017840D01*
X040462Y017840D01*
X040566Y017797D01*
X040647Y017716D01*
X040690Y017612D01*
X040690Y017498D01*
X040647Y017394D01*
X040566Y017313D01*
X040462Y017270D01*
X040348Y017270D01*
X040244Y017313D01*
X040192Y017365D01*
X037351Y017365D01*
X037340Y017376D01*
X037340Y017373D01*
X037297Y017269D01*
X037245Y017217D01*
X037245Y015395D01*
X037312Y015395D01*
X037416Y015352D01*
X037468Y015300D01*
X039472Y015300D01*
X039524Y015352D01*
X039629Y015395D01*
X039742Y015395D01*
X039847Y015352D01*
X039927Y015272D01*
X039970Y015167D01*
X039970Y015054D01*
X039927Y014949D01*
X039847Y014869D01*
X039742Y014825D01*
X039629Y014825D01*
X039524Y014869D01*
X039472Y014920D01*
X037468Y014920D01*
X037416Y014869D01*
X037312Y014825D01*
X037245Y015416D02*
X047092Y015416D01*
X047092Y015574D02*
X037245Y015574D01*
X037245Y015733D02*
X047092Y015733D01*
X047092Y015891D02*
X037245Y015891D01*
X037245Y016050D02*
X047092Y016050D01*
X047092Y016208D02*
X037245Y016208D01*
X037245Y016367D02*
X047092Y016367D01*
X047092Y016525D02*
X037245Y016525D01*
X037245Y016684D02*
X047092Y016684D01*
X047092Y016842D02*
X037245Y016842D01*
X037245Y017001D02*
X047092Y017001D01*
X047092Y017159D02*
X037245Y017159D01*
X037317Y017318D02*
X040239Y017318D01*
X040571Y017318D02*
X047092Y017318D01*
X047092Y017476D02*
X040681Y017476D01*
X040681Y017635D02*
X047092Y017635D01*
X047092Y017793D02*
X040570Y017793D01*
X040315Y017952D02*
X047092Y017952D01*
X047092Y018110D02*
X040613Y018110D01*
X040690Y018269D02*
X047092Y018269D01*
X047092Y018427D02*
X040663Y018427D01*
X040473Y018586D02*
X047092Y018586D01*
X047092Y018744D02*
X036698Y018744D01*
X036746Y018586D02*
X040337Y018586D01*
X040375Y018903D02*
X047092Y018903D01*
X047092Y019061D02*
X040415Y019061D01*
X040369Y019220D02*
X047092Y019220D01*
X047092Y019378D02*
X037701Y019378D01*
X037542Y019537D02*
X047092Y019537D01*
X047092Y019695D02*
X037384Y019695D01*
X037225Y019854D02*
X047092Y019854D01*
X047092Y020012D02*
X037067Y020012D01*
X036908Y020171D02*
X047092Y020171D01*
X047092Y020329D02*
X036750Y020329D01*
X036904Y020488D02*
X011198Y020488D01*
X011198Y020646D02*
X011512Y020646D01*
X011470Y020805D02*
X011198Y020805D01*
X011278Y020963D02*
X011512Y020963D01*
X011289Y021122D02*
X013596Y021122D01*
X013613Y021280D02*
X011249Y021280D01*
X011407Y021439D02*
X013759Y021439D01*
X014028Y021597D02*
X011566Y021597D01*
X011724Y021756D02*
X014187Y021756D01*
X014345Y021914D02*
X011883Y021914D01*
X012041Y022073D02*
X014504Y022073D01*
X014662Y022231D02*
X012200Y022231D01*
X012358Y022390D02*
X014821Y022390D01*
X014979Y022548D02*
X012517Y022548D01*
X012675Y022707D02*
X015138Y022707D01*
X015296Y022865D02*
X012834Y022865D01*
X012992Y023024D02*
X015455Y023024D01*
X015675Y022707D02*
X016913Y022707D01*
X017065Y022859D02*
X016590Y022384D01*
X016590Y022226D01*
X016590Y021393D01*
X016538Y021341D01*
X016495Y021237D01*
X016495Y021123D01*
X016538Y021019D01*
X016562Y020995D01*
X014718Y020995D01*
X014666Y021047D01*
X014562Y021090D01*
X014448Y021090D01*
X014344Y021047D01*
X014292Y020995D01*
X014098Y020995D01*
X014122Y021019D01*
X014165Y021123D01*
X014165Y021196D01*
X015834Y022865D01*
X017071Y022865D01*
X017065Y022859D01*
X017334Y022590D02*
X016970Y022226D01*
X016970Y021393D01*
X017022Y021341D01*
X017065Y021237D01*
X017065Y021123D01*
X017022Y021019D01*
X016998Y020995D01*
X019412Y020995D01*
X019388Y021019D01*
X019345Y021123D01*
X019345Y021237D01*
X019388Y021341D01*
X019469Y021422D01*
X019573Y021465D01*
X019646Y021465D01*
X020676Y022495D01*
X020573Y022495D01*
X020469Y022538D01*
X020417Y022590D01*
X017334Y022590D01*
X017292Y022548D02*
X020459Y022548D01*
X020571Y022390D02*
X017133Y022390D01*
X016975Y022231D02*
X020412Y022231D01*
X020254Y022073D02*
X016970Y022073D01*
X016970Y021914D02*
X020095Y021914D01*
X019937Y021756D02*
X016970Y021756D01*
X016970Y021597D02*
X019778Y021597D01*
X019509Y021439D02*
X016970Y021439D01*
X017047Y021280D02*
X019363Y021280D01*
X019346Y021122D02*
X017064Y021122D01*
X016496Y021122D02*
X014164Y021122D01*
X014249Y021280D02*
X016513Y021280D01*
X016590Y021439D02*
X014407Y021439D01*
X014566Y021597D02*
X016590Y021597D01*
X016590Y021756D02*
X014724Y021756D01*
X014883Y021914D02*
X016590Y021914D01*
X016590Y022073D02*
X015041Y022073D01*
X015200Y022231D02*
X016590Y022231D01*
X016596Y022390D02*
X015358Y022390D01*
X015517Y022548D02*
X016754Y022548D01*
X018808Y023499D02*
X003260Y023499D01*
X003260Y023341D02*
X012772Y023341D01*
X012613Y023182D02*
X003260Y023182D01*
X003260Y023024D02*
X012455Y023024D01*
X012296Y022865D02*
X003260Y022865D01*
X003260Y022707D02*
X012138Y022707D01*
X011979Y022548D02*
X003260Y022548D01*
X003260Y022390D02*
X011821Y022390D01*
X011662Y022231D02*
X003260Y022231D01*
X003260Y022073D02*
X011504Y022073D01*
X011345Y021914D02*
X003260Y021914D01*
X003260Y021756D02*
X011187Y021756D01*
X011028Y021597D02*
X003260Y021597D01*
X003260Y021439D02*
X010870Y021439D01*
X010818Y021280D02*
X003260Y021280D01*
X003260Y021122D02*
X010727Y021122D01*
X010737Y020963D02*
X003260Y020963D01*
X003260Y020805D02*
X010818Y020805D01*
X010818Y020646D02*
X003260Y020646D01*
X003260Y020488D02*
X010818Y020488D01*
X010818Y020329D02*
X003260Y020329D01*
X003260Y020171D02*
X010818Y020171D01*
X010818Y020012D02*
X003260Y020012D01*
X003260Y019854D02*
X010818Y019854D01*
X010818Y019695D02*
X003260Y019695D01*
X003260Y019537D02*
X010818Y019537D01*
X010818Y019378D02*
X003260Y019378D01*
X003260Y019220D02*
X010818Y019220D01*
X010818Y019061D02*
X003260Y019061D01*
X003260Y018903D02*
X010892Y018903D01*
X011050Y018744D02*
X003260Y018744D01*
X003260Y018586D02*
X011020Y018586D01*
X010861Y018427D02*
X003260Y018427D01*
X003260Y018269D02*
X010818Y018269D01*
X010818Y018110D02*
X003260Y018110D01*
X003260Y017952D02*
X010818Y017952D01*
X010818Y017793D02*
X003260Y017793D01*
X003260Y017635D02*
X010818Y017635D01*
X010818Y017476D02*
X003260Y017476D01*
X003260Y017318D02*
X010818Y017318D01*
X010818Y017159D02*
X003260Y017159D01*
X003260Y017001D02*
X010818Y017001D01*
X010818Y016842D02*
X003260Y016842D01*
X003260Y016684D02*
X010818Y016684D01*
X010818Y016525D02*
X003260Y016525D01*
X003260Y016367D02*
X010818Y016367D01*
X010818Y016208D02*
X003260Y016208D01*
X003260Y016050D02*
X010818Y016050D01*
X010818Y015891D02*
X003260Y015891D01*
X003260Y015733D02*
X010818Y015733D01*
X010818Y015574D02*
X003260Y015574D01*
X003260Y015416D02*
X010818Y015416D01*
X010761Y015257D02*
X003260Y015257D01*
X003260Y015099D02*
X010723Y015099D01*
X010772Y014940D02*
X003260Y014940D01*
X003260Y014782D02*
X047092Y014782D01*
X047092Y014940D02*
X039918Y014940D01*
X039970Y015099D02*
X047092Y015099D01*
X047092Y015257D02*
X039933Y015257D01*
X036865Y015300D02*
X031718Y015300D01*
X031666Y015352D01*
X031562Y015395D01*
X031448Y015395D01*
X031344Y015352D01*
X031292Y015300D01*
X028968Y015300D01*
X028916Y015352D01*
X028812Y015395D01*
X028698Y015395D01*
X028594Y015352D01*
X028542Y015300D01*
X023218Y015300D01*
X023166Y015352D01*
X023062Y015395D01*
X022948Y015395D01*
X022844Y015352D01*
X022792Y015300D01*
X020468Y015300D01*
X020416Y015352D01*
X020312Y015395D01*
X020198Y015395D01*
X020094Y015352D01*
X020042Y015300D01*
X014718Y015300D01*
X014666Y015352D01*
X014562Y015395D01*
X014448Y015395D01*
X014344Y015352D01*
X014292Y015300D01*
X011788Y015300D01*
X011736Y015352D01*
X011631Y015395D01*
X011518Y015395D01*
X011413Y015352D01*
X011333Y015272D01*
X011291Y015169D01*
X011249Y015269D01*
X011198Y015321D01*
X011198Y018226D01*
X011461Y018490D01*
X014659Y018490D01*
X014939Y018770D01*
X015012Y018770D01*
X015116Y018813D01*
X015197Y018894D01*
X015240Y018998D01*
X015240Y019112D01*
X015197Y019216D01*
X015116Y019297D01*
X015012Y019340D01*
X014898Y019340D01*
X014794Y019297D01*
X014730Y019233D01*
X014695Y019268D01*
X014695Y019326D01*
X015109Y019740D01*
X015377Y019740D01*
X015345Y019662D01*
X015345Y019548D01*
X015388Y019444D01*
X015440Y019392D01*
X015440Y018734D01*
X015201Y018495D01*
X015168Y018495D01*
X015116Y018547D01*
X015012Y018590D01*
X014898Y018590D01*
X014794Y018547D01*
X014713Y018466D01*
X014670Y018362D01*
X014670Y018248D01*
X014713Y018144D01*
X014794Y018063D01*
X014898Y018020D01*
X015012Y018020D01*
X015116Y018063D01*
X015168Y018115D01*
X015201Y018115D01*
X015440Y017876D01*
X015440Y017509D01*
X014971Y017040D01*
X014898Y017040D01*
X014845Y017018D01*
X014845Y017176D01*
X014939Y017270D01*
X015012Y017270D01*
X015116Y017313D01*
X015197Y017394D01*
X015240Y017498D01*
X015240Y017612D01*
X015197Y017716D01*
X015116Y017797D01*
X015012Y017840D01*
X014898Y017840D01*
X014794Y017797D01*
X014713Y017716D01*
X014670Y017612D01*
X014670Y017539D01*
X014465Y017334D01*
X014465Y016576D01*
X014576Y016465D01*
X014751Y016290D01*
X015159Y016290D01*
X015234Y016365D01*
X015437Y016365D01*
X015413Y016341D01*
X015370Y016237D01*
X015370Y016123D01*
X015413Y016019D01*
X015494Y015938D01*
X015598Y015895D01*
X015712Y015895D01*
X015816Y015938D01*
X015868Y015990D01*
X021734Y015990D01*
X021845Y016101D01*
X022194Y016451D01*
X022201Y016448D01*
X022314Y016448D01*
X022419Y016491D01*
X022499Y016571D01*
X022543Y016676D01*
X022543Y016789D01*
X022499Y016894D01*
X022448Y016946D01*
X022448Y018770D01*
X022497Y018819D01*
X022540Y018923D01*
X022540Y019037D01*
X022518Y019090D01*
X022826Y019090D01*
X022845Y019071D01*
X022845Y018998D01*
X022888Y018894D01*
X022969Y018813D01*
X023073Y018770D01*
X023187Y018770D01*
X023291Y018813D01*
X023330Y018852D01*
X023340Y018842D01*
X023340Y018518D01*
X023288Y018466D01*
X023245Y018362D01*
X023245Y018248D01*
X023288Y018144D01*
X023340Y018092D01*
X023340Y017768D01*
X023288Y017716D01*
X023245Y017612D01*
X023245Y017498D01*
X023288Y017394D01*
X023340Y017342D01*
X023340Y017018D01*
X023288Y016966D01*
X023245Y016862D01*
X023245Y016748D01*
X023288Y016644D01*
X023369Y016563D01*
X023473Y016520D01*
X023587Y016520D01*
X023691Y016563D01*
X023772Y016644D01*
X023815Y016748D01*
X023815Y016862D01*
X023772Y016966D01*
X023720Y017018D01*
X023720Y017342D01*
X023772Y017394D01*
X023815Y017498D01*
X023815Y017612D01*
X023772Y017716D01*
X023720Y017768D01*
X023720Y018092D01*
X023772Y018144D01*
X023815Y018248D01*
X023815Y018362D01*
X023772Y018466D01*
X023720Y018518D01*
X023720Y018842D01*
X023772Y018894D01*
X023815Y018998D01*
X023815Y019112D01*
X023803Y019140D01*
X025132Y019140D01*
X025120Y019112D01*
X025120Y018998D01*
X025163Y018894D01*
X025215Y018842D01*
X025215Y018518D01*
X025163Y018466D01*
X025120Y018362D01*
X025120Y018248D01*
X025163Y018144D01*
X025244Y018063D01*
X025348Y018020D01*
X025462Y018020D01*
X025566Y018063D01*
X025590Y018087D01*
X025590Y017768D01*
X025538Y017716D01*
X025495Y017612D01*
X025495Y017498D01*
X025538Y017394D01*
X025619Y017313D01*
X025723Y017270D01*
X025837Y017270D01*
X025941Y017313D01*
X025965Y017337D01*
X025965Y017018D01*
X025913Y016966D01*
X025870Y016862D01*
X025870Y016748D01*
X025913Y016644D01*
X025994Y016563D01*
X026098Y016520D01*
X026212Y016520D01*
X026316Y016563D01*
X026397Y016644D01*
X026440Y016748D01*
X026440Y016862D01*
X026397Y016966D01*
X026345Y017018D01*
X026345Y018842D01*
X026397Y018894D01*
X026440Y018998D01*
X026440Y019112D01*
X026428Y019140D01*
X027763Y019140D01*
X027720Y019037D01*
X027720Y018923D01*
X027763Y018819D01*
X027815Y018767D01*
X027815Y018376D01*
X027926Y018265D01*
X027926Y018265D01*
X028011Y018180D01*
X027815Y017984D01*
X027815Y016968D01*
X027763Y016916D01*
X027720Y016812D01*
X027720Y016698D01*
X027763Y016594D01*
X027844Y016513D01*
X027948Y016470D01*
X028062Y016470D01*
X028166Y016513D01*
X028247Y016594D01*
X028290Y016698D01*
X028290Y016812D01*
X028247Y016916D01*
X028195Y016968D01*
X028195Y017826D01*
X028359Y017990D01*
X029042Y017990D01*
X029094Y017938D01*
X029198Y017895D01*
X029312Y017895D01*
X029416Y017938D01*
X029497Y018019D01*
X029540Y018123D01*
X029540Y018237D01*
X029497Y018341D01*
X029416Y018422D01*
X029312Y018465D01*
X029198Y018465D01*
X029094Y018422D01*
X029042Y018370D01*
X028359Y018370D01*
X028195Y018534D01*
X028195Y018767D01*
X028247Y018819D01*
X028290Y018923D01*
X028290Y019037D01*
X028247Y019140D01*
X028901Y019140D01*
X028970Y019071D01*
X028970Y018998D01*
X029013Y018894D01*
X029094Y018813D01*
X029198Y018770D01*
X029312Y018770D01*
X029416Y018813D01*
X029497Y018894D01*
X029540Y018998D01*
X029540Y019071D01*
X029584Y019115D01*
X030494Y019115D01*
X030473Y019064D01*
X030473Y018951D01*
X030516Y018846D01*
X030568Y018795D01*
X030568Y018249D01*
X030870Y017946D01*
X030870Y017914D01*
X030568Y017611D01*
X030568Y016971D01*
X030516Y016919D01*
X030473Y016814D01*
X030473Y016701D01*
X030516Y016596D01*
X030596Y016516D01*
X030701Y016473D01*
X030814Y016473D01*
X030919Y016516D01*
X030999Y016596D01*
X031043Y016701D01*
X031043Y016814D01*
X030999Y016919D01*
X030948Y016971D01*
X030948Y017454D01*
X031139Y017645D01*
X031212Y017645D01*
X031240Y017657D01*
X031240Y016201D01*
X031740Y015701D01*
X031851Y015590D01*
X033709Y015590D01*
X034209Y016090D01*
X034345Y016226D01*
X034345Y018017D01*
X034397Y018069D01*
X034412Y018105D01*
X035666Y016850D01*
X035656Y016826D01*
X035656Y016712D01*
X035699Y016608D01*
X035779Y016528D01*
X035884Y016484D01*
X035998Y016484D01*
X036102Y016528D01*
X036182Y016608D01*
X036223Y016705D01*
X036223Y016701D01*
X036266Y016596D01*
X036346Y016516D01*
X036451Y016473D01*
X036564Y016473D01*
X036669Y016516D01*
X036749Y016596D01*
X036793Y016701D01*
X036793Y016814D01*
X036749Y016919D01*
X036698Y016971D01*
X036698Y017976D01*
X036836Y018115D01*
X036837Y018115D01*
X036813Y018091D01*
X036770Y017987D01*
X036770Y017873D01*
X036813Y017769D01*
X036894Y017688D01*
X036914Y017680D01*
X036894Y017672D01*
X036813Y017591D01*
X036770Y017487D01*
X036770Y017373D01*
X036813Y017269D01*
X036865Y017217D01*
X036865Y015300D01*
X036865Y015416D02*
X011198Y015416D01*
X011198Y015574D02*
X036865Y015574D01*
X036865Y015733D02*
X033851Y015733D01*
X034010Y015891D02*
X036865Y015891D01*
X036865Y016050D02*
X034168Y016050D01*
X034327Y016208D02*
X036865Y016208D01*
X036865Y016367D02*
X034345Y016367D01*
X034345Y016525D02*
X035786Y016525D01*
X035668Y016684D02*
X034345Y016684D01*
X034345Y016842D02*
X035663Y016842D01*
X035516Y017001D02*
X034345Y017001D01*
X034345Y017159D02*
X035357Y017159D01*
X035199Y017318D02*
X034345Y017318D01*
X034345Y017476D02*
X035040Y017476D01*
X034882Y017635D02*
X034345Y017635D01*
X034345Y017793D02*
X034723Y017793D01*
X034565Y017952D02*
X034345Y017952D01*
X033931Y018586D02*
X033220Y018586D01*
X033220Y018744D02*
X033638Y018744D01*
X033529Y018903D02*
X033220Y018903D01*
X033220Y019061D02*
X033530Y019061D01*
X033641Y019220D02*
X033220Y019220D01*
X033220Y019378D02*
X037163Y019378D01*
X037005Y019537D02*
X033220Y019537D01*
X033303Y019695D02*
X036846Y019695D01*
X036688Y019854D02*
X033308Y019854D01*
X033969Y019220D02*
X034016Y019220D01*
X034344Y019220D02*
X034391Y019220D01*
X034719Y019220D02*
X036291Y019220D01*
X036223Y019061D02*
X034830Y019061D01*
X034901Y018903D02*
X036253Y018903D01*
X036318Y018744D02*
X035060Y018744D01*
X035218Y018586D02*
X036318Y018586D01*
X036367Y018427D02*
X035377Y018427D01*
X035535Y018269D02*
X036453Y018269D01*
X036318Y018110D02*
X035694Y018110D01*
X035852Y017952D02*
X036318Y017952D01*
X036318Y017793D02*
X036011Y017793D01*
X036698Y017793D02*
X036803Y017793D01*
X036770Y017952D02*
X036698Y017952D01*
X036831Y018110D02*
X036832Y018110D01*
X036856Y017635D02*
X036698Y017635D01*
X036698Y017476D02*
X036770Y017476D01*
X036793Y017318D02*
X036698Y017318D01*
X036698Y017159D02*
X036865Y017159D01*
X036865Y017001D02*
X036698Y017001D01*
X036781Y016842D02*
X036865Y016842D01*
X036865Y016684D02*
X036785Y016684D01*
X036865Y016525D02*
X036678Y016525D01*
X036337Y016525D02*
X036096Y016525D01*
X036214Y016684D02*
X036230Y016684D01*
X033965Y016563D02*
X033965Y016384D01*
X033940Y016359D01*
X033551Y015970D01*
X032009Y015970D01*
X031620Y016359D01*
X031620Y017992D01*
X031672Y018044D01*
X031698Y018108D01*
X031715Y018092D01*
X031715Y017768D01*
X031663Y017716D01*
X031620Y017612D01*
X031620Y017498D01*
X031663Y017394D01*
X031715Y017342D01*
X031715Y017018D01*
X031663Y016966D01*
X031620Y016862D01*
X031620Y016748D01*
X031663Y016644D01*
X031744Y016563D01*
X031848Y016520D01*
X031962Y016520D01*
X032066Y016563D01*
X032147Y016644D01*
X032190Y016748D01*
X032190Y016862D01*
X032147Y016966D01*
X032095Y017018D01*
X032095Y017342D01*
X032147Y017394D01*
X032190Y017498D01*
X032190Y017612D01*
X032147Y017716D01*
X032095Y017768D01*
X032095Y018092D01*
X032147Y018144D01*
X032190Y018248D01*
X032190Y018362D01*
X032170Y018410D01*
X032170Y018767D01*
X032222Y018819D01*
X032240Y018863D01*
X032240Y017151D01*
X032351Y017040D01*
X032776Y016615D01*
X033592Y016615D01*
X033644Y016563D01*
X033748Y016520D01*
X033862Y016520D01*
X033965Y016563D01*
X033965Y016525D02*
X033874Y016525D01*
X033736Y016525D02*
X031974Y016525D01*
X031836Y016525D02*
X031620Y016525D01*
X031620Y016367D02*
X033948Y016367D01*
X033789Y016208D02*
X031771Y016208D01*
X031929Y016050D02*
X033631Y016050D01*
X032708Y016684D02*
X032163Y016684D01*
X032190Y016842D02*
X032549Y016842D01*
X032391Y017001D02*
X032113Y017001D01*
X032095Y017159D02*
X032240Y017159D01*
X032240Y017318D02*
X032095Y017318D01*
X032181Y017476D02*
X032240Y017476D01*
X032240Y017635D02*
X032181Y017635D01*
X032240Y017793D02*
X032095Y017793D01*
X032095Y017952D02*
X032240Y017952D01*
X032240Y018110D02*
X032113Y018110D01*
X032190Y018269D02*
X032240Y018269D01*
X032240Y018427D02*
X032170Y018427D01*
X032170Y018586D02*
X032240Y018586D01*
X032240Y018744D02*
X032170Y018744D01*
X031443Y019537D02*
X020592Y019537D01*
X020434Y019695D02*
X031601Y019695D01*
X031760Y019854D02*
X020275Y019854D01*
X020117Y020012D02*
X031918Y020012D01*
X032077Y020171D02*
X011198Y020171D01*
X011198Y020329D02*
X032235Y020329D01*
X031718Y020995D02*
X031666Y021047D01*
X031562Y021090D01*
X031448Y021090D01*
X031344Y021047D01*
X031292Y020995D01*
X029068Y020995D01*
X029016Y021047D01*
X028912Y021090D01*
X028798Y021090D01*
X028694Y021047D01*
X028642Y020995D01*
X028348Y020995D01*
X028372Y021019D01*
X028415Y021123D01*
X028415Y021196D01*
X029334Y022115D01*
X031546Y022115D01*
X031440Y022009D01*
X030996Y021565D01*
X030923Y021565D01*
X030819Y021522D01*
X030738Y021441D01*
X030695Y021337D01*
X030695Y021223D01*
X030738Y021119D01*
X030819Y021038D01*
X030923Y020995D01*
X031037Y020995D01*
X031141Y021038D01*
X031222Y021119D01*
X031265Y021223D01*
X031265Y021296D01*
X031709Y021740D01*
X031812Y021740D01*
X031788Y021716D01*
X031745Y021612D01*
X031745Y021498D01*
X031788Y021394D01*
X031869Y021313D01*
X031973Y021270D01*
X032087Y021270D01*
X032191Y021313D01*
X032243Y021365D01*
X033592Y021365D01*
X033614Y021343D01*
X033563Y021291D01*
X033520Y021187D01*
X033520Y021073D01*
X033552Y020995D01*
X031718Y020995D01*
X031949Y021280D02*
X031265Y021280D01*
X031223Y021122D02*
X033520Y021122D01*
X033559Y021280D02*
X032111Y021280D01*
X031770Y021439D02*
X031407Y021439D01*
X031566Y021597D02*
X031745Y021597D01*
X031345Y021914D02*
X029133Y021914D01*
X029291Y022073D02*
X031504Y022073D01*
X031187Y021756D02*
X028974Y021756D01*
X028816Y021597D02*
X031028Y021597D01*
X030737Y021439D02*
X028657Y021439D01*
X028499Y021280D02*
X030695Y021280D01*
X030737Y021122D02*
X028414Y021122D01*
X028146Y021465D02*
X028073Y021465D01*
X027969Y021422D01*
X027888Y021341D01*
X027845Y021237D01*
X027845Y021123D01*
X027888Y021019D01*
X027912Y020995D01*
X026373Y020995D01*
X026397Y021019D01*
X026440Y021123D01*
X026440Y021237D01*
X026397Y021341D01*
X026345Y021393D01*
X026345Y021842D01*
X026397Y021894D01*
X026440Y021998D01*
X026440Y022112D01*
X026397Y022216D01*
X026316Y022297D01*
X026212Y022340D01*
X026098Y022340D01*
X025994Y022297D01*
X025968Y022271D01*
X025941Y022297D01*
X025837Y022340D01*
X025723Y022340D01*
X025619Y022297D01*
X025592Y022271D01*
X025566Y022297D01*
X025462Y022340D01*
X025348Y022340D01*
X025244Y022297D01*
X025163Y022216D01*
X025120Y022112D01*
X025120Y021998D01*
X025163Y021894D01*
X025215Y021842D01*
X025215Y021393D01*
X025163Y021341D01*
X025120Y021237D01*
X025120Y021123D01*
X025163Y021019D01*
X025187Y020995D01*
X025025Y020995D01*
X025060Y021030D01*
X025103Y021135D01*
X025103Y021248D01*
X025060Y021353D01*
X025008Y021405D01*
X025008Y021829D01*
X025060Y021880D01*
X025103Y021985D01*
X025103Y022098D01*
X025060Y022203D01*
X024980Y022283D01*
X024875Y022327D01*
X024762Y022327D01*
X024657Y022283D01*
X024577Y022203D01*
X024533Y022098D01*
X024533Y021985D01*
X024577Y021880D01*
X024628Y021829D01*
X024628Y021405D01*
X024577Y021353D01*
X024533Y021248D01*
X024533Y021135D01*
X024577Y021030D01*
X024612Y020995D01*
X024076Y020995D01*
X024153Y021027D01*
X024233Y021107D01*
X024277Y021212D01*
X024277Y021325D01*
X024233Y021430D01*
X024182Y021481D01*
X024182Y021630D01*
X024233Y021682D01*
X024277Y021787D01*
X024277Y021900D01*
X024233Y022005D01*
X024153Y022085D01*
X024048Y022128D01*
X023935Y022128D01*
X023830Y022085D01*
X023750Y022005D01*
X023707Y021900D01*
X023707Y021787D01*
X023750Y021682D01*
X023802Y021630D01*
X023802Y021481D01*
X023750Y021430D01*
X023707Y021325D01*
X023707Y021212D01*
X023750Y021107D01*
X023830Y021027D01*
X023907Y020995D01*
X023318Y020995D01*
X023266Y021047D01*
X023162Y021090D01*
X023048Y021090D01*
X022944Y021047D01*
X022892Y020995D01*
X020468Y020995D01*
X020416Y021047D01*
X020312Y021090D01*
X020198Y021090D01*
X020094Y021047D01*
X020042Y020995D01*
X019848Y020995D01*
X019872Y021019D01*
X019915Y021123D01*
X019915Y021196D01*
X021334Y022615D01*
X023646Y022615D01*
X022596Y021565D01*
X022523Y021565D01*
X022419Y021522D01*
X022338Y021441D01*
X022295Y021337D01*
X022295Y021223D01*
X022338Y021119D01*
X022419Y021038D01*
X022523Y020995D01*
X022637Y020995D01*
X022741Y021038D01*
X022822Y021119D01*
X022865Y021223D01*
X022865Y021296D01*
X023934Y022365D01*
X029046Y022365D01*
X028146Y021465D01*
X028009Y021439D02*
X026345Y021439D01*
X026345Y021597D02*
X028278Y021597D01*
X028437Y021756D02*
X026345Y021756D01*
X026405Y021914D02*
X028595Y021914D01*
X028754Y022073D02*
X026440Y022073D01*
X026382Y022231D02*
X028912Y022231D01*
X027863Y021280D02*
X026422Y021280D01*
X026439Y021122D02*
X027846Y021122D01*
X027730Y019061D02*
X026440Y019061D01*
X026400Y018903D02*
X027729Y018903D01*
X027815Y018744D02*
X026345Y018744D01*
X026345Y018586D02*
X027815Y018586D01*
X027815Y018427D02*
X026345Y018427D01*
X026345Y018269D02*
X027923Y018269D01*
X027941Y018110D02*
X026345Y018110D01*
X026345Y017952D02*
X027815Y017952D01*
X027815Y017793D02*
X026345Y017793D01*
X026345Y017635D02*
X027815Y017635D01*
X027815Y017476D02*
X026345Y017476D01*
X026345Y017318D02*
X027815Y017318D01*
X027815Y017159D02*
X026345Y017159D01*
X026363Y017001D02*
X027815Y017001D01*
X027733Y016842D02*
X026440Y016842D01*
X026413Y016684D02*
X027726Y016684D01*
X027832Y016525D02*
X026224Y016525D01*
X026086Y016525D02*
X023599Y016525D01*
X023461Y016525D02*
X022453Y016525D01*
X022543Y016684D02*
X023272Y016684D01*
X023245Y016842D02*
X022521Y016842D01*
X022448Y017001D02*
X023322Y017001D01*
X023340Y017159D02*
X022448Y017159D01*
X022448Y017318D02*
X023340Y017318D01*
X023254Y017476D02*
X022448Y017476D01*
X022448Y017635D02*
X023254Y017635D01*
X023340Y017793D02*
X022448Y017793D01*
X022448Y017952D02*
X023340Y017952D01*
X023322Y018110D02*
X022448Y018110D01*
X022448Y018269D02*
X023245Y018269D01*
X023272Y018427D02*
X022448Y018427D01*
X022448Y018586D02*
X023340Y018586D01*
X023340Y018744D02*
X022448Y018744D01*
X022531Y018903D02*
X022885Y018903D01*
X022845Y019061D02*
X022530Y019061D01*
X021992Y019090D02*
X021970Y019037D01*
X021970Y018923D01*
X022013Y018819D01*
X022068Y018764D01*
X022068Y016946D01*
X022016Y016894D01*
X021973Y016789D01*
X021973Y016766D01*
X021576Y016370D01*
X016989Y016370D01*
X017095Y016476D01*
X017159Y016540D01*
X019292Y016540D01*
X019344Y016488D01*
X019448Y016445D01*
X019562Y016445D01*
X019666Y016488D01*
X019747Y016569D01*
X019790Y016673D01*
X019790Y016787D01*
X019747Y016891D01*
X019695Y016943D01*
X019695Y018767D01*
X019747Y018819D01*
X019790Y018923D01*
X019790Y019037D01*
X019747Y019141D01*
X019666Y019222D01*
X019562Y019265D01*
X019448Y019265D01*
X019344Y019222D01*
X019263Y019141D01*
X019220Y019037D01*
X019220Y018923D01*
X019263Y018819D01*
X019315Y018767D01*
X019315Y016943D01*
X019292Y016920D01*
X017065Y016920D01*
X017065Y016962D01*
X017022Y017066D01*
X016970Y017118D01*
X016970Y017592D01*
X017022Y017644D01*
X017065Y017748D01*
X017065Y017862D01*
X017022Y017966D01*
X016970Y018018D01*
X016970Y019217D01*
X017022Y019269D01*
X017065Y019373D01*
X017065Y019487D01*
X017022Y019591D01*
X016941Y019672D01*
X016837Y019715D01*
X016723Y019715D01*
X016619Y019672D01*
X016538Y019591D01*
X016495Y019487D01*
X016495Y019373D01*
X016538Y019269D01*
X016590Y019217D01*
X016590Y018018D01*
X016538Y017966D01*
X016495Y017862D01*
X016495Y017748D01*
X016538Y017644D01*
X016590Y017592D01*
X016590Y017118D01*
X016538Y017066D01*
X016495Y016962D01*
X016495Y016848D01*
X016538Y016745D01*
X015240Y016745D01*
X015240Y016771D01*
X015820Y017351D01*
X015820Y018034D01*
X015549Y018305D01*
X015820Y018576D01*
X015820Y019392D01*
X015872Y019444D01*
X015915Y019548D01*
X015915Y019662D01*
X015883Y019740D01*
X019851Y019740D01*
X020520Y019071D01*
X020520Y018998D01*
X020563Y018894D01*
X020644Y018813D01*
X020748Y018770D01*
X020862Y018770D01*
X020966Y018813D01*
X021047Y018894D01*
X021090Y018998D01*
X021090Y019046D01*
X021134Y019090D01*
X021992Y019090D01*
X021980Y019061D02*
X021105Y019061D01*
X021050Y018903D02*
X021979Y018903D01*
X022068Y018744D02*
X019695Y018744D01*
X019695Y018586D02*
X022068Y018586D01*
X022068Y018427D02*
X019695Y018427D01*
X019695Y018269D02*
X022068Y018269D01*
X022068Y018110D02*
X019695Y018110D01*
X019695Y017952D02*
X022068Y017952D01*
X022068Y017793D02*
X019695Y017793D01*
X019695Y017635D02*
X022068Y017635D01*
X022068Y017476D02*
X019695Y017476D01*
X019695Y017318D02*
X022068Y017318D01*
X022068Y017159D02*
X019695Y017159D01*
X019695Y017001D02*
X022068Y017001D01*
X021995Y016842D02*
X019767Y016842D01*
X019790Y016684D02*
X021890Y016684D01*
X021731Y016525D02*
X019703Y016525D01*
X019307Y016525D02*
X017144Y016525D01*
X017049Y017001D02*
X019315Y017001D01*
X019315Y017159D02*
X016970Y017159D01*
X016970Y017318D02*
X019315Y017318D01*
X019315Y017476D02*
X016970Y017476D01*
X017013Y017635D02*
X019315Y017635D01*
X019315Y017793D02*
X017065Y017793D01*
X017028Y017952D02*
X019315Y017952D01*
X019315Y018110D02*
X016970Y018110D01*
X016970Y018269D02*
X019315Y018269D01*
X019315Y018427D02*
X016970Y018427D01*
X016970Y018586D02*
X019315Y018586D01*
X019315Y018744D02*
X016970Y018744D01*
X016970Y018903D02*
X019229Y018903D01*
X019230Y019061D02*
X016970Y019061D01*
X016973Y019220D02*
X019341Y019220D01*
X019669Y019220D02*
X020372Y019220D01*
X020520Y019061D02*
X019780Y019061D01*
X019781Y018903D02*
X020560Y018903D01*
X020751Y019378D02*
X020884Y019378D01*
X020213Y019378D02*
X017065Y019378D01*
X017044Y019537D02*
X020055Y019537D01*
X019896Y019695D02*
X016885Y019695D01*
X016675Y019695D02*
X015901Y019695D01*
X015910Y019537D02*
X016516Y019537D01*
X016495Y019378D02*
X015820Y019378D01*
X015820Y019220D02*
X016587Y019220D01*
X016590Y019061D02*
X015820Y019061D01*
X015820Y018903D02*
X016590Y018903D01*
X016590Y018744D02*
X015820Y018744D01*
X015820Y018586D02*
X016590Y018586D01*
X016590Y018427D02*
X015671Y018427D01*
X015585Y018269D02*
X016590Y018269D01*
X016590Y018110D02*
X015744Y018110D01*
X015820Y017952D02*
X016532Y017952D01*
X016495Y017793D02*
X015820Y017793D01*
X015820Y017635D02*
X016547Y017635D01*
X016590Y017476D02*
X015820Y017476D01*
X015786Y017318D02*
X016590Y017318D01*
X016590Y017159D02*
X015628Y017159D01*
X015469Y017001D02*
X016511Y017001D01*
X016498Y016842D02*
X015311Y016842D01*
X015090Y017159D02*
X014845Y017159D01*
X015121Y017318D02*
X015249Y017318D01*
X015231Y017476D02*
X015407Y017476D01*
X015440Y017635D02*
X015231Y017635D01*
X015120Y017793D02*
X015440Y017793D01*
X015365Y017952D02*
X011198Y017952D01*
X011198Y018110D02*
X014747Y018110D01*
X014670Y018269D02*
X011240Y018269D01*
X011398Y018427D02*
X014697Y018427D01*
X014754Y018586D02*
X014887Y018586D01*
X015023Y018586D02*
X015292Y018586D01*
X015440Y018744D02*
X014913Y018744D01*
X015200Y018903D02*
X015440Y018903D01*
X015440Y019061D02*
X015240Y019061D01*
X015194Y019220D02*
X015440Y019220D01*
X015440Y019378D02*
X014747Y019378D01*
X014905Y019537D02*
X015350Y019537D01*
X015359Y019695D02*
X015064Y019695D01*
X014843Y020012D02*
X011198Y020012D01*
X011198Y019854D02*
X014685Y019854D01*
X014526Y019695D02*
X011198Y019695D01*
X011198Y019537D02*
X014368Y019537D01*
X014315Y019378D02*
X011198Y019378D01*
X011198Y019220D02*
X012016Y019220D01*
X011970Y019061D02*
X011270Y019061D01*
X011429Y018903D02*
X012010Y018903D01*
X011198Y017793D02*
X014790Y017793D01*
X014679Y017635D02*
X011198Y017635D01*
X011198Y017476D02*
X014607Y017476D01*
X014465Y017318D02*
X011198Y017318D01*
X011198Y017159D02*
X014465Y017159D01*
X014465Y017001D02*
X011198Y017001D01*
X011198Y016842D02*
X014465Y016842D01*
X014465Y016684D02*
X011198Y016684D01*
X011198Y016525D02*
X014516Y016525D01*
X014675Y016367D02*
X011198Y016367D01*
X011198Y016208D02*
X015370Y016208D01*
X015401Y016050D02*
X011198Y016050D01*
X011198Y015891D02*
X031550Y015891D01*
X031392Y016050D02*
X021793Y016050D01*
X021952Y016208D02*
X031240Y016208D01*
X031240Y016367D02*
X022110Y016367D01*
X023788Y016684D02*
X025897Y016684D01*
X025870Y016842D02*
X023815Y016842D01*
X023738Y017001D02*
X025947Y017001D01*
X025965Y017159D02*
X023720Y017159D01*
X023720Y017318D02*
X025614Y017318D01*
X025504Y017476D02*
X023806Y017476D01*
X023806Y017635D02*
X025504Y017635D01*
X025590Y017793D02*
X023720Y017793D01*
X023720Y017952D02*
X025590Y017952D01*
X025197Y018110D02*
X023738Y018110D01*
X023815Y018269D02*
X025120Y018269D01*
X025147Y018427D02*
X023788Y018427D01*
X023720Y018586D02*
X025215Y018586D01*
X025215Y018744D02*
X023720Y018744D01*
X023775Y018903D02*
X025160Y018903D01*
X025120Y019061D02*
X023815Y019061D01*
X023184Y019378D02*
X023076Y019378D01*
X022823Y021122D02*
X023744Y021122D01*
X023707Y021280D02*
X022865Y021280D01*
X023007Y021439D02*
X023759Y021439D01*
X023802Y021597D02*
X023166Y021597D01*
X023324Y021756D02*
X023720Y021756D01*
X023712Y021914D02*
X023483Y021914D01*
X023641Y022073D02*
X023818Y022073D01*
X023800Y022231D02*
X024605Y022231D01*
X024533Y022073D02*
X024166Y022073D01*
X024271Y021914D02*
X024563Y021914D01*
X024628Y021756D02*
X024264Y021756D01*
X024182Y021597D02*
X024628Y021597D01*
X024628Y021439D02*
X024225Y021439D01*
X024277Y021280D02*
X024547Y021280D01*
X024539Y021122D02*
X024239Y021122D01*
X025008Y021439D02*
X025215Y021439D01*
X025215Y021597D02*
X025008Y021597D01*
X025008Y021756D02*
X025215Y021756D01*
X025155Y021914D02*
X025074Y021914D01*
X025103Y022073D02*
X025120Y022073D01*
X025178Y022231D02*
X025032Y022231D01*
X025090Y021280D02*
X025138Y021280D01*
X025121Y021122D02*
X025098Y021122D01*
X023579Y022548D02*
X021267Y022548D01*
X021108Y022390D02*
X023421Y022390D01*
X023262Y022231D02*
X020950Y022231D01*
X020791Y022073D02*
X023104Y022073D01*
X022945Y021914D02*
X020633Y021914D01*
X020474Y021756D02*
X022787Y021756D01*
X022628Y021597D02*
X020316Y021597D01*
X020157Y021439D02*
X022337Y021439D01*
X022295Y021280D02*
X019999Y021280D01*
X019914Y021122D02*
X022337Y021122D01*
X022892Y023499D02*
X019252Y023499D01*
X019315Y023658D02*
X022734Y023658D01*
X022575Y023816D02*
X019282Y023816D01*
X019220Y023975D02*
X022417Y023975D01*
X022258Y024133D02*
X019220Y024133D01*
X019220Y024292D02*
X022100Y024292D01*
X021941Y024450D02*
X019220Y024450D01*
X019220Y024609D02*
X021783Y024609D01*
X021640Y024767D02*
X019220Y024767D01*
X019220Y024926D02*
X021640Y024926D01*
X021640Y025084D02*
X019220Y025084D01*
X019220Y025243D02*
X021640Y025243D01*
X021640Y025401D02*
X019220Y025401D01*
X019220Y025560D02*
X021640Y025560D01*
X021640Y025718D02*
X019220Y025718D01*
X019220Y025877D02*
X021640Y025877D01*
X021640Y026035D02*
X019220Y026035D01*
X019220Y026194D02*
X021640Y026194D01*
X021640Y026352D02*
X019220Y026352D01*
X019220Y026511D02*
X021640Y026511D01*
X021640Y026669D02*
X019220Y026669D01*
X019220Y026828D02*
X021640Y026828D01*
X021640Y026986D02*
X019220Y026986D01*
X019220Y027145D02*
X021640Y027145D01*
X021640Y027303D02*
X019220Y027303D01*
X019220Y027462D02*
X021640Y027462D01*
X021640Y027620D02*
X019220Y027620D01*
X019220Y027779D02*
X021640Y027779D01*
X021640Y027937D02*
X019220Y027937D01*
X019220Y028096D02*
X021640Y028096D01*
X021640Y028254D02*
X019220Y028254D01*
X019220Y028413D02*
X021640Y028413D01*
X021640Y028571D02*
X019220Y028571D01*
X019220Y028730D02*
X021640Y028730D01*
X021640Y028888D02*
X019220Y028888D01*
X019220Y029047D02*
X021640Y029047D01*
X021640Y029205D02*
X019220Y029205D01*
X019220Y029364D02*
X021549Y029364D01*
X021560Y029522D02*
X019220Y029522D01*
X019220Y029681D02*
X021690Y029681D01*
X021970Y029681D02*
X023548Y029681D01*
X023370Y029839D02*
X019220Y029839D01*
X019220Y029998D02*
X023345Y029998D01*
X023630Y029955D02*
X023630Y030305D01*
X023630Y030455D01*
X023630Y031130D01*
X022780Y031980D01*
X022105Y031980D01*
X020680Y033405D01*
X020680Y036405D01*
X020280Y036405D02*
X020280Y033355D01*
X023305Y030330D01*
X023076Y030156D02*
X019220Y030156D01*
X019220Y030315D02*
X023009Y030315D01*
X022851Y030473D02*
X019220Y030473D01*
X019375Y030632D02*
X022692Y030632D01*
X022534Y030790D02*
X019534Y030790D01*
X019692Y030949D02*
X022375Y030949D01*
X022217Y031107D02*
X019851Y031107D01*
X020009Y031266D02*
X022058Y031266D01*
X021900Y031424D02*
X020168Y031424D01*
X020326Y031583D02*
X021741Y031583D01*
X021583Y031741D02*
X020485Y031741D01*
X020643Y031900D02*
X021424Y031900D01*
X021266Y032058D02*
X020929Y032058D01*
X021052Y032217D02*
X021107Y032217D01*
X020605Y032534D02*
X003260Y032534D01*
X003260Y032692D02*
X020632Y032692D01*
X020473Y032851D02*
X003260Y032851D01*
X003260Y033009D02*
X020315Y033009D01*
X020156Y033168D02*
X003260Y033168D01*
X003260Y033326D02*
X020060Y033326D01*
X020060Y033485D02*
X003260Y033485D01*
X003260Y033643D02*
X020060Y033643D01*
X020060Y033802D02*
X003260Y033802D01*
X003260Y033960D02*
X020060Y033960D01*
X020060Y034119D02*
X003260Y034119D01*
X003260Y034277D02*
X020060Y034277D01*
X020060Y034436D02*
X003260Y034436D01*
X003260Y034594D02*
X020060Y034594D01*
X020060Y034753D02*
X003260Y034753D01*
X003260Y034911D02*
X010096Y034911D01*
X010088Y034919D02*
X010169Y034838D01*
X010273Y034795D01*
X010387Y034795D01*
X010491Y034838D01*
X010572Y034919D01*
X010615Y035023D01*
X010615Y035137D01*
X010572Y035241D01*
X010550Y035263D01*
X010550Y035493D01*
X010652Y035595D01*
X010710Y035734D01*
X010710Y036366D01*
X010652Y036505D01*
X010545Y036612D01*
X010406Y036670D01*
X010254Y036670D01*
X010115Y036612D01*
X010008Y036505D01*
X009950Y036366D01*
X009950Y035981D01*
X009710Y035741D01*
X009710Y036366D01*
X009652Y036505D01*
X009545Y036612D01*
X009406Y036670D01*
X009254Y036670D01*
X009115Y036612D01*
X009008Y036505D01*
X008950Y036366D01*
X008950Y035734D01*
X009008Y035595D01*
X009103Y035500D01*
X008557Y035500D01*
X008652Y035595D01*
X008710Y035734D01*
X008710Y036366D01*
X008652Y036505D01*
X008545Y036612D01*
X008406Y036670D01*
X008254Y036670D01*
X008115Y036612D01*
X008008Y036505D01*
X007950Y036366D01*
X007950Y035734D01*
X008008Y035595D01*
X008103Y035500D01*
X007557Y035500D01*
X007652Y035595D01*
X007710Y035734D01*
X007710Y036366D01*
X007652Y036505D01*
X007545Y036612D01*
X007406Y036670D01*
X007254Y036670D01*
X007115Y036612D01*
X007008Y036505D01*
X006950Y036366D01*
X006950Y035734D01*
X006995Y035626D01*
X006710Y035911D01*
X006710Y036366D01*
X006652Y036505D01*
X006545Y036612D01*
X006406Y036670D01*
X006254Y036670D01*
X006115Y036612D01*
X006008Y036505D01*
X005950Y036366D01*
X005950Y035734D01*
X006008Y035595D01*
X006115Y035488D01*
X006254Y035430D01*
X006406Y035430D01*
X006521Y035478D01*
X006939Y035060D01*
X009651Y035060D01*
X010097Y035506D01*
X010110Y035493D01*
X010110Y035263D01*
X010088Y035241D01*
X010045Y035137D01*
X010045Y035023D01*
X010088Y034919D01*
X010045Y035070D02*
X009661Y035070D01*
X009819Y035228D02*
X010083Y035228D01*
X010110Y035387D02*
X009978Y035387D01*
X009560Y035280D02*
X010330Y036050D01*
X010330Y035950D01*
X010330Y035080D01*
X010615Y035070D02*
X020060Y035070D01*
X020060Y035228D02*
X017139Y035228D01*
X017298Y035387D02*
X020060Y035387D01*
X020060Y035545D02*
X017456Y035545D01*
X017615Y035704D02*
X020060Y035704D01*
X020060Y035862D02*
X017773Y035862D01*
X017932Y036021D02*
X020060Y036021D01*
X020060Y036179D02*
X018090Y036179D01*
X018249Y036338D02*
X019999Y036338D01*
X020009Y036496D02*
X018407Y036496D01*
X018330Y036730D02*
X016930Y035330D01*
X012050Y035330D01*
X011330Y036050D01*
X011710Y036021D02*
X011950Y036021D01*
X011950Y036179D02*
X011710Y036179D01*
X011710Y036338D02*
X011950Y036338D01*
X012004Y036496D02*
X011656Y036496D01*
X011443Y036655D02*
X012217Y036655D01*
X012443Y036655D02*
X013217Y036655D01*
X013443Y036655D02*
X013623Y036655D01*
X013782Y036813D02*
X003260Y036813D01*
X003260Y036655D02*
X006217Y036655D01*
X006443Y036655D02*
X007217Y036655D01*
X007443Y036655D02*
X008217Y036655D01*
X008443Y036655D02*
X009217Y036655D01*
X009443Y036655D02*
X010217Y036655D01*
X010443Y036655D02*
X011217Y036655D01*
X011004Y036496D02*
X010656Y036496D01*
X010710Y036338D02*
X010950Y036338D01*
X010950Y036179D02*
X010710Y036179D01*
X010710Y036021D02*
X010950Y036021D01*
X010950Y035862D02*
X010710Y035862D01*
X010697Y035704D02*
X010963Y035704D01*
X011058Y035545D02*
X010602Y035545D01*
X010550Y035387D02*
X011682Y035387D01*
X011841Y035228D02*
X010577Y035228D01*
X010564Y034911D02*
X020060Y034911D01*
X021130Y036050D02*
X022150Y035030D01*
X023480Y035030D01*
X024105Y035030D01*
X024305Y035230D01*
X025125Y036050D01*
X025130Y036050D01*
X026435Y037355D01*
X034625Y037355D01*
X035930Y036050D01*
X036560Y036680D01*
X039300Y036680D01*
X039930Y036050D01*
X040310Y036021D02*
X040550Y036021D01*
X040550Y036179D02*
X040310Y036179D01*
X040310Y036338D02*
X040550Y036338D01*
X040604Y036496D02*
X040256Y036496D01*
X040043Y036655D02*
X040817Y036655D01*
X041043Y036655D02*
X041817Y036655D01*
X042043Y036655D02*
X042817Y036655D01*
X043043Y036655D02*
X043817Y036655D01*
X043854Y036670D02*
X043715Y036612D01*
X043608Y036505D01*
X043550Y036366D01*
X043550Y035734D01*
X043608Y035595D01*
X043715Y035488D01*
X043854Y035430D01*
X044006Y035430D01*
X044145Y035488D01*
X044252Y035595D01*
X044310Y035734D01*
X044310Y036366D01*
X044252Y036505D01*
X044145Y036612D01*
X044006Y036670D01*
X043854Y036670D01*
X044043Y036655D02*
X047092Y036655D01*
X047092Y036813D02*
X039478Y036813D01*
X039637Y036655D02*
X039817Y036655D01*
X040310Y035862D02*
X040550Y035862D01*
X040563Y035704D02*
X040297Y035704D01*
X040202Y035545D02*
X040658Y035545D01*
X041202Y035545D02*
X041658Y035545D01*
X041563Y035704D02*
X041297Y035704D01*
X041310Y035862D02*
X041550Y035862D01*
X041550Y036021D02*
X041310Y036021D01*
X041310Y036179D02*
X041550Y036179D01*
X041550Y036338D02*
X041310Y036338D01*
X041256Y036496D02*
X041604Y036496D01*
X042256Y036496D02*
X042604Y036496D01*
X042550Y036338D02*
X042310Y036338D01*
X042310Y036179D02*
X042550Y036179D01*
X042550Y036021D02*
X042310Y036021D01*
X042310Y035862D02*
X042431Y035862D01*
X042578Y035387D02*
X047092Y035387D01*
X047092Y035545D02*
X044202Y035545D01*
X044297Y035704D02*
X047092Y035704D01*
X047092Y035862D02*
X044310Y035862D01*
X044310Y036021D02*
X047092Y036021D01*
X047092Y036179D02*
X044310Y036179D01*
X044310Y036338D02*
X047092Y036338D01*
X047092Y036496D02*
X044256Y036496D01*
X043604Y036496D02*
X043256Y036496D01*
X043310Y036338D02*
X043550Y036338D01*
X043550Y036179D02*
X043310Y036179D01*
X043310Y036021D02*
X043550Y036021D01*
X043550Y035862D02*
X043310Y035862D01*
X043297Y035704D02*
X043563Y035704D01*
X043658Y035545D02*
X043202Y035545D01*
X042930Y036050D02*
X042160Y035280D01*
X038680Y035280D01*
X037930Y036030D01*
X037930Y036050D01*
X036810Y034930D01*
X033880Y034930D01*
X032080Y036730D01*
X028810Y036730D01*
X028130Y036050D01*
X027400Y036780D01*
X026930Y036780D01*
X026630Y036480D01*
X026630Y035780D01*
X026730Y035405D02*
X028630Y035405D01*
X029005Y035030D01*
X029005Y033705D01*
X029005Y027055D01*
X029755Y026305D01*
X031630Y026305D01*
X031892Y026194D02*
X032590Y026194D01*
X032590Y026352D02*
X031915Y026352D01*
X031828Y026511D02*
X032590Y026511D01*
X032590Y026669D02*
X029702Y026669D01*
X029544Y026828D02*
X032590Y026828D01*
X032590Y026986D02*
X029385Y026986D01*
X029227Y027145D02*
X032590Y027145D01*
X032590Y027303D02*
X029225Y027303D01*
X029225Y027462D02*
X032590Y027462D01*
X032590Y027620D02*
X029225Y027620D01*
X029225Y027779D02*
X032610Y027779D01*
X032768Y027937D02*
X029225Y027937D01*
X029225Y028096D02*
X032927Y028096D01*
X033085Y028254D02*
X029225Y028254D01*
X029225Y028413D02*
X033244Y028413D01*
X033464Y028096D02*
X034461Y028096D01*
X034849Y028096D02*
X040346Y028096D01*
X040504Y027937D02*
X033306Y027937D01*
X033147Y027779D02*
X040663Y027779D01*
X040821Y027620D02*
X032989Y027620D01*
X032970Y027462D02*
X040980Y027462D01*
X041138Y027303D02*
X032970Y027303D01*
X032970Y027145D02*
X033624Y027145D01*
X033836Y027145D02*
X034124Y027145D01*
X034336Y027145D02*
X034624Y027145D01*
X034836Y027145D02*
X041297Y027145D01*
X041455Y026986D02*
X034995Y026986D01*
X035015Y026828D02*
X035483Y026828D01*
X035445Y026669D02*
X034922Y026669D01*
X034920Y026511D02*
X035496Y026511D01*
X035540Y026352D02*
X034920Y026352D01*
X034920Y026194D02*
X035540Y026194D01*
X035540Y026035D02*
X034920Y026035D01*
X034920Y025877D02*
X035540Y025877D01*
X035540Y025718D02*
X034887Y025718D01*
X034845Y025560D02*
X035540Y025560D01*
X035540Y025401D02*
X034845Y025401D01*
X034845Y025243D02*
X035540Y025243D01*
X035540Y025084D02*
X034845Y025084D01*
X034845Y024926D02*
X035641Y024926D01*
X035799Y024767D02*
X034845Y024767D01*
X034845Y024609D02*
X035958Y024609D01*
X036116Y024450D02*
X034845Y024450D01*
X034845Y024292D02*
X036245Y024292D01*
X036299Y024133D02*
X034845Y024133D01*
X034845Y023975D02*
X036592Y023975D01*
X036615Y023816D02*
X034845Y023816D01*
X034845Y023658D02*
X036615Y023658D01*
X036615Y023499D02*
X034845Y023499D01*
X034845Y023341D02*
X036615Y023341D01*
X036615Y023182D02*
X034845Y023182D01*
X034845Y023024D02*
X036615Y023024D01*
X036615Y022865D02*
X034845Y022865D01*
X034845Y022707D02*
X036615Y022707D01*
X036615Y022548D02*
X034845Y022548D01*
X034845Y022390D02*
X036615Y022390D01*
X036615Y022231D02*
X034845Y022231D01*
X034845Y022073D02*
X035819Y022073D01*
X035721Y021914D02*
X034845Y021914D01*
X034845Y021756D02*
X035738Y021756D01*
X035883Y021597D02*
X034845Y021597D01*
X034845Y021439D02*
X036115Y021439D01*
X036038Y021280D02*
X034845Y021280D01*
X034840Y021122D02*
X036021Y021122D01*
X036589Y021122D02*
X036670Y021122D01*
X036615Y021280D02*
X036572Y021280D01*
X036615Y021439D02*
X036495Y021439D01*
X036495Y021597D02*
X036615Y021597D01*
X036615Y021756D02*
X036373Y021756D01*
X036289Y021914D02*
X036615Y021914D01*
X036615Y022073D02*
X036191Y022073D01*
X036724Y019220D02*
X037322Y019220D01*
X037470Y019061D02*
X036793Y019061D01*
X036762Y018903D02*
X037510Y018903D01*
X039581Y020488D02*
X047092Y020488D01*
X047092Y020646D02*
X039873Y020646D01*
X039915Y020805D02*
X047092Y020805D01*
X047092Y020963D02*
X039873Y020963D01*
X039820Y021122D02*
X047092Y021122D01*
X047092Y021280D02*
X039820Y021280D01*
X039820Y021439D02*
X047092Y021439D01*
X047092Y021597D02*
X039820Y021597D01*
X039820Y021756D02*
X047092Y021756D01*
X047092Y021914D02*
X039820Y021914D01*
X039820Y022073D02*
X047092Y022073D01*
X047092Y022231D02*
X039820Y022231D01*
X039820Y022390D02*
X047092Y022390D01*
X047092Y022548D02*
X039820Y022548D01*
X039820Y022707D02*
X047092Y022707D01*
X047092Y022865D02*
X039739Y022865D01*
X039580Y023024D02*
X047092Y023024D01*
X047092Y023182D02*
X039422Y023182D01*
X039263Y023341D02*
X047092Y023341D01*
X047092Y023499D02*
X039105Y023499D01*
X038946Y023658D02*
X047092Y023658D01*
X047092Y023816D02*
X038788Y023816D01*
X038629Y023975D02*
X047092Y023975D01*
X047092Y024133D02*
X038471Y024133D01*
X038312Y024292D02*
X047092Y024292D01*
X047092Y024450D02*
X038154Y024450D01*
X037995Y024609D02*
X047092Y024609D01*
X047092Y024767D02*
X037837Y024767D01*
X037678Y024926D02*
X041568Y024926D01*
X041533Y025084D02*
X037520Y025084D01*
X037361Y025243D02*
X041591Y025243D01*
X041628Y025401D02*
X037203Y025401D01*
X037195Y025560D02*
X041628Y025560D01*
X041628Y025718D02*
X037195Y025718D01*
X037195Y025877D02*
X041628Y025877D01*
X041628Y026035D02*
X037195Y026035D01*
X037195Y026194D02*
X041628Y026194D01*
X041628Y026352D02*
X037195Y026352D01*
X037239Y026511D02*
X041628Y026511D01*
X041628Y026669D02*
X037290Y026669D01*
X037252Y026828D02*
X041614Y026828D01*
X041834Y027145D02*
X047092Y027145D01*
X047092Y027303D02*
X041676Y027303D01*
X041517Y027462D02*
X047092Y027462D01*
X047092Y027620D02*
X041359Y027620D01*
X041200Y027779D02*
X047092Y027779D01*
X047092Y027937D02*
X041042Y027937D01*
X040883Y028096D02*
X047092Y028096D01*
X047092Y028254D02*
X040725Y028254D01*
X040566Y028413D02*
X047092Y028413D01*
X047092Y028571D02*
X034757Y028571D01*
X034553Y028571D02*
X029225Y028571D01*
X029225Y028730D02*
X047092Y028730D01*
X047092Y028888D02*
X029225Y028888D01*
X029225Y029047D02*
X047092Y029047D01*
X047092Y029205D02*
X029225Y029205D01*
X029225Y029364D02*
X047092Y029364D01*
X047092Y029522D02*
X029225Y029522D01*
X029225Y029681D02*
X047092Y029681D01*
X047092Y029839D02*
X029225Y029839D01*
X029225Y029998D02*
X047092Y029998D01*
X047092Y030156D02*
X029225Y030156D01*
X029225Y030315D02*
X047092Y030315D01*
X047092Y030473D02*
X029225Y030473D01*
X029225Y030632D02*
X047092Y030632D01*
X047092Y030790D02*
X029225Y030790D01*
X029225Y030949D02*
X047092Y030949D01*
X047092Y031107D02*
X029225Y031107D01*
X029225Y031266D02*
X047092Y031266D01*
X047092Y031424D02*
X029225Y031424D01*
X029225Y031583D02*
X047092Y031583D01*
X047092Y031741D02*
X029225Y031741D01*
X029225Y031900D02*
X047092Y031900D01*
X047092Y032058D02*
X029225Y032058D01*
X029225Y032217D02*
X047092Y032217D01*
X047092Y032375D02*
X029225Y032375D01*
X029225Y032534D02*
X047092Y032534D01*
X047092Y032692D02*
X029225Y032692D01*
X029225Y032851D02*
X047092Y032851D01*
X047092Y033009D02*
X029225Y033009D01*
X029225Y033168D02*
X047092Y033168D01*
X047092Y033326D02*
X029225Y033326D01*
X029225Y033485D02*
X047092Y033485D01*
X047092Y033643D02*
X029288Y033643D01*
X029273Y033802D02*
X047092Y033802D01*
X047092Y033960D02*
X029225Y033960D01*
X029225Y034119D02*
X047092Y034119D01*
X047092Y034277D02*
X029225Y034277D01*
X029225Y034436D02*
X047092Y034436D01*
X047092Y034594D02*
X029225Y034594D01*
X029225Y034753D02*
X033746Y034753D01*
X033588Y034911D02*
X029225Y034911D01*
X029225Y035070D02*
X033429Y035070D01*
X033271Y035228D02*
X029118Y035228D01*
X028960Y035387D02*
X033112Y035387D01*
X032954Y035545D02*
X029402Y035545D01*
X029497Y035704D02*
X032795Y035704D01*
X032637Y035862D02*
X029510Y035862D01*
X029510Y036021D02*
X032478Y036021D01*
X032320Y036179D02*
X029510Y036179D01*
X029510Y036338D02*
X032161Y036338D01*
X032003Y036496D02*
X029456Y036496D01*
X028750Y036338D02*
X028729Y036338D01*
X028750Y036179D02*
X028570Y036179D01*
X028510Y036021D02*
X028750Y036021D01*
X028750Y035862D02*
X028510Y035862D01*
X028497Y035704D02*
X028763Y035704D01*
X028801Y035545D02*
X028858Y035545D01*
X028654Y035070D02*
X028540Y035070D01*
X028489Y034911D02*
X028785Y034911D01*
X028785Y034753D02*
X028140Y034753D01*
X028072Y034594D02*
X028785Y034594D01*
X028785Y034436D02*
X027850Y034436D01*
X027850Y034277D02*
X028785Y034277D01*
X028785Y034119D02*
X027850Y034119D01*
X027850Y033960D02*
X028785Y033960D01*
X028737Y033802D02*
X027850Y033802D01*
X027850Y033643D02*
X028722Y033643D01*
X028785Y033485D02*
X027850Y033485D01*
X027850Y033326D02*
X028785Y033326D01*
X028785Y033168D02*
X027850Y033168D01*
X027850Y033009D02*
X028785Y033009D01*
X028785Y032851D02*
X027850Y032851D01*
X027850Y032692D02*
X028785Y032692D01*
X028785Y032534D02*
X027850Y032534D01*
X027761Y032375D02*
X028785Y032375D01*
X028785Y032217D02*
X027652Y032217D01*
X027529Y032058D02*
X028785Y032058D01*
X028785Y031900D02*
X027472Y031900D01*
X027630Y031741D02*
X028785Y031741D01*
X028785Y031583D02*
X027789Y031583D01*
X027850Y031424D02*
X028785Y031424D01*
X028785Y031266D02*
X027850Y031266D01*
X027850Y031107D02*
X028785Y031107D01*
X028785Y030949D02*
X027850Y030949D01*
X027850Y030790D02*
X028785Y030790D01*
X028785Y030632D02*
X027850Y030632D01*
X027850Y030473D02*
X028785Y030473D01*
X028785Y030315D02*
X027850Y030315D01*
X027850Y030156D02*
X028785Y030156D01*
X028785Y029998D02*
X027850Y029998D01*
X027850Y029839D02*
X028785Y029839D01*
X028785Y029681D02*
X027850Y029681D01*
X027850Y029522D02*
X028785Y029522D01*
X028785Y029364D02*
X027850Y029364D01*
X027850Y029205D02*
X028785Y029205D01*
X028785Y029047D02*
X027850Y029047D01*
X027904Y028888D02*
X028785Y028888D01*
X028785Y028730D02*
X027907Y028730D01*
X027799Y028571D02*
X028785Y028571D01*
X028785Y028413D02*
X027115Y028413D01*
X027132Y028571D02*
X027461Y028571D01*
X027353Y028730D02*
X027291Y028730D01*
X027630Y028805D02*
X027630Y029555D01*
X027630Y031430D01*
X026755Y032305D01*
X026755Y033930D01*
X026255Y034430D01*
X025831Y033960D02*
X024274Y033960D01*
X024290Y033998D02*
X024290Y034112D01*
X024247Y034216D01*
X024166Y034297D01*
X024062Y034340D01*
X023948Y034340D01*
X023844Y034297D01*
X023763Y034216D01*
X023720Y034112D01*
X023720Y033998D01*
X023763Y033894D01*
X023785Y033872D01*
X023785Y031286D01*
X023000Y032071D01*
X022871Y032200D01*
X022196Y032200D01*
X021982Y032414D01*
X022041Y032438D01*
X022122Y032519D01*
X022165Y032623D01*
X022165Y032696D01*
X023834Y034365D01*
X025426Y034365D01*
X026240Y033551D01*
X026240Y033193D01*
X026225Y033178D01*
X026137Y033215D01*
X026023Y033215D01*
X025935Y033178D01*
X025891Y033222D01*
X025787Y033265D01*
X025673Y033265D01*
X025569Y033222D01*
X025530Y033183D01*
X025491Y033222D01*
X025387Y033265D01*
X025273Y033265D01*
X025169Y033222D01*
X025117Y033171D01*
X025066Y033222D01*
X024962Y033265D01*
X024848Y033265D01*
X024744Y033222D01*
X024705Y033183D01*
X024666Y033222D01*
X024562Y033265D01*
X024448Y033265D01*
X024344Y033222D01*
X024263Y033141D01*
X024225Y033049D01*
X024225Y033872D01*
X024247Y033894D01*
X024290Y033998D01*
X024287Y034119D02*
X025673Y034119D01*
X025514Y034277D02*
X024186Y034277D01*
X024005Y034055D02*
X024005Y029805D01*
X023630Y029430D01*
X023255Y029430D01*
X022630Y028805D01*
X022630Y025480D01*
X023680Y024430D01*
X024077Y024609D02*
X026283Y024609D01*
X026311Y024677D02*
X026245Y024517D01*
X026245Y024343D01*
X026311Y024183D01*
X026433Y024061D01*
X026593Y023995D01*
X026767Y023995D01*
X026927Y024061D01*
X027049Y024183D01*
X027115Y024343D01*
X027115Y024517D01*
X027049Y024677D01*
X026927Y024799D01*
X026767Y024865D01*
X026593Y024865D01*
X026433Y024799D01*
X026311Y024677D01*
X026401Y024767D02*
X023959Y024767D01*
X023950Y025084D02*
X026410Y025084D01*
X026287Y025243D02*
X024073Y025243D01*
X024115Y025401D02*
X026245Y025401D01*
X026239Y025560D02*
X024097Y025560D01*
X024008Y025718D02*
X026081Y025718D01*
X025922Y025877D02*
X023545Y025877D01*
X023593Y025995D02*
X023767Y025995D01*
X023927Y026061D01*
X024049Y026183D01*
X024115Y026343D01*
X024115Y026517D01*
X024049Y026677D01*
X023927Y026799D01*
X023767Y026865D01*
X023593Y026865D01*
X023433Y026799D01*
X023311Y026677D01*
X023245Y026517D01*
X023245Y026343D01*
X023311Y026183D01*
X023433Y026061D01*
X023593Y025995D01*
X023496Y026035D02*
X023386Y026035D01*
X023307Y026194D02*
X023228Y026194D01*
X023245Y026352D02*
X023100Y026352D01*
X023100Y026511D02*
X023245Y026511D01*
X023308Y026669D02*
X023100Y026669D01*
X023100Y026828D02*
X023502Y026828D01*
X023593Y026995D02*
X023767Y026995D01*
X023927Y027061D01*
X024049Y027183D01*
X024115Y027343D01*
X024115Y027517D01*
X024049Y027677D01*
X023927Y027799D01*
X023767Y027865D01*
X023593Y027865D01*
X023433Y027799D01*
X023311Y027677D01*
X023245Y027517D01*
X023245Y027343D01*
X023311Y027183D01*
X023433Y027061D01*
X023593Y026995D01*
X023350Y027145D02*
X023100Y027145D01*
X023100Y027303D02*
X023261Y027303D01*
X023245Y027462D02*
X023100Y027462D01*
X023100Y027620D02*
X023288Y027620D01*
X023413Y027779D02*
X023100Y027779D01*
X023100Y027937D02*
X024785Y027937D01*
X024785Y027779D02*
X023947Y027779D01*
X024072Y027620D02*
X024785Y027620D01*
X024785Y027462D02*
X024115Y027462D01*
X024099Y027303D02*
X024785Y027303D01*
X024785Y027145D02*
X024010Y027145D01*
X023858Y026828D02*
X024971Y026828D01*
X024813Y026986D02*
X023100Y026986D01*
X022410Y026986D02*
X022020Y026986D01*
X022020Y026828D02*
X022410Y026828D01*
X022410Y026669D02*
X022020Y026669D01*
X022020Y026511D02*
X022410Y026511D01*
X022410Y026352D02*
X022020Y026352D01*
X022020Y026194D02*
X022410Y026194D01*
X022410Y026035D02*
X022020Y026035D01*
X022020Y025877D02*
X022410Y025877D01*
X022410Y025718D02*
X022020Y025718D01*
X022020Y025560D02*
X022410Y025560D01*
X022410Y025401D02*
X022020Y025401D01*
X022020Y025243D02*
X022556Y025243D01*
X022715Y025084D02*
X022020Y025084D01*
X022020Y024926D02*
X022873Y024926D01*
X023032Y024767D02*
X022162Y024767D01*
X022320Y024609D02*
X023190Y024609D01*
X023245Y024450D02*
X022479Y024450D01*
X022637Y024292D02*
X023266Y024292D01*
X023361Y024133D02*
X022796Y024133D01*
X022954Y023975D02*
X028881Y023975D01*
X028845Y023816D02*
X023113Y023816D01*
X023999Y024133D02*
X026361Y024133D01*
X026266Y024292D02*
X024094Y024292D01*
X024115Y024450D02*
X026245Y024450D01*
X026959Y024767D02*
X032590Y024767D01*
X032590Y024609D02*
X027077Y024609D01*
X027115Y024450D02*
X032590Y024450D01*
X032590Y024292D02*
X027094Y024292D01*
X026999Y024133D02*
X032464Y024133D01*
X032970Y024133D02*
X032989Y024133D01*
X032970Y024292D02*
X033148Y024292D01*
X033306Y024450D02*
X032970Y024450D01*
X032970Y024609D02*
X033465Y024609D01*
X033623Y024767D02*
X032970Y024767D01*
X032970Y024926D02*
X033686Y024926D01*
X033824Y025084D02*
X032970Y025084D01*
X032970Y025243D02*
X034090Y025243D01*
X034090Y025401D02*
X032970Y025401D01*
X032970Y025560D02*
X034032Y025560D01*
X033873Y025718D02*
X032970Y025718D01*
X032970Y025877D02*
X033715Y025877D01*
X033556Y026035D02*
X032970Y026035D01*
X032970Y026194D02*
X033540Y026194D01*
X033540Y026352D02*
X032970Y026352D01*
X032970Y026511D02*
X033540Y026511D01*
X033538Y026669D02*
X032970Y026669D01*
X032970Y026828D02*
X033445Y026828D01*
X033465Y026986D02*
X032970Y026986D01*
X032590Y026035D02*
X031723Y026035D01*
X031537Y026035D02*
X026864Y026035D01*
X026927Y026061D02*
X027049Y026183D01*
X027115Y026343D01*
X027115Y026517D01*
X027049Y026677D01*
X026927Y026799D01*
X026767Y026865D01*
X026593Y026865D01*
X026433Y026799D01*
X026311Y026677D01*
X026245Y026517D01*
X026245Y026343D01*
X026311Y026183D01*
X026433Y026061D01*
X026593Y025995D01*
X026767Y025995D01*
X026927Y026061D01*
X027053Y026194D02*
X029555Y026194D01*
X029397Y026352D02*
X027115Y026352D01*
X027115Y026511D02*
X029238Y026511D01*
X029080Y026669D02*
X027052Y026669D01*
X026858Y026828D02*
X028921Y026828D01*
X028785Y026986D02*
X025435Y026986D01*
X025277Y027145D02*
X026350Y027145D01*
X026261Y027303D02*
X025225Y027303D01*
X025225Y027462D02*
X026245Y027462D01*
X026179Y027620D02*
X025225Y027620D01*
X025225Y027779D02*
X026020Y027779D01*
X025910Y027937D02*
X025225Y027937D01*
X025225Y028096D02*
X025910Y028096D01*
X025910Y028254D02*
X025225Y028254D01*
X025225Y028413D02*
X025910Y028413D01*
X025910Y028571D02*
X025225Y028571D01*
X025225Y028730D02*
X025910Y028730D01*
X025910Y028888D02*
X025225Y028888D01*
X025225Y029047D02*
X025910Y029047D01*
X025910Y029205D02*
X025225Y029205D01*
X025225Y029364D02*
X025910Y029364D01*
X025910Y029522D02*
X025225Y029522D01*
X025225Y029681D02*
X025910Y029681D01*
X025910Y029839D02*
X025225Y029839D01*
X025225Y029998D02*
X025776Y029998D01*
X025660Y030156D02*
X025225Y030156D01*
X025225Y030315D02*
X025660Y030315D01*
X025660Y030473D02*
X025225Y030473D01*
X025225Y030632D02*
X025660Y030632D01*
X025660Y030790D02*
X025225Y030790D01*
X025225Y030949D02*
X025660Y030949D01*
X025660Y031107D02*
X025225Y031107D01*
X025225Y031266D02*
X025660Y031266D01*
X025660Y031424D02*
X025225Y031424D01*
X025225Y031583D02*
X025660Y031583D01*
X025558Y031741D02*
X025225Y031741D01*
X025225Y031900D02*
X025399Y031900D01*
X025241Y032058D02*
X025225Y032058D01*
X025330Y032280D02*
X025880Y031730D01*
X025880Y030205D01*
X026130Y029955D01*
X026130Y027980D01*
X026680Y027430D01*
X027072Y027620D02*
X028785Y027620D01*
X028785Y027462D02*
X027115Y027462D01*
X027099Y027303D02*
X028785Y027303D01*
X028785Y027145D02*
X027010Y027145D01*
X026502Y026828D02*
X025594Y026828D01*
X025752Y026669D02*
X026308Y026669D01*
X026245Y026511D02*
X025911Y026511D01*
X026069Y026352D02*
X026245Y026352D01*
X026228Y026194D02*
X026307Y026194D01*
X026386Y026035D02*
X026496Y026035D01*
X026545Y025877D02*
X032590Y025877D01*
X032590Y025718D02*
X027008Y025718D01*
X027097Y025560D02*
X032590Y025560D01*
X032590Y025401D02*
X027115Y025401D01*
X027073Y025243D02*
X032590Y025243D01*
X032590Y025084D02*
X026950Y025084D01*
X026680Y025430D02*
X025005Y027105D01*
X025005Y032880D01*
X024905Y032980D01*
X024785Y032692D02*
X024725Y032692D01*
X024725Y032534D02*
X024785Y032534D01*
X024785Y032375D02*
X024725Y032375D01*
X024725Y032217D02*
X024785Y032217D01*
X024785Y032058D02*
X024725Y032058D01*
X024725Y031900D02*
X024785Y031900D01*
X024785Y031741D02*
X024725Y031741D01*
X024725Y031583D02*
X024785Y031583D01*
X024785Y031424D02*
X024725Y031424D01*
X024725Y031266D02*
X024785Y031266D01*
X024785Y031107D02*
X024725Y031107D01*
X024725Y030949D02*
X024785Y030949D01*
X024785Y030790D02*
X024725Y030790D01*
X024725Y030632D02*
X024785Y030632D01*
X024785Y030473D02*
X024725Y030473D01*
X024725Y030315D02*
X024785Y030315D01*
X024785Y030156D02*
X024725Y030156D01*
X024725Y029998D02*
X024785Y029998D01*
X024785Y029839D02*
X024725Y029839D01*
X024725Y029681D02*
X024785Y029681D01*
X024785Y029522D02*
X024708Y029522D01*
X024785Y029364D02*
X024550Y029364D01*
X024391Y029205D02*
X024785Y029205D01*
X024785Y029047D02*
X024233Y029047D01*
X024055Y029180D02*
X024505Y029630D01*
X024505Y032980D01*
X024289Y033168D02*
X024225Y033168D01*
X024225Y033326D02*
X026240Y033326D01*
X026240Y033485D02*
X024225Y033485D01*
X024225Y033643D02*
X026148Y033643D01*
X025990Y033802D02*
X024225Y033802D01*
X023785Y033802D02*
X023270Y033802D01*
X023429Y033960D02*
X023736Y033960D01*
X023723Y034119D02*
X023587Y034119D01*
X023746Y034277D02*
X023824Y034277D01*
X023785Y033643D02*
X023112Y033643D01*
X022953Y033485D02*
X023785Y033485D01*
X023785Y033326D02*
X022795Y033326D01*
X022636Y033168D02*
X023785Y033168D01*
X023785Y033009D02*
X022478Y033009D01*
X022319Y032851D02*
X023785Y032851D01*
X023785Y032692D02*
X022165Y032692D01*
X022128Y032534D02*
X023785Y032534D01*
X023785Y032375D02*
X022021Y032375D01*
X022180Y032217D02*
X023785Y032217D01*
X023785Y032058D02*
X023013Y032058D01*
X023172Y031900D02*
X023785Y031900D01*
X023785Y031741D02*
X023330Y031741D01*
X023489Y031583D02*
X023785Y031583D01*
X023785Y031424D02*
X023647Y031424D01*
X025330Y032280D02*
X025330Y032980D01*
X025380Y032930D01*
X025730Y032980D02*
X025730Y032455D01*
X025893Y032293D01*
X027130Y031055D01*
X027130Y029805D01*
X026630Y029305D01*
X026444Y029522D02*
X026350Y029522D01*
X026388Y029466D02*
X026350Y029374D01*
X026350Y029864D01*
X026350Y030046D01*
X026100Y030296D01*
X026100Y031774D01*
X026910Y030964D01*
X026910Y029896D01*
X026604Y029590D01*
X026573Y029590D01*
X026469Y029547D01*
X026388Y029466D01*
X026350Y029681D02*
X026694Y029681D01*
X026853Y029839D02*
X026350Y029839D01*
X026350Y029998D02*
X026910Y029998D01*
X026910Y030156D02*
X026240Y030156D01*
X026100Y030315D02*
X026910Y030315D01*
X026910Y030473D02*
X026100Y030473D01*
X026100Y030632D02*
X026910Y030632D01*
X026910Y030790D02*
X026100Y030790D01*
X026100Y030949D02*
X026910Y030949D01*
X026767Y031107D02*
X026100Y031107D01*
X026100Y031266D02*
X026608Y031266D01*
X026450Y031424D02*
X026100Y031424D01*
X026100Y031583D02*
X026291Y031583D01*
X026133Y031741D02*
X026100Y031741D01*
X025893Y032293D02*
X025755Y032430D01*
X026080Y032605D02*
X027380Y031305D01*
X027380Y029555D01*
X027380Y029130D01*
X026680Y028430D01*
X027078Y028254D02*
X028785Y028254D01*
X028785Y028096D02*
X026961Y028096D01*
X026947Y027779D02*
X028785Y027779D01*
X028785Y027937D02*
X026484Y027937D01*
X026399Y028096D02*
X026350Y028096D01*
X024785Y028096D02*
X023961Y028096D01*
X023927Y028061D02*
X024049Y028183D01*
X024115Y028343D01*
X024115Y028517D01*
X024049Y028677D01*
X023927Y028799D01*
X023767Y028865D01*
X023593Y028865D01*
X023433Y028799D01*
X023311Y028677D01*
X023245Y028517D01*
X023245Y028343D01*
X023311Y028183D01*
X023433Y028061D01*
X023593Y027995D01*
X023767Y027995D01*
X023927Y028061D01*
X024078Y028254D02*
X024785Y028254D01*
X024785Y028413D02*
X024115Y028413D01*
X024093Y028571D02*
X024785Y028571D01*
X024785Y028730D02*
X023996Y028730D01*
X024055Y029180D02*
X023380Y029180D01*
X022880Y028680D01*
X022880Y026230D01*
X023680Y025430D01*
X023287Y025243D02*
X023179Y025243D01*
X023245Y025401D02*
X023020Y025401D01*
X022862Y025560D02*
X023239Y025560D01*
X023081Y025718D02*
X022850Y025718D01*
X022850Y025877D02*
X022922Y025877D01*
X023337Y025084D02*
X023410Y025084D01*
X023496Y024926D02*
X032590Y024926D01*
X034086Y025084D02*
X034090Y025084D01*
X030473Y019061D02*
X029540Y019061D01*
X029500Y018903D02*
X030493Y018903D01*
X030568Y018744D02*
X028195Y018744D01*
X028195Y018586D02*
X030568Y018586D01*
X030568Y018427D02*
X029403Y018427D01*
X029527Y018269D02*
X030568Y018269D01*
X030706Y018110D02*
X029534Y018110D01*
X029430Y017952D02*
X030865Y017952D01*
X030749Y017793D02*
X028195Y017793D01*
X028195Y017635D02*
X030591Y017635D01*
X030568Y017476D02*
X028195Y017476D01*
X028195Y017318D02*
X030568Y017318D01*
X030568Y017159D02*
X028195Y017159D01*
X028195Y017001D02*
X030568Y017001D01*
X030484Y016842D02*
X028277Y016842D01*
X028284Y016684D02*
X030480Y016684D01*
X030587Y016525D02*
X028178Y016525D01*
X028320Y017952D02*
X029080Y017952D01*
X029107Y018427D02*
X028302Y018427D01*
X028281Y018903D02*
X029010Y018903D01*
X028970Y019061D02*
X028280Y019061D01*
X029201Y019378D02*
X029309Y019378D01*
X031128Y017635D02*
X031240Y017635D01*
X031240Y017476D02*
X030970Y017476D01*
X030948Y017318D02*
X031240Y017318D01*
X031240Y017159D02*
X030948Y017159D01*
X030948Y017001D02*
X031240Y017001D01*
X031240Y016842D02*
X031031Y016842D01*
X031035Y016684D02*
X031240Y016684D01*
X031240Y016525D02*
X030928Y016525D01*
X031620Y016684D02*
X031647Y016684D01*
X031620Y016842D02*
X031620Y016842D01*
X031620Y017001D02*
X031697Y017001D01*
X031715Y017159D02*
X031620Y017159D01*
X031620Y017318D02*
X031715Y017318D01*
X031629Y017476D02*
X031620Y017476D01*
X031620Y017635D02*
X031629Y017635D01*
X031620Y017793D02*
X031715Y017793D01*
X031715Y017952D02*
X031620Y017952D01*
X033220Y018427D02*
X033574Y018427D01*
X031709Y015733D02*
X011198Y015733D01*
X011254Y015257D02*
X011327Y015257D01*
X011342Y014940D02*
X011243Y014940D01*
X011823Y010661D02*
X003260Y010661D01*
X003260Y010819D02*
X047092Y010819D01*
X047092Y010978D02*
X003260Y010978D01*
X003260Y011136D02*
X047092Y011136D01*
X047092Y011295D02*
X003260Y011295D01*
X003260Y011453D02*
X047092Y011453D01*
X047092Y011612D02*
X003260Y011612D01*
X003260Y011770D02*
X047092Y011770D01*
X047092Y011929D02*
X003260Y011929D01*
X003260Y012087D02*
X047092Y012087D01*
X047092Y012246D02*
X003260Y012246D01*
X003260Y012404D02*
X047092Y012404D01*
X047092Y012563D02*
X003260Y012563D01*
X003260Y012721D02*
X047092Y012721D01*
X047092Y012880D02*
X003260Y012880D01*
X003260Y013038D02*
X047092Y013038D01*
X047092Y013197D02*
X003260Y013197D01*
X003260Y013355D02*
X047092Y013355D01*
X047092Y013514D02*
X003260Y013514D01*
X003260Y013672D02*
X047092Y013672D01*
X047092Y013831D02*
X003260Y013831D01*
X003260Y013989D02*
X047092Y013989D01*
X047092Y014148D02*
X003260Y014148D01*
X003260Y014306D02*
X047092Y014306D01*
X047092Y014465D02*
X003260Y014465D01*
X003260Y014623D02*
X047092Y014623D01*
X047092Y024926D02*
X042068Y024926D01*
X042103Y025084D02*
X047092Y025084D01*
X047092Y025243D02*
X042046Y025243D01*
X042008Y025401D02*
X047092Y025401D01*
X047092Y025560D02*
X042008Y025560D01*
X042008Y025718D02*
X047092Y025718D01*
X047092Y025877D02*
X042008Y025877D01*
X042008Y026035D02*
X047092Y026035D01*
X047092Y026194D02*
X042008Y026194D01*
X042008Y026352D02*
X047092Y026352D01*
X047092Y026511D02*
X042008Y026511D01*
X042008Y026669D02*
X047092Y026669D01*
X047092Y026828D02*
X042008Y026828D01*
X041993Y026986D02*
X047092Y026986D01*
X047092Y034753D02*
X036944Y034753D01*
X037102Y034911D02*
X047092Y034911D01*
X047092Y035070D02*
X042261Y035070D01*
X042419Y035228D02*
X047092Y035228D01*
X047092Y036972D02*
X035320Y036972D01*
X035161Y037130D02*
X047092Y037130D01*
X047092Y037289D02*
X035003Y037289D01*
X034844Y037447D02*
X047092Y037447D01*
X047092Y037606D02*
X003260Y037606D01*
X003260Y037764D02*
X047092Y037764D01*
X047092Y037923D02*
X003260Y037923D01*
X003260Y038081D02*
X047092Y038081D01*
X047092Y038240D02*
X003260Y038240D01*
X003260Y038398D02*
X047092Y038398D01*
X047092Y038557D02*
X003260Y038557D01*
X003260Y038715D02*
X047092Y038715D01*
X047092Y038874D02*
X003260Y038874D01*
X003260Y039032D02*
X047092Y039032D01*
X047092Y039191D02*
X003260Y039191D01*
X003260Y039349D02*
X047092Y039349D01*
X047092Y039508D02*
X003260Y039508D01*
X003260Y039666D02*
X017129Y039666D01*
X017138Y039644D02*
X017219Y039563D01*
X017323Y039520D01*
X017437Y039520D01*
X017541Y039563D01*
X017622Y039644D01*
X017665Y039748D01*
X017665Y039862D01*
X017622Y039966D01*
X017541Y040047D01*
X017437Y040090D01*
X017406Y040090D01*
X015290Y042206D01*
X015290Y042237D01*
X015247Y042341D01*
X015166Y042422D01*
X015062Y042465D01*
X014948Y042465D01*
X014844Y042422D01*
X014763Y042341D01*
X014720Y042237D01*
X014720Y042123D01*
X014763Y042019D01*
X014844Y041938D01*
X014948Y041895D01*
X014979Y041895D01*
X017095Y039779D01*
X017095Y039748D01*
X017138Y039644D01*
X017049Y039825D02*
X003260Y039825D01*
X003260Y039983D02*
X016891Y039983D01*
X016732Y040142D02*
X003260Y040142D01*
X003260Y040300D02*
X016574Y040300D01*
X016415Y040459D02*
X003260Y040459D01*
X003260Y040617D02*
X016257Y040617D01*
X016098Y040776D02*
X003260Y040776D01*
X003260Y040934D02*
X015940Y040934D01*
X015781Y041093D02*
X003260Y041093D01*
X003260Y041251D02*
X015623Y041251D01*
X015464Y041410D02*
X003260Y041410D01*
X003260Y041568D02*
X015306Y041568D01*
X015147Y041727D02*
X003260Y041727D01*
X003260Y041885D02*
X014989Y041885D01*
X014753Y042044D02*
X003260Y042044D01*
X003260Y042202D02*
X014720Y042202D01*
X014783Y042361D02*
X003260Y042361D01*
X003260Y042519D02*
X016930Y042519D01*
X016839Y042610D02*
X017359Y042090D01*
X017388Y042019D01*
X017410Y041997D01*
X017410Y041363D01*
X017388Y041341D01*
X017345Y041237D01*
X017345Y041123D01*
X017388Y041019D01*
X017469Y040938D01*
X017573Y040895D01*
X017687Y040895D01*
X017791Y040938D01*
X017872Y041019D01*
X017915Y041123D01*
X017915Y041237D01*
X017872Y041341D01*
X017850Y041363D01*
X017850Y041997D01*
X017872Y042019D01*
X017915Y042123D01*
X017915Y042237D01*
X017872Y042341D01*
X017791Y042422D01*
X017687Y042465D01*
X017606Y042465D01*
X017150Y042921D01*
X017150Y043389D01*
X017371Y043610D01*
X022341Y043610D01*
X022897Y044166D01*
X022915Y044148D01*
X023054Y044090D01*
X023206Y044090D01*
X023345Y044148D01*
X023363Y044166D01*
X023819Y043710D01*
X027441Y043710D01*
X027897Y044166D01*
X027915Y044148D01*
X028054Y044090D01*
X028206Y044090D01*
X028345Y044148D01*
X028452Y044255D01*
X028510Y044394D01*
X028510Y045019D01*
X028750Y044779D01*
X028750Y044394D01*
X028808Y044255D01*
X028910Y044153D01*
X028910Y041363D01*
X028888Y041341D01*
X028845Y041237D01*
X028845Y041123D01*
X028888Y041019D01*
X028969Y040938D01*
X029073Y040895D01*
X029187Y040895D01*
X029291Y040938D01*
X029372Y041019D01*
X029415Y041123D01*
X029415Y041154D01*
X031521Y043260D01*
X037821Y043260D01*
X037950Y043389D01*
X038712Y044151D01*
X038715Y044148D01*
X038854Y044090D01*
X039006Y044090D01*
X039145Y044148D01*
X039252Y044255D01*
X039310Y044394D01*
X039310Y044749D01*
X039550Y044989D01*
X039550Y044394D01*
X039608Y044255D01*
X039715Y044148D01*
X039854Y044090D01*
X040006Y044090D01*
X040145Y044148D01*
X040252Y044255D01*
X040310Y044394D01*
X040310Y045026D01*
X040252Y045165D01*
X040157Y045260D01*
X040703Y045260D01*
X040608Y045165D01*
X040550Y045026D01*
X040550Y044394D01*
X040608Y044255D01*
X040715Y044148D01*
X040854Y044090D01*
X041006Y044090D01*
X041145Y044148D01*
X041252Y044255D01*
X041310Y044394D01*
X041310Y045026D01*
X041252Y045165D01*
X041157Y045260D01*
X041703Y045260D01*
X041608Y045165D01*
X041550Y045026D01*
X041550Y044394D01*
X041608Y044255D01*
X041715Y044148D01*
X041854Y044090D01*
X042006Y044090D01*
X042145Y044148D01*
X042148Y044151D01*
X042360Y043939D01*
X042489Y043810D01*
X044171Y043810D01*
X044521Y044160D01*
X044650Y044289D01*
X044650Y045421D01*
X044250Y045821D01*
X044121Y045950D01*
X036859Y045950D01*
X036163Y045254D01*
X036145Y045272D01*
X036006Y045330D01*
X035854Y045330D01*
X035715Y045272D01*
X035608Y045165D01*
X035550Y045026D01*
X035550Y044394D01*
X035608Y044255D01*
X035715Y044148D01*
X035854Y044090D01*
X036006Y044090D01*
X036145Y044148D01*
X036252Y044255D01*
X036310Y044394D01*
X036310Y044779D01*
X036550Y045019D01*
X036550Y044394D01*
X036608Y044255D01*
X036715Y044148D01*
X036854Y044090D01*
X037006Y044090D01*
X037145Y044148D01*
X037252Y044255D01*
X037310Y044394D01*
X037310Y045026D01*
X037252Y045165D01*
X037145Y045272D01*
X037006Y045330D01*
X036861Y045330D01*
X037041Y045510D01*
X039449Y045510D01*
X039178Y045239D01*
X039145Y045272D01*
X039006Y045330D01*
X038854Y045330D01*
X038715Y045272D01*
X038608Y045165D01*
X038550Y045026D01*
X038550Y044611D01*
X038294Y044355D01*
X038310Y044394D01*
X038310Y045026D01*
X038252Y045165D01*
X038145Y045272D01*
X038006Y045330D01*
X037854Y045330D01*
X037715Y045272D01*
X037608Y045165D01*
X037550Y045026D01*
X037550Y044394D01*
X037608Y044255D01*
X037715Y044148D01*
X037854Y044090D01*
X038006Y044090D01*
X038045Y044106D01*
X037639Y043700D01*
X031339Y043700D01*
X029350Y041711D01*
X029350Y044153D01*
X029452Y044255D01*
X029510Y044394D01*
X029510Y045026D01*
X029452Y045165D01*
X029345Y045272D01*
X029206Y045330D01*
X029054Y045330D01*
X028915Y045272D01*
X028897Y045254D01*
X028451Y045700D01*
X024789Y045700D01*
X024660Y045571D01*
X024353Y045264D01*
X024345Y045272D01*
X024206Y045330D01*
X024054Y045330D01*
X023915Y045272D01*
X023882Y045239D01*
X023550Y045571D01*
X023421Y045700D01*
X015009Y045700D01*
X014563Y045254D01*
X014545Y045272D01*
X014406Y045330D01*
X014254Y045330D01*
X014115Y045272D01*
X014008Y045165D01*
X013950Y045026D01*
X013950Y044401D01*
X013710Y044641D01*
X013710Y045026D01*
X013652Y045165D01*
X013545Y045272D01*
X013406Y045330D01*
X013254Y045330D01*
X013115Y045272D01*
X013008Y045165D01*
X012950Y045026D01*
X012950Y044641D01*
X012710Y044401D01*
X012710Y045026D01*
X012652Y045165D01*
X012545Y045272D01*
X012406Y045330D01*
X012254Y045330D01*
X012115Y045272D01*
X012097Y045254D01*
X011651Y045700D01*
X006989Y045700D01*
X006860Y045571D01*
X006553Y045264D01*
X006545Y045272D01*
X006406Y045330D01*
X006254Y045330D01*
X006115Y045272D01*
X006008Y045165D01*
X005950Y045026D01*
X005950Y044394D01*
X006008Y044255D01*
X006115Y044148D01*
X006254Y044090D01*
X006406Y044090D01*
X006545Y044148D01*
X006652Y044255D01*
X006710Y044394D01*
X006710Y044799D01*
X006959Y045048D01*
X006950Y045026D01*
X006950Y044394D01*
X007008Y044255D01*
X007115Y044148D01*
X007254Y044090D01*
X007406Y044090D01*
X007545Y044148D01*
X007652Y044255D01*
X007710Y044394D01*
X007710Y045026D01*
X007652Y045165D01*
X007557Y045260D01*
X008103Y045260D01*
X008008Y045165D01*
X007950Y045026D01*
X007950Y044394D01*
X008008Y044255D01*
X008115Y044148D01*
X008254Y044090D01*
X008406Y044090D01*
X008545Y044148D01*
X008548Y044151D01*
X008860Y043839D01*
X008989Y043710D01*
X012641Y043710D01*
X013097Y044166D01*
X013115Y044148D01*
X013254Y044090D01*
X013406Y044090D01*
X013545Y044148D01*
X013563Y044166D01*
X014119Y043610D01*
X016489Y043610D01*
X016710Y043389D01*
X016710Y042739D01*
X016839Y042610D01*
X016771Y042678D02*
X003260Y042678D01*
X003260Y042836D02*
X016710Y042836D01*
X016710Y042995D02*
X003260Y042995D01*
X003260Y043153D02*
X016710Y043153D01*
X016710Y043312D02*
X003260Y043312D01*
X003260Y043470D02*
X016629Y043470D01*
X016930Y043480D02*
X017280Y043830D01*
X022180Y043830D01*
X022250Y043830D01*
X023130Y044710D01*
X023910Y043930D01*
X024130Y043930D01*
X027280Y043930D01*
X027350Y043930D01*
X028130Y044710D01*
X028510Y044738D02*
X028750Y044738D01*
X028750Y044580D02*
X028510Y044580D01*
X028510Y044421D02*
X028750Y044421D01*
X028805Y044263D02*
X028455Y044263D01*
X028240Y044104D02*
X028910Y044104D01*
X028910Y043946D02*
X027677Y043946D01*
X027835Y044104D02*
X028020Y044104D01*
X027518Y043787D02*
X028910Y043787D01*
X028910Y043629D02*
X022360Y043629D01*
X022518Y043787D02*
X023742Y043787D01*
X023583Y043946D02*
X022677Y043946D01*
X022835Y044104D02*
X023020Y044104D01*
X023240Y044104D02*
X023425Y044104D01*
X024100Y044710D02*
X023330Y045480D01*
X015100Y045480D01*
X014330Y044710D01*
X013950Y044738D02*
X013710Y044738D01*
X013710Y044897D02*
X013950Y044897D01*
X013962Y045055D02*
X013698Y045055D01*
X013604Y045214D02*
X014056Y045214D01*
X013950Y044580D02*
X013772Y044580D01*
X013930Y044421D02*
X013950Y044421D01*
X013625Y044104D02*
X013440Y044104D01*
X013220Y044104D02*
X013035Y044104D01*
X012877Y043946D02*
X013783Y043946D01*
X013942Y043787D02*
X012718Y043787D01*
X012550Y043930D02*
X013330Y044710D01*
X013495Y044545D01*
X014210Y043830D01*
X014230Y043830D01*
X016580Y043830D01*
X016930Y043480D01*
X016930Y042830D01*
X017580Y042180D01*
X017630Y042180D01*
X017630Y041180D01*
X017902Y041093D02*
X019608Y041093D01*
X019595Y041123D02*
X019638Y041019D01*
X019719Y040938D01*
X019823Y040895D01*
X019937Y040895D01*
X020041Y040938D01*
X020122Y041019D01*
X020165Y041123D01*
X020165Y041237D01*
X020122Y041341D01*
X020100Y041363D01*
X020100Y041997D01*
X020122Y042019D01*
X020165Y042123D01*
X020165Y042237D01*
X020122Y042341D01*
X020041Y042422D01*
X019937Y042465D01*
X019823Y042465D01*
X019719Y042422D01*
X019638Y042341D01*
X019595Y042237D01*
X019595Y042123D01*
X019638Y042019D01*
X019660Y041997D01*
X019660Y041363D01*
X019638Y041341D01*
X019595Y041237D01*
X019595Y041123D01*
X019601Y041251D02*
X017909Y041251D01*
X017850Y041410D02*
X019660Y041410D01*
X019660Y041568D02*
X017850Y041568D01*
X017850Y041727D02*
X019660Y041727D01*
X019660Y041885D02*
X017850Y041885D01*
X017882Y042044D02*
X019628Y042044D01*
X019595Y042202D02*
X017915Y042202D01*
X017852Y042361D02*
X019658Y042361D01*
X019880Y042180D02*
X019880Y041180D01*
X020152Y041093D02*
X024858Y041093D01*
X024845Y041123D02*
X024888Y041019D01*
X024969Y040938D01*
X025073Y040895D01*
X025187Y040895D01*
X025291Y040938D01*
X025372Y041019D01*
X025415Y041123D01*
X025415Y041237D01*
X025372Y041341D01*
X025350Y041363D01*
X025350Y041997D01*
X025372Y042019D01*
X025415Y042123D01*
X025415Y042237D01*
X025372Y042341D01*
X025291Y042422D01*
X025187Y042465D01*
X025073Y042465D01*
X024969Y042422D01*
X024888Y042341D01*
X024845Y042237D01*
X024845Y042123D01*
X024888Y042019D01*
X024910Y041997D01*
X024910Y041363D01*
X024888Y041341D01*
X024845Y041237D01*
X024845Y041123D01*
X024851Y041251D02*
X020159Y041251D01*
X020100Y041410D02*
X024910Y041410D01*
X024910Y041568D02*
X020100Y041568D01*
X020100Y041727D02*
X024910Y041727D01*
X024910Y041885D02*
X020100Y041885D01*
X020132Y042044D02*
X024878Y042044D01*
X024845Y042202D02*
X020165Y042202D01*
X020102Y042361D02*
X024908Y042361D01*
X025130Y042180D02*
X025130Y041180D01*
X025402Y041093D02*
X025858Y041093D01*
X025845Y041123D02*
X025888Y041019D01*
X025969Y040938D01*
X026073Y040895D01*
X026187Y040895D01*
X026291Y040938D01*
X026372Y041019D01*
X026415Y041123D01*
X026415Y041237D01*
X026372Y041341D01*
X026350Y041363D01*
X026350Y041997D01*
X026372Y042019D01*
X026415Y042123D01*
X026415Y042237D01*
X026372Y042341D01*
X026291Y042422D01*
X026187Y042465D01*
X026073Y042465D01*
X025969Y042422D01*
X025888Y042341D01*
X025845Y042237D01*
X025845Y042123D01*
X025888Y042019D01*
X025910Y041997D01*
X025910Y041363D01*
X025888Y041341D01*
X025845Y041237D01*
X025845Y041123D01*
X025851Y041251D02*
X025409Y041251D01*
X025350Y041410D02*
X025910Y041410D01*
X025910Y041568D02*
X025350Y041568D01*
X025350Y041727D02*
X025910Y041727D01*
X025910Y041885D02*
X025350Y041885D01*
X025382Y042044D02*
X025878Y042044D01*
X025845Y042202D02*
X025415Y042202D01*
X025352Y042361D02*
X025908Y042361D01*
X026130Y042180D02*
X026130Y041180D01*
X026402Y041093D02*
X028858Y041093D01*
X028851Y041251D02*
X026409Y041251D01*
X026350Y041410D02*
X028910Y041410D01*
X028910Y041568D02*
X026350Y041568D01*
X026350Y041727D02*
X028910Y041727D01*
X028910Y041885D02*
X026350Y041885D01*
X026382Y042044D02*
X028910Y042044D01*
X028910Y042202D02*
X026415Y042202D01*
X026352Y042361D02*
X028910Y042361D01*
X028910Y042519D02*
X017552Y042519D01*
X017394Y042678D02*
X028910Y042678D01*
X028910Y042836D02*
X017235Y042836D01*
X017150Y042995D02*
X028910Y042995D01*
X028910Y043153D02*
X017150Y043153D01*
X017150Y043312D02*
X028910Y043312D01*
X028910Y043470D02*
X017231Y043470D01*
X017088Y042361D02*
X016102Y042361D01*
X016122Y042341D02*
X016041Y042422D01*
X015937Y042465D01*
X015823Y042465D01*
X015719Y042422D01*
X015638Y042341D01*
X015595Y042237D01*
X015595Y042123D01*
X015638Y042019D01*
X015719Y041938D01*
X015823Y041895D01*
X015854Y041895D01*
X017970Y039779D01*
X017970Y039748D01*
X018013Y039644D01*
X018094Y039563D01*
X018198Y039520D01*
X018312Y039520D01*
X018416Y039563D01*
X018497Y039644D01*
X018540Y039748D01*
X018540Y039862D01*
X018497Y039966D01*
X018416Y040047D01*
X018312Y040090D01*
X018281Y040090D01*
X016165Y042206D01*
X016165Y042237D01*
X016122Y042341D01*
X016169Y042202D02*
X017247Y042202D01*
X017378Y042044D02*
X016328Y042044D01*
X016486Y041885D02*
X017410Y041885D01*
X017410Y041727D02*
X016645Y041727D01*
X016803Y041568D02*
X017410Y041568D01*
X017410Y041410D02*
X016962Y041410D01*
X017120Y041251D02*
X017351Y041251D01*
X017358Y041093D02*
X017279Y041093D01*
X017437Y040934D02*
X017479Y040934D01*
X017596Y040776D02*
X047092Y040776D01*
X047092Y040934D02*
X029281Y040934D01*
X029402Y041093D02*
X047092Y041093D01*
X047092Y041251D02*
X029512Y041251D01*
X029671Y041410D02*
X047092Y041410D01*
X047092Y041568D02*
X037421Y041568D01*
X037416Y041563D02*
X037497Y041644D01*
X037540Y041748D01*
X037540Y041862D01*
X037497Y041966D01*
X037416Y042047D01*
X037312Y042090D01*
X037198Y042090D01*
X037094Y042047D01*
X037072Y042025D01*
X034438Y042025D01*
X034416Y042047D01*
X034312Y042090D01*
X034198Y042090D01*
X034094Y042047D01*
X034013Y041966D01*
X033970Y041862D01*
X033970Y041748D01*
X034013Y041644D01*
X034094Y041563D01*
X034198Y041520D01*
X034312Y041520D01*
X034416Y041563D01*
X034438Y041585D01*
X037072Y041585D01*
X037094Y041563D01*
X037198Y041520D01*
X037312Y041520D01*
X037416Y041563D01*
X037531Y041727D02*
X047092Y041727D01*
X047092Y041885D02*
X037530Y041885D01*
X037419Y042044D02*
X047092Y042044D01*
X047092Y042202D02*
X030463Y042202D01*
X030305Y042044D02*
X034091Y042044D01*
X033980Y041885D02*
X030146Y041885D01*
X029988Y041727D02*
X033979Y041727D01*
X034089Y041568D02*
X029829Y041568D01*
X029524Y041885D02*
X029350Y041885D01*
X029350Y041727D02*
X029365Y041727D01*
X029350Y042044D02*
X029682Y042044D01*
X029841Y042202D02*
X029350Y042202D01*
X029350Y042361D02*
X029999Y042361D01*
X030158Y042519D02*
X029350Y042519D01*
X029350Y042678D02*
X030316Y042678D01*
X030475Y042836D02*
X029350Y042836D01*
X029350Y042995D02*
X030633Y042995D01*
X030792Y043153D02*
X029350Y043153D01*
X029350Y043312D02*
X030950Y043312D01*
X031109Y043470D02*
X029350Y043470D01*
X029350Y043629D02*
X031267Y043629D01*
X031430Y043480D02*
X029130Y041180D01*
X029130Y044710D01*
X028360Y045480D01*
X024880Y045480D01*
X024130Y044730D01*
X024130Y044710D01*
X024100Y044710D01*
X023749Y045372D02*
X024461Y045372D01*
X024619Y045531D02*
X023591Y045531D01*
X023432Y045689D02*
X024778Y045689D01*
X028462Y045689D02*
X036598Y045689D01*
X036756Y045848D02*
X003260Y045848D01*
X003260Y046006D02*
X047092Y046006D01*
X047092Y045848D02*
X044224Y045848D01*
X044382Y045689D02*
X047092Y045689D01*
X047092Y045531D02*
X044541Y045531D01*
X044650Y045372D02*
X047092Y045372D01*
X047092Y045214D02*
X044650Y045214D01*
X044650Y045055D02*
X047092Y045055D01*
X047092Y044897D02*
X044650Y044897D01*
X044650Y044738D02*
X047092Y044738D01*
X047092Y044580D02*
X044650Y044580D01*
X044650Y044421D02*
X047092Y044421D01*
X047092Y044263D02*
X044624Y044263D01*
X044465Y044104D02*
X047092Y044104D01*
X047092Y043946D02*
X044307Y043946D01*
X044080Y044030D02*
X044430Y044380D01*
X044430Y045330D01*
X044030Y045730D01*
X036950Y045730D01*
X035930Y044710D01*
X036310Y044738D02*
X036550Y044738D01*
X036550Y044580D02*
X036310Y044580D01*
X036310Y044421D02*
X036550Y044421D01*
X036605Y044263D02*
X036255Y044263D01*
X036040Y044104D02*
X036820Y044104D01*
X037040Y044104D02*
X037820Y044104D01*
X037884Y043946D02*
X029350Y043946D01*
X029350Y044104D02*
X035820Y044104D01*
X035605Y044263D02*
X029455Y044263D01*
X029510Y044421D02*
X035550Y044421D01*
X035550Y044580D02*
X029510Y044580D01*
X029510Y044738D02*
X035550Y044738D01*
X035550Y044897D02*
X029510Y044897D01*
X029498Y045055D02*
X035562Y045055D01*
X035656Y045214D02*
X029404Y045214D01*
X028779Y045372D02*
X036281Y045372D01*
X036439Y045531D02*
X028621Y045531D01*
X028632Y044897D02*
X028510Y044897D01*
X029350Y043787D02*
X037726Y043787D01*
X037730Y043480D02*
X031430Y043480D01*
X031414Y043153D02*
X047092Y043153D01*
X047092Y042995D02*
X031256Y042995D01*
X031097Y042836D02*
X047092Y042836D01*
X047092Y042678D02*
X030939Y042678D01*
X030780Y042519D02*
X047092Y042519D01*
X047092Y042361D02*
X030622Y042361D01*
X028979Y040934D02*
X026281Y040934D01*
X025979Y040934D02*
X025281Y040934D01*
X024979Y040934D02*
X020031Y040934D01*
X019729Y040934D02*
X017781Y040934D01*
X017754Y040617D02*
X047092Y040617D01*
X047092Y040459D02*
X017913Y040459D01*
X018071Y040300D02*
X047092Y040300D01*
X047092Y040142D02*
X018230Y040142D01*
X018480Y039983D02*
X047092Y039983D01*
X047092Y039825D02*
X018540Y039825D01*
X018506Y039666D02*
X047092Y039666D01*
X047092Y043312D02*
X037873Y043312D01*
X037730Y043480D02*
X038930Y044680D01*
X038930Y044710D01*
X038960Y044710D01*
X039730Y045480D01*
X043160Y045480D01*
X043930Y044710D01*
X044080Y044030D02*
X042580Y044030D01*
X041930Y044680D01*
X041930Y044710D01*
X041550Y044738D02*
X041310Y044738D01*
X041310Y044580D02*
X041550Y044580D01*
X041550Y044421D02*
X041310Y044421D01*
X041255Y044263D02*
X041605Y044263D01*
X041820Y044104D02*
X041040Y044104D01*
X040820Y044104D02*
X040040Y044104D01*
X039820Y044104D02*
X039040Y044104D01*
X038820Y044104D02*
X038665Y044104D01*
X038507Y043946D02*
X042353Y043946D01*
X042195Y044104D02*
X042040Y044104D01*
X041550Y044897D02*
X041310Y044897D01*
X041298Y045055D02*
X041562Y045055D01*
X041656Y045214D02*
X041204Y045214D01*
X040656Y045214D02*
X040204Y045214D01*
X040298Y045055D02*
X040562Y045055D01*
X040550Y044897D02*
X040310Y044897D01*
X040310Y044738D02*
X040550Y044738D01*
X040550Y044580D02*
X040310Y044580D01*
X040310Y044421D02*
X040550Y044421D01*
X040605Y044263D02*
X040255Y044263D01*
X039605Y044263D02*
X039255Y044263D01*
X039310Y044421D02*
X039550Y044421D01*
X039550Y044580D02*
X039310Y044580D01*
X039310Y044738D02*
X039550Y044738D01*
X039550Y044897D02*
X039458Y044897D01*
X039311Y045372D02*
X036903Y045372D01*
X037204Y045214D02*
X037656Y045214D01*
X037562Y045055D02*
X037298Y045055D01*
X037310Y044897D02*
X037550Y044897D01*
X037550Y044738D02*
X037310Y044738D01*
X037310Y044580D02*
X037550Y044580D01*
X037550Y044421D02*
X037310Y044421D01*
X037255Y044263D02*
X037605Y044263D01*
X038040Y044104D02*
X038043Y044104D01*
X038310Y044421D02*
X038360Y044421D01*
X038310Y044580D02*
X038518Y044580D01*
X038550Y044738D02*
X038310Y044738D01*
X038310Y044897D02*
X038550Y044897D01*
X038562Y045055D02*
X038298Y045055D01*
X038204Y045214D02*
X038656Y045214D01*
X038348Y043787D02*
X047092Y043787D01*
X047092Y043629D02*
X038190Y043629D01*
X038031Y043470D02*
X047092Y043470D01*
X047092Y046165D02*
X003260Y046165D01*
X003260Y046323D02*
X047092Y046323D01*
X047092Y046482D02*
X003260Y046482D01*
X003260Y046640D02*
X047092Y046640D01*
X047092Y046799D02*
X003260Y046799D01*
X003260Y046957D02*
X047092Y046957D01*
X037255Y041805D02*
X034255Y041805D01*
X034421Y041568D02*
X037089Y041568D01*
X037091Y042044D02*
X034419Y042044D01*
X036428Y044897D02*
X036550Y044897D01*
X032405Y037055D02*
X031755Y037055D01*
X031005Y037055D01*
X027155Y037055D01*
X027135Y037055D01*
X026605Y037055D01*
X026130Y036580D01*
X026130Y036050D01*
X025423Y036655D02*
X025243Y036655D01*
X025017Y036655D02*
X024243Y036655D01*
X024017Y036655D02*
X023243Y036655D01*
X023017Y036655D02*
X022837Y036655D01*
X022678Y036813D02*
X025582Y036813D01*
X025740Y036972D02*
X022520Y036972D01*
X022361Y037130D02*
X025899Y037130D01*
X026057Y037289D02*
X003260Y037289D01*
X003260Y037447D02*
X026216Y037447D01*
X024804Y036496D02*
X024456Y036496D01*
X024510Y036338D02*
X024750Y036338D01*
X024750Y036179D02*
X024510Y036179D01*
X024510Y036021D02*
X024750Y036021D01*
X024626Y035862D02*
X024510Y035862D01*
X024150Y035387D02*
X022105Y035387D01*
X022402Y035545D02*
X022858Y035545D01*
X022763Y035704D02*
X022497Y035704D01*
X022510Y035862D02*
X022750Y035862D01*
X022750Y036021D02*
X022510Y036021D01*
X022510Y036179D02*
X022690Y036179D01*
X022531Y036338D02*
X022510Y036338D01*
X022130Y036050D02*
X021450Y036730D01*
X021330Y036730D01*
X018330Y036730D01*
X018099Y036810D02*
X016839Y035550D01*
X014607Y035550D01*
X014652Y035595D01*
X014710Y035734D01*
X014710Y036366D01*
X014652Y036505D01*
X014545Y036612D01*
X014406Y036670D01*
X014261Y036670D01*
X014401Y036810D01*
X018099Y036810D01*
X017943Y036655D02*
X014443Y036655D01*
X014656Y036496D02*
X017785Y036496D01*
X017626Y036338D02*
X014710Y036338D01*
X014710Y036179D02*
X017468Y036179D01*
X017309Y036021D02*
X014710Y036021D01*
X014710Y035862D02*
X017151Y035862D01*
X016992Y035704D02*
X014697Y035704D01*
X013940Y036972D02*
X003260Y036972D01*
X003260Y037130D02*
X014099Y037130D01*
X014310Y037030D02*
X013330Y036050D01*
X012950Y036021D02*
X012710Y036021D01*
X012710Y036179D02*
X012950Y036179D01*
X012950Y036338D02*
X012710Y036338D01*
X012656Y036496D02*
X013004Y036496D01*
X012950Y035862D02*
X012710Y035862D01*
X012697Y035704D02*
X012963Y035704D01*
X011950Y035862D02*
X011829Y035862D01*
X009950Y036021D02*
X009710Y036021D01*
X009710Y036179D02*
X009950Y036179D01*
X009950Y036338D02*
X009710Y036338D01*
X009656Y036496D02*
X010004Y036496D01*
X009831Y035862D02*
X009710Y035862D01*
X009560Y035280D02*
X007030Y035280D01*
X006330Y035980D01*
X006330Y036050D01*
X006710Y036021D02*
X006950Y036021D01*
X006950Y036179D02*
X006710Y036179D01*
X006710Y036338D02*
X006950Y036338D01*
X007004Y036496D02*
X006656Y036496D01*
X006759Y035862D02*
X006950Y035862D01*
X006963Y035704D02*
X006918Y035704D01*
X006612Y035387D02*
X003260Y035387D01*
X003260Y035545D02*
X006058Y035545D01*
X005963Y035704D02*
X003260Y035704D01*
X003260Y035862D02*
X005950Y035862D01*
X005950Y036021D02*
X003260Y036021D01*
X003260Y036179D02*
X005950Y036179D01*
X005950Y036338D02*
X003260Y036338D01*
X003260Y036496D02*
X006004Y036496D01*
X006771Y035228D02*
X003260Y035228D01*
X003260Y035070D02*
X006929Y035070D01*
X007602Y035545D02*
X008058Y035545D01*
X007963Y035704D02*
X007697Y035704D01*
X007710Y035862D02*
X007950Y035862D01*
X007950Y036021D02*
X007710Y036021D01*
X007710Y036179D02*
X007950Y036179D01*
X007950Y036338D02*
X007710Y036338D01*
X007656Y036496D02*
X008004Y036496D01*
X008656Y036496D02*
X009004Y036496D01*
X008950Y036338D02*
X008710Y036338D01*
X008710Y036179D02*
X008950Y036179D01*
X008950Y036021D02*
X008710Y036021D01*
X008710Y035862D02*
X008950Y035862D01*
X008963Y035704D02*
X008697Y035704D01*
X008602Y035545D02*
X009058Y035545D01*
X014310Y037030D02*
X022050Y037030D01*
X022150Y037030D01*
X023130Y036050D01*
X023510Y036021D02*
X023750Y036021D01*
X023750Y036179D02*
X023510Y036179D01*
X023510Y036338D02*
X023750Y036338D01*
X023804Y036496D02*
X023456Y036496D01*
X023510Y035862D02*
X023750Y035862D01*
X023763Y035704D02*
X023497Y035704D01*
X023402Y035545D02*
X023858Y035545D01*
X026080Y032930D02*
X026080Y032605D01*
X027130Y032680D02*
X027130Y034555D01*
X027130Y034630D01*
X027580Y035080D01*
X028255Y035080D01*
X027855Y034780D02*
X027630Y034555D01*
X027630Y032555D01*
X027380Y032305D01*
X024785Y028888D02*
X023399Y028888D01*
X023364Y028730D02*
X023241Y028730D01*
X023267Y028571D02*
X023100Y028571D01*
X023100Y028413D02*
X023245Y028413D01*
X023282Y028254D02*
X023100Y028254D01*
X023100Y028096D02*
X023399Y028096D01*
X022410Y028096D02*
X022020Y028096D01*
X022020Y028254D02*
X022410Y028254D01*
X022410Y028413D02*
X022020Y028413D01*
X022020Y028571D02*
X022410Y028571D01*
X022410Y028730D02*
X022020Y028730D01*
X022020Y028888D02*
X022410Y028888D01*
X022560Y029047D02*
X022020Y029047D01*
X022020Y029205D02*
X022719Y029205D01*
X022877Y029364D02*
X022111Y029364D01*
X022100Y029522D02*
X023036Y029522D01*
X022410Y027937D02*
X022020Y027937D01*
X022020Y027779D02*
X022410Y027779D01*
X022410Y027620D02*
X022020Y027620D01*
X022020Y027462D02*
X022410Y027462D01*
X022410Y027303D02*
X022020Y027303D01*
X022020Y027145D02*
X022410Y027145D01*
X024052Y026669D02*
X025130Y026669D01*
X025288Y026511D02*
X024115Y026511D01*
X024115Y026352D02*
X025447Y026352D01*
X025605Y026194D02*
X024053Y026194D01*
X023864Y026035D02*
X025764Y026035D01*
X020264Y032058D02*
X003260Y032058D01*
X003260Y031900D02*
X020106Y031900D01*
X019947Y031741D02*
X003260Y031741D01*
X003260Y031583D02*
X019789Y031583D01*
X019630Y031424D02*
X003260Y031424D01*
X003260Y031266D02*
X019472Y031266D01*
X019313Y031107D02*
X003260Y031107D01*
X003260Y030949D02*
X019155Y030949D01*
X018996Y030790D02*
X003260Y030790D01*
X003260Y030632D02*
X018840Y030632D01*
X018840Y030473D02*
X003260Y030473D01*
X003260Y030315D02*
X018840Y030315D01*
X018840Y030156D02*
X003260Y030156D01*
X003260Y029998D02*
X018840Y029998D01*
X018840Y029839D02*
X003260Y029839D01*
X003260Y029681D02*
X013253Y029681D01*
X013277Y029705D02*
X012977Y029405D01*
X012716Y029665D01*
X012294Y029665D01*
X011995Y029366D01*
X011995Y028944D01*
X012284Y028655D01*
X011995Y028366D01*
X011995Y027944D01*
X012284Y027655D01*
X011995Y027366D01*
X011995Y026944D01*
X012284Y026655D01*
X011995Y026366D01*
X011995Y025944D01*
X012284Y025655D01*
X011995Y025366D01*
X011995Y024944D01*
X012294Y024645D01*
X012716Y024645D01*
X013005Y024934D01*
X013294Y024645D01*
X013716Y024645D01*
X013910Y024839D01*
X013910Y024088D01*
X013888Y024066D01*
X013845Y023962D01*
X013845Y023848D01*
X013888Y023744D01*
X013969Y023663D01*
X014073Y023620D01*
X014187Y023620D01*
X014291Y023663D01*
X014372Y023744D01*
X014415Y023848D01*
X014415Y023962D01*
X014372Y024066D01*
X014350Y024088D01*
X014350Y026621D01*
X014015Y026956D01*
X014015Y027366D01*
X013726Y027655D01*
X014015Y027944D01*
X014015Y028366D01*
X013755Y028627D01*
X014055Y028927D01*
X014055Y029135D01*
X013525Y029135D01*
X013525Y029175D01*
X013485Y029175D01*
X013485Y029705D01*
X013277Y029705D01*
X013485Y029681D02*
X013525Y029681D01*
X013525Y029705D02*
X013525Y029175D01*
X014055Y029175D01*
X014055Y029383D01*
X013733Y029705D01*
X013525Y029705D01*
X013525Y029522D02*
X013485Y029522D01*
X013485Y029364D02*
X013525Y029364D01*
X013525Y029205D02*
X013485Y029205D01*
X013094Y029522D02*
X012859Y029522D01*
X012151Y029522D02*
X003260Y029522D01*
X003260Y029364D02*
X011995Y029364D01*
X011995Y029205D02*
X003260Y029205D01*
X003260Y029047D02*
X011995Y029047D01*
X012051Y028888D02*
X003260Y028888D01*
X003260Y028730D02*
X012209Y028730D01*
X012200Y028571D02*
X003260Y028571D01*
X003260Y028413D02*
X012041Y028413D01*
X011995Y028254D02*
X003260Y028254D01*
X003260Y028096D02*
X011995Y028096D01*
X012002Y027937D02*
X003260Y027937D01*
X003260Y027779D02*
X012160Y027779D01*
X012249Y027620D02*
X003260Y027620D01*
X003260Y027462D02*
X012090Y027462D01*
X011995Y027303D02*
X003260Y027303D01*
X003260Y027145D02*
X011995Y027145D01*
X011995Y026986D02*
X003260Y026986D01*
X003260Y026828D02*
X012111Y026828D01*
X012270Y026669D02*
X003260Y026669D01*
X003260Y026511D02*
X012139Y026511D01*
X011995Y026352D02*
X003260Y026352D01*
X003260Y026194D02*
X011995Y026194D01*
X011995Y026035D02*
X003260Y026035D01*
X003260Y025877D02*
X012062Y025877D01*
X012221Y025718D02*
X003260Y025718D01*
X003260Y025560D02*
X012188Y025560D01*
X012030Y025401D02*
X003260Y025401D01*
X003260Y025243D02*
X011995Y025243D01*
X011995Y025084D02*
X003260Y025084D01*
X003260Y024926D02*
X012013Y024926D01*
X012172Y024767D02*
X003260Y024767D01*
X003260Y024609D02*
X013910Y024609D01*
X013910Y024767D02*
X013838Y024767D01*
X013910Y024450D02*
X003260Y024450D01*
X003260Y024292D02*
X013910Y024292D01*
X013910Y024133D02*
X003260Y024133D01*
X003260Y023975D02*
X013850Y023975D01*
X013858Y023816D02*
X003260Y023816D01*
X003260Y023658D02*
X013983Y023658D01*
X014130Y023905D02*
X014130Y026530D01*
X013505Y027155D01*
X014015Y027145D02*
X018840Y027145D01*
X018840Y027303D02*
X014015Y027303D01*
X013920Y027462D02*
X018840Y027462D01*
X018840Y027620D02*
X013761Y027620D01*
X013850Y027779D02*
X018840Y027779D01*
X018840Y027937D02*
X014008Y027937D01*
X014015Y028096D02*
X018840Y028096D01*
X018840Y028254D02*
X014015Y028254D01*
X013969Y028413D02*
X018840Y028413D01*
X018840Y028571D02*
X013810Y028571D01*
X013857Y028730D02*
X018840Y028730D01*
X018840Y028888D02*
X014016Y028888D01*
X014055Y029047D02*
X018840Y029047D01*
X018840Y029205D02*
X014055Y029205D01*
X014055Y029364D02*
X018840Y029364D01*
X018840Y029522D02*
X013916Y029522D01*
X013757Y029681D02*
X018840Y029681D01*
X020423Y032217D02*
X003260Y032217D01*
X003260Y032375D02*
X020501Y032375D01*
X021030Y033580D02*
X021130Y033680D01*
X021130Y036050D01*
X018255Y039805D02*
X015880Y042180D01*
X015595Y042202D02*
X015294Y042202D01*
X015227Y042361D02*
X015658Y042361D01*
X015628Y042044D02*
X015453Y042044D01*
X015611Y041885D02*
X015864Y041885D01*
X015770Y041727D02*
X016022Y041727D01*
X015928Y041568D02*
X016181Y041568D01*
X016087Y041410D02*
X016339Y041410D01*
X016245Y041251D02*
X016498Y041251D01*
X016404Y041093D02*
X016656Y041093D01*
X016562Y040934D02*
X016815Y040934D01*
X016721Y040776D02*
X016973Y040776D01*
X016879Y040617D02*
X017132Y040617D01*
X017038Y040459D02*
X017290Y040459D01*
X017196Y040300D02*
X017449Y040300D01*
X017355Y040142D02*
X017607Y040142D01*
X017605Y039983D02*
X017766Y039983D01*
X017665Y039825D02*
X017924Y039825D01*
X018004Y039666D02*
X017631Y039666D01*
X017380Y039805D02*
X015005Y042180D01*
X014100Y043629D02*
X003260Y043629D01*
X003260Y043787D02*
X008912Y043787D01*
X009080Y043930D02*
X012550Y043930D01*
X012710Y044421D02*
X012730Y044421D01*
X012710Y044580D02*
X012888Y044580D01*
X012950Y044738D02*
X012710Y044738D01*
X012710Y044897D02*
X012950Y044897D01*
X012962Y045055D02*
X012698Y045055D01*
X012604Y045214D02*
X013056Y045214D01*
X012330Y044710D02*
X011560Y045480D01*
X007080Y045480D01*
X006330Y044730D01*
X006330Y044710D01*
X006710Y044738D02*
X006950Y044738D01*
X006950Y044580D02*
X006710Y044580D01*
X006710Y044421D02*
X006950Y044421D01*
X007005Y044263D02*
X006655Y044263D01*
X006440Y044104D02*
X007220Y044104D01*
X007440Y044104D02*
X008220Y044104D01*
X008440Y044104D02*
X008595Y044104D01*
X008753Y043946D02*
X003260Y043946D01*
X003260Y044104D02*
X006220Y044104D01*
X006005Y044263D02*
X003260Y044263D01*
X003260Y044421D02*
X005950Y044421D01*
X005950Y044580D02*
X003260Y044580D01*
X003260Y044738D02*
X005950Y044738D01*
X005950Y044897D02*
X003260Y044897D01*
X003260Y045055D02*
X005962Y045055D01*
X006056Y045214D02*
X003260Y045214D01*
X003260Y045372D02*
X006661Y045372D01*
X006819Y045531D02*
X003260Y045531D01*
X003260Y045689D02*
X006978Y045689D01*
X006860Y045571D02*
X006860Y045571D01*
X006808Y044897D02*
X006950Y044897D01*
X007604Y045214D02*
X008056Y045214D01*
X007962Y045055D02*
X007698Y045055D01*
X007710Y044897D02*
X007950Y044897D01*
X007950Y044738D02*
X007710Y044738D01*
X007710Y044580D02*
X007950Y044580D01*
X007950Y044421D02*
X007710Y044421D01*
X007655Y044263D02*
X008005Y044263D01*
X008330Y044680D02*
X009080Y043930D01*
X008330Y044680D02*
X008330Y044710D01*
X011662Y045689D02*
X014998Y045689D01*
X014839Y045531D02*
X011821Y045531D01*
X011979Y045372D02*
X014681Y045372D01*
X014015Y026986D02*
X018840Y026986D01*
X018840Y026828D02*
X014144Y026828D01*
X014302Y026669D02*
X018840Y026669D01*
X018840Y026511D02*
X014350Y026511D01*
X014350Y026352D02*
X018840Y026352D01*
X018840Y026194D02*
X014350Y026194D01*
X014350Y026035D02*
X018840Y026035D01*
X018840Y025877D02*
X014350Y025877D01*
X014350Y025718D02*
X018840Y025718D01*
X018840Y025560D02*
X014350Y025560D01*
X014350Y025401D02*
X018840Y025401D01*
X018840Y025243D02*
X014350Y025243D01*
X014350Y025084D02*
X018840Y025084D01*
X018840Y024926D02*
X014350Y024926D01*
X014350Y024767D02*
X018840Y024767D01*
X018840Y024609D02*
X014350Y024609D01*
X014350Y024450D02*
X018840Y024450D01*
X018840Y024292D02*
X014350Y024292D01*
X014350Y024133D02*
X018840Y024133D01*
X018840Y023975D02*
X014410Y023975D01*
X014402Y023816D02*
X018778Y023816D01*
X018745Y023658D02*
X014277Y023658D01*
X013172Y024767D02*
X012838Y024767D01*
X012997Y024926D02*
X013013Y024926D01*
X015163Y018110D02*
X015206Y018110D01*
X016823Y010661D02*
X013437Y010661D01*
X013510Y010502D02*
X016750Y010502D01*
X016750Y010344D02*
X013510Y010344D01*
X013422Y010185D02*
X016838Y010185D01*
X017422Y010185D02*
X017838Y010185D01*
X017750Y010344D02*
X017510Y010344D01*
X017510Y010502D02*
X017750Y010502D01*
X017823Y010661D02*
X017437Y010661D01*
X018437Y010661D02*
X021848Y010661D01*
X021775Y010502D02*
X018510Y010502D01*
X018510Y010344D02*
X021775Y010344D01*
X021863Y010185D02*
X018422Y010185D01*
X022447Y010185D02*
X022863Y010185D01*
X022775Y010344D02*
X022535Y010344D01*
X022535Y010502D02*
X022775Y010502D01*
X022848Y010661D02*
X022462Y010661D01*
X023462Y010661D02*
X026823Y010661D01*
X026750Y010502D02*
X023535Y010502D01*
X023535Y010344D02*
X026750Y010344D01*
X026838Y010185D02*
X023447Y010185D01*
X027422Y010185D02*
X027838Y010185D01*
X027750Y010344D02*
X027510Y010344D01*
X027510Y010502D02*
X027750Y010502D01*
X027823Y010661D02*
X027437Y010661D01*
X028437Y010661D02*
X031848Y010661D01*
X031775Y010502D02*
X028510Y010502D01*
X028510Y010344D02*
X031775Y010344D01*
X031863Y010185D02*
X028422Y010185D01*
X032447Y010185D02*
X032863Y010185D01*
X032775Y010344D02*
X032535Y010344D01*
X032535Y010502D02*
X032775Y010502D01*
X032848Y010661D02*
X032462Y010661D01*
X025965Y017318D02*
X025946Y017318D01*
X012823Y010661D02*
X012437Y010661D01*
X012510Y010502D02*
X012750Y010502D01*
X012750Y010344D02*
X012528Y010344D01*
X012686Y010185D02*
X012838Y010185D01*
X011750Y010344D02*
X003260Y010344D01*
X003260Y010502D02*
X011750Y010502D01*
X034180Y035280D02*
X036160Y035280D01*
X036930Y036050D01*
X036382Y036813D02*
X035478Y036813D01*
X035637Y036655D02*
X035817Y036655D01*
X036043Y036655D02*
X036223Y036655D01*
X037578Y035387D02*
X038262Y035387D01*
X038421Y035228D02*
X037419Y035228D01*
X037261Y035070D02*
X038579Y035070D01*
X034180Y035280D02*
X032405Y037055D01*
D15*
X039630Y030755D03*
X039630Y006930D03*
X010630Y006930D03*
X010580Y030755D03*
D16*
X011880Y028655D03*
X011880Y027655D03*
X011880Y026655D03*
X011880Y025655D03*
X014130Y023905D03*
X013880Y021180D03*
X014505Y020805D03*
X015630Y019605D03*
X016230Y020380D03*
X016230Y021180D03*
X016780Y021180D03*
X017505Y021180D03*
X017505Y020405D03*
X016780Y019430D03*
X016780Y017805D03*
X017430Y017480D03*
X016780Y016905D03*
X017430Y016455D03*
X017430Y015480D03*
X015655Y016180D03*
X014955Y016755D03*
X014955Y017555D03*
X014955Y018305D03*
X014955Y019055D03*
X014505Y019055D03*
X012255Y019055D03*
X011755Y020805D03*
X012555Y021180D03*
X011008Y021055D03*
X011008Y015108D03*
X011575Y015110D03*
X014505Y015110D03*
X019505Y016730D03*
X020255Y015110D03*
X022258Y016733D03*
X023530Y016805D03*
X023530Y017555D03*
X023530Y018305D03*
X023530Y019055D03*
X023130Y019055D03*
X022255Y018980D03*
X020805Y019055D03*
X019505Y018980D03*
X020255Y020805D03*
X021055Y021180D03*
X022055Y021180D03*
X022580Y021280D03*
X023105Y021180D03*
X023105Y020805D03*
X023992Y021268D03*
X023992Y021843D03*
X024818Y022042D03*
X025405Y022055D03*
X025780Y022055D03*
X026155Y022055D03*
X026155Y021180D03*
X025780Y021180D03*
X025405Y021180D03*
X024818Y021192D03*
X024405Y020155D03*
X025405Y019055D03*
X025780Y019055D03*
X026155Y019055D03*
X026580Y018980D03*
X027455Y018980D03*
X028005Y018980D03*
X029255Y019055D03*
X029255Y018180D03*
X030758Y019008D03*
X031530Y018980D03*
X031980Y018980D03*
X031905Y018305D03*
X031430Y018205D03*
X031155Y017930D03*
X031905Y017555D03*
X031905Y016805D03*
X032430Y016230D03*
X032430Y015455D03*
X031505Y015110D03*
X030758Y016758D03*
X028755Y015110D03*
X028005Y016755D03*
X026155Y016805D03*
X025755Y016180D03*
X025780Y017555D03*
X025405Y018305D03*
X026430Y020530D03*
X026630Y021180D03*
X028130Y021180D03*
X028130Y021930D03*
X028855Y020805D03*
X029905Y021155D03*
X030480Y021155D03*
X030980Y021280D03*
X031505Y021180D03*
X031505Y020805D03*
X032030Y021555D03*
X032430Y019830D03*
X032730Y019530D03*
X033030Y019780D03*
X033805Y018980D03*
X034180Y018980D03*
X034555Y018980D03*
X034155Y018230D03*
X033780Y018230D03*
X033805Y017555D03*
X033805Y016805D03*
X035941Y016769D03*
X036230Y017055D03*
X036230Y017430D03*
X036508Y016758D03*
X037055Y017430D03*
X037055Y017930D03*
X037905Y017930D03*
X037755Y019055D03*
X036508Y019033D03*
X036855Y020805D03*
X037380Y021180D03*
X037705Y021555D03*
X037905Y020855D03*
X036305Y021180D03*
X036005Y021855D03*
X034555Y021130D03*
X034180Y021130D03*
X033805Y021130D03*
X033805Y021555D03*
X034005Y021930D03*
X034005Y022430D03*
X034005Y022930D03*
X034005Y023430D03*
X034005Y023930D03*
X034005Y024430D03*
X033955Y024830D03*
X033730Y026880D03*
X034230Y026880D03*
X034730Y026880D03*
X035730Y026680D03*
X036155Y026680D03*
X036580Y026680D03*
X037005Y026680D03*
X036530Y024305D03*
X039630Y020805D03*
X040130Y019055D03*
X040405Y018305D03*
X040030Y017930D03*
X040405Y017555D03*
X039685Y015110D03*
X037255Y015110D03*
X029805Y021930D03*
X029130Y023830D03*
X028130Y023930D03*
X025130Y025430D03*
X025130Y026430D03*
X025630Y029555D03*
X026630Y029730D03*
X026630Y029305D03*
X027630Y028805D03*
X026630Y030830D03*
X025355Y030680D03*
X027130Y032680D03*
X027380Y032305D03*
X026430Y032980D03*
X026080Y032930D03*
X025730Y032980D03*
X025330Y032980D03*
X024905Y032980D03*
X024505Y032980D03*
X024005Y034055D03*
X023480Y035030D03*
X022580Y034105D03*
X021530Y033055D03*
X021880Y032680D03*
X022255Y032355D03*
X020780Y032305D03*
X021030Y033580D03*
X020680Y036405D03*
X020280Y036405D03*
X018255Y039805D03*
X017380Y039805D03*
X016730Y039805D03*
X017630Y041180D03*
X017630Y042180D03*
X016755Y042180D03*
X015880Y042180D03*
X015005Y042180D03*
X014130Y042180D03*
X018755Y042180D03*
X019880Y042180D03*
X020380Y042180D03*
X019880Y041180D03*
X024130Y042180D03*
X025130Y042180D03*
X025630Y042180D03*
X026130Y042180D03*
X026130Y041180D03*
X025130Y041180D03*
X027130Y042180D03*
X029130Y041180D03*
X032530Y044680D03*
X033355Y042280D03*
X033355Y041330D03*
X034255Y041805D03*
X037255Y041805D03*
X037430Y044030D03*
X028255Y035080D03*
X027855Y034780D03*
X026730Y035405D03*
X026630Y035780D03*
X026255Y034430D03*
X024630Y036480D03*
X029005Y033705D03*
X023630Y029955D03*
X023305Y030330D03*
X022255Y030680D03*
X021830Y029430D03*
X019030Y023680D03*
X020630Y022780D03*
X019630Y021180D03*
X023005Y015110D03*
X031630Y026305D03*
X034655Y028305D03*
X041818Y025067D03*
X015330Y036055D03*
X010330Y035080D03*
D17*
X019030Y030555D02*
X020780Y032305D01*
X021530Y033055D02*
X022580Y034105D01*
X023705Y034505D02*
X021880Y032680D01*
X023705Y034505D02*
X023755Y034555D01*
X025505Y034555D01*
X026430Y033630D01*
X026430Y032980D01*
X021830Y029430D02*
X021830Y024830D01*
X022980Y023680D01*
X023105Y023555D01*
X032680Y023555D01*
X033955Y024830D01*
X034005Y024430D02*
X032880Y023305D01*
X013005Y023305D01*
X011255Y021555D01*
X011008Y021308D01*
X011008Y021055D01*
X011008Y019055D01*
X011383Y018680D01*
X011008Y018305D01*
X011008Y015108D01*
X011575Y015110D02*
X014505Y015110D01*
X014755Y015110D01*
X020255Y015110D01*
X020505Y015110D01*
X023005Y015110D01*
X023255Y015110D01*
X028755Y015110D01*
X029005Y015110D01*
X031505Y015110D01*
X031755Y015110D01*
X037255Y015110D01*
X037055Y015310D01*
X037055Y017430D01*
X037430Y017555D02*
X037055Y017930D01*
X036758Y018305D02*
X036508Y018555D01*
X036508Y019033D01*
X036758Y018305D02*
X036508Y018055D01*
X036508Y016758D01*
X036230Y017055D02*
X036105Y017055D01*
X034180Y018980D01*
X033805Y018980D02*
X035941Y016844D01*
X035941Y016769D01*
X036105Y017430D02*
X034555Y018980D01*
X034155Y018230D02*
X034155Y016305D01*
X034130Y016280D01*
X033630Y015780D01*
X031930Y015780D01*
X031430Y016280D01*
X031430Y018205D01*
X031155Y017930D02*
X030758Y017533D01*
X030758Y017530D01*
X030758Y016758D01*
X031905Y016805D02*
X031905Y017555D01*
X031905Y017955D01*
X031905Y018305D01*
X031980Y018380D01*
X031980Y018980D01*
X031530Y018980D02*
X031530Y019355D01*
X032330Y020155D01*
X036655Y020155D01*
X037755Y019055D01*
X037880Y019055D01*
X040130Y019055D01*
X040405Y018305D02*
X036758Y018305D01*
X037430Y017555D02*
X040405Y017555D01*
X040030Y017930D02*
X037905Y017930D01*
X036230Y017430D02*
X036105Y017430D01*
X033805Y017555D02*
X033005Y017555D01*
X032730Y017830D01*
X032730Y019530D01*
X033030Y019780D02*
X033030Y018330D01*
X033130Y018230D01*
X033780Y018230D01*
X033805Y016805D02*
X032855Y016805D01*
X032430Y017230D01*
X032430Y019830D01*
X031880Y020805D02*
X031505Y020805D01*
X031880Y020805D01*
X036855Y020805D01*
X037105Y020555D01*
X037630Y020555D01*
X039380Y020555D01*
X039630Y020805D01*
X039630Y022705D01*
X037030Y025305D01*
X037005Y025330D01*
X037005Y026680D01*
X036580Y026680D02*
X036580Y025255D01*
X036655Y025180D01*
X037705Y024130D01*
X037705Y021555D01*
X037380Y021180D02*
X037380Y023955D01*
X036155Y025180D01*
X036155Y026680D01*
X035730Y026680D02*
X035730Y025105D01*
X035780Y025055D01*
X036530Y024305D01*
X036805Y024030D01*
X036805Y021255D01*
X037205Y020855D01*
X037905Y020855D01*
X036855Y020805D02*
X036755Y020805D01*
X036305Y021180D02*
X036305Y021555D01*
X036005Y021855D01*
X034655Y021230D02*
X034555Y021130D01*
X034655Y021230D02*
X034655Y025755D01*
X034730Y025830D01*
X034730Y026880D01*
X034230Y026880D02*
X034230Y025930D01*
X034480Y025680D01*
X034480Y021430D01*
X034180Y021130D01*
X033805Y021130D02*
X034280Y021605D01*
X034280Y025330D01*
X034280Y025580D01*
X033730Y026130D01*
X033730Y026880D01*
X032780Y027680D02*
X033405Y028305D01*
X034655Y028305D01*
X040405Y028305D01*
X041818Y026892D01*
X041818Y025067D01*
X034005Y023930D02*
X033130Y023055D01*
X015755Y023055D01*
X013880Y021180D01*
X014505Y020805D02*
X011755Y020805D01*
X011008Y020930D02*
X011008Y021055D01*
X011008Y020930D01*
X011008Y021055D01*
X012255Y019055D02*
X014505Y019055D01*
X014505Y019405D01*
X015030Y019930D01*
X019930Y019930D01*
X020805Y019055D01*
X020830Y019055D01*
X021055Y019280D01*
X022905Y019280D01*
X023130Y019055D01*
X023405Y019330D01*
X028980Y019330D01*
X029255Y019055D01*
X029505Y019305D01*
X031205Y019305D01*
X031530Y018980D01*
X030758Y019008D02*
X030758Y018327D01*
X031155Y017930D01*
X029255Y018180D02*
X028280Y018180D01*
X028005Y017905D01*
X028005Y016755D01*
X028280Y018180D02*
X028005Y018455D01*
X028005Y018980D01*
X026155Y019055D02*
X026155Y016805D01*
X025780Y017555D02*
X025780Y019055D01*
X025405Y019055D02*
X025405Y018305D01*
X023530Y018305D02*
X023530Y017555D01*
X023530Y016805D01*
X022258Y016733D02*
X022208Y016733D01*
X021655Y016180D01*
X015655Y016180D01*
X015155Y016555D02*
X015080Y016480D01*
X014830Y016480D01*
X014655Y016655D01*
X014655Y017255D01*
X014955Y017555D01*
X014955Y018305D02*
X015280Y018305D01*
X015630Y017955D01*
X015630Y017930D01*
X015630Y017530D01*
X015630Y017430D01*
X014955Y016755D01*
X015155Y016555D02*
X016905Y016555D01*
X017080Y016730D01*
X019505Y016730D01*
X019505Y018980D01*
X020255Y020805D02*
X020505Y020805D01*
X023105Y020805D01*
X023380Y020805D01*
X028855Y020805D01*
X029255Y020805D01*
X031505Y020805D01*
X030980Y021280D02*
X031630Y021930D01*
X033880Y021930D01*
X034005Y021930D01*
X033880Y022305D02*
X034005Y022430D01*
X033880Y022305D02*
X029255Y022305D01*
X028130Y021180D01*
X028855Y020805D02*
X029255Y020805D01*
X032030Y021555D02*
X033805Y021555D01*
X033630Y022555D02*
X034005Y022930D01*
X034005Y023430D02*
X033380Y022805D01*
X021255Y022805D01*
X019630Y021180D01*
X020255Y020805D02*
X020505Y020805D01*
X020255Y020805D02*
X014880Y020805D01*
X014505Y020805D01*
X014880Y020805D01*
X015630Y019605D02*
X015630Y018655D01*
X015280Y018305D01*
X014580Y018680D02*
X014955Y019055D01*
X014580Y018680D02*
X014530Y018680D01*
X011383Y018680D01*
X014505Y015110D02*
X014755Y015110D01*
X016780Y016905D02*
X016780Y017805D01*
X016780Y018055D01*
X016780Y019430D01*
X016780Y018055D02*
X016780Y017805D01*
X016780Y021180D02*
X016780Y022305D01*
X017255Y022780D01*
X020630Y022780D01*
X019030Y023680D02*
X019030Y030555D01*
X023855Y022555D02*
X022580Y021280D01*
X023105Y020805D02*
X023380Y020805D01*
X023992Y021268D02*
X023992Y021843D01*
X023955Y022555D02*
X023855Y022555D01*
X023955Y022555D02*
X033630Y022555D01*
X032430Y023830D02*
X032780Y024180D01*
X032780Y027680D01*
X032430Y023830D02*
X029130Y023830D01*
X026155Y022055D02*
X026155Y021180D01*
X025780Y021180D02*
X025780Y022055D01*
X025405Y022055D02*
X025405Y021180D01*
X024818Y021192D02*
X024818Y022042D01*
X023530Y019055D02*
X023530Y018305D01*
X022258Y018977D02*
X022255Y018980D01*
X022258Y018977D02*
X022258Y016733D01*
X023005Y015110D02*
X023255Y015110D01*
X020505Y015110D02*
X020255Y015110D01*
X028755Y015110D02*
X029005Y015110D01*
X031505Y015110D02*
X031755Y015110D01*
X037255Y015110D02*
X037505Y015110D01*
X038255Y015110D01*
X039505Y015110D01*
X039685Y015110D01*
X039505Y015110D01*
X037505Y015110D02*
X037255Y015110D01*
M02*
