G75*
G70*
%OFA0B0*%
%FSLAX24Y24*%
%IPPOS*%
%LPD*%
%AMOC8*
5,1,8,0,0,1.08239X$1,22.5*
%
%ADD10R,0.0197X0.0620*%
%ADD11C,0.0560*%
%ADD12R,0.0513X0.0474*%
%ADD13OC8,0.0560*%
%ADD14R,0.0474X0.0513*%
%ADD15R,0.0671X0.0592*%
%ADD16OC8,0.0820*%
%ADD17C,0.0671*%
%ADD18R,0.0434X0.1182*%
%ADD19R,0.0631X0.0474*%
%ADD20R,0.0552X0.0552*%
%ADD21OC8,0.2049*%
D10*
X023756Y031372D03*
X024006Y031372D03*
X024256Y031372D03*
X024506Y031372D03*
X024756Y031372D03*
X025006Y031372D03*
X025256Y031372D03*
X025506Y031372D03*
X025756Y031372D03*
X026006Y031372D03*
X026256Y031372D03*
X026506Y031372D03*
X026504Y033488D03*
X026254Y033488D03*
X026004Y033488D03*
X025754Y033488D03*
X025504Y033488D03*
X025254Y033488D03*
X025004Y033488D03*
X024754Y033488D03*
X024504Y033488D03*
X024254Y033488D03*
X024004Y033488D03*
X023754Y033488D03*
X034004Y027738D03*
X034254Y027738D03*
X034504Y027738D03*
X034754Y027738D03*
X035004Y027738D03*
X035254Y027738D03*
X035504Y027738D03*
X035754Y027738D03*
X036004Y027738D03*
X036254Y027738D03*
X036504Y027738D03*
X036754Y027738D03*
X036756Y025622D03*
X036506Y025622D03*
X036256Y025622D03*
X036006Y025622D03*
X035756Y025622D03*
X035506Y025622D03*
X035256Y025622D03*
X035006Y025622D03*
X034756Y025622D03*
X034506Y025622D03*
X034256Y025622D03*
X034006Y025622D03*
D11*
X035930Y035810D02*
X035930Y036290D01*
X036930Y036290D02*
X036930Y035810D01*
X037930Y035810D02*
X037930Y036290D01*
X038930Y036290D02*
X038930Y035810D01*
X039930Y035810D02*
X039930Y036290D01*
X040930Y036290D02*
X040930Y035810D01*
X041930Y035810D02*
X041930Y036290D01*
X042930Y036290D02*
X042930Y035810D01*
X043930Y035810D02*
X043930Y036290D01*
X043930Y044470D02*
X043930Y044950D01*
X042930Y044950D02*
X042930Y044470D01*
X041930Y044470D02*
X041930Y044950D01*
X040930Y044950D02*
X040930Y044470D01*
X039930Y044470D02*
X039930Y044950D01*
X038930Y044950D02*
X038930Y044470D01*
X037930Y044470D02*
X037930Y044950D01*
X036930Y044950D02*
X036930Y044470D01*
X035930Y044470D02*
X035930Y044950D01*
X029130Y044950D02*
X029130Y044470D01*
X028130Y044470D02*
X028130Y044950D01*
X027130Y044950D02*
X027130Y044470D01*
X026130Y044470D02*
X026130Y044950D01*
X025130Y044950D02*
X025130Y044470D01*
X024130Y044470D02*
X024130Y044950D01*
X023130Y044950D02*
X023130Y044470D01*
X022130Y044470D02*
X022130Y044950D01*
X021130Y044950D02*
X021130Y044470D01*
X014330Y044470D02*
X014330Y044950D01*
X013330Y044950D02*
X013330Y044470D01*
X012330Y044470D02*
X012330Y044950D01*
X011330Y044950D02*
X011330Y044470D01*
X010330Y044470D02*
X010330Y044950D01*
X009330Y044950D02*
X009330Y044470D01*
X008330Y044470D02*
X008330Y044950D01*
X007330Y044950D02*
X007330Y044470D01*
X006330Y044470D02*
X006330Y044950D01*
X006330Y036290D02*
X006330Y035810D01*
X007330Y035810D02*
X007330Y036290D01*
X008330Y036290D02*
X008330Y035810D01*
X009330Y035810D02*
X009330Y036290D01*
X010330Y036290D02*
X010330Y035810D01*
X011330Y035810D02*
X011330Y036290D01*
X012330Y036290D02*
X012330Y035810D01*
X013330Y035810D02*
X013330Y036290D01*
X014330Y036290D02*
X014330Y035810D01*
X021130Y035810D02*
X021130Y036290D01*
X022130Y036290D02*
X022130Y035810D01*
X023130Y035810D02*
X023130Y036290D01*
X024130Y036290D02*
X024130Y035810D01*
X025130Y035810D02*
X025130Y036290D01*
X026130Y036290D02*
X026130Y035810D01*
X027130Y035810D02*
X027130Y036290D01*
X028130Y036290D02*
X028130Y035810D01*
X029130Y035810D02*
X029130Y036290D01*
D12*
X027380Y034390D03*
X027380Y033720D03*
X037630Y027015D03*
X037630Y026345D03*
X038130Y013015D03*
X038130Y012345D03*
X034505Y012345D03*
X034505Y013015D03*
X033130Y007640D03*
X033130Y006970D03*
X028130Y006970D03*
X028130Y007640D03*
X023130Y007640D03*
X023130Y006970D03*
X018130Y006970D03*
X018130Y007640D03*
X013130Y007640D03*
X013130Y006970D03*
D13*
X013130Y010430D03*
X012130Y010430D03*
X017130Y010430D03*
X018130Y010430D03*
X022155Y010430D03*
X023155Y010430D03*
X027130Y010430D03*
X028130Y010430D03*
X032155Y010430D03*
X033155Y010430D03*
X037130Y010430D03*
X038130Y010430D03*
D14*
X032255Y026345D03*
X032255Y027015D03*
X028330Y033720D03*
X028330Y034390D03*
D15*
X029730Y034429D03*
X029730Y033681D03*
X033130Y027054D03*
X033130Y026306D03*
D16*
X013505Y026155D03*
X013505Y025155D03*
X012505Y025155D03*
X012505Y026155D03*
X012505Y027155D03*
X012505Y028155D03*
X012505Y029155D03*
X013505Y029155D03*
X013505Y028155D03*
X013505Y027155D03*
D17*
X023680Y027430D03*
X023680Y026430D03*
X023680Y025430D03*
X023680Y024430D03*
X026680Y024430D03*
X026680Y025430D03*
X026680Y026430D03*
X026680Y027430D03*
X026680Y028430D03*
X023680Y028430D03*
D18*
X023392Y019899D03*
X022825Y019899D03*
X022258Y019899D03*
X021691Y019899D03*
X021124Y019899D03*
X020642Y019899D03*
X020075Y019899D03*
X019508Y019899D03*
X018941Y019899D03*
X018374Y019899D03*
X014892Y019899D03*
X014325Y019899D03*
X013758Y019899D03*
X013191Y019899D03*
X012624Y019899D03*
X012142Y019899D03*
X011575Y019899D03*
X011008Y019899D03*
X010441Y019899D03*
X009874Y019899D03*
X009874Y015961D03*
X010441Y015961D03*
X011008Y015961D03*
X011575Y015961D03*
X012142Y015961D03*
X012624Y015961D03*
X013191Y015961D03*
X013758Y015961D03*
X014325Y015961D03*
X014892Y015961D03*
X018374Y015961D03*
X018941Y015961D03*
X019508Y015961D03*
X020075Y015961D03*
X020642Y015961D03*
X021124Y015961D03*
X021691Y015961D03*
X022258Y015961D03*
X022825Y015961D03*
X023392Y015961D03*
X026874Y015961D03*
X027441Y015961D03*
X028008Y015961D03*
X028575Y015961D03*
X029142Y015961D03*
X029624Y015961D03*
X030191Y015961D03*
X030758Y015961D03*
X031325Y015961D03*
X031892Y015961D03*
X035374Y015961D03*
X035941Y015961D03*
X036508Y015961D03*
X037075Y015961D03*
X037642Y015961D03*
X038124Y015961D03*
X038691Y015961D03*
X039258Y015961D03*
X039825Y015961D03*
X040392Y015961D03*
X040392Y019899D03*
X039825Y019899D03*
X039258Y019899D03*
X038691Y019899D03*
X038124Y019899D03*
X037642Y019899D03*
X037075Y019899D03*
X036508Y019899D03*
X035941Y019899D03*
X035374Y019899D03*
X031892Y019899D03*
X031325Y019899D03*
X030758Y019899D03*
X030191Y019899D03*
X029624Y019899D03*
X029142Y019899D03*
X028575Y019899D03*
X028008Y019899D03*
X027441Y019899D03*
X026874Y019899D03*
D19*
X035947Y013054D03*
X035947Y012306D03*
X036813Y012680D03*
D20*
X033318Y016805D03*
X033318Y017555D03*
X033318Y018305D03*
X033318Y019055D03*
X032492Y019055D03*
X032492Y018305D03*
X032492Y017555D03*
X032492Y016805D03*
X024818Y016805D03*
X024818Y017555D03*
X024818Y018305D03*
X024818Y019055D03*
X023992Y019055D03*
X023992Y018305D03*
X023992Y017555D03*
X023992Y016805D03*
X016318Y016805D03*
X016318Y017555D03*
X016318Y018305D03*
X016318Y019055D03*
X015492Y019055D03*
X015492Y018305D03*
X015492Y017555D03*
X015492Y016805D03*
X040992Y016805D03*
X040992Y017555D03*
X040992Y018305D03*
X040992Y019055D03*
X041818Y019055D03*
X041818Y018305D03*
X041818Y017555D03*
X041818Y016805D03*
D21*
X010630Y006930D03*
X010580Y030755D03*
X039630Y030755D03*
X039630Y006930D03*
M02*
