G75*
G70*
%OFA0B0*%
%FSLAX24Y24*%
%IPPOS*%
%LPD*%
%AMOC8*
5,1,8,0,0,1.08239X$1,22.5*
%
%ADD10C,0.0560*%
%ADD11OC8,0.0560*%
%ADD12OC8,0.0820*%
%ADD13C,0.0671*%
%ADD14OC8,0.2049*%
D10*
X006330Y035810D02*
X006330Y036290D01*
X007330Y036290D02*
X007330Y035810D01*
X008330Y035810D02*
X008330Y036290D01*
X009330Y036290D02*
X009330Y035810D01*
X010330Y035810D02*
X010330Y036290D01*
X011330Y036290D02*
X011330Y035810D01*
X012330Y035810D02*
X012330Y036290D01*
X013330Y036290D02*
X013330Y035810D01*
X014330Y035810D02*
X014330Y036290D01*
X021130Y036290D02*
X021130Y035810D01*
X022130Y035810D02*
X022130Y036290D01*
X023130Y036290D02*
X023130Y035810D01*
X024130Y035810D02*
X024130Y036290D01*
X025130Y036290D02*
X025130Y035810D01*
X026130Y035810D02*
X026130Y036290D01*
X027130Y036290D02*
X027130Y035810D01*
X028130Y035810D02*
X028130Y036290D01*
X029130Y036290D02*
X029130Y035810D01*
X035930Y035810D02*
X035930Y036290D01*
X036930Y036290D02*
X036930Y035810D01*
X037930Y035810D02*
X037930Y036290D01*
X038930Y036290D02*
X038930Y035810D01*
X039930Y035810D02*
X039930Y036290D01*
X040930Y036290D02*
X040930Y035810D01*
X041930Y035810D02*
X041930Y036290D01*
X042930Y036290D02*
X042930Y035810D01*
X043930Y035810D02*
X043930Y036290D01*
X043930Y044470D02*
X043930Y044950D01*
X042930Y044950D02*
X042930Y044470D01*
X041930Y044470D02*
X041930Y044950D01*
X040930Y044950D02*
X040930Y044470D01*
X039930Y044470D02*
X039930Y044950D01*
X038930Y044950D02*
X038930Y044470D01*
X037930Y044470D02*
X037930Y044950D01*
X036930Y044950D02*
X036930Y044470D01*
X035930Y044470D02*
X035930Y044950D01*
X029130Y044950D02*
X029130Y044470D01*
X028130Y044470D02*
X028130Y044950D01*
X027130Y044950D02*
X027130Y044470D01*
X026130Y044470D02*
X026130Y044950D01*
X025130Y044950D02*
X025130Y044470D01*
X024130Y044470D02*
X024130Y044950D01*
X023130Y044950D02*
X023130Y044470D01*
X022130Y044470D02*
X022130Y044950D01*
X021130Y044950D02*
X021130Y044470D01*
X014330Y044470D02*
X014330Y044950D01*
X013330Y044950D02*
X013330Y044470D01*
X012330Y044470D02*
X012330Y044950D01*
X011330Y044950D02*
X011330Y044470D01*
X010330Y044470D02*
X010330Y044950D01*
X009330Y044950D02*
X009330Y044470D01*
X008330Y044470D02*
X008330Y044950D01*
X007330Y044950D02*
X007330Y044470D01*
X006330Y044470D02*
X006330Y044950D01*
D11*
X012130Y010430D03*
X013130Y010430D03*
X017130Y010430D03*
X018130Y010430D03*
X022155Y010430D03*
X023155Y010430D03*
X027130Y010430D03*
X028130Y010430D03*
X032155Y010430D03*
X033155Y010430D03*
X037130Y010430D03*
X038130Y010430D03*
D12*
X013505Y025155D03*
X013505Y026155D03*
X013505Y027155D03*
X013505Y028155D03*
X013505Y029155D03*
X012505Y029155D03*
X012505Y028155D03*
X012505Y027155D03*
X012505Y026155D03*
X012505Y025155D03*
D13*
X023680Y025430D03*
X023680Y024430D03*
X023680Y026430D03*
X023680Y027430D03*
X023680Y028430D03*
X026680Y028430D03*
X026680Y027430D03*
X026680Y026430D03*
X026680Y025430D03*
X026680Y024430D03*
D14*
X010630Y006930D03*
X010580Y030755D03*
X039630Y030755D03*
X039630Y006930D03*
M02*
