G75*
G70*
%OFA0B0*%
%FSLAX24Y24*%
%IPPOS*%
%LPD*%
%AMOC8*
5,1,8,0,0,1.08239X$1,22.5*
%
%ADD10C,0.0000*%
%ADD11C,0.0060*%
%ADD12C,0.0160*%
%ADD13C,0.0100*%
%ADD14C,0.0040*%
%ADD15C,0.0080*%
%ADD16C,0.0236*%
%ADD17C,0.0059*%
%ADD18R,0.0079X0.0020*%
%ADD19R,0.0098X0.0020*%
%ADD20R,0.0059X0.0020*%
%ADD21R,0.0118X0.0020*%
%ADD22R,0.0157X0.0020*%
%ADD23R,0.0197X0.0020*%
%ADD24R,0.0138X0.0020*%
%ADD25R,0.0217X0.0020*%
%ADD26R,0.0020X0.0020*%
%ADD27R,0.0354X0.0020*%
%ADD28R,0.0571X0.0020*%
%ADD29R,0.0531X0.0020*%
%ADD30R,0.0492X0.0020*%
%ADD31R,0.0039X0.0020*%
%ADD32R,0.0630X0.0020*%
%ADD33R,0.0768X0.0020*%
%ADD34R,0.0886X0.0020*%
%ADD35R,0.0394X0.0020*%
%ADD36R,0.0256X0.0020*%
%ADD37R,0.0177X0.0020*%
%ADD38R,0.0236X0.0020*%
%ADD39R,0.0295X0.0020*%
%ADD40R,0.0374X0.0020*%
%ADD41R,0.0413X0.0020*%
%ADD42R,0.0276X0.0020*%
%ADD43R,0.0472X0.0020*%
%ADD44R,0.0728X0.0020*%
%ADD45R,0.0610X0.0020*%
%ADD46R,0.0335X0.0020*%
%ADD47C,0.0050*%
%ADD48R,0.0118X0.0059*%
%ADD49R,0.0118X0.0118*%
D10*
X003030Y005430D02*
X003030Y047300D01*
X047322Y047300D01*
X047322Y005430D01*
X003030Y005430D01*
D11*
X011102Y008360D02*
X011102Y009001D01*
X011423Y009001D01*
X011529Y008894D01*
X011529Y008680D01*
X011423Y008574D01*
X011102Y008574D01*
X011747Y008680D02*
X011747Y008467D01*
X011854Y008360D01*
X012067Y008360D01*
X012174Y008467D01*
X012174Y008680D01*
X012067Y008787D01*
X011854Y008787D01*
X011747Y008680D01*
X012391Y008787D02*
X012391Y008467D01*
X012498Y008360D01*
X012605Y008467D01*
X012712Y008360D01*
X012818Y008467D01*
X012818Y008787D01*
X013036Y008680D02*
X013143Y008787D01*
X013356Y008787D01*
X013463Y008680D01*
X013463Y008574D01*
X013036Y008574D01*
X013036Y008680D02*
X013036Y008467D01*
X013143Y008360D01*
X013356Y008360D01*
X013681Y008360D02*
X013681Y008787D01*
X013894Y008787D02*
X014001Y008787D01*
X013894Y008787D02*
X013681Y008574D01*
X011630Y010430D02*
X011632Y010493D01*
X011638Y010555D01*
X011648Y010617D01*
X011661Y010679D01*
X011679Y010739D01*
X011700Y010798D01*
X011725Y010856D01*
X011754Y010912D01*
X011786Y010966D01*
X011821Y011018D01*
X011859Y011067D01*
X011901Y011115D01*
X011945Y011159D01*
X011993Y011201D01*
X012042Y011239D01*
X012094Y011274D01*
X012148Y011306D01*
X012204Y011335D01*
X012262Y011360D01*
X012321Y011381D01*
X012381Y011399D01*
X012443Y011412D01*
X012505Y011422D01*
X012567Y011428D01*
X012630Y011430D01*
X012693Y011428D01*
X012755Y011422D01*
X012817Y011412D01*
X012879Y011399D01*
X012939Y011381D01*
X012998Y011360D01*
X013056Y011335D01*
X013112Y011306D01*
X013166Y011274D01*
X013218Y011239D01*
X013267Y011201D01*
X013315Y011159D01*
X013359Y011115D01*
X013401Y011067D01*
X013439Y011018D01*
X013474Y010966D01*
X013506Y010912D01*
X013535Y010856D01*
X013560Y010798D01*
X013581Y010739D01*
X013599Y010679D01*
X013612Y010617D01*
X013622Y010555D01*
X013628Y010493D01*
X013630Y010430D01*
X013628Y010367D01*
X013622Y010305D01*
X013612Y010243D01*
X013599Y010181D01*
X013581Y010121D01*
X013560Y010062D01*
X013535Y010004D01*
X013506Y009948D01*
X013474Y009894D01*
X013439Y009842D01*
X013401Y009793D01*
X013359Y009745D01*
X013315Y009701D01*
X013267Y009659D01*
X013218Y009621D01*
X013166Y009586D01*
X013112Y009554D01*
X013056Y009525D01*
X012998Y009500D01*
X012939Y009479D01*
X012879Y009461D01*
X012817Y009448D01*
X012755Y009438D01*
X012693Y009432D01*
X012630Y009430D01*
X012567Y009432D01*
X012505Y009438D01*
X012443Y009448D01*
X012381Y009461D01*
X012321Y009479D01*
X012262Y009500D01*
X012204Y009525D01*
X012148Y009554D01*
X012094Y009586D01*
X012042Y009621D01*
X011993Y009659D01*
X011945Y009701D01*
X011901Y009745D01*
X011859Y009793D01*
X011821Y009842D01*
X011786Y009894D01*
X011754Y009948D01*
X011725Y010004D01*
X011700Y010062D01*
X011679Y010121D01*
X011661Y010181D01*
X011648Y010243D01*
X011638Y010305D01*
X011632Y010367D01*
X011630Y010430D01*
X011657Y014235D02*
X011870Y014449D01*
X011870Y014876D01*
X012088Y014876D02*
X012515Y014235D01*
X012515Y014876D01*
X012088Y014876D02*
X012088Y014235D01*
X011657Y014235D02*
X011443Y014449D01*
X011443Y014876D01*
X011226Y014769D02*
X011119Y014876D01*
X010905Y014876D01*
X010799Y014769D01*
X010799Y014662D01*
X010905Y014555D01*
X011119Y014555D01*
X011226Y014449D01*
X011226Y014342D01*
X011119Y014235D01*
X010905Y014235D01*
X010799Y014342D01*
X013377Y014235D02*
X013804Y014235D01*
X013590Y014235D02*
X013590Y014876D01*
X013377Y014662D01*
X016630Y010430D02*
X016632Y010493D01*
X016638Y010555D01*
X016648Y010617D01*
X016661Y010679D01*
X016679Y010739D01*
X016700Y010798D01*
X016725Y010856D01*
X016754Y010912D01*
X016786Y010966D01*
X016821Y011018D01*
X016859Y011067D01*
X016901Y011115D01*
X016945Y011159D01*
X016993Y011201D01*
X017042Y011239D01*
X017094Y011274D01*
X017148Y011306D01*
X017204Y011335D01*
X017262Y011360D01*
X017321Y011381D01*
X017381Y011399D01*
X017443Y011412D01*
X017505Y011422D01*
X017567Y011428D01*
X017630Y011430D01*
X017693Y011428D01*
X017755Y011422D01*
X017817Y011412D01*
X017879Y011399D01*
X017939Y011381D01*
X017998Y011360D01*
X018056Y011335D01*
X018112Y011306D01*
X018166Y011274D01*
X018218Y011239D01*
X018267Y011201D01*
X018315Y011159D01*
X018359Y011115D01*
X018401Y011067D01*
X018439Y011018D01*
X018474Y010966D01*
X018506Y010912D01*
X018535Y010856D01*
X018560Y010798D01*
X018581Y010739D01*
X018599Y010679D01*
X018612Y010617D01*
X018622Y010555D01*
X018628Y010493D01*
X018630Y010430D01*
X018628Y010367D01*
X018622Y010305D01*
X018612Y010243D01*
X018599Y010181D01*
X018581Y010121D01*
X018560Y010062D01*
X018535Y010004D01*
X018506Y009948D01*
X018474Y009894D01*
X018439Y009842D01*
X018401Y009793D01*
X018359Y009745D01*
X018315Y009701D01*
X018267Y009659D01*
X018218Y009621D01*
X018166Y009586D01*
X018112Y009554D01*
X018056Y009525D01*
X017998Y009500D01*
X017939Y009479D01*
X017879Y009461D01*
X017817Y009448D01*
X017755Y009438D01*
X017693Y009432D01*
X017630Y009430D01*
X017567Y009432D01*
X017505Y009438D01*
X017443Y009448D01*
X017381Y009461D01*
X017321Y009479D01*
X017262Y009500D01*
X017204Y009525D01*
X017148Y009554D01*
X017094Y009586D01*
X017042Y009621D01*
X016993Y009659D01*
X016945Y009701D01*
X016901Y009745D01*
X016859Y009793D01*
X016821Y009842D01*
X016786Y009894D01*
X016754Y009948D01*
X016725Y010004D01*
X016700Y010062D01*
X016679Y010121D01*
X016661Y010181D01*
X016648Y010243D01*
X016638Y010305D01*
X016632Y010367D01*
X016630Y010430D01*
X016691Y009001D02*
X016263Y009001D01*
X016263Y008360D01*
X016263Y008680D02*
X016477Y008680D01*
X016908Y008467D02*
X017015Y008360D01*
X017335Y008360D01*
X017335Y008680D01*
X017228Y008787D01*
X017015Y008787D01*
X017015Y008574D02*
X017335Y008574D01*
X017553Y008467D02*
X017659Y008360D01*
X017980Y008360D01*
X017980Y008787D01*
X018197Y009001D02*
X018304Y009001D01*
X018304Y008360D01*
X018197Y008360D02*
X018411Y008360D01*
X018734Y008467D02*
X018840Y008360D01*
X018734Y008467D02*
X018734Y008894D01*
X018840Y008787D02*
X018627Y008787D01*
X017553Y008787D02*
X017553Y008467D01*
X017015Y008574D02*
X016908Y008467D01*
X021611Y008360D02*
X021824Y008574D01*
X022038Y008360D01*
X022038Y009001D01*
X022362Y008787D02*
X022576Y008787D01*
X022682Y008680D01*
X022682Y008360D01*
X022362Y008360D01*
X022255Y008467D01*
X022362Y008574D01*
X022682Y008574D01*
X022900Y008787D02*
X023007Y008787D01*
X023007Y008360D01*
X023113Y008360D02*
X022900Y008360D01*
X023436Y008467D02*
X023543Y008360D01*
X023436Y008467D02*
X023436Y008894D01*
X023330Y008787D02*
X023543Y008787D01*
X023007Y009001D02*
X023007Y009107D01*
X021655Y010430D02*
X021657Y010493D01*
X021663Y010555D01*
X021673Y010617D01*
X021686Y010679D01*
X021704Y010739D01*
X021725Y010798D01*
X021750Y010856D01*
X021779Y010912D01*
X021811Y010966D01*
X021846Y011018D01*
X021884Y011067D01*
X021926Y011115D01*
X021970Y011159D01*
X022018Y011201D01*
X022067Y011239D01*
X022119Y011274D01*
X022173Y011306D01*
X022229Y011335D01*
X022287Y011360D01*
X022346Y011381D01*
X022406Y011399D01*
X022468Y011412D01*
X022530Y011422D01*
X022592Y011428D01*
X022655Y011430D01*
X022718Y011428D01*
X022780Y011422D01*
X022842Y011412D01*
X022904Y011399D01*
X022964Y011381D01*
X023023Y011360D01*
X023081Y011335D01*
X023137Y011306D01*
X023191Y011274D01*
X023243Y011239D01*
X023292Y011201D01*
X023340Y011159D01*
X023384Y011115D01*
X023426Y011067D01*
X023464Y011018D01*
X023499Y010966D01*
X023531Y010912D01*
X023560Y010856D01*
X023585Y010798D01*
X023606Y010739D01*
X023624Y010679D01*
X023637Y010617D01*
X023647Y010555D01*
X023653Y010493D01*
X023655Y010430D01*
X023653Y010367D01*
X023647Y010305D01*
X023637Y010243D01*
X023624Y010181D01*
X023606Y010121D01*
X023585Y010062D01*
X023560Y010004D01*
X023531Y009948D01*
X023499Y009894D01*
X023464Y009842D01*
X023426Y009793D01*
X023384Y009745D01*
X023340Y009701D01*
X023292Y009659D01*
X023243Y009621D01*
X023191Y009586D01*
X023137Y009554D01*
X023081Y009525D01*
X023023Y009500D01*
X022964Y009479D01*
X022904Y009461D01*
X022842Y009448D01*
X022780Y009438D01*
X022718Y009432D01*
X022655Y009430D01*
X022592Y009432D01*
X022530Y009438D01*
X022468Y009448D01*
X022406Y009461D01*
X022346Y009479D01*
X022287Y009500D01*
X022229Y009525D01*
X022173Y009554D01*
X022119Y009586D01*
X022067Y009621D01*
X022018Y009659D01*
X021970Y009701D01*
X021926Y009745D01*
X021884Y009793D01*
X021846Y009842D01*
X021811Y009894D01*
X021779Y009948D01*
X021750Y010004D01*
X021725Y010062D01*
X021704Y010121D01*
X021686Y010181D01*
X021673Y010243D01*
X021663Y010305D01*
X021657Y010367D01*
X021655Y010430D01*
X021611Y009001D02*
X021611Y008360D01*
X027015Y008467D02*
X027122Y008360D01*
X027336Y008360D01*
X027442Y008467D01*
X027442Y008894D01*
X027336Y009001D01*
X027122Y009001D01*
X027015Y008894D01*
X027015Y008467D01*
X027660Y008574D02*
X028087Y009001D01*
X027660Y009001D02*
X027660Y008360D01*
X027767Y008680D02*
X028087Y008360D01*
X026630Y010430D02*
X026632Y010493D01*
X026638Y010555D01*
X026648Y010617D01*
X026661Y010679D01*
X026679Y010739D01*
X026700Y010798D01*
X026725Y010856D01*
X026754Y010912D01*
X026786Y010966D01*
X026821Y011018D01*
X026859Y011067D01*
X026901Y011115D01*
X026945Y011159D01*
X026993Y011201D01*
X027042Y011239D01*
X027094Y011274D01*
X027148Y011306D01*
X027204Y011335D01*
X027262Y011360D01*
X027321Y011381D01*
X027381Y011399D01*
X027443Y011412D01*
X027505Y011422D01*
X027567Y011428D01*
X027630Y011430D01*
X027693Y011428D01*
X027755Y011422D01*
X027817Y011412D01*
X027879Y011399D01*
X027939Y011381D01*
X027998Y011360D01*
X028056Y011335D01*
X028112Y011306D01*
X028166Y011274D01*
X028218Y011239D01*
X028267Y011201D01*
X028315Y011159D01*
X028359Y011115D01*
X028401Y011067D01*
X028439Y011018D01*
X028474Y010966D01*
X028506Y010912D01*
X028535Y010856D01*
X028560Y010798D01*
X028581Y010739D01*
X028599Y010679D01*
X028612Y010617D01*
X028622Y010555D01*
X028628Y010493D01*
X028630Y010430D01*
X028628Y010367D01*
X028622Y010305D01*
X028612Y010243D01*
X028599Y010181D01*
X028581Y010121D01*
X028560Y010062D01*
X028535Y010004D01*
X028506Y009948D01*
X028474Y009894D01*
X028439Y009842D01*
X028401Y009793D01*
X028359Y009745D01*
X028315Y009701D01*
X028267Y009659D01*
X028218Y009621D01*
X028166Y009586D01*
X028112Y009554D01*
X028056Y009525D01*
X027998Y009500D01*
X027939Y009479D01*
X027879Y009461D01*
X027817Y009448D01*
X027755Y009438D01*
X027693Y009432D01*
X027630Y009430D01*
X027567Y009432D01*
X027505Y009438D01*
X027443Y009448D01*
X027381Y009461D01*
X027321Y009479D01*
X027262Y009500D01*
X027204Y009525D01*
X027148Y009554D01*
X027094Y009586D01*
X027042Y009621D01*
X026993Y009659D01*
X026945Y009701D01*
X026901Y009745D01*
X026859Y009793D01*
X026821Y009842D01*
X026786Y009894D01*
X026754Y009948D01*
X026725Y010004D01*
X026700Y010062D01*
X026679Y010121D01*
X026661Y010181D01*
X026648Y010243D01*
X026638Y010305D01*
X026632Y010367D01*
X026630Y010430D01*
X027905Y014235D02*
X027799Y014342D01*
X027905Y014235D02*
X028119Y014235D01*
X028226Y014342D01*
X028226Y014449D01*
X028119Y014555D01*
X027905Y014555D01*
X027799Y014662D01*
X027799Y014769D01*
X027905Y014876D01*
X028119Y014876D01*
X028226Y014769D01*
X028443Y014876D02*
X028443Y014449D01*
X028657Y014235D01*
X028870Y014449D01*
X028870Y014876D01*
X029088Y014876D02*
X029515Y014235D01*
X029515Y014876D01*
X029088Y014876D02*
X029088Y014235D01*
X030377Y014342D02*
X030484Y014235D01*
X030697Y014235D01*
X030804Y014342D01*
X030804Y014449D01*
X030697Y014555D01*
X030590Y014555D01*
X030697Y014555D02*
X030804Y014662D01*
X030804Y014769D01*
X030697Y014876D01*
X030484Y014876D01*
X030377Y014769D01*
X031655Y010430D02*
X031657Y010493D01*
X031663Y010555D01*
X031673Y010617D01*
X031686Y010679D01*
X031704Y010739D01*
X031725Y010798D01*
X031750Y010856D01*
X031779Y010912D01*
X031811Y010966D01*
X031846Y011018D01*
X031884Y011067D01*
X031926Y011115D01*
X031970Y011159D01*
X032018Y011201D01*
X032067Y011239D01*
X032119Y011274D01*
X032173Y011306D01*
X032229Y011335D01*
X032287Y011360D01*
X032346Y011381D01*
X032406Y011399D01*
X032468Y011412D01*
X032530Y011422D01*
X032592Y011428D01*
X032655Y011430D01*
X032718Y011428D01*
X032780Y011422D01*
X032842Y011412D01*
X032904Y011399D01*
X032964Y011381D01*
X033023Y011360D01*
X033081Y011335D01*
X033137Y011306D01*
X033191Y011274D01*
X033243Y011239D01*
X033292Y011201D01*
X033340Y011159D01*
X033384Y011115D01*
X033426Y011067D01*
X033464Y011018D01*
X033499Y010966D01*
X033531Y010912D01*
X033560Y010856D01*
X033585Y010798D01*
X033606Y010739D01*
X033624Y010679D01*
X033637Y010617D01*
X033647Y010555D01*
X033653Y010493D01*
X033655Y010430D01*
X033653Y010367D01*
X033647Y010305D01*
X033637Y010243D01*
X033624Y010181D01*
X033606Y010121D01*
X033585Y010062D01*
X033560Y010004D01*
X033531Y009948D01*
X033499Y009894D01*
X033464Y009842D01*
X033426Y009793D01*
X033384Y009745D01*
X033340Y009701D01*
X033292Y009659D01*
X033243Y009621D01*
X033191Y009586D01*
X033137Y009554D01*
X033081Y009525D01*
X033023Y009500D01*
X032964Y009479D01*
X032904Y009461D01*
X032842Y009448D01*
X032780Y009438D01*
X032718Y009432D01*
X032655Y009430D01*
X032592Y009432D01*
X032530Y009438D01*
X032468Y009448D01*
X032406Y009461D01*
X032346Y009479D01*
X032287Y009500D01*
X032229Y009525D01*
X032173Y009554D01*
X032119Y009586D01*
X032067Y009621D01*
X032018Y009659D01*
X031970Y009701D01*
X031926Y009745D01*
X031884Y009793D01*
X031846Y009842D01*
X031811Y009894D01*
X031779Y009948D01*
X031750Y010004D01*
X031725Y010062D01*
X031704Y010121D01*
X031686Y010181D01*
X031673Y010243D01*
X031663Y010305D01*
X031657Y010367D01*
X031655Y010430D01*
X031394Y009001D02*
X031180Y009001D01*
X031074Y008894D01*
X031074Y008467D01*
X031180Y008360D01*
X031394Y008360D01*
X031501Y008467D01*
X031718Y008467D02*
X031825Y008360D01*
X032038Y008360D01*
X032145Y008467D01*
X032145Y008680D01*
X032038Y008787D01*
X031825Y008787D01*
X031718Y008680D01*
X031718Y008467D01*
X031501Y008894D02*
X031394Y009001D01*
X032363Y008787D02*
X032363Y008360D01*
X032576Y008360D02*
X032576Y008680D01*
X032683Y008787D01*
X032790Y008680D01*
X032790Y008360D01*
X033007Y008360D02*
X033007Y008787D01*
X033114Y008787D01*
X033221Y008680D01*
X033328Y008787D01*
X033434Y008680D01*
X033434Y008360D01*
X033221Y008360D02*
X033221Y008680D01*
X033652Y008680D02*
X033759Y008787D01*
X034079Y008787D01*
X033972Y008574D02*
X033759Y008574D01*
X033652Y008680D01*
X033652Y008360D02*
X033972Y008360D01*
X034079Y008467D01*
X033972Y008574D01*
X032576Y008680D02*
X032469Y008787D01*
X032363Y008787D01*
X036049Y008787D02*
X036262Y009001D01*
X036262Y008360D01*
X036049Y008360D02*
X036476Y008360D01*
X037338Y008360D02*
X037338Y009001D01*
X037658Y009001D01*
X037765Y008894D01*
X037765Y008680D01*
X037658Y008574D01*
X037338Y008574D01*
X037982Y008574D02*
X038303Y008574D01*
X038409Y008680D01*
X038409Y008894D01*
X038303Y009001D01*
X037982Y009001D01*
X037982Y008360D01*
X038627Y008467D02*
X038734Y008360D01*
X038947Y008360D01*
X039054Y008467D01*
X039054Y008574D01*
X038947Y008680D01*
X038734Y008680D01*
X038627Y008787D01*
X038627Y008894D01*
X038734Y009001D01*
X038947Y009001D01*
X039054Y008894D01*
X036630Y010430D02*
X036632Y010493D01*
X036638Y010555D01*
X036648Y010617D01*
X036661Y010679D01*
X036679Y010739D01*
X036700Y010798D01*
X036725Y010856D01*
X036754Y010912D01*
X036786Y010966D01*
X036821Y011018D01*
X036859Y011067D01*
X036901Y011115D01*
X036945Y011159D01*
X036993Y011201D01*
X037042Y011239D01*
X037094Y011274D01*
X037148Y011306D01*
X037204Y011335D01*
X037262Y011360D01*
X037321Y011381D01*
X037381Y011399D01*
X037443Y011412D01*
X037505Y011422D01*
X037567Y011428D01*
X037630Y011430D01*
X037693Y011428D01*
X037755Y011422D01*
X037817Y011412D01*
X037879Y011399D01*
X037939Y011381D01*
X037998Y011360D01*
X038056Y011335D01*
X038112Y011306D01*
X038166Y011274D01*
X038218Y011239D01*
X038267Y011201D01*
X038315Y011159D01*
X038359Y011115D01*
X038401Y011067D01*
X038439Y011018D01*
X038474Y010966D01*
X038506Y010912D01*
X038535Y010856D01*
X038560Y010798D01*
X038581Y010739D01*
X038599Y010679D01*
X038612Y010617D01*
X038622Y010555D01*
X038628Y010493D01*
X038630Y010430D01*
X038628Y010367D01*
X038622Y010305D01*
X038612Y010243D01*
X038599Y010181D01*
X038581Y010121D01*
X038560Y010062D01*
X038535Y010004D01*
X038506Y009948D01*
X038474Y009894D01*
X038439Y009842D01*
X038401Y009793D01*
X038359Y009745D01*
X038315Y009701D01*
X038267Y009659D01*
X038218Y009621D01*
X038166Y009586D01*
X038112Y009554D01*
X038056Y009525D01*
X037998Y009500D01*
X037939Y009479D01*
X037879Y009461D01*
X037817Y009448D01*
X037755Y009438D01*
X037693Y009432D01*
X037630Y009430D01*
X037567Y009432D01*
X037505Y009438D01*
X037443Y009448D01*
X037381Y009461D01*
X037321Y009479D01*
X037262Y009500D01*
X037204Y009525D01*
X037148Y009554D01*
X037094Y009586D01*
X037042Y009621D01*
X036993Y009659D01*
X036945Y009701D01*
X036901Y009745D01*
X036859Y009793D01*
X036821Y009842D01*
X036786Y009894D01*
X036754Y009948D01*
X036725Y010004D01*
X036700Y010062D01*
X036679Y010121D01*
X036661Y010181D01*
X036648Y010243D01*
X036638Y010305D01*
X036632Y010367D01*
X036630Y010430D01*
X036619Y014235D02*
X036405Y014235D01*
X036299Y014342D01*
X036405Y014555D02*
X036619Y014555D01*
X036726Y014449D01*
X036726Y014342D01*
X036619Y014235D01*
X036405Y014555D02*
X036299Y014662D01*
X036299Y014769D01*
X036405Y014876D01*
X036619Y014876D01*
X036726Y014769D01*
X036943Y014876D02*
X036943Y014449D01*
X037157Y014235D01*
X037370Y014449D01*
X037370Y014876D01*
X037588Y014876D02*
X038015Y014235D01*
X038015Y014876D01*
X037588Y014876D02*
X037588Y014235D01*
X038877Y014555D02*
X039304Y014555D01*
X039197Y014235D02*
X039197Y014876D01*
X038877Y014555D01*
X040079Y021860D02*
X040079Y022300D01*
X040299Y022300D01*
X040372Y022227D01*
X040372Y022080D01*
X040299Y022007D01*
X040079Y022007D01*
X040226Y022007D02*
X040372Y021860D01*
X040539Y021933D02*
X040539Y022080D01*
X040613Y022154D01*
X040759Y022154D01*
X040833Y022080D01*
X040833Y022007D01*
X040539Y022007D01*
X040539Y021933D02*
X040613Y021860D01*
X040759Y021860D01*
X041000Y022154D02*
X041146Y021860D01*
X041293Y022154D01*
X041460Y022227D02*
X041533Y022300D01*
X041680Y022300D01*
X041754Y022227D01*
X041460Y021933D01*
X041533Y021860D01*
X041680Y021860D01*
X041754Y021933D01*
X041754Y022227D01*
X041920Y022227D02*
X041920Y021933D01*
X042214Y022227D01*
X042214Y021933D01*
X042141Y021860D01*
X041994Y021860D01*
X041920Y021933D01*
X041920Y022227D02*
X041994Y022300D01*
X042141Y022300D01*
X042214Y022227D01*
X042381Y022227D02*
X042454Y022300D01*
X042601Y022300D01*
X042674Y022227D01*
X042674Y022154D01*
X042381Y021860D01*
X042674Y021860D01*
X041460Y021933D02*
X041460Y022227D01*
X041607Y025210D02*
X041607Y025430D01*
X041754Y025577D01*
X041754Y025650D01*
X041607Y025430D02*
X041460Y025577D01*
X041460Y025650D01*
X041293Y025577D02*
X041293Y025504D01*
X041220Y025430D01*
X041000Y025430D01*
X040833Y025430D02*
X040539Y025430D01*
X040372Y025283D02*
X040299Y025210D01*
X040152Y025210D01*
X040079Y025283D01*
X040079Y025577D01*
X040152Y025650D01*
X040299Y025650D01*
X040372Y025577D01*
X039912Y025577D02*
X039839Y025650D01*
X039692Y025650D01*
X039618Y025577D01*
X039618Y025283D01*
X039692Y025210D01*
X039839Y025210D01*
X039912Y025283D01*
X041000Y025210D02*
X041220Y025210D01*
X041293Y025283D01*
X041293Y025357D01*
X041220Y025430D01*
X041293Y025577D02*
X041220Y025650D01*
X041000Y025650D01*
X041000Y025210D01*
X041920Y025430D02*
X042214Y025430D01*
X042381Y025504D02*
X042454Y025430D01*
X042601Y025430D01*
X042674Y025357D01*
X042674Y025283D01*
X042601Y025210D01*
X042454Y025210D01*
X042381Y025283D01*
X042381Y025504D02*
X042381Y025577D01*
X042454Y025650D01*
X042601Y025650D01*
X042674Y025577D01*
X042841Y025504D02*
X042841Y025210D01*
X042841Y025430D02*
X043135Y025430D01*
X043135Y025504D02*
X043135Y025210D01*
X043135Y025504D02*
X042988Y025650D01*
X042841Y025504D01*
X041877Y034235D02*
X041507Y034235D01*
X041383Y034358D01*
X041383Y034605D01*
X041507Y034729D01*
X041877Y034729D01*
X041877Y034976D02*
X041877Y034235D01*
X041140Y034235D02*
X041140Y034605D01*
X041017Y034729D01*
X040647Y034729D01*
X040647Y034235D01*
X040404Y034358D02*
X040404Y034605D01*
X040280Y034729D01*
X040033Y034729D01*
X039910Y034605D01*
X039910Y034358D01*
X040033Y034235D01*
X040280Y034235D01*
X040404Y034358D01*
X039667Y034235D02*
X039297Y034235D01*
X039173Y034358D01*
X039173Y034605D01*
X039297Y034729D01*
X039667Y034729D01*
X038930Y034605D02*
X038930Y034482D01*
X038437Y034482D01*
X038437Y034605D02*
X038560Y034729D01*
X038807Y034729D01*
X038930Y034605D01*
X038807Y034235D02*
X038560Y034235D01*
X038437Y034358D01*
X038437Y034605D01*
X038194Y034482D02*
X038194Y034358D01*
X038070Y034235D01*
X037824Y034235D01*
X037700Y034358D01*
X037824Y034605D02*
X037700Y034729D01*
X037700Y034852D01*
X037824Y034976D01*
X038070Y034976D01*
X038194Y034852D01*
X038070Y034605D02*
X038194Y034482D01*
X038070Y034605D02*
X037824Y034605D01*
X032885Y035300D02*
X046975Y035300D01*
X046975Y045460D01*
X032885Y045460D01*
X032885Y035300D01*
X032175Y035300D02*
X018085Y035300D01*
X018085Y045460D01*
X032175Y045460D01*
X032175Y035300D01*
X026881Y034655D02*
X026881Y034532D01*
X026388Y034532D01*
X026388Y034655D02*
X026511Y034779D01*
X026758Y034779D01*
X026881Y034655D01*
X026758Y034285D02*
X026511Y034285D01*
X026388Y034408D01*
X026388Y034655D01*
X026144Y034779D02*
X025897Y034779D01*
X026020Y034902D02*
X026020Y034408D01*
X026144Y034285D01*
X025654Y034285D02*
X025654Y034779D01*
X025654Y034285D02*
X025283Y034285D01*
X025160Y034408D01*
X025160Y034779D01*
X024917Y034655D02*
X024917Y034285D01*
X024917Y034655D02*
X024794Y034779D01*
X024423Y034779D01*
X024423Y034285D01*
X024179Y034285D02*
X023932Y034285D01*
X024056Y034285D02*
X024056Y034779D01*
X023932Y034779D01*
X024056Y035026D02*
X024056Y035149D01*
X023689Y035026D02*
X023689Y034285D01*
X023196Y034285D02*
X023196Y035026D01*
X023443Y034779D01*
X023689Y035026D01*
X023309Y028941D02*
X027061Y028941D01*
X027061Y023919D01*
X023309Y023919D01*
X023309Y028941D01*
X023384Y023751D02*
X023597Y023537D01*
X023811Y023751D01*
X023811Y023110D01*
X023811Y022876D02*
X023598Y022876D01*
X023491Y022769D01*
X023491Y022662D01*
X023598Y022555D01*
X023811Y022555D01*
X023918Y022449D01*
X023918Y022342D01*
X023811Y022235D01*
X023598Y022235D01*
X023491Y022342D01*
X023918Y022769D02*
X023811Y022876D01*
X024136Y022662D02*
X024349Y022662D01*
X024243Y022769D02*
X024243Y022342D01*
X024349Y022235D01*
X024565Y022342D02*
X024672Y022449D01*
X024992Y022449D01*
X024992Y022555D02*
X024992Y022235D01*
X024672Y022235D01*
X024565Y022342D01*
X024672Y022662D02*
X024886Y022662D01*
X024992Y022555D01*
X025210Y022662D02*
X025424Y022662D01*
X025317Y022769D02*
X025317Y022342D01*
X025424Y022235D01*
X025640Y022342D02*
X025746Y022235D01*
X026067Y022235D01*
X026067Y022662D01*
X026284Y022555D02*
X026391Y022662D01*
X026711Y022662D01*
X026605Y022449D02*
X026711Y022342D01*
X026605Y022235D01*
X026284Y022235D01*
X026391Y022449D02*
X026284Y022555D01*
X026391Y022449D02*
X026605Y022449D01*
X026498Y023110D02*
X026392Y023217D01*
X026392Y023430D01*
X026498Y023537D01*
X026712Y023537D01*
X026819Y023430D01*
X026819Y023324D01*
X026392Y023324D01*
X026498Y023110D02*
X026712Y023110D01*
X026175Y023110D02*
X025962Y023110D01*
X026069Y023110D02*
X026069Y023751D01*
X025962Y023751D01*
X025744Y023537D02*
X025744Y023110D01*
X025424Y023110D01*
X025317Y023217D01*
X025317Y023537D01*
X025100Y023537D02*
X024780Y023537D01*
X024673Y023430D01*
X024673Y023217D01*
X024780Y023110D01*
X025100Y023110D01*
X025100Y023751D01*
X024455Y023430D02*
X024455Y023217D01*
X024349Y023110D01*
X024135Y023110D01*
X024028Y023217D01*
X024028Y023430D01*
X024135Y023537D01*
X024349Y023537D01*
X024455Y023430D01*
X023384Y023110D02*
X023384Y023751D01*
X025640Y022662D02*
X025640Y022342D01*
X022197Y014876D02*
X021984Y014876D01*
X021877Y014769D01*
X022197Y014876D02*
X022304Y014769D01*
X022304Y014662D01*
X021877Y014235D01*
X022304Y014235D01*
X021015Y014235D02*
X021015Y014876D01*
X020588Y014876D02*
X021015Y014235D01*
X020588Y014235D02*
X020588Y014876D01*
X020370Y014876D02*
X020370Y014449D01*
X020157Y014235D01*
X019943Y014449D01*
X019943Y014876D01*
X019726Y014769D02*
X019619Y014876D01*
X019405Y014876D01*
X019299Y014769D01*
X019299Y014662D01*
X019405Y014555D01*
X019619Y014555D01*
X019726Y014449D01*
X019726Y014342D01*
X019619Y014235D01*
X019405Y014235D01*
X019299Y014342D01*
X011108Y034285D02*
X011108Y034779D01*
X010865Y034779D02*
X010865Y034285D01*
X010495Y034285D01*
X010371Y034408D01*
X010371Y034779D01*
X010129Y034655D02*
X010005Y034779D01*
X009758Y034779D01*
X009635Y034655D01*
X009635Y034408D01*
X009758Y034285D01*
X010005Y034285D01*
X010129Y034408D01*
X010129Y034655D01*
X009392Y034655D02*
X008898Y034655D01*
X008898Y034285D02*
X008898Y035026D01*
X009392Y035026D02*
X009392Y034285D01*
X011108Y034532D02*
X011355Y034779D01*
X011478Y034779D01*
X017375Y035300D02*
X003285Y035300D01*
X003285Y045460D01*
X017375Y045460D01*
X017375Y035300D01*
D12*
X023730Y045810D02*
X024110Y045810D01*
X024300Y046000D01*
X024300Y046951D01*
X024736Y046951D02*
X025497Y046951D01*
X025117Y046951D02*
X025117Y045810D01*
X025934Y046000D02*
X025934Y046761D01*
X026124Y046951D01*
X026504Y046951D01*
X026694Y046761D01*
X026694Y046000D02*
X026504Y045810D01*
X026124Y045810D01*
X025934Y046000D01*
X023730Y045810D02*
X023539Y046000D01*
X023539Y046951D01*
X022597Y018848D02*
X021983Y018848D01*
X021676Y018541D01*
X021676Y018234D01*
X021983Y017927D01*
X022597Y017927D01*
X022904Y017620D01*
X022904Y017313D01*
X022597Y017006D01*
X021983Y017006D01*
X021676Y017313D01*
X021676Y017620D01*
X021983Y017927D01*
X022597Y017927D02*
X022904Y018234D01*
X022904Y018541D01*
X022597Y018848D01*
X020154Y018541D02*
X020154Y018234D01*
X019847Y017927D01*
X019233Y017927D01*
X018926Y018234D01*
X018926Y018541D01*
X019233Y018848D01*
X019847Y018848D01*
X020154Y018541D01*
X019847Y017927D02*
X020154Y017620D01*
X020154Y017313D01*
X019847Y017006D01*
X019233Y017006D01*
X018926Y017313D01*
X018926Y017620D01*
X019233Y017927D01*
X014404Y018234D02*
X014097Y017927D01*
X013483Y017927D01*
X013176Y018234D01*
X013176Y018541D01*
X013483Y018848D01*
X014097Y018848D01*
X014404Y018541D01*
X014404Y018234D01*
X014097Y017927D02*
X014404Y017620D01*
X014404Y017313D01*
X014097Y017006D01*
X013483Y017006D01*
X013176Y017313D01*
X013176Y017620D01*
X013483Y017927D01*
X011654Y018234D02*
X011347Y017927D01*
X010733Y017927D01*
X010426Y018234D01*
X010426Y018541D01*
X010733Y018848D01*
X011347Y018848D01*
X011654Y018541D01*
X011654Y018234D01*
X011347Y017927D02*
X011654Y017620D01*
X011654Y017313D01*
X011347Y017006D01*
X010733Y017006D01*
X010426Y017313D01*
X010426Y017620D01*
X010733Y017927D01*
X027426Y018234D02*
X027426Y018541D01*
X027733Y018848D01*
X028347Y018848D01*
X028654Y018541D01*
X028654Y018234D01*
X028347Y017927D01*
X027733Y017927D01*
X027426Y018234D01*
X027733Y017927D02*
X027426Y017620D01*
X027426Y017313D01*
X027733Y017006D01*
X028347Y017006D01*
X028654Y017313D01*
X028654Y017620D01*
X028347Y017927D01*
X030176Y018234D02*
X030176Y018541D01*
X030483Y018848D01*
X031097Y018848D01*
X031404Y018541D01*
X031404Y018234D01*
X031097Y017927D01*
X030483Y017927D01*
X030176Y018234D01*
X030483Y017927D02*
X030176Y017620D01*
X030176Y017313D01*
X030483Y017006D01*
X031097Y017006D01*
X031404Y017313D01*
X031404Y017620D01*
X031097Y017927D01*
X035926Y018234D02*
X036233Y017927D01*
X036847Y017927D01*
X037154Y017620D01*
X037154Y017313D01*
X036847Y017006D01*
X036233Y017006D01*
X035926Y017313D01*
X035926Y017620D01*
X036233Y017927D01*
X035926Y018234D02*
X035926Y018541D01*
X036233Y018848D01*
X036847Y018848D01*
X037154Y018541D01*
X037154Y018234D01*
X036847Y017927D01*
X038676Y018234D02*
X038676Y018541D01*
X038983Y018848D01*
X039597Y018848D01*
X039904Y018541D01*
X039904Y018234D01*
X039597Y017927D01*
X038983Y017927D01*
X038676Y018234D01*
X038983Y017927D02*
X038676Y017620D01*
X038676Y017313D01*
X038983Y017006D01*
X039597Y017006D01*
X039904Y017313D01*
X039904Y017620D01*
X039597Y017927D01*
D13*
X041714Y022546D02*
X041830Y022546D01*
X041947Y022663D01*
X041947Y023247D01*
X041597Y023247D01*
X041480Y023130D01*
X041480Y022897D01*
X041597Y022780D01*
X041947Y022780D01*
X042217Y022780D02*
X042567Y022780D01*
X042684Y022897D01*
X042684Y023130D01*
X042567Y023247D01*
X042217Y023247D01*
X042217Y022546D01*
X042953Y022780D02*
X043304Y022780D01*
X043420Y022897D01*
X043304Y023014D01*
X043070Y023014D01*
X042953Y023130D01*
X043070Y023247D01*
X043420Y023247D01*
X043690Y023130D02*
X044157Y023130D01*
X044427Y023130D02*
X044543Y023247D01*
X044894Y023247D01*
X044894Y023481D02*
X044894Y022780D01*
X044543Y022780D01*
X044427Y022897D01*
X044427Y023130D01*
X045163Y023247D02*
X045280Y023247D01*
X045280Y022780D01*
X045163Y022780D02*
X045397Y022780D01*
X045654Y022780D02*
X046005Y022780D01*
X046121Y022897D01*
X046005Y023014D01*
X045771Y023014D01*
X045654Y023130D01*
X045771Y023247D01*
X046121Y023247D01*
X046391Y023247D02*
X046391Y022546D01*
X046391Y022780D02*
X046741Y022780D01*
X046858Y022897D01*
X046858Y023130D01*
X046741Y023247D01*
X046391Y023247D01*
X045280Y023481D02*
X045280Y023597D01*
X044648Y023947D02*
X044648Y024414D01*
X044531Y024531D01*
X044298Y024531D01*
X044181Y024414D01*
X044181Y023947D01*
X044298Y023830D01*
X044531Y023830D01*
X044648Y023947D01*
X043911Y024531D02*
X043444Y024531D01*
X043678Y024531D02*
X043678Y023830D01*
X043193Y023830D02*
X043076Y023830D01*
X043076Y023947D01*
X043193Y023947D01*
X043193Y023830D01*
X042806Y023947D02*
X042806Y024180D01*
X042690Y024297D01*
X042339Y024297D01*
X042339Y024531D02*
X042339Y023830D01*
X042690Y023830D01*
X042806Y023947D01*
X042070Y024064D02*
X041720Y024064D01*
X041603Y023947D01*
X041720Y023830D01*
X042070Y023830D01*
X042070Y024180D01*
X041953Y024297D01*
X041720Y024297D01*
X041333Y023830D02*
X040866Y023830D01*
X040866Y024531D01*
X040603Y024297D02*
X040252Y024064D01*
X040603Y023830D01*
X040252Y023830D02*
X040252Y024531D01*
X039983Y024297D02*
X039632Y024297D01*
X039516Y024180D01*
X039516Y023947D01*
X039632Y023830D01*
X039983Y023830D01*
X040369Y023364D02*
X040486Y023481D01*
X040369Y023364D02*
X040369Y022780D01*
X040252Y023130D02*
X040486Y023130D01*
X040743Y023130D02*
X041210Y023130D01*
X039983Y023130D02*
X039983Y023014D01*
X039516Y023014D01*
X039516Y023130D02*
X039632Y023247D01*
X039866Y023247D01*
X039983Y023130D01*
X039866Y022780D02*
X039632Y022780D01*
X039516Y022897D01*
X039516Y023130D01*
X039252Y023247D02*
X039135Y023247D01*
X038902Y023014D01*
X038902Y023247D02*
X038902Y022780D01*
X038632Y023130D02*
X038165Y023130D01*
X037902Y023247D02*
X037551Y023014D01*
X037902Y022780D01*
X037551Y022780D02*
X037551Y023481D01*
X037282Y023247D02*
X036931Y023247D01*
X036815Y023130D01*
X036815Y022897D01*
X036931Y022780D01*
X037282Y022780D01*
X036557Y022780D02*
X036324Y022780D01*
X036440Y022780D02*
X036440Y023247D01*
X036324Y023247D01*
X036066Y023247D02*
X035833Y023247D01*
X035949Y023364D02*
X035949Y022897D01*
X036066Y022780D01*
X036440Y023481D02*
X036440Y023597D01*
X038042Y023830D02*
X038042Y024531D01*
X038042Y024180D02*
X038509Y024180D01*
X038509Y023830D02*
X038509Y024531D01*
X038896Y024297D02*
X039129Y024297D01*
X039246Y024180D01*
X039246Y023830D01*
X038896Y023830D01*
X038779Y023947D01*
X038896Y024064D01*
X039246Y024064D01*
X038630Y011180D02*
X038587Y011234D01*
X038541Y011286D01*
X038492Y011335D01*
X038440Y011382D01*
X038386Y011425D01*
X038330Y011466D01*
X038271Y011503D01*
X038211Y011537D01*
X038148Y011567D01*
X038085Y011594D01*
X038019Y011618D01*
X037953Y011638D01*
X037885Y011654D01*
X037817Y011666D01*
X037748Y011674D01*
X037679Y011679D01*
X037609Y011680D01*
X037540Y011677D01*
X037471Y011670D01*
X037403Y011659D01*
X037335Y011645D01*
X037268Y011626D01*
X037202Y011604D01*
X037137Y011579D01*
X037074Y011550D01*
X037013Y011517D01*
X036954Y011481D01*
X036897Y011442D01*
X036841Y011400D01*
X036789Y011355D01*
X036739Y011307D01*
X036692Y011256D01*
X036647Y011202D01*
X036606Y011147D01*
X036568Y011089D01*
X036533Y011029D01*
X036501Y010967D01*
X036473Y010904D01*
X036449Y010839D01*
X036428Y010773D01*
X036411Y010705D01*
X036397Y010637D01*
X036388Y010568D01*
X036382Y010499D01*
X036380Y010430D01*
X036382Y010361D01*
X036388Y010292D01*
X036397Y010223D01*
X036411Y010155D01*
X036428Y010087D01*
X036449Y010021D01*
X036473Y009956D01*
X036501Y009893D01*
X036533Y009831D01*
X036568Y009771D01*
X036606Y009713D01*
X036647Y009658D01*
X036692Y009604D01*
X036739Y009553D01*
X036789Y009505D01*
X036841Y009460D01*
X036897Y009418D01*
X036954Y009379D01*
X037013Y009343D01*
X037074Y009310D01*
X037137Y009281D01*
X037202Y009256D01*
X037268Y009234D01*
X037335Y009215D01*
X037403Y009201D01*
X037471Y009190D01*
X037540Y009183D01*
X037609Y009180D01*
X037679Y009181D01*
X037748Y009186D01*
X037817Y009194D01*
X037885Y009206D01*
X037953Y009222D01*
X038019Y009242D01*
X038085Y009266D01*
X038148Y009293D01*
X038211Y009323D01*
X038271Y009357D01*
X038330Y009394D01*
X038386Y009435D01*
X038440Y009478D01*
X038492Y009525D01*
X038541Y009574D01*
X038587Y009626D01*
X038630Y009680D01*
X033655Y009680D02*
X033612Y009626D01*
X033566Y009574D01*
X033517Y009525D01*
X033465Y009478D01*
X033411Y009435D01*
X033355Y009394D01*
X033296Y009357D01*
X033236Y009323D01*
X033173Y009293D01*
X033110Y009266D01*
X033044Y009242D01*
X032978Y009222D01*
X032910Y009206D01*
X032842Y009194D01*
X032773Y009186D01*
X032704Y009181D01*
X032634Y009180D01*
X032565Y009183D01*
X032496Y009190D01*
X032428Y009201D01*
X032360Y009215D01*
X032293Y009234D01*
X032227Y009256D01*
X032162Y009281D01*
X032099Y009310D01*
X032038Y009343D01*
X031979Y009379D01*
X031922Y009418D01*
X031866Y009460D01*
X031814Y009505D01*
X031764Y009553D01*
X031717Y009604D01*
X031672Y009658D01*
X031631Y009713D01*
X031593Y009771D01*
X031558Y009831D01*
X031526Y009893D01*
X031498Y009956D01*
X031474Y010021D01*
X031453Y010087D01*
X031436Y010155D01*
X031422Y010223D01*
X031413Y010292D01*
X031407Y010361D01*
X031405Y010430D01*
X031407Y010499D01*
X031413Y010568D01*
X031422Y010637D01*
X031436Y010705D01*
X031453Y010773D01*
X031474Y010839D01*
X031498Y010904D01*
X031526Y010967D01*
X031558Y011029D01*
X031593Y011089D01*
X031631Y011147D01*
X031672Y011202D01*
X031717Y011256D01*
X031764Y011307D01*
X031814Y011355D01*
X031866Y011400D01*
X031922Y011442D01*
X031979Y011481D01*
X032038Y011517D01*
X032099Y011550D01*
X032162Y011579D01*
X032227Y011604D01*
X032293Y011626D01*
X032360Y011645D01*
X032428Y011659D01*
X032496Y011670D01*
X032565Y011677D01*
X032634Y011680D01*
X032704Y011679D01*
X032773Y011674D01*
X032842Y011666D01*
X032910Y011654D01*
X032978Y011638D01*
X033044Y011618D01*
X033110Y011594D01*
X033173Y011567D01*
X033236Y011537D01*
X033296Y011503D01*
X033355Y011466D01*
X033411Y011425D01*
X033465Y011382D01*
X033517Y011335D01*
X033566Y011286D01*
X033612Y011234D01*
X033655Y011180D01*
X028630Y011180D02*
X028587Y011234D01*
X028541Y011286D01*
X028492Y011335D01*
X028440Y011382D01*
X028386Y011425D01*
X028330Y011466D01*
X028271Y011503D01*
X028211Y011537D01*
X028148Y011567D01*
X028085Y011594D01*
X028019Y011618D01*
X027953Y011638D01*
X027885Y011654D01*
X027817Y011666D01*
X027748Y011674D01*
X027679Y011679D01*
X027609Y011680D01*
X027540Y011677D01*
X027471Y011670D01*
X027403Y011659D01*
X027335Y011645D01*
X027268Y011626D01*
X027202Y011604D01*
X027137Y011579D01*
X027074Y011550D01*
X027013Y011517D01*
X026954Y011481D01*
X026897Y011442D01*
X026841Y011400D01*
X026789Y011355D01*
X026739Y011307D01*
X026692Y011256D01*
X026647Y011202D01*
X026606Y011147D01*
X026568Y011089D01*
X026533Y011029D01*
X026501Y010967D01*
X026473Y010904D01*
X026449Y010839D01*
X026428Y010773D01*
X026411Y010705D01*
X026397Y010637D01*
X026388Y010568D01*
X026382Y010499D01*
X026380Y010430D01*
X026382Y010361D01*
X026388Y010292D01*
X026397Y010223D01*
X026411Y010155D01*
X026428Y010087D01*
X026449Y010021D01*
X026473Y009956D01*
X026501Y009893D01*
X026533Y009831D01*
X026568Y009771D01*
X026606Y009713D01*
X026647Y009658D01*
X026692Y009604D01*
X026739Y009553D01*
X026789Y009505D01*
X026841Y009460D01*
X026897Y009418D01*
X026954Y009379D01*
X027013Y009343D01*
X027074Y009310D01*
X027137Y009281D01*
X027202Y009256D01*
X027268Y009234D01*
X027335Y009215D01*
X027403Y009201D01*
X027471Y009190D01*
X027540Y009183D01*
X027609Y009180D01*
X027679Y009181D01*
X027748Y009186D01*
X027817Y009194D01*
X027885Y009206D01*
X027953Y009222D01*
X028019Y009242D01*
X028085Y009266D01*
X028148Y009293D01*
X028211Y009323D01*
X028271Y009357D01*
X028330Y009394D01*
X028386Y009435D01*
X028440Y009478D01*
X028492Y009525D01*
X028541Y009574D01*
X028587Y009626D01*
X028630Y009680D01*
X023655Y009680D02*
X023612Y009626D01*
X023566Y009574D01*
X023517Y009525D01*
X023465Y009478D01*
X023411Y009435D01*
X023355Y009394D01*
X023296Y009357D01*
X023236Y009323D01*
X023173Y009293D01*
X023110Y009266D01*
X023044Y009242D01*
X022978Y009222D01*
X022910Y009206D01*
X022842Y009194D01*
X022773Y009186D01*
X022704Y009181D01*
X022634Y009180D01*
X022565Y009183D01*
X022496Y009190D01*
X022428Y009201D01*
X022360Y009215D01*
X022293Y009234D01*
X022227Y009256D01*
X022162Y009281D01*
X022099Y009310D01*
X022038Y009343D01*
X021979Y009379D01*
X021922Y009418D01*
X021866Y009460D01*
X021814Y009505D01*
X021764Y009553D01*
X021717Y009604D01*
X021672Y009658D01*
X021631Y009713D01*
X021593Y009771D01*
X021558Y009831D01*
X021526Y009893D01*
X021498Y009956D01*
X021474Y010021D01*
X021453Y010087D01*
X021436Y010155D01*
X021422Y010223D01*
X021413Y010292D01*
X021407Y010361D01*
X021405Y010430D01*
X021407Y010499D01*
X021413Y010568D01*
X021422Y010637D01*
X021436Y010705D01*
X021453Y010773D01*
X021474Y010839D01*
X021498Y010904D01*
X021526Y010967D01*
X021558Y011029D01*
X021593Y011089D01*
X021631Y011147D01*
X021672Y011202D01*
X021717Y011256D01*
X021764Y011307D01*
X021814Y011355D01*
X021866Y011400D01*
X021922Y011442D01*
X021979Y011481D01*
X022038Y011517D01*
X022099Y011550D01*
X022162Y011579D01*
X022227Y011604D01*
X022293Y011626D01*
X022360Y011645D01*
X022428Y011659D01*
X022496Y011670D01*
X022565Y011677D01*
X022634Y011680D01*
X022704Y011679D01*
X022773Y011674D01*
X022842Y011666D01*
X022910Y011654D01*
X022978Y011638D01*
X023044Y011618D01*
X023110Y011594D01*
X023173Y011567D01*
X023236Y011537D01*
X023296Y011503D01*
X023355Y011466D01*
X023411Y011425D01*
X023465Y011382D01*
X023517Y011335D01*
X023566Y011286D01*
X023612Y011234D01*
X023655Y011180D01*
X018630Y011180D02*
X018587Y011234D01*
X018541Y011286D01*
X018492Y011335D01*
X018440Y011382D01*
X018386Y011425D01*
X018330Y011466D01*
X018271Y011503D01*
X018211Y011537D01*
X018148Y011567D01*
X018085Y011594D01*
X018019Y011618D01*
X017953Y011638D01*
X017885Y011654D01*
X017817Y011666D01*
X017748Y011674D01*
X017679Y011679D01*
X017609Y011680D01*
X017540Y011677D01*
X017471Y011670D01*
X017403Y011659D01*
X017335Y011645D01*
X017268Y011626D01*
X017202Y011604D01*
X017137Y011579D01*
X017074Y011550D01*
X017013Y011517D01*
X016954Y011481D01*
X016897Y011442D01*
X016841Y011400D01*
X016789Y011355D01*
X016739Y011307D01*
X016692Y011256D01*
X016647Y011202D01*
X016606Y011147D01*
X016568Y011089D01*
X016533Y011029D01*
X016501Y010967D01*
X016473Y010904D01*
X016449Y010839D01*
X016428Y010773D01*
X016411Y010705D01*
X016397Y010637D01*
X016388Y010568D01*
X016382Y010499D01*
X016380Y010430D01*
X016382Y010361D01*
X016388Y010292D01*
X016397Y010223D01*
X016411Y010155D01*
X016428Y010087D01*
X016449Y010021D01*
X016473Y009956D01*
X016501Y009893D01*
X016533Y009831D01*
X016568Y009771D01*
X016606Y009713D01*
X016647Y009658D01*
X016692Y009604D01*
X016739Y009553D01*
X016789Y009505D01*
X016841Y009460D01*
X016897Y009418D01*
X016954Y009379D01*
X017013Y009343D01*
X017074Y009310D01*
X017137Y009281D01*
X017202Y009256D01*
X017268Y009234D01*
X017335Y009215D01*
X017403Y009201D01*
X017471Y009190D01*
X017540Y009183D01*
X017609Y009180D01*
X017679Y009181D01*
X017748Y009186D01*
X017817Y009194D01*
X017885Y009206D01*
X017953Y009222D01*
X018019Y009242D01*
X018085Y009266D01*
X018148Y009293D01*
X018211Y009323D01*
X018271Y009357D01*
X018330Y009394D01*
X018386Y009435D01*
X018440Y009478D01*
X018492Y009525D01*
X018541Y009574D01*
X018587Y009626D01*
X018630Y009680D01*
X013630Y009680D02*
X013587Y009626D01*
X013541Y009574D01*
X013492Y009525D01*
X013440Y009478D01*
X013386Y009435D01*
X013330Y009394D01*
X013271Y009357D01*
X013211Y009323D01*
X013148Y009293D01*
X013085Y009266D01*
X013019Y009242D01*
X012953Y009222D01*
X012885Y009206D01*
X012817Y009194D01*
X012748Y009186D01*
X012679Y009181D01*
X012609Y009180D01*
X012540Y009183D01*
X012471Y009190D01*
X012403Y009201D01*
X012335Y009215D01*
X012268Y009234D01*
X012202Y009256D01*
X012137Y009281D01*
X012074Y009310D01*
X012013Y009343D01*
X011954Y009379D01*
X011897Y009418D01*
X011841Y009460D01*
X011789Y009505D01*
X011739Y009553D01*
X011692Y009604D01*
X011647Y009658D01*
X011606Y009713D01*
X011568Y009771D01*
X011533Y009831D01*
X011501Y009893D01*
X011473Y009956D01*
X011449Y010021D01*
X011428Y010087D01*
X011411Y010155D01*
X011397Y010223D01*
X011388Y010292D01*
X011382Y010361D01*
X011380Y010430D01*
X011382Y010499D01*
X011388Y010568D01*
X011397Y010637D01*
X011411Y010705D01*
X011428Y010773D01*
X011449Y010839D01*
X011473Y010904D01*
X011501Y010967D01*
X011533Y011029D01*
X011568Y011089D01*
X011606Y011147D01*
X011647Y011202D01*
X011692Y011256D01*
X011739Y011307D01*
X011789Y011355D01*
X011841Y011400D01*
X011897Y011442D01*
X011954Y011481D01*
X012013Y011517D01*
X012074Y011550D01*
X012137Y011579D01*
X012202Y011604D01*
X012268Y011626D01*
X012335Y011645D01*
X012403Y011659D01*
X012471Y011670D01*
X012540Y011677D01*
X012609Y011680D01*
X012679Y011679D01*
X012748Y011674D01*
X012817Y011666D01*
X012885Y011654D01*
X012953Y011638D01*
X013019Y011618D01*
X013085Y011594D01*
X013148Y011567D01*
X013211Y011537D01*
X013271Y011503D01*
X013330Y011466D01*
X013386Y011425D01*
X013440Y011382D01*
X013492Y011335D01*
X013541Y011286D01*
X013587Y011234D01*
X013630Y011180D01*
D14*
X014327Y024950D02*
X014250Y025027D01*
X014327Y024950D02*
X014480Y024950D01*
X014557Y025027D01*
X014557Y025103D01*
X014480Y025180D01*
X014327Y025180D01*
X014250Y025257D01*
X014250Y025334D01*
X014327Y025410D01*
X014480Y025410D01*
X014557Y025334D01*
X014710Y025334D02*
X014787Y025410D01*
X014941Y025410D01*
X015017Y025334D01*
X015171Y025410D02*
X015171Y024950D01*
X015478Y024950D01*
X015017Y025027D02*
X014941Y024950D01*
X014787Y024950D01*
X014710Y025027D01*
X014710Y025334D01*
X014710Y025950D02*
X014941Y025950D01*
X015017Y026027D01*
X015017Y026334D01*
X014941Y026410D01*
X014710Y026410D01*
X014710Y025950D01*
X014557Y026027D02*
X014480Y025950D01*
X014327Y025950D01*
X014250Y026027D01*
X014327Y026180D02*
X014480Y026180D01*
X014557Y026103D01*
X014557Y026027D01*
X014327Y026180D02*
X014250Y026257D01*
X014250Y026334D01*
X014327Y026410D01*
X014480Y026410D01*
X014557Y026334D01*
X014557Y026900D02*
X014250Y026900D01*
X014403Y026900D02*
X014403Y027360D01*
X014250Y027207D01*
X015171Y027360D02*
X015171Y026900D01*
X015171Y027053D02*
X015401Y027053D01*
X015478Y027130D01*
X015478Y027284D01*
X015401Y027360D01*
X015171Y027360D01*
X015631Y027360D02*
X015631Y026900D01*
X015631Y027053D02*
X015861Y027053D01*
X015938Y027130D01*
X015938Y027284D01*
X015861Y027360D01*
X015631Y027360D01*
X016092Y027284D02*
X016092Y027207D01*
X016168Y027130D01*
X016322Y027130D01*
X016398Y027053D01*
X016398Y026977D01*
X016322Y026900D01*
X016168Y026900D01*
X016092Y026977D01*
X016092Y027284D02*
X016168Y027360D01*
X016322Y027360D01*
X016398Y027284D01*
X015478Y026257D02*
X015478Y025950D01*
X015478Y026180D02*
X015171Y026180D01*
X015171Y026257D02*
X015324Y026410D01*
X015478Y026257D01*
X015171Y026257D02*
X015171Y025950D01*
X015171Y028900D02*
X015401Y028900D01*
X015478Y028977D01*
X015478Y029284D01*
X015401Y029360D01*
X015171Y029360D01*
X015171Y028900D01*
X015017Y028900D02*
X015017Y029360D01*
X014710Y029360D02*
X015017Y028900D01*
X014710Y028900D02*
X014710Y029360D01*
X014557Y029284D02*
X014480Y029360D01*
X014327Y029360D01*
X014250Y029284D01*
X014250Y028977D01*
X014327Y028900D01*
X014480Y028900D01*
X014557Y028977D01*
X014557Y029130D01*
X014403Y029130D01*
X011847Y029053D02*
X011847Y029360D01*
X011847Y029053D02*
X011693Y028900D01*
X011540Y029053D01*
X011540Y029360D01*
X011386Y029360D02*
X011079Y029360D01*
X011079Y029130D01*
X011233Y029207D01*
X011309Y029207D01*
X011386Y029130D01*
X011386Y028977D01*
X011309Y028900D01*
X011156Y028900D01*
X011079Y028977D01*
X010926Y029130D02*
X010619Y029130D01*
X010772Y028977D02*
X010772Y029284D01*
X010312Y028410D02*
X010005Y028410D01*
X010005Y027950D01*
X010005Y028180D02*
X010158Y028180D01*
X010465Y028027D02*
X010542Y028103D01*
X010772Y028103D01*
X010772Y028180D02*
X010772Y027950D01*
X010542Y027950D01*
X010465Y028027D01*
X010542Y028257D02*
X010696Y028257D01*
X010772Y028180D01*
X010926Y028257D02*
X010926Y028027D01*
X011002Y027950D01*
X011233Y027950D01*
X011233Y028257D01*
X011386Y028410D02*
X011463Y028410D01*
X011463Y027950D01*
X011386Y027950D02*
X011540Y027950D01*
X011770Y028027D02*
X011847Y027950D01*
X011770Y028027D02*
X011770Y028334D01*
X011693Y028257D02*
X011847Y028257D01*
X011463Y027487D02*
X011463Y027410D01*
X011463Y027257D02*
X011463Y026950D01*
X011386Y026950D02*
X011540Y026950D01*
X011770Y027027D02*
X011847Y026950D01*
X011770Y027027D02*
X011770Y027334D01*
X011693Y027257D02*
X011847Y027257D01*
X011463Y027257D02*
X011386Y027257D01*
X011233Y027180D02*
X011233Y026950D01*
X011002Y026950D01*
X010926Y027027D01*
X011002Y027103D01*
X011233Y027103D01*
X011233Y027180D02*
X011156Y027257D01*
X011002Y027257D01*
X010772Y027410D02*
X010772Y026950D01*
X010619Y027103D01*
X010465Y026950D01*
X010465Y027410D01*
X011156Y026410D02*
X011079Y026334D01*
X011079Y026027D01*
X011156Y025950D01*
X011309Y025950D01*
X011386Y026027D01*
X011386Y026334D01*
X011309Y026410D01*
X011156Y026410D01*
X011540Y026410D02*
X011540Y025950D01*
X011540Y026103D02*
X011847Y026410D01*
X011616Y026180D02*
X011847Y025950D01*
X011770Y025257D02*
X011847Y025180D01*
X011847Y024950D01*
X011693Y024950D02*
X011693Y025180D01*
X011770Y025257D01*
X011693Y025180D02*
X011616Y025257D01*
X011540Y025257D01*
X011540Y024950D01*
X011386Y024950D02*
X011386Y025180D01*
X011309Y025257D01*
X011233Y025180D01*
X011233Y024950D01*
X011079Y024950D02*
X011079Y025257D01*
X011156Y025257D01*
X011233Y025180D01*
X010926Y025180D02*
X010849Y025257D01*
X010696Y025257D01*
X010619Y025180D01*
X010619Y025027D01*
X010696Y024950D01*
X010849Y024950D01*
X010926Y025027D01*
X010926Y025180D01*
X010465Y025027D02*
X010389Y024950D01*
X010235Y024950D01*
X010158Y025027D01*
X010158Y025334D01*
X010235Y025410D01*
X010389Y025410D01*
X010465Y025334D01*
D15*
X023453Y031702D02*
X023509Y031702D01*
X023453Y031702D02*
X023453Y033158D01*
X023509Y033158D01*
X026751Y033158D02*
X026807Y033158D01*
X026807Y031702D01*
X026751Y031702D01*
X033703Y027408D02*
X033703Y025952D01*
X033759Y025952D01*
X033759Y027408D02*
X033703Y027408D01*
X037001Y027408D02*
X037057Y027408D01*
X037057Y025952D01*
X037001Y025952D01*
X038630Y011180D02*
X038630Y009680D01*
X033655Y009680D02*
X033655Y011180D01*
X028630Y011180D02*
X028630Y009680D01*
X023655Y009680D02*
X023655Y011180D01*
X018630Y011180D02*
X018630Y009680D01*
X013630Y009680D02*
X013630Y011180D01*
D16*
X023776Y032017D03*
X034026Y026267D03*
D17*
X040062Y026762D02*
X040507Y026717D01*
X040536Y026616D01*
X040576Y026520D01*
X040627Y026428D01*
X040344Y026082D01*
X040582Y025844D01*
X040928Y026127D01*
X040996Y026088D01*
X041067Y026055D01*
X041265Y026532D01*
X041201Y026565D01*
X041143Y026609D01*
X041093Y026662D01*
X041053Y026722D01*
X041024Y026788D01*
X041005Y026858D01*
X040999Y026930D01*
X041007Y027010D01*
X041029Y027088D01*
X041066Y027160D01*
X041115Y027224D01*
X041176Y027278D01*
X041245Y027319D01*
X041321Y027347D01*
X041401Y027360D01*
X041481Y027358D01*
X041560Y027340D01*
X041635Y027309D01*
X041702Y027264D01*
X041759Y027207D01*
X041805Y027141D01*
X041838Y027067D01*
X041857Y026989D01*
X041860Y026908D01*
X041848Y026828D01*
X041822Y026752D01*
X041782Y026682D01*
X041729Y026620D01*
X041666Y026570D01*
X041595Y026532D01*
X041793Y026055D01*
X041864Y026088D01*
X041932Y026127D01*
X042278Y025844D01*
X042516Y026082D01*
X042233Y026428D01*
X042284Y026520D01*
X042324Y026616D01*
X042353Y026717D01*
X042798Y026762D01*
X042798Y027098D01*
X042353Y027143D01*
X042324Y027244D01*
X042284Y027340D01*
X042233Y027432D01*
X042516Y027778D01*
X042278Y028016D01*
X041932Y027733D01*
X041840Y027784D01*
X041744Y027824D01*
X041643Y027853D01*
X041598Y028298D01*
X041262Y028298D01*
X041217Y027853D01*
X041116Y027824D01*
X041020Y027784D01*
X040928Y027733D01*
X040582Y028016D01*
X040344Y027778D01*
X040627Y027432D01*
X040576Y027340D01*
X040536Y027244D01*
X040507Y027143D01*
X040062Y027098D01*
X040062Y026762D01*
X040062Y026783D02*
X041026Y026783D01*
X041010Y026841D02*
X040062Y026841D01*
X040062Y026898D02*
X041002Y026898D01*
X041002Y026956D02*
X040062Y026956D01*
X040062Y027013D02*
X041008Y027013D01*
X041024Y027071D02*
X040062Y027071D01*
X040362Y027128D02*
X041050Y027128D01*
X041086Y027186D02*
X040519Y027186D01*
X040536Y027243D02*
X041137Y027243D01*
X041215Y027301D02*
X040560Y027301D01*
X040586Y027359D02*
X041394Y027359D01*
X041441Y027359D02*
X042274Y027359D01*
X042300Y027301D02*
X041646Y027301D01*
X041723Y027243D02*
X042324Y027243D01*
X042341Y027186D02*
X041774Y027186D01*
X041811Y027128D02*
X042498Y027128D01*
X042798Y027071D02*
X041837Y027071D01*
X041851Y027013D02*
X042798Y027013D01*
X042798Y026956D02*
X041858Y026956D01*
X041859Y026898D02*
X042798Y026898D01*
X042798Y026841D02*
X041850Y026841D01*
X041833Y026783D02*
X042798Y026783D01*
X042438Y026725D02*
X041807Y026725D01*
X041770Y026668D02*
X042339Y026668D01*
X042321Y026610D02*
X041717Y026610D01*
X041634Y026553D02*
X042298Y026553D01*
X042270Y026495D02*
X041610Y026495D01*
X041634Y026438D02*
X042239Y026438D01*
X042272Y026380D02*
X041658Y026380D01*
X041682Y026323D02*
X042319Y026323D01*
X042366Y026265D02*
X041705Y026265D01*
X041729Y026207D02*
X042413Y026207D01*
X042460Y026150D02*
X041753Y026150D01*
X041777Y026092D02*
X041872Y026092D01*
X041974Y026092D02*
X042507Y026092D01*
X042469Y026035D02*
X042045Y026035D01*
X042115Y025977D02*
X042411Y025977D01*
X042354Y025920D02*
X042186Y025920D01*
X042256Y025862D02*
X042296Y025862D01*
X041178Y026323D02*
X040541Y026323D01*
X040588Y026380D02*
X041202Y026380D01*
X041226Y026438D02*
X040621Y026438D01*
X040590Y026495D02*
X041250Y026495D01*
X041225Y026553D02*
X040562Y026553D01*
X040539Y026610D02*
X041142Y026610D01*
X041089Y026668D02*
X040521Y026668D01*
X040422Y026725D02*
X041051Y026725D01*
X041155Y026265D02*
X040494Y026265D01*
X040447Y026207D02*
X041131Y026207D01*
X041107Y026150D02*
X040400Y026150D01*
X040353Y026092D02*
X040886Y026092D01*
X040815Y026035D02*
X040391Y026035D01*
X040449Y025977D02*
X040745Y025977D01*
X040674Y025920D02*
X040506Y025920D01*
X040564Y025862D02*
X040604Y025862D01*
X040988Y026092D02*
X041083Y026092D01*
X040618Y027416D02*
X042242Y027416D01*
X042267Y027474D02*
X040593Y027474D01*
X040546Y027531D02*
X042314Y027531D01*
X042361Y027589D02*
X040499Y027589D01*
X040452Y027646D02*
X042408Y027646D01*
X042455Y027704D02*
X040405Y027704D01*
X040358Y027761D02*
X040894Y027761D01*
X040979Y027761D02*
X041881Y027761D01*
X041966Y027761D02*
X042502Y027761D01*
X042475Y027819D02*
X042037Y027819D01*
X042108Y027877D02*
X042418Y027877D01*
X042360Y027934D02*
X042178Y027934D01*
X042249Y027992D02*
X042302Y027992D01*
X041755Y027819D02*
X041105Y027819D01*
X041219Y027877D02*
X041641Y027877D01*
X041635Y027934D02*
X041225Y027934D01*
X041231Y027992D02*
X041629Y027992D01*
X041623Y028049D02*
X041237Y028049D01*
X041243Y028107D02*
X041617Y028107D01*
X041611Y028164D02*
X041249Y028164D01*
X041254Y028222D02*
X041606Y028222D01*
X041600Y028279D02*
X041260Y028279D01*
X040823Y027819D02*
X040385Y027819D01*
X040442Y027877D02*
X040752Y027877D01*
X040682Y027934D02*
X040500Y027934D01*
X040558Y027992D02*
X040611Y027992D01*
D18*
G36*
X004781Y005058D02*
X004840Y005107D01*
X004853Y005092D01*
X004794Y005043D01*
X004781Y005058D01*
G37*
G36*
X004768Y005073D02*
X004827Y005122D01*
X004840Y005107D01*
X004781Y005058D01*
X004768Y005073D01*
G37*
G36*
X004755Y005088D02*
X004814Y005137D01*
X004827Y005122D01*
X004768Y005073D01*
X004755Y005088D01*
G37*
G36*
X004743Y005104D02*
X004802Y005153D01*
X004815Y005138D01*
X004756Y005089D01*
X004743Y005104D01*
G37*
G36*
X004730Y005119D02*
X004789Y005168D01*
X004802Y005153D01*
X004743Y005104D01*
X004730Y005119D01*
G37*
G36*
X004718Y005134D02*
X004777Y005183D01*
X004790Y005168D01*
X004731Y005119D01*
X004718Y005134D01*
G37*
G36*
X004705Y005149D02*
X004764Y005198D01*
X004777Y005183D01*
X004718Y005134D01*
X004705Y005149D01*
G37*
G36*
X004692Y005164D02*
X004751Y005213D01*
X004764Y005198D01*
X004705Y005149D01*
X004692Y005164D01*
G37*
G36*
X004680Y005179D02*
X004739Y005228D01*
X004752Y005213D01*
X004693Y005164D01*
X004680Y005179D01*
G37*
G36*
X004667Y005194D02*
X004726Y005243D01*
X004739Y005228D01*
X004680Y005179D01*
X004667Y005194D01*
G37*
G36*
X004654Y005209D02*
X004713Y005258D01*
X004726Y005243D01*
X004667Y005194D01*
X004654Y005209D01*
G37*
G36*
X004642Y005224D02*
X004701Y005273D01*
X004714Y005258D01*
X004655Y005209D01*
X004642Y005224D01*
G37*
G36*
X004629Y005239D02*
X004688Y005288D01*
X004701Y005273D01*
X004642Y005224D01*
X004629Y005239D01*
G37*
G36*
X004616Y005254D02*
X004675Y005303D01*
X004688Y005288D01*
X004629Y005239D01*
X004616Y005254D01*
G37*
G36*
X004604Y005269D02*
X004663Y005318D01*
X004676Y005303D01*
X004617Y005254D01*
X004604Y005269D01*
G37*
G36*
X004591Y005284D02*
X004650Y005333D01*
X004663Y005318D01*
X004604Y005269D01*
X004591Y005284D01*
G37*
G36*
X004578Y005300D02*
X004637Y005349D01*
X004650Y005334D01*
X004591Y005285D01*
X004578Y005300D01*
G37*
G36*
X004566Y005315D02*
X004625Y005364D01*
X004638Y005349D01*
X004579Y005300D01*
X004566Y005315D01*
G37*
G36*
X004553Y005330D02*
X004612Y005379D01*
X004625Y005364D01*
X004566Y005315D01*
X004553Y005330D01*
G37*
G36*
X004540Y005345D02*
X004599Y005394D01*
X004612Y005379D01*
X004553Y005330D01*
X004540Y005345D01*
G37*
G36*
X004528Y005360D02*
X004587Y005409D01*
X004600Y005394D01*
X004541Y005345D01*
X004528Y005360D01*
G37*
G36*
X004515Y005375D02*
X004574Y005424D01*
X004587Y005409D01*
X004528Y005360D01*
X004515Y005375D01*
G37*
G36*
X004502Y005390D02*
X004561Y005439D01*
X004574Y005424D01*
X004515Y005375D01*
X004502Y005390D01*
G37*
G36*
X004490Y005405D02*
X004549Y005454D01*
X004562Y005439D01*
X004503Y005390D01*
X004490Y005405D01*
G37*
G36*
X004477Y005420D02*
X004536Y005469D01*
X004549Y005454D01*
X004490Y005405D01*
X004477Y005420D01*
G37*
G36*
X004464Y005435D02*
X004523Y005484D01*
X004536Y005469D01*
X004477Y005420D01*
X004464Y005435D01*
G37*
G36*
X004452Y005450D02*
X004511Y005499D01*
X004524Y005484D01*
X004465Y005435D01*
X004452Y005450D01*
G37*
G36*
X004439Y005465D02*
X004498Y005514D01*
X004511Y005499D01*
X004452Y005450D01*
X004439Y005465D01*
G37*
G36*
X004427Y005480D02*
X004486Y005529D01*
X004499Y005514D01*
X004440Y005465D01*
X004427Y005480D01*
G37*
G36*
X004414Y005496D02*
X004473Y005545D01*
X004486Y005530D01*
X004427Y005481D01*
X004414Y005496D01*
G37*
G36*
X004401Y005511D02*
X004460Y005560D01*
X004473Y005545D01*
X004414Y005496D01*
X004401Y005511D01*
G37*
G36*
X004388Y005526D02*
X004447Y005575D01*
X004460Y005560D01*
X004401Y005511D01*
X004388Y005526D01*
G37*
G36*
X004376Y005541D02*
X004435Y005590D01*
X004448Y005575D01*
X004389Y005526D01*
X004376Y005541D01*
G37*
G36*
X004363Y005556D02*
X004422Y005605D01*
X004435Y005590D01*
X004376Y005541D01*
X004363Y005556D01*
G37*
G36*
X004351Y005571D02*
X004410Y005620D01*
X004423Y005605D01*
X004364Y005556D01*
X004351Y005571D01*
G37*
G36*
X004338Y005586D02*
X004397Y005635D01*
X004410Y005620D01*
X004351Y005571D01*
X004338Y005586D01*
G37*
G36*
X004325Y005601D02*
X004384Y005650D01*
X004397Y005635D01*
X004338Y005586D01*
X004325Y005601D01*
G37*
G36*
X004312Y005616D02*
X004371Y005665D01*
X004384Y005650D01*
X004325Y005601D01*
X004312Y005616D01*
G37*
G36*
X004300Y005631D02*
X004359Y005680D01*
X004372Y005665D01*
X004313Y005616D01*
X004300Y005631D01*
G37*
G36*
X004287Y005646D02*
X004346Y005695D01*
X004359Y005680D01*
X004300Y005631D01*
X004287Y005646D01*
G37*
G36*
X004275Y005661D02*
X004334Y005710D01*
X004347Y005695D01*
X004288Y005646D01*
X004275Y005661D01*
G37*
G36*
X004262Y005676D02*
X004321Y005725D01*
X004334Y005710D01*
X004275Y005661D01*
X004262Y005676D01*
G37*
G36*
X004224Y005722D02*
X004283Y005771D01*
X004296Y005756D01*
X004237Y005707D01*
X004224Y005722D01*
G37*
G36*
X004199Y005752D02*
X004258Y005801D01*
X004271Y005786D01*
X004212Y005737D01*
X004199Y005752D01*
G37*
G36*
X004173Y005782D02*
X004232Y005831D01*
X004245Y005816D01*
X004186Y005767D01*
X004173Y005782D01*
G37*
G36*
X004146Y005784D02*
X004205Y005833D01*
X004218Y005818D01*
X004159Y005769D01*
X004146Y005784D01*
G37*
G36*
X004148Y005812D02*
X004207Y005861D01*
X004220Y005846D01*
X004161Y005797D01*
X004148Y005812D01*
G37*
G36*
X004095Y005845D02*
X004154Y005894D01*
X004167Y005879D01*
X004108Y005830D01*
X004095Y005845D01*
G37*
G36*
X004097Y005872D02*
X004156Y005921D01*
X004169Y005906D01*
X004110Y005857D01*
X004097Y005872D01*
G37*
G36*
X004072Y005902D02*
X004131Y005951D01*
X004144Y005936D01*
X004085Y005887D01*
X004072Y005902D01*
G37*
G36*
X004047Y005933D02*
X004106Y005982D01*
X004119Y005967D01*
X004060Y005918D01*
X004047Y005933D01*
G37*
G36*
X004034Y005948D02*
X004093Y005997D01*
X004106Y005982D01*
X004047Y005933D01*
X004034Y005948D01*
G37*
G36*
X004022Y005963D02*
X004081Y006012D01*
X004094Y005997D01*
X004035Y005948D01*
X004022Y005963D01*
G37*
G36*
X004009Y005978D02*
X004068Y006027D01*
X004081Y006012D01*
X004022Y005963D01*
X004009Y005978D01*
G37*
G36*
X003996Y005993D02*
X004055Y006042D01*
X004068Y006027D01*
X004009Y005978D01*
X003996Y005993D01*
G37*
G36*
X003984Y006008D02*
X004043Y006057D01*
X004056Y006042D01*
X003997Y005993D01*
X003984Y006008D01*
G37*
G36*
X003958Y006038D02*
X004017Y006087D01*
X004030Y006072D01*
X003971Y006023D01*
X003958Y006038D01*
G37*
G36*
X003961Y006066D02*
X004020Y006115D01*
X004033Y006100D01*
X003974Y006051D01*
X003961Y006066D01*
G37*
G36*
X003948Y006081D02*
X004007Y006130D01*
X004020Y006115D01*
X003961Y006066D01*
X003948Y006081D01*
G37*
G36*
X003935Y006096D02*
X003994Y006145D01*
X004007Y006130D01*
X003948Y006081D01*
X003935Y006096D01*
G37*
G36*
X003938Y006124D02*
X003997Y006173D01*
X004010Y006158D01*
X003951Y006109D01*
X003938Y006124D01*
G37*
G36*
X003925Y006139D02*
X003984Y006188D01*
X003997Y006173D01*
X003938Y006124D01*
X003925Y006139D01*
G37*
G36*
X003915Y006182D02*
X003974Y006231D01*
X003987Y006216D01*
X003928Y006167D01*
X003915Y006182D01*
G37*
G36*
X004328Y006425D02*
X004387Y006474D01*
X004400Y006459D01*
X004341Y006410D01*
X004328Y006425D01*
G37*
G36*
X004350Y006521D02*
X004409Y006570D01*
X004422Y006555D01*
X004363Y006506D01*
X004350Y006521D01*
G37*
G36*
X004254Y006543D02*
X004313Y006592D01*
X004326Y006577D01*
X004267Y006528D01*
X004254Y006543D01*
G37*
G36*
X004420Y006529D02*
X004479Y006578D01*
X004492Y006563D01*
X004433Y006514D01*
X004420Y006529D01*
G37*
G36*
X004433Y006514D02*
X004492Y006563D01*
X004505Y006548D01*
X004446Y006499D01*
X004433Y006514D01*
G37*
G36*
X004607Y006582D02*
X004666Y006631D01*
X004679Y006616D01*
X004620Y006567D01*
X004607Y006582D01*
G37*
G36*
X004596Y006625D02*
X004655Y006674D01*
X004668Y006659D01*
X004609Y006610D01*
X004596Y006625D01*
G37*
G36*
X004584Y006640D02*
X004643Y006689D01*
X004656Y006674D01*
X004597Y006625D01*
X004584Y006640D01*
G37*
G36*
X004571Y006655D02*
X004630Y006704D01*
X004643Y006689D01*
X004584Y006640D01*
X004571Y006655D01*
G37*
G36*
X004652Y006467D02*
X004711Y006516D01*
X004724Y006501D01*
X004665Y006452D01*
X004652Y006467D01*
G37*
G36*
X004678Y006437D02*
X004737Y006486D01*
X004750Y006471D01*
X004691Y006422D01*
X004678Y006437D01*
G37*
G36*
X004690Y006421D02*
X004749Y006470D01*
X004762Y006455D01*
X004703Y006406D01*
X004690Y006421D01*
G37*
G36*
X004836Y006004D02*
X004895Y006053D01*
X004908Y006038D01*
X004849Y005989D01*
X004836Y006004D01*
G37*
G36*
X004833Y005976D02*
X004892Y006025D01*
X004905Y006010D01*
X004846Y005961D01*
X004833Y005976D01*
G37*
G36*
X004858Y005946D02*
X004917Y005995D01*
X004930Y005980D01*
X004871Y005931D01*
X004858Y005946D01*
G37*
G36*
X004871Y005930D02*
X004930Y005979D01*
X004943Y005964D01*
X004884Y005915D01*
X004871Y005930D01*
G37*
G36*
X004884Y005915D02*
X004943Y005964D01*
X004956Y005949D01*
X004897Y005900D01*
X004884Y005915D01*
G37*
G36*
X004894Y005873D02*
X004953Y005922D01*
X004966Y005907D01*
X004907Y005858D01*
X004894Y005873D01*
G37*
G36*
X004906Y005857D02*
X004965Y005906D01*
X004978Y005891D01*
X004919Y005842D01*
X004906Y005857D01*
G37*
G36*
X004932Y005827D02*
X004991Y005876D01*
X005004Y005861D01*
X004945Y005812D01*
X004932Y005827D01*
G37*
G36*
X004945Y005812D02*
X005004Y005861D01*
X005017Y005846D01*
X004958Y005797D01*
X004945Y005812D01*
G37*
G36*
X004942Y005784D02*
X005001Y005833D01*
X005014Y005818D01*
X004955Y005769D01*
X004942Y005784D01*
G37*
G36*
X004955Y005770D02*
X005014Y005819D01*
X005027Y005804D01*
X004968Y005755D01*
X004955Y005770D01*
G37*
G36*
X004967Y005754D02*
X005026Y005803D01*
X005039Y005788D01*
X004980Y005739D01*
X004967Y005754D01*
G37*
G36*
X004980Y005739D02*
X005039Y005788D01*
X005052Y005773D01*
X004993Y005724D01*
X004980Y005739D01*
G37*
G36*
X004993Y005724D02*
X005052Y005773D01*
X005065Y005758D01*
X005006Y005709D01*
X004993Y005724D01*
G37*
G36*
X005028Y005651D02*
X005087Y005700D01*
X005100Y005685D01*
X005041Y005636D01*
X005028Y005651D01*
G37*
G36*
X005041Y005636D02*
X005100Y005685D01*
X005113Y005670D01*
X005054Y005621D01*
X005041Y005636D01*
G37*
G36*
X005054Y005621D02*
X005113Y005670D01*
X005126Y005655D01*
X005067Y005606D01*
X005054Y005621D01*
G37*
G36*
X005066Y005606D02*
X005125Y005655D01*
X005138Y005640D01*
X005079Y005591D01*
X005066Y005606D01*
G37*
G36*
X005079Y005591D02*
X005138Y005640D01*
X005151Y005625D01*
X005092Y005576D01*
X005079Y005591D01*
G37*
G36*
X005104Y005561D02*
X005163Y005610D01*
X005176Y005595D01*
X005117Y005546D01*
X005104Y005561D01*
G37*
G36*
X005117Y005546D02*
X005176Y005595D01*
X005189Y005580D01*
X005130Y005531D01*
X005117Y005546D01*
G37*
G36*
X005114Y005518D02*
X005173Y005567D01*
X005186Y005552D01*
X005127Y005503D01*
X005114Y005518D01*
G37*
G36*
X005140Y005488D02*
X005199Y005537D01*
X005212Y005522D01*
X005153Y005473D01*
X005140Y005488D01*
G37*
G36*
X005152Y005473D02*
X005211Y005522D01*
X005224Y005507D01*
X005165Y005458D01*
X005152Y005473D01*
G37*
G36*
X005165Y005458D02*
X005224Y005507D01*
X005237Y005492D01*
X005178Y005443D01*
X005165Y005458D01*
G37*
G36*
X005178Y005443D02*
X005237Y005492D01*
X005250Y005477D01*
X005191Y005428D01*
X005178Y005443D01*
G37*
G36*
X005190Y005428D02*
X005249Y005477D01*
X005262Y005462D01*
X005203Y005413D01*
X005190Y005428D01*
G37*
G36*
X005203Y005413D02*
X005262Y005462D01*
X005275Y005447D01*
X005216Y005398D01*
X005203Y005413D01*
G37*
D19*
G36*
X005127Y005503D02*
X005201Y005565D01*
X005213Y005549D01*
X005139Y005487D01*
X005127Y005503D01*
G37*
G36*
X005077Y005564D02*
X005151Y005626D01*
X005163Y005610D01*
X005089Y005548D01*
X005077Y005564D01*
G37*
G36*
X005016Y005667D02*
X005090Y005729D01*
X005102Y005713D01*
X005028Y005651D01*
X005016Y005667D01*
G37*
G36*
X004991Y005697D02*
X005065Y005759D01*
X005077Y005743D01*
X005003Y005681D01*
X004991Y005697D01*
G37*
G36*
X004905Y005830D02*
X004979Y005892D01*
X004991Y005876D01*
X004917Y005814D01*
X004905Y005830D01*
G37*
G36*
X004882Y005888D02*
X004956Y005950D01*
X004968Y005934D01*
X004894Y005872D01*
X004882Y005888D01*
G37*
G36*
X004846Y005961D02*
X004920Y006023D01*
X004932Y006007D01*
X004858Y005945D01*
X004846Y005961D01*
G37*
G36*
X004886Y006251D02*
X004960Y006313D01*
X004972Y006297D01*
X004898Y006235D01*
X004886Y006251D01*
G37*
G36*
X004891Y006306D02*
X004965Y006368D01*
X004977Y006352D01*
X004903Y006290D01*
X004891Y006306D01*
G37*
G36*
X004880Y006349D02*
X004954Y006411D01*
X004966Y006395D01*
X004892Y006333D01*
X004880Y006349D01*
G37*
G36*
X004883Y006377D02*
X004957Y006439D01*
X004969Y006423D01*
X004895Y006361D01*
X004883Y006377D01*
G37*
G36*
X004870Y006392D02*
X004944Y006454D01*
X004956Y006438D01*
X004882Y006376D01*
X004870Y006392D01*
G37*
G36*
X004704Y006407D02*
X004778Y006469D01*
X004790Y006453D01*
X004716Y006391D01*
X004704Y006407D01*
G37*
G36*
X004651Y006439D02*
X004725Y006501D01*
X004737Y006485D01*
X004663Y006423D01*
X004651Y006439D01*
G37*
G36*
X004640Y006482D02*
X004714Y006544D01*
X004726Y006528D01*
X004652Y006466D01*
X004640Y006482D01*
G37*
G36*
X004620Y006568D02*
X004694Y006630D01*
X004706Y006614D01*
X004632Y006552D01*
X004620Y006568D01*
G37*
G36*
X004330Y006607D02*
X004404Y006669D01*
X004416Y006653D01*
X004342Y006591D01*
X004330Y006607D01*
G37*
G36*
X004543Y006812D02*
X004617Y006874D01*
X004629Y006858D01*
X004555Y006796D01*
X004543Y006812D01*
G37*
G36*
X004108Y005830D02*
X004182Y005892D01*
X004194Y005876D01*
X004120Y005814D01*
X004108Y005830D01*
G37*
G36*
X004222Y005694D02*
X004296Y005756D01*
X004308Y005740D01*
X004234Y005678D01*
X004222Y005694D01*
G37*
G36*
X004235Y005679D02*
X004309Y005741D01*
X004321Y005725D01*
X004247Y005663D01*
X004235Y005679D01*
G37*
G36*
X003913Y006154D02*
X003987Y006216D01*
X003999Y006200D01*
X003925Y006138D01*
X003913Y006154D01*
G37*
G36*
X003885Y006311D02*
X003959Y006373D01*
X003971Y006357D01*
X003897Y006295D01*
X003885Y006311D01*
G37*
G36*
X003857Y006313D02*
X003931Y006375D01*
X003943Y006359D01*
X003869Y006297D01*
X003857Y006313D01*
G37*
D20*
G36*
X003987Y006036D02*
X004030Y006072D01*
X004043Y006056D01*
X004000Y006020D01*
X003987Y006036D01*
G37*
G36*
X004060Y005918D02*
X004103Y005954D01*
X004116Y005938D01*
X004073Y005902D01*
X004060Y005918D01*
G37*
G36*
X004085Y005888D02*
X004128Y005924D01*
X004141Y005908D01*
X004098Y005872D01*
X004085Y005888D01*
G37*
G36*
X004136Y005828D02*
X004179Y005864D01*
X004192Y005848D01*
X004149Y005812D01*
X004136Y005828D01*
G37*
G36*
X004187Y005768D02*
X004230Y005804D01*
X004243Y005788D01*
X004200Y005752D01*
X004187Y005768D01*
G37*
G36*
X004212Y005737D02*
X004255Y005773D01*
X004268Y005757D01*
X004225Y005721D01*
X004212Y005737D01*
G37*
G36*
X004235Y006476D02*
X004278Y006512D01*
X004291Y006496D01*
X004248Y006460D01*
X004235Y006476D01*
G37*
G36*
X004252Y006516D02*
X004295Y006552D01*
X004308Y006536D01*
X004265Y006500D01*
X004252Y006516D01*
G37*
G36*
X004287Y006597D02*
X004330Y006633D01*
X004343Y006617D01*
X004300Y006581D01*
X004287Y006597D01*
G37*
G36*
X004388Y006630D02*
X004431Y006666D01*
X004444Y006650D01*
X004401Y006614D01*
X004388Y006630D01*
G37*
G36*
X004610Y006611D02*
X004653Y006647D01*
X004666Y006631D01*
X004623Y006595D01*
X004610Y006611D01*
G37*
G36*
X003982Y006624D02*
X004025Y006660D01*
X004038Y006644D01*
X003995Y006608D01*
X003982Y006624D01*
G37*
G36*
X005018Y005695D02*
X005061Y005731D01*
X005074Y005715D01*
X005031Y005679D01*
X005018Y005695D01*
G37*
D21*
G36*
X004823Y006018D02*
X004912Y006093D01*
X004925Y006078D01*
X004836Y006003D01*
X004823Y006018D01*
G37*
G36*
X004868Y006210D02*
X004957Y006285D01*
X004970Y006270D01*
X004881Y006195D01*
X004868Y006210D01*
G37*
G36*
X004873Y006265D02*
X004962Y006340D01*
X004975Y006325D01*
X004886Y006250D01*
X004873Y006265D01*
G37*
G36*
X004877Y006321D02*
X004966Y006396D01*
X004979Y006381D01*
X004890Y006306D01*
X004877Y006321D01*
G37*
G36*
X004857Y006406D02*
X004946Y006481D01*
X004959Y006466D01*
X004870Y006391D01*
X004857Y006406D01*
G37*
G36*
X004731Y006403D02*
X004820Y006478D01*
X004833Y006463D01*
X004744Y006388D01*
X004731Y006403D01*
G37*
G36*
X004583Y006794D02*
X004672Y006869D01*
X004685Y006854D01*
X004596Y006779D01*
X004583Y006794D01*
G37*
G36*
X004556Y006796D02*
X004645Y006871D01*
X004658Y006856D01*
X004569Y006781D01*
X004556Y006796D01*
G37*
G36*
X005190Y007020D02*
X005279Y007095D01*
X005292Y007080D01*
X005203Y007005D01*
X005190Y007020D01*
G37*
G36*
X003895Y006267D02*
X003984Y006342D01*
X003997Y006327D01*
X003908Y006252D01*
X003895Y006267D01*
G37*
G36*
X003882Y006282D02*
X003971Y006357D01*
X003984Y006342D01*
X003895Y006267D01*
X003882Y006282D01*
G37*
G36*
X003829Y006315D02*
X003918Y006390D01*
X003931Y006375D01*
X003842Y006300D01*
X003829Y006315D01*
G37*
D22*
G36*
X003817Y006331D02*
X003936Y006430D01*
X003949Y006415D01*
X003830Y006316D01*
X003817Y006331D01*
G37*
G36*
X003903Y006197D02*
X004022Y006296D01*
X004035Y006281D01*
X003916Y006182D01*
X003903Y006197D01*
G37*
G36*
X004332Y006481D02*
X004451Y006580D01*
X004464Y006565D01*
X004345Y006466D01*
X004332Y006481D01*
G37*
G36*
X004442Y006779D02*
X004561Y006878D01*
X004574Y006863D01*
X004455Y006764D01*
X004442Y006779D01*
G37*
G36*
X004848Y006143D02*
X004967Y006242D01*
X004980Y006227D01*
X004861Y006128D01*
X004848Y006143D01*
G37*
G36*
X004810Y006034D02*
X004929Y006133D01*
X004942Y006118D01*
X004823Y006019D01*
X004810Y006034D01*
G37*
G36*
X005132Y006998D02*
X005251Y007097D01*
X005264Y007082D01*
X005145Y006983D01*
X005132Y006998D01*
G37*
D23*
G36*
X005074Y006975D02*
X005223Y007100D01*
X005236Y007085D01*
X005087Y006960D01*
X005074Y006975D01*
G37*
G36*
X005193Y006894D02*
X005342Y007019D01*
X005355Y007004D01*
X005206Y006879D01*
X005193Y006894D01*
G37*
G36*
X004457Y006302D02*
X004606Y006427D01*
X004619Y006412D01*
X004470Y006287D01*
X004457Y006302D01*
G37*
G36*
X004800Y006076D02*
X004949Y006201D01*
X004962Y006186D01*
X004813Y006061D01*
X004800Y006076D01*
G37*
G36*
X004798Y006049D02*
X004947Y006174D01*
X004960Y006159D01*
X004811Y006034D01*
X004798Y006049D01*
G37*
D24*
G36*
X004865Y006182D02*
X004970Y006270D01*
X004983Y006254D01*
X004878Y006166D01*
X004865Y006182D01*
G37*
G36*
X004448Y006372D02*
X004553Y006460D01*
X004566Y006444D01*
X004461Y006356D01*
X004448Y006372D01*
G37*
G36*
X004485Y006789D02*
X004590Y006877D01*
X004603Y006861D01*
X004498Y006773D01*
X004485Y006789D01*
G37*
G36*
X004102Y006724D02*
X004207Y006812D01*
X004220Y006796D01*
X004115Y006708D01*
X004102Y006724D01*
G37*
G36*
X003892Y006240D02*
X003997Y006328D01*
X004010Y006312D01*
X003905Y006224D01*
X003892Y006240D01*
G37*
G36*
X003905Y006225D02*
X004010Y006313D01*
X004023Y006297D01*
X003918Y006209D01*
X003905Y006225D01*
G37*
G36*
X005072Y006793D02*
X005177Y006881D01*
X005190Y006865D01*
X005085Y006777D01*
X005072Y006793D01*
G37*
G36*
X005187Y006993D02*
X005292Y007081D01*
X005305Y007065D01*
X005200Y006977D01*
X005187Y006993D01*
G37*
D25*
G36*
X005175Y006854D02*
X005340Y006992D01*
X005353Y006976D01*
X005188Y006838D01*
X005175Y006854D01*
G37*
G36*
X004799Y006384D02*
X004964Y006522D01*
X004977Y006506D01*
X004812Y006368D01*
X004799Y006384D01*
G37*
G36*
X004393Y006378D02*
X004558Y006516D01*
X004571Y006500D01*
X004406Y006362D01*
X004393Y006378D01*
G37*
D26*
G36*
X004292Y006343D02*
X004307Y006356D01*
X004320Y006341D01*
X004305Y006328D01*
X004292Y006343D01*
G37*
G36*
X004279Y006359D02*
X004294Y006372D01*
X004307Y006357D01*
X004292Y006344D01*
X004279Y006359D01*
G37*
G36*
X004256Y006416D02*
X004271Y006429D01*
X004284Y006414D01*
X004269Y006401D01*
X004256Y006416D01*
G37*
G36*
X004246Y006459D02*
X004261Y006472D01*
X004274Y006457D01*
X004259Y006444D01*
X004246Y006459D01*
G37*
G36*
X004346Y006646D02*
X004361Y006659D01*
X004374Y006644D01*
X004359Y006631D01*
X004346Y006646D01*
G37*
G36*
X004513Y006631D02*
X004528Y006644D01*
X004541Y006629D01*
X004526Y006616D01*
X004513Y006631D01*
G37*
G36*
X004538Y006601D02*
X004553Y006614D01*
X004566Y006599D01*
X004551Y006586D01*
X004538Y006601D01*
G37*
G36*
X004576Y006556D02*
X004591Y006569D01*
X004604Y006554D01*
X004589Y006541D01*
X004576Y006556D01*
G37*
G36*
X004589Y006541D02*
X004604Y006554D01*
X004617Y006539D01*
X004602Y006526D01*
X004589Y006541D01*
G37*
G36*
X004803Y006592D02*
X004818Y006605D01*
X004831Y006590D01*
X004816Y006577D01*
X004803Y006592D01*
G37*
G36*
X004836Y006491D02*
X004851Y006504D01*
X004864Y006489D01*
X004849Y006476D01*
X004836Y006491D01*
G37*
G36*
X004946Y006635D02*
X004961Y006648D01*
X004974Y006633D01*
X004959Y006620D01*
X004946Y006635D01*
G37*
G36*
X004951Y006691D02*
X004966Y006704D01*
X004979Y006689D01*
X004964Y006676D01*
X004951Y006691D01*
G37*
G36*
X004812Y006703D02*
X004827Y006716D01*
X004840Y006701D01*
X004825Y006688D01*
X004812Y006703D01*
G37*
G36*
X004991Y006827D02*
X005006Y006840D01*
X005019Y006825D01*
X005004Y006812D01*
X004991Y006827D01*
G37*
G36*
X004970Y006913D02*
X004985Y006926D01*
X004998Y006911D01*
X004983Y006898D01*
X004970Y006913D01*
G37*
G36*
X004862Y006950D02*
X004877Y006963D01*
X004890Y006948D01*
X004875Y006935D01*
X004862Y006950D01*
G37*
G36*
X005051Y006878D02*
X005066Y006891D01*
X005079Y006876D01*
X005064Y006863D01*
X005051Y006878D01*
G37*
G36*
X005081Y006903D02*
X005096Y006916D01*
X005109Y006901D01*
X005094Y006888D01*
X005081Y006903D01*
G37*
G36*
X005112Y006928D02*
X005127Y006941D01*
X005140Y006926D01*
X005125Y006913D01*
X005112Y006928D01*
G37*
G36*
X005041Y006767D02*
X005056Y006780D01*
X005069Y006765D01*
X005054Y006752D01*
X005041Y006767D01*
G37*
G36*
X005057Y006626D02*
X005072Y006639D01*
X005085Y006624D01*
X005070Y006611D01*
X005057Y006626D01*
G37*
G36*
X005211Y006780D02*
X005226Y006793D01*
X005239Y006778D01*
X005224Y006765D01*
X005211Y006780D01*
G37*
G36*
X004456Y006944D02*
X004471Y006957D01*
X004484Y006942D01*
X004469Y006929D01*
X004456Y006944D01*
G37*
G36*
X004250Y006822D02*
X004265Y006835D01*
X004278Y006820D01*
X004263Y006807D01*
X004250Y006822D01*
G37*
G36*
X004164Y006802D02*
X004179Y006815D01*
X004192Y006800D01*
X004177Y006787D01*
X004164Y006802D01*
G37*
G36*
X004134Y006776D02*
X004149Y006789D01*
X004162Y006774D01*
X004147Y006761D01*
X004134Y006776D01*
G37*
G36*
X003933Y006556D02*
X003948Y006569D01*
X003961Y006554D01*
X003946Y006541D01*
X003933Y006556D01*
G37*
G36*
X004005Y006257D02*
X004020Y006270D01*
X004033Y006255D01*
X004018Y006242D01*
X004005Y006257D01*
G37*
D27*
G36*
X004771Y006386D02*
X005042Y006613D01*
X005055Y006598D01*
X004784Y006371D01*
X004771Y006386D01*
G37*
D28*
G36*
X004759Y006402D02*
X005194Y006767D01*
X005207Y006752D01*
X004772Y006387D01*
X004759Y006402D01*
G37*
G36*
X004867Y006518D02*
X005302Y006883D01*
X005315Y006868D01*
X004880Y006503D01*
X004867Y006518D01*
G37*
D29*
G36*
X004930Y006597D02*
X005335Y006936D01*
X005348Y006921D01*
X004943Y006582D01*
X004930Y006597D01*
G37*
D30*
G36*
X004574Y006683D02*
X004950Y006998D01*
X004962Y006983D01*
X004586Y006668D01*
X004574Y006683D01*
G37*
G36*
X004977Y006662D02*
X005353Y006977D01*
X005365Y006962D01*
X004989Y006647D01*
X004977Y006662D01*
G37*
D31*
G36*
X004998Y006730D02*
X005026Y006753D01*
X005038Y006738D01*
X005010Y006715D01*
X004998Y006730D01*
G37*
G36*
X004947Y006790D02*
X004975Y006813D01*
X004987Y006798D01*
X004959Y006775D01*
X004947Y006790D01*
G37*
G36*
X004884Y006866D02*
X004912Y006889D01*
X004924Y006874D01*
X004896Y006851D01*
X004884Y006866D01*
G37*
G36*
X005143Y006955D02*
X005171Y006978D01*
X005183Y006963D01*
X005155Y006940D01*
X005143Y006955D01*
G37*
G36*
X004565Y006572D02*
X004593Y006595D01*
X004605Y006580D01*
X004577Y006557D01*
X004565Y006572D01*
G37*
G36*
X004552Y006588D02*
X004580Y006611D01*
X004592Y006596D01*
X004564Y006573D01*
X004552Y006588D01*
G37*
G36*
X004527Y006618D02*
X004555Y006641D01*
X004567Y006626D01*
X004539Y006603D01*
X004527Y006618D01*
G37*
G36*
X004486Y006635D02*
X004514Y006658D01*
X004526Y006643D01*
X004498Y006620D01*
X004486Y006635D01*
G37*
G36*
X004459Y006638D02*
X004487Y006661D01*
X004499Y006646D01*
X004471Y006623D01*
X004459Y006638D01*
G37*
G36*
X004431Y006640D02*
X004459Y006663D01*
X004471Y006648D01*
X004443Y006625D01*
X004431Y006640D01*
G37*
G36*
X004331Y006453D02*
X004359Y006476D01*
X004371Y006461D01*
X004343Y006438D01*
X004331Y006453D01*
G37*
G36*
X004245Y006433D02*
X004273Y006456D01*
X004285Y006441D01*
X004257Y006418D01*
X004245Y006433D01*
G37*
G36*
X004256Y006390D02*
X004284Y006413D01*
X004296Y006398D01*
X004268Y006375D01*
X004256Y006390D01*
G37*
G36*
X004268Y006375D02*
X004296Y006398D01*
X004308Y006383D01*
X004280Y006360D01*
X004268Y006375D01*
G37*
G36*
X004306Y006330D02*
X004334Y006353D01*
X004346Y006338D01*
X004318Y006315D01*
X004306Y006330D01*
G37*
G36*
X004319Y006315D02*
X004347Y006338D01*
X004359Y006323D01*
X004331Y006300D01*
X004319Y006315D01*
G37*
G36*
X004347Y006312D02*
X004375Y006335D01*
X004387Y006320D01*
X004359Y006297D01*
X004347Y006312D01*
G37*
G36*
X004374Y006310D02*
X004402Y006333D01*
X004414Y006318D01*
X004386Y006295D01*
X004374Y006310D01*
G37*
G36*
X004402Y006307D02*
X004430Y006330D01*
X004442Y006315D01*
X004414Y006292D01*
X004402Y006307D01*
G37*
G36*
X004430Y006305D02*
X004458Y006328D01*
X004470Y006313D01*
X004442Y006290D01*
X004430Y006305D01*
G37*
G36*
X004530Y006338D02*
X004558Y006361D01*
X004570Y006346D01*
X004542Y006323D01*
X004530Y006338D01*
G37*
G36*
X004580Y006431D02*
X004608Y006454D01*
X004620Y006439D01*
X004592Y006416D01*
X004580Y006431D01*
G37*
G36*
X004583Y006459D02*
X004611Y006482D01*
X004623Y006467D01*
X004595Y006444D01*
X004583Y006459D01*
G37*
G36*
X004585Y006487D02*
X004613Y006510D01*
X004625Y006495D01*
X004597Y006472D01*
X004585Y006487D01*
G37*
G36*
X004397Y006894D02*
X004425Y006917D01*
X004437Y006902D01*
X004409Y006879D01*
X004397Y006894D01*
G37*
D32*
G36*
X004834Y006618D02*
X005315Y007022D01*
X005328Y007006D01*
X004847Y006602D01*
X004834Y006618D01*
G37*
D33*
G36*
X004730Y006557D02*
X005317Y007050D01*
X005330Y007035D01*
X004743Y006542D01*
X004730Y006557D01*
G37*
D34*
G36*
X004627Y006496D02*
X005304Y007065D01*
X005317Y007050D01*
X004640Y006481D01*
X004627Y006496D01*
G37*
D35*
G36*
X004629Y006525D02*
X004930Y006777D01*
X004943Y006761D01*
X004642Y006509D01*
X004629Y006525D01*
G37*
D36*
G36*
X004587Y006514D02*
X004782Y006677D01*
X004795Y006662D01*
X004600Y006499D01*
X004587Y006514D01*
G37*
G36*
X005001Y006939D02*
X005196Y007102D01*
X005209Y007087D01*
X005014Y006924D01*
X005001Y006939D01*
G37*
D37*
G36*
X004551Y006741D02*
X004684Y006853D01*
X004697Y006837D01*
X004564Y006725D01*
X004551Y006741D01*
G37*
G36*
X004400Y006769D02*
X004533Y006881D01*
X004546Y006865D01*
X004413Y006753D01*
X004400Y006769D01*
G37*
G36*
X004403Y006797D02*
X004536Y006909D01*
X004549Y006893D01*
X004416Y006781D01*
X004403Y006797D01*
G37*
G36*
X004407Y006363D02*
X004540Y006475D01*
X004553Y006459D01*
X004420Y006347D01*
X004407Y006363D01*
G37*
D38*
G36*
X004366Y006380D02*
X004545Y006531D01*
X004558Y006516D01*
X004379Y006365D01*
X004366Y006380D01*
G37*
G36*
X004353Y006395D02*
X004532Y006546D01*
X004545Y006531D01*
X004366Y006380D01*
X004353Y006395D01*
G37*
G36*
X004340Y006410D02*
X004519Y006561D01*
X004532Y006546D01*
X004353Y006395D01*
X004340Y006410D01*
G37*
D39*
G36*
X003804Y006346D02*
X004029Y006534D01*
X004042Y006518D01*
X003817Y006330D01*
X003804Y006346D01*
G37*
G36*
X004548Y006714D02*
X004773Y006902D01*
X004786Y006886D01*
X004561Y006698D01*
X004548Y006714D01*
G37*
G36*
X004928Y006904D02*
X005153Y007092D01*
X005166Y007076D01*
X004941Y006888D01*
X004928Y006904D01*
G37*
D40*
G36*
X004810Y006830D02*
X005095Y007069D01*
X005108Y007054D01*
X004823Y006815D01*
X004810Y006830D01*
G37*
G36*
X004561Y006698D02*
X004846Y006937D01*
X004859Y006922D01*
X004574Y006683D01*
X004561Y006698D01*
G37*
G36*
X004226Y006699D02*
X004511Y006938D01*
X004524Y006923D01*
X004239Y006684D01*
X004226Y006699D01*
G37*
D41*
G36*
X004183Y006690D02*
X004498Y006954D01*
X004511Y006938D01*
X004196Y006674D01*
X004183Y006690D01*
G37*
G36*
X004707Y006770D02*
X005022Y007034D01*
X005035Y007018D01*
X004720Y006754D01*
X004707Y006770D01*
G37*
D42*
G36*
X004313Y006747D02*
X004524Y006924D01*
X004537Y006909D01*
X004326Y006732D01*
X004313Y006747D01*
G37*
D43*
G36*
X003806Y006373D02*
X004167Y006676D01*
X004180Y006661D01*
X003819Y006358D01*
X003806Y006373D01*
G37*
D44*
G36*
X003823Y006413D02*
X004380Y006880D01*
X004393Y006865D01*
X003836Y006398D01*
X003823Y006413D01*
G37*
D45*
G36*
X003841Y006453D02*
X004308Y006844D01*
X004321Y006829D01*
X003854Y006438D01*
X003841Y006453D01*
G37*
D46*
G36*
X003964Y006583D02*
X004219Y006797D01*
X004232Y006781D01*
X003977Y006567D01*
X003964Y006583D01*
G37*
D47*
X009644Y016355D02*
X012370Y016355D01*
X012370Y019505D01*
X009644Y019505D01*
X009644Y016355D01*
X012394Y016355D02*
X015120Y016355D01*
X015120Y019505D01*
X012394Y019505D01*
X012394Y016355D01*
X018144Y016355D02*
X020870Y016355D01*
X020870Y019505D01*
X018144Y019505D01*
X018144Y016355D01*
X020894Y016355D02*
X023620Y016355D01*
X023620Y019505D01*
X020894Y019505D01*
X020894Y016355D01*
X026644Y016355D02*
X029370Y016355D01*
X029370Y019505D01*
X026644Y019505D01*
X026644Y016355D01*
X029394Y016355D02*
X029394Y019505D01*
X032120Y019505D01*
X032120Y016355D01*
X029394Y016355D01*
X035144Y016355D02*
X037870Y016355D01*
X037870Y019505D01*
X035144Y019505D01*
X035144Y016355D01*
X037894Y016355D02*
X037894Y019505D01*
X040620Y019505D01*
X040620Y016355D01*
X037894Y016355D01*
D48*
X041464Y016569D03*
X041464Y017041D03*
X041464Y017319D03*
X041464Y017791D03*
X041464Y018069D03*
X041464Y018541D03*
X041464Y018819D03*
X041464Y019291D03*
X032964Y019291D03*
X032964Y018819D03*
X032964Y018541D03*
X032964Y018069D03*
X032964Y017791D03*
X032964Y017319D03*
X032964Y017041D03*
X032964Y016569D03*
X024464Y016569D03*
X024464Y017041D03*
X024464Y017319D03*
X024464Y017791D03*
X024464Y018069D03*
X024464Y018541D03*
X024464Y018819D03*
X024464Y019291D03*
X015964Y019291D03*
X015964Y018819D03*
X015964Y018541D03*
X015964Y018069D03*
X015964Y017791D03*
X015964Y017319D03*
X015964Y017041D03*
X015964Y016569D03*
D49*
X015964Y016805D03*
X015964Y017555D03*
X015964Y018305D03*
X015964Y019055D03*
X024464Y019055D03*
X024464Y018305D03*
X024464Y017555D03*
X024464Y016805D03*
X032964Y016805D03*
X032964Y017555D03*
X032964Y018305D03*
X032964Y019055D03*
X041464Y019055D03*
X041464Y018305D03*
X041464Y017555D03*
X041464Y016805D03*
M02*
