G75*
G70*
%OFA0B0*%
%FSLAX24Y24*%
%IPPOS*%
%LPD*%
%AMOC8*
5,1,8,0,0,1.08239X$1,22.5*
%
%ADD10R,0.0177X0.0591*%
%ADD11C,0.0480*%
%ADD12R,0.0433X0.0394*%
%ADD13OC8,0.0480*%
%ADD14R,0.0394X0.0433*%
%ADD15R,0.0591X0.0512*%
%ADD16OC8,0.0740*%
%ADD17C,0.0591*%
%ADD18R,0.0354X0.1102*%
%ADD19R,0.0551X0.0394*%
%ADD20R,0.0472X0.0472*%
%ADD21C,0.0160*%
%ADD22OC8,0.1969*%
%ADD23C,0.0290*%
%ADD24C,0.0100*%
D10*
X023755Y031371D03*
X024005Y031371D03*
X024255Y031371D03*
X024505Y031371D03*
X024755Y031371D03*
X025005Y031371D03*
X025255Y031371D03*
X025505Y031371D03*
X025755Y031371D03*
X026005Y031371D03*
X026255Y031371D03*
X026505Y031371D03*
X026505Y033489D03*
X026255Y033489D03*
X026005Y033489D03*
X025755Y033489D03*
X025505Y033489D03*
X025255Y033489D03*
X025005Y033489D03*
X024755Y033489D03*
X024505Y033489D03*
X024255Y033489D03*
X024005Y033489D03*
X023755Y033489D03*
X034005Y027739D03*
X034255Y027739D03*
X034505Y027739D03*
X034755Y027739D03*
X035005Y027739D03*
X035255Y027739D03*
X035505Y027739D03*
X035755Y027739D03*
X036005Y027739D03*
X036255Y027739D03*
X036505Y027739D03*
X036755Y027739D03*
X036755Y025621D03*
X036505Y025621D03*
X036255Y025621D03*
X036005Y025621D03*
X035755Y025621D03*
X035505Y025621D03*
X035255Y025621D03*
X035005Y025621D03*
X034755Y025621D03*
X034505Y025621D03*
X034255Y025621D03*
X034005Y025621D03*
D11*
X035930Y035810D02*
X035930Y036290D01*
X036930Y036290D02*
X036930Y035810D01*
X037930Y035810D02*
X037930Y036290D01*
X038930Y036290D02*
X038930Y035810D01*
X039930Y035810D02*
X039930Y036290D01*
X040930Y036290D02*
X040930Y035810D01*
X041930Y035810D02*
X041930Y036290D01*
X042930Y036290D02*
X042930Y035810D01*
X043930Y035810D02*
X043930Y036290D01*
X043930Y044470D02*
X043930Y044950D01*
X042930Y044950D02*
X042930Y044470D01*
X041930Y044470D02*
X041930Y044950D01*
X040930Y044950D02*
X040930Y044470D01*
X039930Y044470D02*
X039930Y044950D01*
X038930Y044950D02*
X038930Y044470D01*
X037930Y044470D02*
X037930Y044950D01*
X036930Y044950D02*
X036930Y044470D01*
X035930Y044470D02*
X035930Y044950D01*
X029130Y044950D02*
X029130Y044470D01*
X028130Y044470D02*
X028130Y044950D01*
X027130Y044950D02*
X027130Y044470D01*
X026130Y044470D02*
X026130Y044950D01*
X025130Y044950D02*
X025130Y044470D01*
X024130Y044470D02*
X024130Y044950D01*
X023130Y044950D02*
X023130Y044470D01*
X022130Y044470D02*
X022130Y044950D01*
X021130Y044950D02*
X021130Y044470D01*
X014330Y044470D02*
X014330Y044950D01*
X013330Y044950D02*
X013330Y044470D01*
X012330Y044470D02*
X012330Y044950D01*
X011330Y044950D02*
X011330Y044470D01*
X010330Y044470D02*
X010330Y044950D01*
X009330Y044950D02*
X009330Y044470D01*
X008330Y044470D02*
X008330Y044950D01*
X007330Y044950D02*
X007330Y044470D01*
X006330Y044470D02*
X006330Y044950D01*
X006330Y036290D02*
X006330Y035810D01*
X007330Y035810D02*
X007330Y036290D01*
X008330Y036290D02*
X008330Y035810D01*
X009330Y035810D02*
X009330Y036290D01*
X010330Y036290D02*
X010330Y035810D01*
X011330Y035810D02*
X011330Y036290D01*
X012330Y036290D02*
X012330Y035810D01*
X013330Y035810D02*
X013330Y036290D01*
X014330Y036290D02*
X014330Y035810D01*
X021130Y035810D02*
X021130Y036290D01*
X022130Y036290D02*
X022130Y035810D01*
X023130Y035810D02*
X023130Y036290D01*
X024130Y036290D02*
X024130Y035810D01*
X025130Y035810D02*
X025130Y036290D01*
X026130Y036290D02*
X026130Y035810D01*
X027130Y035810D02*
X027130Y036290D01*
X028130Y036290D02*
X028130Y035810D01*
X029130Y035810D02*
X029130Y036290D01*
D12*
X027380Y034390D03*
X027380Y033720D03*
X037630Y027015D03*
X037630Y026345D03*
X038130Y013015D03*
X038130Y012345D03*
X034505Y012345D03*
X034505Y013015D03*
X033130Y007640D03*
X033130Y006970D03*
X028130Y006970D03*
X028130Y007640D03*
X023130Y007640D03*
X023130Y006970D03*
X018130Y006970D03*
X018130Y007640D03*
X013130Y007640D03*
X013130Y006970D03*
D13*
X013130Y010430D03*
X012130Y010430D03*
X017130Y010430D03*
X018130Y010430D03*
X022155Y010430D03*
X023155Y010430D03*
X027130Y010430D03*
X028130Y010430D03*
X032155Y010430D03*
X033155Y010430D03*
X037130Y010430D03*
X038130Y010430D03*
D14*
X032255Y026345D03*
X032255Y027015D03*
X028330Y033720D03*
X028330Y034390D03*
D15*
X029730Y034429D03*
X029730Y033681D03*
X033130Y027054D03*
X033130Y026306D03*
D16*
X013505Y026155D03*
X013505Y025155D03*
X012505Y025155D03*
X012505Y026155D03*
X012505Y027155D03*
X012505Y028155D03*
X012505Y029155D03*
X013505Y029155D03*
X013505Y028155D03*
X013505Y027155D03*
D17*
X023680Y027430D03*
X023680Y026430D03*
X023680Y025430D03*
X023680Y024430D03*
X026680Y024430D03*
X026680Y025430D03*
X026680Y026430D03*
X026680Y027430D03*
X026680Y028430D03*
X023680Y028430D03*
D18*
X023392Y019899D03*
X022825Y019899D03*
X022258Y019899D03*
X021691Y019899D03*
X021124Y019899D03*
X020642Y019899D03*
X020075Y019899D03*
X019508Y019899D03*
X018941Y019899D03*
X018374Y019899D03*
X014892Y019899D03*
X014325Y019899D03*
X013758Y019899D03*
X013191Y019899D03*
X012624Y019899D03*
X012142Y019899D03*
X011575Y019899D03*
X011008Y019899D03*
X010441Y019899D03*
X009874Y019899D03*
X009874Y015961D03*
X010441Y015961D03*
X011008Y015961D03*
X011575Y015961D03*
X012142Y015961D03*
X012624Y015961D03*
X013191Y015961D03*
X013758Y015961D03*
X014325Y015961D03*
X014892Y015961D03*
X018374Y015961D03*
X018941Y015961D03*
X019508Y015961D03*
X020075Y015961D03*
X020642Y015961D03*
X021124Y015961D03*
X021691Y015961D03*
X022258Y015961D03*
X022825Y015961D03*
X023392Y015961D03*
X026874Y015961D03*
X027441Y015961D03*
X028008Y015961D03*
X028575Y015961D03*
X029142Y015961D03*
X029624Y015961D03*
X030191Y015961D03*
X030758Y015961D03*
X031325Y015961D03*
X031892Y015961D03*
X035374Y015961D03*
X035941Y015961D03*
X036508Y015961D03*
X037075Y015961D03*
X037642Y015961D03*
X038124Y015961D03*
X038691Y015961D03*
X039258Y015961D03*
X039825Y015961D03*
X040392Y015961D03*
X040392Y019899D03*
X039825Y019899D03*
X039258Y019899D03*
X038691Y019899D03*
X038124Y019899D03*
X037642Y019899D03*
X037075Y019899D03*
X036508Y019899D03*
X035941Y019899D03*
X035374Y019899D03*
X031892Y019899D03*
X031325Y019899D03*
X030758Y019899D03*
X030191Y019899D03*
X029624Y019899D03*
X029142Y019899D03*
X028575Y019899D03*
X028008Y019899D03*
X027441Y019899D03*
X026874Y019899D03*
D19*
X035947Y013054D03*
X035947Y012306D03*
X036813Y012680D03*
D20*
X033318Y016805D03*
X033318Y017555D03*
X033318Y018305D03*
X033318Y019055D03*
X032492Y019055D03*
X032492Y018305D03*
X032492Y017555D03*
X032492Y016805D03*
X024818Y016805D03*
X024818Y017555D03*
X024818Y018305D03*
X024818Y019055D03*
X023992Y019055D03*
X023992Y018305D03*
X023992Y017555D03*
X023992Y016805D03*
X016318Y016805D03*
X016318Y017555D03*
X016318Y018305D03*
X016318Y019055D03*
X015492Y019055D03*
X015492Y018305D03*
X015492Y017555D03*
X015492Y016805D03*
X040992Y016805D03*
X040992Y017555D03*
X040992Y018305D03*
X040992Y019055D03*
X041818Y019055D03*
X041818Y018305D03*
X041818Y017555D03*
X041818Y016805D03*
D21*
X003260Y005660D02*
X003260Y047070D01*
X047092Y047070D01*
X047092Y005660D01*
X003260Y005660D01*
X003260Y005747D02*
X047092Y005747D01*
X047092Y005906D02*
X003260Y005906D01*
X003260Y006064D02*
X047092Y006064D01*
X047092Y006223D02*
X003260Y006223D01*
X003260Y006381D02*
X047092Y006381D01*
X047092Y006540D02*
X003260Y006540D01*
X003260Y006698D02*
X012749Y006698D01*
X012746Y006704D02*
X012769Y006663D01*
X012803Y006629D01*
X012844Y006606D01*
X012890Y006594D01*
X013112Y006594D01*
X013112Y006952D01*
X013148Y006952D01*
X013148Y006594D01*
X013370Y006594D01*
X013416Y006606D01*
X013457Y006629D01*
X013491Y006663D01*
X013514Y006704D01*
X013527Y006750D01*
X013527Y006952D01*
X013148Y006952D01*
X013148Y006989D01*
X013527Y006989D01*
X013527Y007191D01*
X013514Y007237D01*
X013491Y007278D01*
X013457Y007311D01*
X013429Y007327D01*
X013487Y007385D01*
X013487Y007894D01*
X013405Y007976D01*
X013320Y007976D01*
X013320Y010083D01*
X013510Y010273D01*
X013510Y010587D01*
X013387Y010710D01*
X016539Y010710D01*
X016750Y010499D01*
X016750Y010273D01*
X016973Y010050D01*
X017287Y010050D01*
X017510Y010273D01*
X017510Y010587D01*
X017287Y010810D01*
X017061Y010810D01*
X016911Y010960D01*
X021414Y010960D01*
X021664Y010710D01*
X021781Y010593D01*
X021775Y010587D01*
X021775Y010273D01*
X021998Y010050D01*
X022312Y010050D01*
X022535Y010273D01*
X022535Y010587D01*
X022312Y010810D01*
X022186Y010810D01*
X021975Y011021D01*
X021786Y011210D01*
X026039Y011210D01*
X026750Y010499D01*
X026750Y010273D01*
X026973Y010050D01*
X027287Y010050D01*
X027510Y010273D01*
X027510Y010587D01*
X027287Y010810D01*
X027061Y010810D01*
X026411Y011460D01*
X030789Y011460D01*
X031775Y010474D01*
X031775Y010273D01*
X031998Y010050D01*
X032312Y010050D01*
X032535Y010273D01*
X032535Y010587D01*
X032312Y010810D01*
X032061Y010810D01*
X030971Y011900D01*
X006721Y011900D01*
X005826Y012795D01*
X034148Y012795D01*
X034148Y012760D01*
X034228Y012680D01*
X034148Y012600D01*
X034148Y012091D01*
X034230Y012009D01*
X034780Y012009D01*
X034862Y012091D01*
X034862Y012433D01*
X035292Y012864D01*
X035531Y012864D01*
X035531Y012799D01*
X035613Y012717D01*
X036281Y012717D01*
X036363Y012799D01*
X036363Y013309D01*
X036281Y013391D01*
X035613Y013391D01*
X035531Y013309D01*
X035531Y013244D01*
X035135Y013244D01*
X034862Y012971D01*
X034862Y013269D01*
X034780Y013351D01*
X034230Y013351D01*
X034148Y013269D01*
X034148Y013235D01*
X005761Y013235D01*
X005475Y013521D01*
X005475Y022539D01*
X006621Y023685D01*
X013947Y023685D01*
X013969Y023663D01*
X014073Y023620D01*
X014187Y023620D01*
X014291Y023663D01*
X014372Y023744D01*
X014415Y023848D01*
X014415Y023962D01*
X014372Y024066D01*
X014291Y024147D01*
X014187Y024190D01*
X014073Y024190D01*
X013969Y024147D01*
X013947Y024125D01*
X006439Y024125D01*
X006310Y023996D01*
X005225Y022911D01*
X005225Y024314D01*
X005846Y024935D01*
X012004Y024935D01*
X012294Y024645D01*
X012716Y024645D01*
X012856Y024785D01*
X013190Y024451D01*
X013301Y024340D01*
X016584Y024340D01*
X017604Y025360D01*
X021484Y029240D01*
X021617Y029240D01*
X021669Y029188D01*
X021705Y029173D01*
X019576Y027045D01*
X019465Y026934D01*
X019465Y022389D01*
X019220Y022634D01*
X019220Y023467D01*
X019272Y023519D01*
X019315Y023623D01*
X019315Y023737D01*
X019272Y023841D01*
X019191Y023922D01*
X019087Y023965D01*
X018973Y023965D01*
X018869Y023922D01*
X018788Y023841D01*
X018745Y023737D01*
X018745Y023623D01*
X018788Y023519D01*
X018840Y023467D01*
X018840Y022476D01*
X019571Y021745D01*
X010676Y021745D01*
X010565Y021634D01*
X010565Y021634D01*
X010251Y021320D01*
X010251Y020590D01*
X010206Y020590D01*
X010157Y020541D01*
X010109Y020590D01*
X009639Y020590D01*
X009557Y020508D01*
X009557Y019289D01*
X009639Y019207D01*
X009684Y019207D01*
X009684Y018982D01*
X010065Y018601D01*
X010176Y018490D01*
X014737Y018490D01*
X014713Y018466D01*
X014670Y018362D01*
X014670Y018248D01*
X014713Y018144D01*
X014794Y018063D01*
X014898Y018020D01*
X015012Y018020D01*
X015115Y018063D01*
X015115Y018011D01*
X015196Y017930D01*
X015115Y017849D01*
X015115Y017797D01*
X015012Y017840D01*
X014898Y017840D01*
X014794Y017797D01*
X014713Y017716D01*
X014670Y017612D01*
X014670Y017498D01*
X014713Y017394D01*
X014737Y017370D01*
X013051Y017370D01*
X012940Y017259D01*
X012926Y017245D01*
X010176Y017245D01*
X010065Y017134D01*
X010065Y017134D01*
X009684Y016753D01*
X009684Y016653D01*
X009639Y016653D01*
X009557Y016571D01*
X009557Y015352D01*
X009639Y015270D01*
X010109Y015270D01*
X010157Y015319D01*
X010206Y015270D01*
X010251Y015270D01*
X010251Y014915D01*
X010565Y014601D01*
X010676Y014490D01*
X038459Y014490D01*
X038570Y014601D01*
X038881Y014912D01*
X038881Y015270D01*
X038926Y015270D01*
X038974Y015319D01*
X039023Y015270D01*
X039443Y015270D01*
X039400Y015167D01*
X039400Y015054D01*
X039444Y014949D01*
X039524Y014869D01*
X039629Y014825D01*
X039742Y014825D01*
X039847Y014869D01*
X039927Y014949D01*
X039970Y015054D01*
X039970Y015127D01*
X040015Y015171D01*
X040015Y015270D01*
X040060Y015270D01*
X040108Y015319D01*
X040156Y015270D01*
X040627Y015270D01*
X040709Y015352D01*
X040709Y016429D01*
X041286Y016429D01*
X041368Y016511D01*
X041368Y017099D01*
X041287Y017180D01*
X041368Y017261D01*
X041368Y017849D01*
X041287Y017930D01*
X041368Y018011D01*
X041368Y018599D01*
X041287Y018680D01*
X041368Y018761D01*
X041368Y019349D01*
X041286Y019431D01*
X040709Y019431D01*
X040709Y020508D01*
X040627Y020590D01*
X040156Y020590D01*
X040108Y020541D01*
X040060Y020590D01*
X040015Y020590D01*
X040015Y020689D01*
X039915Y020789D01*
X039915Y020862D01*
X039872Y020966D01*
X039791Y021047D01*
X039687Y021090D01*
X039573Y021090D01*
X039469Y021047D01*
X039388Y020966D01*
X039345Y020862D01*
X039345Y020748D01*
X039355Y020723D01*
X038634Y021445D01*
X036445Y023634D01*
X036445Y024032D01*
X036473Y024020D01*
X036587Y024020D01*
X036691Y024063D01*
X036772Y024144D01*
X036815Y024248D01*
X036815Y024362D01*
X036772Y024466D01*
X036695Y024543D01*
X036695Y025186D01*
X036902Y025186D01*
X036984Y025268D01*
X036984Y025974D01*
X036902Y026056D01*
X035458Y026056D01*
X035454Y026060D01*
X035413Y026084D01*
X035367Y026096D01*
X035255Y026096D01*
X035143Y026096D01*
X035097Y026084D01*
X035056Y026060D01*
X035052Y026056D01*
X033858Y026056D01*
X033776Y025974D01*
X033776Y025295D01*
X033765Y025284D01*
X033765Y025043D01*
X033713Y024991D01*
X033670Y024887D01*
X033670Y024773D01*
X033713Y024669D01*
X033777Y024605D01*
X033763Y024591D01*
X033720Y024487D01*
X033720Y024373D01*
X033763Y024269D01*
X033844Y024188D01*
X033864Y024180D01*
X033844Y024172D01*
X033763Y024091D01*
X033720Y023987D01*
X033720Y023873D01*
X033763Y023769D01*
X033844Y023688D01*
X033864Y023680D01*
X033844Y023672D01*
X033763Y023591D01*
X033720Y023487D01*
X033720Y023373D01*
X033763Y023269D01*
X033844Y023188D01*
X033864Y023180D01*
X033844Y023172D01*
X033763Y023091D01*
X033720Y022987D01*
X033720Y022873D01*
X033763Y022769D01*
X033844Y022688D01*
X033864Y022680D01*
X033844Y022672D01*
X033763Y022591D01*
X033720Y022487D01*
X033720Y022373D01*
X033763Y022269D01*
X033844Y022188D01*
X033864Y022180D01*
X033844Y022172D01*
X033763Y022091D01*
X033720Y021987D01*
X033720Y021873D01*
X033736Y021835D01*
X033644Y021797D01*
X033563Y021716D01*
X033520Y021612D01*
X033520Y021498D01*
X033563Y021394D01*
X033614Y021342D01*
X033563Y021291D01*
X033520Y021187D01*
X033520Y021073D01*
X033563Y020969D01*
X033615Y020917D01*
X033615Y019429D01*
X033613Y019431D01*
X033508Y019431D01*
X033508Y023970D01*
X033120Y024359D01*
X031670Y025809D01*
X031220Y026259D01*
X031220Y031809D01*
X030370Y032659D01*
X030270Y032759D01*
X030239Y032790D01*
X034251Y032790D01*
X036315Y030726D01*
X036315Y028174D01*
X034909Y028174D01*
X034940Y028248D01*
X034940Y028362D01*
X034897Y028466D01*
X034816Y028547D01*
X034712Y028590D01*
X034598Y028590D01*
X034494Y028547D01*
X034413Y028466D01*
X034370Y028362D01*
X034370Y028289D01*
X034315Y028234D01*
X034315Y028174D01*
X033858Y028174D01*
X033776Y028092D01*
X033776Y027386D01*
X033858Y027304D01*
X033885Y027304D01*
X033746Y027165D01*
X033673Y027165D01*
X033605Y027137D01*
X033605Y027334D01*
X033593Y027379D01*
X033569Y027420D01*
X033536Y027454D01*
X033495Y027478D01*
X033449Y027490D01*
X033178Y027490D01*
X033178Y027102D01*
X033082Y027102D01*
X033082Y027006D01*
X032655Y027006D01*
X032655Y026774D01*
X032667Y026729D01*
X032691Y026688D01*
X032724Y026654D01*
X032727Y026652D01*
X032695Y026620D01*
X032695Y026526D01*
X032592Y026526D01*
X032592Y026620D01*
X032559Y026652D01*
X032562Y026654D01*
X032596Y026688D01*
X032620Y026729D01*
X032632Y026774D01*
X032632Y026996D01*
X032273Y026996D01*
X032273Y027033D01*
X032237Y027033D01*
X032237Y027411D01*
X032034Y027411D01*
X031989Y027399D01*
X031948Y027375D01*
X031914Y027342D01*
X031890Y027301D01*
X031878Y027255D01*
X031878Y027033D01*
X032237Y027033D01*
X032237Y026996D01*
X031878Y026996D01*
X031878Y026774D01*
X031890Y026729D01*
X031914Y026688D01*
X031948Y026654D01*
X031951Y026652D01*
X031918Y026620D01*
X031918Y026525D01*
X031813Y026525D01*
X031791Y026547D01*
X031687Y026590D01*
X031573Y026590D01*
X031469Y026547D01*
X031388Y026466D01*
X031345Y026362D01*
X031345Y026248D01*
X031388Y026144D01*
X031469Y026063D01*
X031573Y026020D01*
X031687Y026020D01*
X031791Y026063D01*
X031813Y026085D01*
X031918Y026085D01*
X031918Y026071D01*
X032000Y025989D01*
X032510Y025989D01*
X032592Y026071D01*
X032592Y026086D01*
X032695Y026086D01*
X032695Y025992D01*
X032777Y025910D01*
X033483Y025910D01*
X033565Y025992D01*
X033565Y026086D01*
X034972Y026086D01*
X035255Y026369D01*
X035499Y026125D01*
X037273Y026125D01*
X037273Y026091D01*
X037355Y026009D01*
X037905Y026009D01*
X037987Y026091D01*
X037987Y026125D01*
X044624Y026125D01*
X044785Y025964D01*
X044785Y010146D01*
X044539Y009900D01*
X037596Y009900D01*
X037367Y010129D01*
X037510Y010273D01*
X037510Y010587D01*
X037287Y010810D01*
X036973Y010810D01*
X036750Y010587D01*
X036750Y010273D01*
X036910Y010113D01*
X036910Y009964D01*
X037039Y009835D01*
X037414Y009460D01*
X044721Y009460D01*
X044850Y009589D01*
X045225Y009964D01*
X045225Y026146D01*
X045096Y026275D01*
X044806Y026565D01*
X037987Y026565D01*
X037987Y026600D01*
X037907Y026680D01*
X037987Y026760D01*
X037987Y027269D01*
X037905Y027351D01*
X037562Y027351D01*
X036984Y027929D01*
X036984Y027929D01*
X036984Y028092D01*
X036902Y028174D01*
X036695Y028174D01*
X036695Y030884D01*
X036584Y030995D01*
X034409Y033170D01*
X026734Y033170D01*
X026734Y033407D01*
X027023Y033696D01*
X027023Y033466D01*
X027105Y033384D01*
X027655Y033384D01*
X027737Y033466D01*
X027737Y033500D01*
X027993Y033500D01*
X027993Y033446D01*
X028075Y033364D01*
X028585Y033364D01*
X028667Y033446D01*
X028667Y033500D01*
X028807Y033500D01*
X028844Y033463D01*
X028948Y033420D01*
X029062Y033420D01*
X029166Y033463D01*
X029188Y033485D01*
X029295Y033485D01*
X029295Y033367D01*
X029377Y033285D01*
X030083Y033285D01*
X030165Y033367D01*
X030165Y033995D01*
X030133Y034027D01*
X030136Y034029D01*
X030169Y034063D01*
X030193Y034104D01*
X030205Y034149D01*
X030205Y034381D01*
X029778Y034381D01*
X029778Y034477D01*
X030205Y034477D01*
X030205Y034709D01*
X030193Y034754D01*
X030169Y034795D01*
X030136Y034829D01*
X030095Y034853D01*
X030049Y034865D01*
X029778Y034865D01*
X029778Y034477D01*
X029682Y034477D01*
X029682Y034381D01*
X029255Y034381D01*
X029255Y034149D01*
X029267Y034104D01*
X029291Y034063D01*
X029324Y034029D01*
X029327Y034027D01*
X029295Y033995D01*
X029295Y033925D01*
X029188Y033925D01*
X029166Y033947D01*
X029062Y033990D01*
X028948Y033990D01*
X028844Y033947D01*
X028837Y033940D01*
X028667Y033940D01*
X028667Y033995D01*
X028634Y034027D01*
X028637Y034029D01*
X028671Y034063D01*
X028695Y034104D01*
X028707Y034149D01*
X028707Y034371D01*
X028348Y034371D01*
X028348Y034408D01*
X028707Y034408D01*
X028707Y034560D01*
X029255Y034560D01*
X029255Y034477D01*
X029682Y034477D01*
X029682Y034865D01*
X029676Y034865D01*
X030225Y035414D01*
X030225Y036464D01*
X036721Y042960D01*
X039491Y042960D01*
X040697Y044166D01*
X040715Y044148D01*
X040854Y044090D01*
X041006Y044090D01*
X041145Y044148D01*
X041252Y044255D01*
X041310Y044394D01*
X041310Y045026D01*
X041252Y045165D01*
X041157Y045260D01*
X041703Y045260D01*
X041608Y045165D01*
X041550Y045026D01*
X041550Y044394D01*
X041608Y044255D01*
X041715Y044148D01*
X041854Y044090D01*
X042006Y044090D01*
X042145Y044148D01*
X042252Y044255D01*
X042310Y044394D01*
X042310Y045019D01*
X042550Y044779D01*
X042550Y044394D01*
X042608Y044255D01*
X042715Y044148D01*
X042854Y044090D01*
X043006Y044090D01*
X043145Y044148D01*
X043252Y044255D01*
X043310Y044394D01*
X043310Y045026D01*
X043252Y045165D01*
X043145Y045272D01*
X043006Y045330D01*
X042854Y045330D01*
X042715Y045272D01*
X042697Y045254D01*
X042251Y045700D01*
X038589Y045700D01*
X038460Y045571D01*
X038153Y045264D01*
X038145Y045272D01*
X038006Y045330D01*
X037854Y045330D01*
X037715Y045272D01*
X037682Y045239D01*
X037350Y045571D01*
X037221Y045700D01*
X028809Y045700D01*
X028363Y045254D01*
X028345Y045272D01*
X028206Y045330D01*
X028054Y045330D01*
X027915Y045272D01*
X027808Y045165D01*
X027750Y045026D01*
X027750Y044401D01*
X027515Y044636D01*
X027510Y044641D01*
X027510Y045026D01*
X027452Y045165D01*
X027345Y045272D01*
X027206Y045330D01*
X027054Y045330D01*
X026915Y045272D01*
X026897Y045254D01*
X026451Y045700D01*
X021839Y045700D01*
X021710Y045571D01*
X021378Y045239D01*
X021345Y045272D01*
X021206Y045330D01*
X021054Y045330D01*
X020915Y045272D01*
X020808Y045165D01*
X020750Y045026D01*
X020750Y044611D01*
X019880Y043741D01*
X019721Y043900D01*
X013451Y043900D01*
X013261Y044090D01*
X013406Y044090D01*
X013545Y044148D01*
X013652Y044255D01*
X013710Y044394D01*
X013710Y045026D01*
X013701Y045048D01*
X013950Y044799D01*
X013950Y044394D01*
X014008Y044255D01*
X014115Y044148D01*
X014254Y044090D01*
X014406Y044090D01*
X014545Y044148D01*
X014652Y044255D01*
X014710Y044394D01*
X014710Y045026D01*
X014652Y045165D01*
X014545Y045272D01*
X014406Y045330D01*
X014254Y045330D01*
X014115Y045272D01*
X014107Y045264D01*
X013800Y045571D01*
X013671Y045700D01*
X010009Y045700D01*
X009563Y045254D01*
X009545Y045272D01*
X009406Y045330D01*
X009254Y045330D01*
X009115Y045272D01*
X009008Y045165D01*
X008950Y045026D01*
X008950Y044394D01*
X009008Y044255D01*
X009115Y044148D01*
X009254Y044090D01*
X009406Y044090D01*
X009545Y044148D01*
X009652Y044255D01*
X009710Y044394D01*
X009710Y044779D01*
X009950Y045019D01*
X009950Y044394D01*
X010008Y044255D01*
X010115Y044148D01*
X010254Y044090D01*
X010406Y044090D01*
X010545Y044148D01*
X010563Y044166D01*
X012394Y042335D01*
X014539Y042335D01*
X014720Y042154D01*
X014720Y042123D01*
X014761Y042025D01*
X010326Y042025D01*
X008261Y044090D01*
X008406Y044090D01*
X008545Y044148D01*
X008652Y044255D01*
X008710Y044394D01*
X008710Y045026D01*
X008652Y045165D01*
X008545Y045272D01*
X008406Y045330D01*
X008254Y045330D01*
X008115Y045272D01*
X008008Y045165D01*
X007950Y045026D01*
X007950Y044401D01*
X007710Y044641D01*
X007710Y045026D01*
X007652Y045165D01*
X007545Y045272D01*
X007406Y045330D01*
X007254Y045330D01*
X007115Y045272D01*
X007008Y045165D01*
X006950Y045026D01*
X006950Y044394D01*
X007008Y044255D01*
X007115Y044148D01*
X007254Y044090D01*
X007406Y044090D01*
X007545Y044148D01*
X007563Y044166D01*
X010144Y041585D01*
X016289Y041585D01*
X016410Y041464D01*
X016410Y040421D01*
X012573Y036584D01*
X012545Y036612D01*
X012406Y036670D01*
X012254Y036670D01*
X012115Y036612D01*
X012050Y036547D01*
X012050Y036571D01*
X011700Y036921D01*
X011571Y037050D01*
X009019Y037050D01*
X008563Y036594D01*
X008545Y036612D01*
X008406Y036670D01*
X008254Y036670D01*
X008115Y036612D01*
X008008Y036505D01*
X007950Y036366D01*
X007950Y035734D01*
X007959Y035712D01*
X007710Y035961D01*
X007710Y036366D01*
X007652Y036505D01*
X007545Y036612D01*
X007406Y036670D01*
X007254Y036670D01*
X007115Y036612D01*
X007008Y036505D01*
X006950Y036366D01*
X006950Y035734D01*
X007008Y035595D01*
X007115Y035488D01*
X007254Y035430D01*
X007406Y035430D01*
X007545Y035488D01*
X007553Y035496D01*
X007760Y035289D01*
X007889Y035160D01*
X010055Y035160D01*
X010045Y035137D01*
X010045Y035023D01*
X010088Y034919D01*
X010169Y034838D01*
X010273Y034795D01*
X010304Y034795D01*
X011739Y033360D01*
X020847Y033360D01*
X020869Y033338D01*
X020973Y033295D01*
X021087Y033295D01*
X021191Y033338D01*
X021272Y033419D01*
X021303Y033495D01*
X021463Y033336D01*
X021369Y033297D01*
X021288Y033216D01*
X021245Y033112D01*
X021245Y033039D01*
X020796Y032590D01*
X020723Y032590D01*
X020619Y032547D01*
X020538Y032466D01*
X020495Y032362D01*
X020495Y032248D01*
X020538Y032144D01*
X020619Y032063D01*
X020723Y032020D01*
X020837Y032020D01*
X020941Y032063D01*
X021022Y032144D01*
X021065Y032248D01*
X021065Y032321D01*
X021514Y032770D01*
X021587Y032770D01*
X021613Y032781D01*
X021595Y032737D01*
X021595Y032623D01*
X021638Y032519D01*
X021690Y032467D01*
X021690Y030259D01*
X017801Y026370D01*
X016776Y025345D01*
X014015Y025345D01*
X014015Y025366D01*
X013726Y025655D01*
X014015Y025944D01*
X014015Y026366D01*
X013726Y026655D01*
X014015Y026944D01*
X014015Y027366D01*
X013726Y027655D01*
X014015Y027944D01*
X014015Y028366D01*
X013755Y028627D01*
X014055Y028927D01*
X014055Y029135D01*
X013525Y029135D01*
X013525Y029175D01*
X013485Y029175D01*
X013485Y029705D01*
X013277Y029705D01*
X012977Y029405D01*
X012716Y029665D01*
X012294Y029665D01*
X012004Y029375D01*
X005664Y029375D01*
X005535Y029246D01*
X003785Y027496D01*
X003785Y012714D01*
X003914Y012585D01*
X006289Y010210D01*
X011813Y010210D01*
X011973Y010050D01*
X012287Y010050D01*
X012510Y010273D01*
X012510Y010587D01*
X012387Y010710D01*
X012873Y010710D01*
X012750Y010587D01*
X012750Y010273D01*
X012940Y010083D01*
X012940Y007976D01*
X012855Y007976D01*
X012773Y007894D01*
X012773Y007385D01*
X012831Y007327D01*
X012803Y007311D01*
X012769Y007278D01*
X012746Y007237D01*
X012733Y007191D01*
X012733Y006989D01*
X013112Y006989D01*
X013112Y006952D01*
X012733Y006952D01*
X012733Y006750D01*
X012746Y006704D01*
X012733Y006857D02*
X003260Y006857D01*
X003260Y007015D02*
X012733Y007015D01*
X012733Y007174D02*
X003260Y007174D01*
X003260Y007332D02*
X012826Y007332D01*
X012773Y007491D02*
X003260Y007491D01*
X003260Y007649D02*
X012773Y007649D01*
X012773Y007808D02*
X003260Y007808D01*
X003260Y007966D02*
X012845Y007966D01*
X012940Y008125D02*
X003260Y008125D01*
X003260Y008283D02*
X012940Y008283D01*
X012940Y008442D02*
X003260Y008442D01*
X003260Y008600D02*
X012940Y008600D01*
X012940Y008759D02*
X003260Y008759D01*
X003260Y008917D02*
X012940Y008917D01*
X012940Y009076D02*
X003260Y009076D01*
X003260Y009234D02*
X012940Y009234D01*
X012940Y009393D02*
X003260Y009393D01*
X003260Y009551D02*
X012940Y009551D01*
X012940Y009710D02*
X003260Y009710D01*
X003260Y009868D02*
X012940Y009868D01*
X012940Y010027D02*
X003260Y010027D01*
X003260Y010185D02*
X011838Y010185D01*
X012130Y010430D02*
X006380Y010430D01*
X004005Y012805D01*
X004005Y026405D01*
X004005Y027405D01*
X005755Y029155D01*
X012505Y029155D01*
X012151Y029522D02*
X003260Y029522D01*
X003260Y029364D02*
X005652Y029364D01*
X005494Y029205D02*
X003260Y029205D01*
X003260Y029047D02*
X005335Y029047D01*
X005177Y028888D02*
X003260Y028888D01*
X003260Y028730D02*
X005018Y028730D01*
X004860Y028571D02*
X003260Y028571D01*
X003260Y028413D02*
X004701Y028413D01*
X004543Y028254D02*
X003260Y028254D01*
X003260Y028096D02*
X004384Y028096D01*
X004226Y027937D02*
X003260Y027937D01*
X003260Y027779D02*
X004067Y027779D01*
X003909Y027620D02*
X003260Y027620D01*
X003260Y027462D02*
X003785Y027462D01*
X003785Y027303D02*
X003260Y027303D01*
X003260Y027145D02*
X003785Y027145D01*
X003785Y026986D02*
X003260Y026986D01*
X003260Y026828D02*
X003785Y026828D01*
X003785Y026669D02*
X003260Y026669D01*
X003260Y026511D02*
X003785Y026511D01*
X003785Y026352D02*
X003260Y026352D01*
X003260Y026194D02*
X003785Y026194D01*
X003785Y026035D02*
X003260Y026035D01*
X003260Y025877D02*
X003785Y025877D01*
X003785Y025718D02*
X003260Y025718D01*
X003260Y025560D02*
X003785Y025560D01*
X003785Y025401D02*
X003260Y025401D01*
X003260Y025243D02*
X003785Y025243D01*
X003785Y025084D02*
X003260Y025084D01*
X003260Y024926D02*
X003785Y024926D01*
X003785Y024767D02*
X003260Y024767D01*
X003260Y024609D02*
X003785Y024609D01*
X003785Y024450D02*
X003260Y024450D01*
X003260Y024292D02*
X003785Y024292D01*
X003785Y024133D02*
X003260Y024133D01*
X003260Y023975D02*
X003785Y023975D01*
X003785Y023816D02*
X003260Y023816D01*
X003260Y023658D02*
X003785Y023658D01*
X003785Y023499D02*
X003260Y023499D01*
X003260Y023341D02*
X003785Y023341D01*
X003785Y023182D02*
X003260Y023182D01*
X003260Y023024D02*
X003785Y023024D01*
X003785Y022865D02*
X003260Y022865D01*
X003260Y022707D02*
X003785Y022707D01*
X003785Y022548D02*
X003260Y022548D01*
X003260Y022390D02*
X003785Y022390D01*
X003785Y022231D02*
X003260Y022231D01*
X003260Y022073D02*
X003785Y022073D01*
X003785Y021914D02*
X003260Y021914D01*
X003260Y021756D02*
X003785Y021756D01*
X003785Y021597D02*
X003260Y021597D01*
X003260Y021439D02*
X003785Y021439D01*
X003785Y021280D02*
X003260Y021280D01*
X003260Y021122D02*
X003785Y021122D01*
X003785Y020963D02*
X003260Y020963D01*
X003260Y020805D02*
X003785Y020805D01*
X003785Y020646D02*
X003260Y020646D01*
X003260Y020488D02*
X003785Y020488D01*
X003785Y020329D02*
X003260Y020329D01*
X003260Y020171D02*
X003785Y020171D01*
X003785Y020012D02*
X003260Y020012D01*
X003260Y019854D02*
X003785Y019854D01*
X003785Y019695D02*
X003260Y019695D01*
X003260Y019537D02*
X003785Y019537D01*
X003785Y019378D02*
X003260Y019378D01*
X003260Y019220D02*
X003785Y019220D01*
X003785Y019061D02*
X003260Y019061D01*
X003260Y018903D02*
X003785Y018903D01*
X003785Y018744D02*
X003260Y018744D01*
X003260Y018586D02*
X003785Y018586D01*
X003785Y018427D02*
X003260Y018427D01*
X003260Y018269D02*
X003785Y018269D01*
X003785Y018110D02*
X003260Y018110D01*
X003260Y017952D02*
X003785Y017952D01*
X003785Y017793D02*
X003260Y017793D01*
X003260Y017635D02*
X003785Y017635D01*
X003785Y017476D02*
X003260Y017476D01*
X003260Y017318D02*
X003785Y017318D01*
X003785Y017159D02*
X003260Y017159D01*
X003260Y017001D02*
X003785Y017001D01*
X003785Y016842D02*
X003260Y016842D01*
X003260Y016684D02*
X003785Y016684D01*
X003785Y016525D02*
X003260Y016525D01*
X003260Y016367D02*
X003785Y016367D01*
X003785Y016208D02*
X003260Y016208D01*
X003260Y016050D02*
X003785Y016050D01*
X003785Y015891D02*
X003260Y015891D01*
X003260Y015733D02*
X003785Y015733D01*
X003785Y015574D02*
X003260Y015574D01*
X003260Y015416D02*
X003785Y015416D01*
X003785Y015257D02*
X003260Y015257D01*
X003260Y015099D02*
X003785Y015099D01*
X003785Y014940D02*
X003260Y014940D01*
X003260Y014782D02*
X003785Y014782D01*
X003785Y014623D02*
X003260Y014623D01*
X003260Y014465D02*
X003785Y014465D01*
X003785Y014306D02*
X003260Y014306D01*
X003260Y014148D02*
X003785Y014148D01*
X003785Y013989D02*
X003260Y013989D01*
X003260Y013831D02*
X003785Y013831D01*
X003785Y013672D02*
X003260Y013672D01*
X003260Y013514D02*
X003785Y013514D01*
X003785Y013355D02*
X003260Y013355D01*
X003260Y013197D02*
X003785Y013197D01*
X003785Y013038D02*
X003260Y013038D01*
X003260Y012880D02*
X003785Y012880D01*
X003785Y012721D02*
X003260Y012721D01*
X003260Y012563D02*
X003936Y012563D01*
X004095Y012404D02*
X003260Y012404D01*
X003260Y012246D02*
X004253Y012246D01*
X004412Y012087D02*
X003260Y012087D01*
X003260Y011929D02*
X004570Y011929D01*
X004729Y011770D02*
X003260Y011770D01*
X003260Y011612D02*
X004887Y011612D01*
X005046Y011453D02*
X003260Y011453D01*
X003260Y011295D02*
X005204Y011295D01*
X005363Y011136D02*
X003260Y011136D01*
X003260Y010978D02*
X005521Y010978D01*
X005680Y010819D02*
X003260Y010819D01*
X003260Y010661D02*
X005838Y010661D01*
X005997Y010502D02*
X003260Y010502D01*
X003260Y010344D02*
X006155Y010344D01*
X006255Y010930D02*
X004255Y012930D01*
X004255Y026655D01*
X005755Y028155D01*
X012505Y028155D01*
X012160Y027779D02*
X005690Y027779D01*
X005846Y027935D02*
X012004Y027935D01*
X012284Y027655D01*
X012004Y027375D01*
X005664Y027375D01*
X005535Y027246D01*
X004475Y026186D01*
X004475Y026564D01*
X005846Y027935D01*
X005535Y028246D02*
X004225Y026936D01*
X004225Y027314D01*
X005846Y028935D01*
X012004Y028935D01*
X012284Y028655D01*
X012004Y028375D01*
X005664Y028375D01*
X005535Y028246D01*
X005543Y028254D02*
X005165Y028254D01*
X005007Y028096D02*
X005384Y028096D01*
X005226Y027937D02*
X004848Y027937D01*
X004690Y027779D02*
X005067Y027779D01*
X004909Y027620D02*
X004531Y027620D01*
X004373Y027462D02*
X004750Y027462D01*
X004592Y027303D02*
X004225Y027303D01*
X004225Y027145D02*
X004433Y027145D01*
X004275Y026986D02*
X004225Y026986D01*
X004580Y026669D02*
X004958Y026669D01*
X005116Y026828D02*
X004739Y026828D01*
X004897Y026986D02*
X005275Y026986D01*
X005433Y027145D02*
X005056Y027145D01*
X005214Y027303D02*
X005592Y027303D01*
X005755Y027155D02*
X012505Y027155D01*
X012111Y026828D02*
X005739Y026828D01*
X005846Y026935D02*
X012004Y026935D01*
X012284Y026655D01*
X012004Y026375D01*
X005664Y026375D01*
X005535Y026246D01*
X004725Y025436D01*
X004725Y025814D01*
X005846Y026935D01*
X005755Y027155D02*
X004505Y025905D01*
X004505Y013055D01*
X006380Y011180D01*
X021505Y011180D01*
X021755Y010930D01*
X022155Y010530D01*
X022155Y010430D01*
X022447Y010185D02*
X022863Y010185D01*
X022775Y010273D02*
X022965Y010083D01*
X022965Y007976D01*
X022855Y007976D01*
X022773Y007894D01*
X022773Y007385D01*
X022831Y007327D01*
X022803Y007311D01*
X022769Y007278D01*
X022746Y007237D01*
X022733Y007191D01*
X022733Y006989D01*
X023112Y006989D01*
X023112Y006952D01*
X023148Y006952D01*
X023148Y006594D01*
X023370Y006594D01*
X023416Y006606D01*
X023457Y006629D01*
X023491Y006663D01*
X023514Y006704D01*
X023527Y006750D01*
X023527Y006952D01*
X023148Y006952D01*
X023148Y006989D01*
X023527Y006989D01*
X023527Y007191D01*
X023514Y007237D01*
X023491Y007278D01*
X023457Y007311D01*
X023429Y007327D01*
X023487Y007385D01*
X023487Y007894D01*
X023405Y007976D01*
X023345Y007976D01*
X023345Y010083D01*
X023535Y010273D01*
X023535Y010587D01*
X023312Y010810D01*
X022998Y010810D01*
X022775Y010587D01*
X022775Y010273D01*
X022775Y010344D02*
X022535Y010344D01*
X022535Y010502D02*
X022775Y010502D01*
X022848Y010661D02*
X022462Y010661D01*
X022177Y010819D02*
X026430Y010819D01*
X026588Y010661D02*
X023462Y010661D01*
X023535Y010502D02*
X026747Y010502D01*
X026750Y010344D02*
X023535Y010344D01*
X023447Y010185D02*
X026838Y010185D01*
X027130Y010430D02*
X026130Y011430D01*
X006505Y011430D01*
X004755Y013180D01*
X004755Y025155D01*
X005755Y026155D01*
X012505Y026155D01*
X012139Y026511D02*
X005422Y026511D01*
X005580Y026669D02*
X012270Y026669D01*
X012004Y025935D02*
X012284Y025655D01*
X012004Y025375D01*
X005664Y025375D01*
X005535Y025246D01*
X004975Y024686D01*
X004975Y025064D01*
X005846Y025935D01*
X012004Y025935D01*
X012062Y025877D02*
X005788Y025877D01*
X005629Y025718D02*
X012221Y025718D01*
X012188Y025560D02*
X005471Y025560D01*
X005312Y025401D02*
X012030Y025401D01*
X012013Y024926D02*
X005837Y024926D01*
X005678Y024767D02*
X012172Y024767D01*
X012505Y025155D02*
X005755Y025155D01*
X005005Y024405D01*
X005005Y013305D01*
X006630Y011680D01*
X030880Y011680D01*
X032130Y010430D01*
X032155Y010430D01*
X032447Y010185D02*
X032863Y010185D01*
X032940Y010108D02*
X032940Y007976D01*
X032855Y007976D01*
X032773Y007894D01*
X032773Y007385D01*
X032831Y007327D01*
X032803Y007311D01*
X032769Y007278D01*
X032746Y007237D01*
X032733Y007191D01*
X032733Y006989D01*
X033112Y006989D01*
X033112Y006952D01*
X033148Y006952D01*
X033148Y006594D01*
X033370Y006594D01*
X033416Y006606D01*
X033457Y006629D01*
X033491Y006663D01*
X033514Y006704D01*
X033527Y006750D01*
X033527Y006952D01*
X033148Y006952D01*
X033148Y006989D01*
X033527Y006989D01*
X033527Y007191D01*
X033514Y007237D01*
X033491Y007278D01*
X033457Y007311D01*
X033429Y007327D01*
X033487Y007385D01*
X033487Y007894D01*
X033405Y007976D01*
X033320Y007976D01*
X033320Y010058D01*
X033535Y010273D01*
X033535Y010587D01*
X033312Y010810D01*
X032998Y010810D01*
X032775Y010587D01*
X032775Y010273D01*
X032940Y010108D01*
X032940Y010027D02*
X028320Y010027D01*
X028320Y010083D02*
X028510Y010273D01*
X028510Y010587D01*
X028287Y010810D01*
X027973Y010810D01*
X027750Y010587D01*
X027750Y010273D01*
X027940Y010083D01*
X027940Y007976D01*
X027855Y007976D01*
X027773Y007894D01*
X027773Y007385D01*
X027831Y007327D01*
X027803Y007311D01*
X027769Y007278D01*
X027746Y007237D01*
X027733Y007191D01*
X027733Y006989D01*
X028112Y006989D01*
X028112Y006952D01*
X028148Y006952D01*
X028148Y006594D01*
X028370Y006594D01*
X028416Y006606D01*
X028457Y006629D01*
X028491Y006663D01*
X028514Y006704D01*
X028527Y006750D01*
X028527Y006952D01*
X028148Y006952D01*
X028148Y006989D01*
X028527Y006989D01*
X028527Y007191D01*
X028514Y007237D01*
X028491Y007278D01*
X028457Y007311D01*
X028429Y007327D01*
X028487Y007385D01*
X028487Y007894D01*
X028405Y007976D01*
X028320Y007976D01*
X028320Y010083D01*
X028422Y010185D02*
X031863Y010185D01*
X031775Y010344D02*
X028510Y010344D01*
X028510Y010502D02*
X031747Y010502D01*
X031588Y010661D02*
X028437Y010661D01*
X027823Y010661D02*
X027437Y010661D01*
X027510Y010502D02*
X027750Y010502D01*
X027750Y010344D02*
X027510Y010344D01*
X027422Y010185D02*
X027838Y010185D01*
X027940Y010027D02*
X023345Y010027D01*
X023345Y009868D02*
X027940Y009868D01*
X027940Y009710D02*
X023345Y009710D01*
X023345Y009551D02*
X027940Y009551D01*
X027940Y009393D02*
X023345Y009393D01*
X023345Y009234D02*
X027940Y009234D01*
X027940Y009076D02*
X023345Y009076D01*
X023345Y008917D02*
X027940Y008917D01*
X027940Y008759D02*
X023345Y008759D01*
X023345Y008600D02*
X027940Y008600D01*
X027940Y008442D02*
X023345Y008442D01*
X023345Y008283D02*
X027940Y008283D01*
X027940Y008125D02*
X023345Y008125D01*
X023415Y007966D02*
X027845Y007966D01*
X027773Y007808D02*
X023487Y007808D01*
X023487Y007649D02*
X027773Y007649D01*
X027773Y007491D02*
X023487Y007491D01*
X023434Y007332D02*
X027826Y007332D01*
X027733Y007174D02*
X023527Y007174D01*
X023527Y007015D02*
X027733Y007015D01*
X027733Y006952D02*
X027733Y006750D01*
X027746Y006704D01*
X027769Y006663D01*
X027803Y006629D01*
X027844Y006606D01*
X027890Y006594D01*
X028112Y006594D01*
X028112Y006952D01*
X027733Y006952D01*
X027733Y006857D02*
X023527Y006857D01*
X023511Y006698D02*
X027749Y006698D01*
X028112Y006698D02*
X028148Y006698D01*
X028148Y006857D02*
X028112Y006857D01*
X028527Y006857D02*
X032733Y006857D01*
X032733Y006952D02*
X032733Y006750D01*
X032746Y006704D01*
X032769Y006663D01*
X032803Y006629D01*
X032844Y006606D01*
X032890Y006594D01*
X033112Y006594D01*
X033112Y006952D01*
X032733Y006952D01*
X032733Y007015D02*
X028527Y007015D01*
X028527Y007174D02*
X032733Y007174D01*
X032826Y007332D02*
X028434Y007332D01*
X028487Y007491D02*
X032773Y007491D01*
X032773Y007649D02*
X028487Y007649D01*
X028487Y007808D02*
X032773Y007808D01*
X032845Y007966D02*
X028415Y007966D01*
X028320Y008125D02*
X032940Y008125D01*
X032940Y008283D02*
X028320Y008283D01*
X028320Y008442D02*
X032940Y008442D01*
X032940Y008600D02*
X028320Y008600D01*
X028320Y008759D02*
X032940Y008759D01*
X032940Y008917D02*
X028320Y008917D01*
X028320Y009076D02*
X032940Y009076D01*
X032940Y009234D02*
X028320Y009234D01*
X028320Y009393D02*
X032940Y009393D01*
X032940Y009551D02*
X028320Y009551D01*
X028320Y009710D02*
X032940Y009710D01*
X032940Y009868D02*
X028320Y009868D01*
X027052Y010819D02*
X031430Y010819D01*
X031271Y010978D02*
X026894Y010978D01*
X026735Y011136D02*
X031113Y011136D01*
X030954Y011295D02*
X026577Y011295D01*
X026418Y011453D02*
X030796Y011453D01*
X031101Y011770D02*
X037940Y011770D01*
X037940Y011612D02*
X031260Y011612D01*
X031418Y011453D02*
X037940Y011453D01*
X037940Y011295D02*
X031577Y011295D01*
X031735Y011136D02*
X037940Y011136D01*
X037940Y010978D02*
X031894Y010978D01*
X032052Y010819D02*
X037940Y010819D01*
X037940Y010777D02*
X037750Y010587D01*
X037750Y010273D01*
X037973Y010050D01*
X038287Y010050D01*
X038510Y010273D01*
X038510Y010587D01*
X038320Y010777D01*
X038320Y012009D01*
X038405Y012009D01*
X038487Y012091D01*
X038487Y012600D01*
X038407Y012680D01*
X038487Y012760D01*
X038487Y013269D01*
X038405Y013351D01*
X037855Y013351D01*
X037773Y013269D01*
X037773Y013205D01*
X037069Y013205D01*
X036881Y013017D01*
X036479Y013017D01*
X036397Y012935D01*
X036397Y012545D01*
X036390Y012572D01*
X036367Y012613D01*
X036333Y012647D01*
X036292Y012671D01*
X036246Y012683D01*
X035965Y012683D01*
X035965Y012324D01*
X035929Y012324D01*
X035928Y012324D02*
X035928Y012288D01*
X035491Y012288D01*
X035491Y012085D01*
X035504Y012040D01*
X035527Y011999D01*
X035561Y011965D01*
X035602Y011941D01*
X035648Y011929D01*
X035929Y011929D01*
X035929Y012288D01*
X035965Y012288D01*
X035965Y011929D01*
X036246Y011929D01*
X036292Y011941D01*
X036333Y011965D01*
X036367Y011999D01*
X036390Y012040D01*
X036403Y012085D01*
X036403Y012288D01*
X035965Y012288D01*
X035965Y012324D01*
X036403Y012324D01*
X036403Y012420D01*
X036479Y012343D01*
X037147Y012343D01*
X037229Y012425D01*
X037229Y012825D01*
X037773Y012825D01*
X037773Y012760D01*
X037853Y012680D01*
X037773Y012600D01*
X037773Y012091D01*
X037855Y012009D01*
X037940Y012009D01*
X037940Y010777D01*
X037823Y010661D02*
X037437Y010661D01*
X037510Y010502D02*
X037750Y010502D01*
X037750Y010344D02*
X037510Y010344D01*
X037422Y010185D02*
X037838Y010185D01*
X037470Y010027D02*
X044665Y010027D01*
X044785Y010185D02*
X038422Y010185D01*
X038510Y010344D02*
X044785Y010344D01*
X044785Y010502D02*
X038510Y010502D01*
X038437Y010661D02*
X044785Y010661D01*
X044785Y010819D02*
X038320Y010819D01*
X038320Y010978D02*
X044785Y010978D01*
X044785Y011136D02*
X038320Y011136D01*
X038320Y011295D02*
X044785Y011295D01*
X044785Y011453D02*
X038320Y011453D01*
X038320Y011612D02*
X044785Y011612D01*
X044785Y011770D02*
X038320Y011770D01*
X038320Y011929D02*
X044785Y011929D01*
X044785Y012087D02*
X038483Y012087D01*
X038487Y012246D02*
X044785Y012246D01*
X044785Y012404D02*
X038487Y012404D01*
X038487Y012563D02*
X044785Y012563D01*
X044785Y012721D02*
X038448Y012721D01*
X038487Y012880D02*
X044785Y012880D01*
X044785Y013038D02*
X038487Y013038D01*
X038487Y013197D02*
X044785Y013197D01*
X044785Y013355D02*
X036316Y013355D01*
X036363Y013197D02*
X037061Y013197D01*
X036902Y013038D02*
X036363Y013038D01*
X036363Y012880D02*
X036397Y012880D01*
X036397Y012721D02*
X036284Y012721D01*
X036393Y012563D02*
X036397Y012563D01*
X036403Y012404D02*
X036419Y012404D01*
X036403Y012246D02*
X037773Y012246D01*
X037773Y012404D02*
X037208Y012404D01*
X037229Y012563D02*
X037773Y012563D01*
X037812Y012721D02*
X037229Y012721D01*
X037777Y012087D02*
X036403Y012087D01*
X035965Y012087D02*
X035929Y012087D01*
X035929Y012246D02*
X035965Y012246D01*
X035928Y012324D02*
X035491Y012324D01*
X035491Y012527D01*
X035504Y012572D01*
X035527Y012613D01*
X035561Y012647D01*
X035602Y012671D01*
X035648Y012683D01*
X035929Y012683D01*
X035929Y012324D01*
X035929Y012404D02*
X035965Y012404D01*
X035965Y012563D02*
X035929Y012563D01*
X035610Y012721D02*
X035149Y012721D01*
X034991Y012563D02*
X035501Y012563D01*
X035491Y012404D02*
X034862Y012404D01*
X034862Y012246D02*
X035491Y012246D01*
X035491Y012087D02*
X034858Y012087D01*
X034152Y012087D02*
X006534Y012087D01*
X006376Y012246D02*
X034148Y012246D01*
X034148Y012404D02*
X006217Y012404D01*
X006059Y012563D02*
X034148Y012563D01*
X034187Y012721D02*
X005900Y012721D01*
X005670Y013015D02*
X005255Y013430D01*
X005255Y022630D01*
X006530Y023905D01*
X014130Y023905D01*
X014402Y023816D02*
X018778Y023816D01*
X018745Y023658D02*
X014277Y023658D01*
X013983Y023658D02*
X006594Y023658D01*
X006435Y023499D02*
X018808Y023499D01*
X018840Y023341D02*
X006277Y023341D01*
X006118Y023182D02*
X018840Y023182D01*
X018840Y023024D02*
X005960Y023024D01*
X005801Y022865D02*
X018840Y022865D01*
X018840Y022707D02*
X005643Y022707D01*
X005484Y022548D02*
X018840Y022548D01*
X018927Y022390D02*
X005475Y022390D01*
X005475Y022231D02*
X019085Y022231D01*
X019244Y022073D02*
X005475Y022073D01*
X005475Y021914D02*
X019402Y021914D01*
X019561Y021756D02*
X005475Y021756D01*
X005475Y021597D02*
X010528Y021597D01*
X010370Y021439D02*
X005475Y021439D01*
X005475Y021280D02*
X010251Y021280D01*
X010251Y021122D02*
X005475Y021122D01*
X005475Y020963D02*
X010251Y020963D01*
X010251Y020805D02*
X005475Y020805D01*
X005475Y020646D02*
X010251Y020646D01*
X010631Y020646D02*
X010818Y020646D01*
X010818Y020590D02*
X010818Y020842D01*
X010766Y020894D01*
X010723Y020998D01*
X010723Y021112D01*
X010766Y021216D01*
X010846Y021297D01*
X010951Y021340D01*
X011064Y021340D01*
X011169Y021297D01*
X011249Y021216D01*
X011293Y021112D01*
X011293Y020998D01*
X011249Y020894D01*
X011198Y020842D01*
X011198Y020590D01*
X011243Y020590D01*
X011291Y020541D01*
X011340Y020590D01*
X011385Y020590D01*
X011385Y020703D01*
X011470Y020789D01*
X011470Y020862D01*
X011513Y020966D01*
X011594Y021047D01*
X011698Y021090D01*
X011812Y021090D01*
X011916Y021047D01*
X011997Y020966D01*
X012040Y020862D01*
X012040Y020748D01*
X011997Y020644D01*
X011943Y020590D01*
X012377Y020590D01*
X012383Y020584D01*
X012389Y020590D01*
X012859Y020590D01*
X012907Y020541D01*
X012956Y020590D01*
X013001Y020590D01*
X013001Y021320D01*
X013046Y021365D01*
X010834Y021365D01*
X010631Y021162D01*
X010631Y020590D01*
X010676Y020590D01*
X010724Y020541D01*
X010773Y020590D01*
X010818Y020590D01*
X010818Y020805D02*
X010631Y020805D01*
X010631Y020963D02*
X010737Y020963D01*
X010727Y021122D02*
X010631Y021122D01*
X010749Y021280D02*
X010830Y021280D01*
X011186Y021280D02*
X013001Y021280D01*
X013001Y021122D02*
X011289Y021122D01*
X011278Y020963D02*
X011512Y020963D01*
X011470Y020805D02*
X011198Y020805D01*
X011198Y020646D02*
X011385Y020646D01*
X011998Y020646D02*
X013001Y020646D01*
X013001Y020805D02*
X012040Y020805D01*
X011998Y020963D02*
X013001Y020963D01*
X015089Y021365D02*
X016562Y021365D01*
X016538Y021341D01*
X016495Y021237D01*
X016495Y021123D01*
X016538Y021019D01*
X016590Y020967D01*
X016590Y019643D01*
X016538Y019591D01*
X016495Y019487D01*
X016495Y019431D01*
X016024Y019431D01*
X015942Y019349D01*
X015942Y018870D01*
X015868Y018870D01*
X015868Y019349D01*
X015823Y019394D01*
X015872Y019444D01*
X015915Y019548D01*
X015915Y019662D01*
X015872Y019766D01*
X015820Y019818D01*
X015820Y020634D01*
X015709Y020745D01*
X015089Y021365D01*
X015174Y021280D02*
X016513Y021280D01*
X016496Y021122D02*
X015332Y021122D01*
X015491Y020963D02*
X016590Y020963D01*
X016590Y020805D02*
X015649Y020805D01*
X015808Y020646D02*
X016590Y020646D01*
X016590Y020488D02*
X015820Y020488D01*
X015820Y020329D02*
X016590Y020329D01*
X016590Y020171D02*
X015820Y020171D01*
X015820Y020012D02*
X016590Y020012D01*
X016590Y019854D02*
X015820Y019854D01*
X015901Y019695D02*
X016590Y019695D01*
X016516Y019537D02*
X015910Y019537D01*
X015971Y019378D02*
X015839Y019378D01*
X015868Y019220D02*
X015942Y019220D01*
X015942Y019061D02*
X015868Y019061D01*
X015868Y018903D02*
X015942Y018903D01*
X016695Y018903D02*
X018264Y018903D01*
X018296Y018870D02*
X016695Y018870D01*
X016695Y019076D01*
X016764Y019145D01*
X016837Y019145D01*
X016941Y019188D01*
X017022Y019269D01*
X017065Y019373D01*
X017065Y019487D01*
X017022Y019591D01*
X016970Y019643D01*
X016970Y020967D01*
X017022Y021019D01*
X017065Y021123D01*
X017065Y021237D01*
X017022Y021341D01*
X016998Y021365D01*
X018796Y021365D01*
X018751Y021320D01*
X018751Y020590D01*
X018706Y020590D01*
X018657Y020541D01*
X018609Y020590D01*
X018139Y020590D01*
X018057Y020508D01*
X018057Y019289D01*
X018139Y019207D01*
X018184Y019207D01*
X018184Y018982D01*
X018296Y018870D01*
X018184Y019061D02*
X016695Y019061D01*
X016973Y019220D02*
X018127Y019220D01*
X018057Y019378D02*
X017065Y019378D01*
X017044Y019537D02*
X018057Y019537D01*
X018057Y019695D02*
X016970Y019695D01*
X016970Y019854D02*
X018057Y019854D01*
X018057Y020012D02*
X016970Y020012D01*
X016970Y020171D02*
X018057Y020171D01*
X018057Y020329D02*
X016970Y020329D01*
X016970Y020488D02*
X018057Y020488D01*
X018751Y020646D02*
X016970Y020646D01*
X016970Y020805D02*
X018751Y020805D01*
X018751Y020963D02*
X016970Y020963D01*
X017064Y021122D02*
X018751Y021122D01*
X018751Y021280D02*
X017047Y021280D01*
X019306Y022548D02*
X019465Y022548D01*
X019464Y022390D02*
X019465Y022390D01*
X019465Y022707D02*
X019220Y022707D01*
X019220Y022865D02*
X019465Y022865D01*
X019465Y023024D02*
X019220Y023024D01*
X019220Y023182D02*
X019465Y023182D01*
X019465Y023341D02*
X019220Y023341D01*
X019252Y023499D02*
X019465Y023499D01*
X019465Y023658D02*
X019315Y023658D01*
X019282Y023816D02*
X019465Y023816D01*
X019465Y023975D02*
X014410Y023975D01*
X014305Y024133D02*
X019465Y024133D01*
X019465Y024292D02*
X005225Y024292D01*
X005225Y024133D02*
X013955Y024133D01*
X013191Y024450D02*
X005361Y024450D01*
X005520Y024609D02*
X013033Y024609D01*
X012874Y024767D02*
X012838Y024767D01*
X013822Y025560D02*
X016991Y025560D01*
X017149Y025718D02*
X013789Y025718D01*
X013948Y025877D02*
X017308Y025877D01*
X017466Y026035D02*
X014015Y026035D01*
X014015Y026194D02*
X017625Y026194D01*
X017783Y026352D02*
X014015Y026352D01*
X013871Y026511D02*
X017942Y026511D01*
X018100Y026669D02*
X013740Y026669D01*
X013899Y026828D02*
X018259Y026828D01*
X018417Y026986D02*
X014015Y026986D01*
X014015Y027145D02*
X018576Y027145D01*
X018734Y027303D02*
X014015Y027303D01*
X013920Y027462D02*
X018893Y027462D01*
X019051Y027620D02*
X013761Y027620D01*
X013850Y027779D02*
X019210Y027779D01*
X019368Y027937D02*
X014008Y027937D01*
X014015Y028096D02*
X019527Y028096D01*
X019685Y028254D02*
X014015Y028254D01*
X013969Y028413D02*
X019844Y028413D01*
X020002Y028571D02*
X013810Y028571D01*
X013857Y028730D02*
X020161Y028730D01*
X020319Y028888D02*
X014016Y028888D01*
X014055Y029047D02*
X020478Y029047D01*
X020636Y029205D02*
X014055Y029205D01*
X014055Y029175D02*
X014055Y029383D01*
X013733Y029705D01*
X013525Y029705D01*
X013525Y029175D01*
X014055Y029175D01*
X014055Y029364D02*
X020795Y029364D01*
X020953Y029522D02*
X013916Y029522D01*
X013757Y029681D02*
X021112Y029681D01*
X021270Y029839D02*
X003260Y029839D01*
X003260Y029681D02*
X013253Y029681D01*
X013094Y029522D02*
X012859Y029522D01*
X013485Y029522D02*
X013525Y029522D01*
X013525Y029364D02*
X013485Y029364D01*
X013485Y029205D02*
X013525Y029205D01*
X013525Y029681D02*
X013485Y029681D01*
X012209Y028730D02*
X005641Y028730D01*
X005799Y028888D02*
X012051Y028888D01*
X012200Y028571D02*
X005482Y028571D01*
X005324Y028413D02*
X012041Y028413D01*
X012249Y027620D02*
X005531Y027620D01*
X005373Y027462D02*
X012090Y027462D01*
X013980Y025401D02*
X016832Y025401D01*
X017169Y024926D02*
X019465Y024926D01*
X019465Y025084D02*
X017328Y025084D01*
X017486Y025243D02*
X019465Y025243D01*
X019465Y025401D02*
X017645Y025401D01*
X017803Y025560D02*
X019465Y025560D01*
X019465Y025718D02*
X017962Y025718D01*
X018120Y025877D02*
X019465Y025877D01*
X019465Y026035D02*
X018279Y026035D01*
X018437Y026194D02*
X019465Y026194D01*
X019465Y026352D02*
X018596Y026352D01*
X018754Y026511D02*
X019465Y026511D01*
X019465Y026669D02*
X018913Y026669D01*
X019071Y026828D02*
X019465Y026828D01*
X019517Y026986D02*
X019230Y026986D01*
X019388Y027145D02*
X019676Y027145D01*
X019576Y027045D02*
X019576Y027045D01*
X019547Y027303D02*
X019834Y027303D01*
X019705Y027462D02*
X019993Y027462D01*
X019864Y027620D02*
X020151Y027620D01*
X020022Y027779D02*
X020310Y027779D01*
X020181Y027937D02*
X020468Y027937D01*
X020339Y028096D02*
X020627Y028096D01*
X020498Y028254D02*
X020785Y028254D01*
X020656Y028413D02*
X020944Y028413D01*
X020815Y028571D02*
X021102Y028571D01*
X020973Y028730D02*
X021261Y028730D01*
X021132Y028888D02*
X021419Y028888D01*
X021290Y029047D02*
X021578Y029047D01*
X021652Y029205D02*
X021449Y029205D01*
X021429Y029998D02*
X003260Y029998D01*
X003260Y030156D02*
X021587Y030156D01*
X021690Y030315D02*
X003260Y030315D01*
X003260Y030473D02*
X021690Y030473D01*
X021690Y030632D02*
X003260Y030632D01*
X003260Y030790D02*
X021690Y030790D01*
X021690Y030949D02*
X003260Y030949D01*
X003260Y031107D02*
X021690Y031107D01*
X021690Y031266D02*
X003260Y031266D01*
X003260Y031424D02*
X021690Y031424D01*
X021690Y031583D02*
X003260Y031583D01*
X003260Y031741D02*
X021690Y031741D01*
X021690Y031900D02*
X003260Y031900D01*
X003260Y032058D02*
X020631Y032058D01*
X020508Y032217D02*
X003260Y032217D01*
X003260Y032375D02*
X020501Y032375D01*
X020605Y032534D02*
X003260Y032534D01*
X003260Y032692D02*
X020898Y032692D01*
X021057Y032851D02*
X003260Y032851D01*
X003260Y033009D02*
X021215Y033009D01*
X021268Y033168D02*
X003260Y033168D01*
X003260Y033326D02*
X020898Y033326D01*
X021162Y033326D02*
X021440Y033326D01*
X021314Y033485D02*
X021299Y033485D01*
X021030Y033580D02*
X011830Y033580D01*
X010330Y035080D01*
X010045Y035070D02*
X003260Y035070D01*
X003260Y035228D02*
X007821Y035228D01*
X007980Y035380D02*
X010660Y035380D01*
X011330Y036050D01*
X011610Y035553D02*
X011545Y035488D01*
X011406Y035430D01*
X011254Y035430D01*
X011115Y035488D01*
X011097Y035506D01*
X010751Y035160D01*
X010605Y035160D01*
X010615Y035137D01*
X010615Y035106D01*
X011921Y033800D01*
X020847Y033800D01*
X020869Y033822D01*
X020945Y033853D01*
X018910Y035889D01*
X018910Y037964D01*
X017354Y039520D01*
X017323Y039520D01*
X017219Y039563D01*
X017138Y039644D01*
X017095Y039748D01*
X017095Y039862D01*
X017138Y039966D01*
X017219Y040047D01*
X017323Y040090D01*
X017437Y040090D01*
X017541Y040047D01*
X017622Y039966D01*
X017665Y039862D01*
X017665Y039831D01*
X019160Y038336D01*
X019160Y038589D01*
X018229Y039520D01*
X018198Y039520D01*
X018094Y039563D01*
X018013Y039644D01*
X017970Y039748D01*
X017970Y039862D01*
X018013Y039966D01*
X018094Y040047D01*
X018198Y040090D01*
X018312Y040090D01*
X018416Y040047D01*
X018497Y039966D01*
X018540Y039862D01*
X018540Y039831D01*
X019410Y038961D01*
X019410Y039089D01*
X017604Y040895D01*
X017573Y040895D01*
X017469Y040938D01*
X017388Y041019D01*
X017345Y041123D01*
X017345Y041237D01*
X017388Y041341D01*
X017469Y041422D01*
X017573Y041465D01*
X017687Y041465D01*
X017791Y041422D01*
X017872Y041341D01*
X017915Y041237D01*
X017915Y041206D01*
X019660Y039461D01*
X019660Y040997D01*
X019638Y041019D01*
X019595Y041123D01*
X019595Y041237D01*
X019638Y041341D01*
X019719Y041422D01*
X019823Y041465D01*
X019937Y041465D01*
X020041Y041422D01*
X020122Y041341D01*
X020165Y041237D01*
X020165Y041123D01*
X020122Y041019D01*
X020100Y040997D01*
X020100Y038711D01*
X022789Y041400D01*
X024947Y041400D01*
X024969Y041422D01*
X025073Y041465D01*
X025187Y041465D01*
X025291Y041422D01*
X025372Y041341D01*
X025415Y041237D01*
X025415Y041123D01*
X025374Y041025D01*
X025664Y041025D01*
X025845Y041206D01*
X025845Y041237D01*
X025888Y041341D01*
X025969Y041422D01*
X026073Y041465D01*
X026187Y041465D01*
X026291Y041422D01*
X026372Y041341D01*
X026415Y041237D01*
X026415Y041123D01*
X026372Y041019D01*
X026291Y040938D01*
X026187Y040895D01*
X026156Y040895D01*
X025975Y040714D01*
X025846Y040585D01*
X023221Y040585D01*
X020600Y037964D01*
X020600Y036846D01*
X020770Y036676D01*
X020841Y036647D01*
X020895Y036593D01*
X020915Y036612D01*
X021054Y036670D01*
X021206Y036670D01*
X021345Y036612D01*
X021452Y036505D01*
X021510Y036366D01*
X021510Y035734D01*
X021452Y035595D01*
X021345Y035488D01*
X021206Y035430D01*
X021116Y035430D01*
X022321Y034225D01*
X022338Y034266D01*
X022419Y034347D01*
X022523Y034390D01*
X022637Y034390D01*
X022741Y034347D01*
X022822Y034266D01*
X022865Y034162D01*
X022865Y034089D01*
X023526Y033427D01*
X023526Y033842D01*
X023608Y033924D01*
X023751Y033924D01*
X023720Y033998D01*
X023720Y034029D01*
X023410Y034339D01*
X023410Y034339D01*
X022286Y035463D01*
X022206Y035430D01*
X022054Y035430D01*
X021915Y035488D01*
X021808Y035595D01*
X021750Y035734D01*
X021750Y036366D01*
X021808Y036505D01*
X021915Y036612D01*
X022054Y036670D01*
X022206Y036670D01*
X022345Y036612D01*
X022363Y036594D01*
X022769Y037000D01*
X025496Y037000D01*
X025625Y036871D01*
X025899Y036597D01*
X025915Y036612D01*
X026054Y036670D01*
X026206Y036670D01*
X026345Y036612D01*
X026452Y036505D01*
X026510Y036366D01*
X026510Y036039D01*
X026573Y036065D01*
X026687Y036065D01*
X026750Y036039D01*
X026750Y036366D01*
X026808Y036505D01*
X026910Y036607D01*
X026910Y041464D01*
X026789Y041585D01*
X023834Y041585D01*
X023539Y041880D01*
X023244Y041585D01*
X016971Y041585D01*
X016850Y041464D01*
X016850Y040239D01*
X016721Y040110D01*
X013281Y036670D01*
X013406Y036670D01*
X013545Y036612D01*
X013652Y036505D01*
X013710Y036366D01*
X013710Y035734D01*
X013652Y035595D01*
X013545Y035488D01*
X013406Y035430D01*
X013254Y035430D01*
X013115Y035488D01*
X013107Y035496D01*
X012800Y035189D01*
X012671Y035060D01*
X011989Y035060D01*
X011739Y035310D01*
X011610Y035439D01*
X011610Y035553D01*
X011610Y035545D02*
X011602Y035545D01*
X011662Y035387D02*
X010978Y035387D01*
X010819Y035228D02*
X011821Y035228D01*
X011979Y035070D02*
X010652Y035070D01*
X010810Y034911D02*
X019888Y034911D01*
X020046Y034753D02*
X010969Y034753D01*
X011127Y034594D02*
X020205Y034594D01*
X020363Y034436D02*
X011286Y034436D01*
X011444Y034277D02*
X020522Y034277D01*
X020680Y034119D02*
X011603Y034119D01*
X011761Y033960D02*
X020839Y033960D01*
X020848Y033802D02*
X011920Y033802D01*
X011614Y033485D02*
X003260Y033485D01*
X003260Y033643D02*
X011456Y033643D01*
X011297Y033802D02*
X003260Y033802D01*
X003260Y033960D02*
X011139Y033960D01*
X010980Y034119D02*
X003260Y034119D01*
X003260Y034277D02*
X010822Y034277D01*
X010663Y034436D02*
X003260Y034436D01*
X003260Y034594D02*
X010505Y034594D01*
X010346Y034753D02*
X003260Y034753D01*
X003260Y034911D02*
X010096Y034911D01*
X011830Y035530D02*
X011830Y036480D01*
X011480Y036830D01*
X009110Y036830D01*
X008330Y036050D01*
X007950Y036021D02*
X007710Y036021D01*
X007710Y036179D02*
X007950Y036179D01*
X007950Y036338D02*
X007710Y036338D01*
X007656Y036496D02*
X008004Y036496D01*
X008217Y036655D02*
X007443Y036655D01*
X007217Y036655D02*
X006443Y036655D01*
X006406Y036670D02*
X006254Y036670D01*
X006115Y036612D01*
X006008Y036505D01*
X005950Y036366D01*
X005950Y035734D01*
X006008Y035595D01*
X006115Y035488D01*
X006254Y035430D01*
X006406Y035430D01*
X006545Y035488D01*
X006652Y035595D01*
X006710Y035734D01*
X006710Y036366D01*
X006652Y036505D01*
X006545Y036612D01*
X006406Y036670D01*
X006217Y036655D02*
X003260Y036655D01*
X003260Y036813D02*
X008782Y036813D01*
X008940Y036972D02*
X003260Y036972D01*
X003260Y037130D02*
X013119Y037130D01*
X013277Y037289D02*
X003260Y037289D01*
X003260Y037447D02*
X013436Y037447D01*
X013594Y037606D02*
X003260Y037606D01*
X003260Y037764D02*
X013753Y037764D01*
X013911Y037923D02*
X003260Y037923D01*
X003260Y038081D02*
X014070Y038081D01*
X014228Y038240D02*
X003260Y038240D01*
X003260Y038398D02*
X014387Y038398D01*
X014545Y038557D02*
X003260Y038557D01*
X003260Y038715D02*
X014704Y038715D01*
X014862Y038874D02*
X003260Y038874D01*
X003260Y039032D02*
X015021Y039032D01*
X015179Y039191D02*
X003260Y039191D01*
X003260Y039349D02*
X015338Y039349D01*
X015496Y039508D02*
X003260Y039508D01*
X003260Y039666D02*
X015655Y039666D01*
X015813Y039825D02*
X003260Y039825D01*
X003260Y039983D02*
X015972Y039983D01*
X016130Y040142D02*
X003260Y040142D01*
X003260Y040300D02*
X016289Y040300D01*
X016410Y040459D02*
X003260Y040459D01*
X003260Y040617D02*
X016410Y040617D01*
X016410Y040776D02*
X003260Y040776D01*
X003260Y040934D02*
X016410Y040934D01*
X016410Y041093D02*
X003260Y041093D01*
X003260Y041251D02*
X016410Y041251D01*
X016410Y041410D02*
X003260Y041410D01*
X003260Y041568D02*
X016306Y041568D01*
X016380Y041805D02*
X016630Y041555D01*
X016630Y040330D01*
X012350Y036050D01*
X012330Y036050D01*
X012217Y036655D02*
X011967Y036655D01*
X011808Y036813D02*
X012802Y036813D01*
X012960Y036972D02*
X011650Y036972D01*
X012443Y036655D02*
X012643Y036655D01*
X013424Y036813D02*
X018910Y036813D01*
X018910Y036655D02*
X014443Y036655D01*
X014406Y036670D02*
X014254Y036670D01*
X014115Y036612D01*
X014008Y036505D01*
X013950Y036366D01*
X013950Y035734D01*
X014008Y035595D01*
X014115Y035488D01*
X014254Y035430D01*
X014406Y035430D01*
X014545Y035488D01*
X014652Y035595D01*
X014710Y035734D01*
X014710Y036366D01*
X014652Y036505D01*
X014545Y036612D01*
X014406Y036670D01*
X014217Y036655D02*
X013443Y036655D01*
X013656Y036496D02*
X014004Y036496D01*
X013950Y036338D02*
X013710Y036338D01*
X013710Y036179D02*
X013950Y036179D01*
X013950Y036021D02*
X013710Y036021D01*
X013710Y035862D02*
X013950Y035862D01*
X013963Y035704D02*
X013697Y035704D01*
X013602Y035545D02*
X014058Y035545D01*
X014602Y035545D02*
X019254Y035545D01*
X019412Y035387D02*
X012998Y035387D01*
X012839Y035228D02*
X019571Y035228D01*
X019729Y035070D02*
X012681Y035070D01*
X012580Y035280D02*
X012080Y035280D01*
X011830Y035530D01*
X012580Y035280D02*
X013330Y036030D01*
X013330Y036050D01*
X013583Y036972D02*
X018910Y036972D01*
X018910Y037130D02*
X013741Y037130D01*
X013900Y037289D02*
X018910Y037289D01*
X018910Y037447D02*
X014058Y037447D01*
X014217Y037606D02*
X018910Y037606D01*
X018910Y037764D02*
X014375Y037764D01*
X014534Y037923D02*
X018910Y037923D01*
X018793Y038081D02*
X014692Y038081D01*
X014851Y038240D02*
X018634Y038240D01*
X018476Y038398D02*
X015009Y038398D01*
X015168Y038557D02*
X018317Y038557D01*
X018159Y038715D02*
X015326Y038715D01*
X015485Y038874D02*
X018000Y038874D01*
X017842Y039032D02*
X015643Y039032D01*
X015802Y039191D02*
X017683Y039191D01*
X017525Y039349D02*
X015960Y039349D01*
X016119Y039508D02*
X017366Y039508D01*
X017129Y039666D02*
X016277Y039666D01*
X016436Y039825D02*
X017095Y039825D01*
X017155Y039983D02*
X016594Y039983D01*
X016753Y040142D02*
X018357Y040142D01*
X018480Y039983D02*
X018516Y039983D01*
X018547Y039825D02*
X018674Y039825D01*
X018705Y039666D02*
X018833Y039666D01*
X018864Y039508D02*
X018991Y039508D01*
X019022Y039349D02*
X019150Y039349D01*
X019181Y039191D02*
X019308Y039191D01*
X019339Y039032D02*
X019410Y039032D01*
X019630Y039180D02*
X017630Y041180D01*
X017358Y041093D02*
X016850Y041093D01*
X016850Y041251D02*
X017351Y041251D01*
X017457Y041410D02*
X016850Y041410D01*
X016954Y041568D02*
X026806Y041568D01*
X026910Y041410D02*
X026303Y041410D01*
X026409Y041251D02*
X026910Y041251D01*
X026910Y041093D02*
X026402Y041093D01*
X026281Y040934D02*
X026910Y040934D01*
X026910Y040776D02*
X026037Y040776D01*
X025878Y040617D02*
X026910Y040617D01*
X026910Y040459D02*
X023095Y040459D01*
X022936Y040300D02*
X026910Y040300D01*
X026910Y040142D02*
X022778Y040142D01*
X022619Y039983D02*
X026910Y039983D01*
X026910Y039825D02*
X022461Y039825D01*
X022302Y039666D02*
X026910Y039666D01*
X026910Y039508D02*
X022144Y039508D01*
X021985Y039349D02*
X026910Y039349D01*
X026910Y039191D02*
X021827Y039191D01*
X021668Y039032D02*
X026910Y039032D01*
X026910Y038874D02*
X021510Y038874D01*
X021351Y038715D02*
X026910Y038715D01*
X026910Y038557D02*
X021193Y038557D01*
X021034Y038398D02*
X026910Y038398D01*
X026910Y038240D02*
X020876Y038240D01*
X020717Y038081D02*
X026910Y038081D01*
X026910Y037923D02*
X020600Y037923D01*
X020600Y037764D02*
X026910Y037764D01*
X026910Y037606D02*
X020600Y037606D01*
X020600Y037447D02*
X026910Y037447D01*
X026910Y037289D02*
X020600Y037289D01*
X020600Y037130D02*
X026910Y037130D01*
X026910Y036972D02*
X025525Y036972D01*
X025683Y036813D02*
X026910Y036813D01*
X026910Y036655D02*
X026243Y036655D01*
X026017Y036655D02*
X025842Y036655D01*
X025536Y036338D02*
X025510Y036338D01*
X025510Y036364D02*
X025750Y036124D01*
X025750Y035734D01*
X025808Y035595D01*
X025903Y035500D01*
X025739Y035500D01*
X025610Y035371D01*
X024742Y034504D01*
X023510Y035736D01*
X023510Y036366D01*
X023452Y036505D01*
X023397Y036560D01*
X023863Y036560D01*
X023808Y036505D01*
X023750Y036366D01*
X023750Y035734D01*
X023808Y035595D01*
X023915Y035488D01*
X024054Y035430D01*
X024206Y035430D01*
X024345Y035488D01*
X024452Y035595D01*
X024510Y035734D01*
X024510Y036366D01*
X024452Y036505D01*
X024397Y036560D01*
X024863Y036560D01*
X024808Y036505D01*
X024750Y036366D01*
X024750Y035734D01*
X024808Y035595D01*
X024915Y035488D01*
X025054Y035430D01*
X025206Y035430D01*
X025345Y035488D01*
X025452Y035595D01*
X025510Y035734D01*
X025510Y036364D01*
X025510Y036179D02*
X025695Y036179D01*
X025750Y036021D02*
X025510Y036021D01*
X025510Y035862D02*
X025750Y035862D01*
X025763Y035704D02*
X025497Y035704D01*
X025402Y035545D02*
X025858Y035545D01*
X025830Y035280D02*
X026180Y035280D01*
X026630Y035730D01*
X026630Y035780D01*
X026730Y035405D02*
X026630Y035305D01*
X026006Y034681D01*
X025755Y034430D01*
X025380Y034430D01*
X025005Y034055D01*
X025005Y033489D01*
X024755Y033489D02*
X024755Y033130D01*
X024905Y032980D01*
X024505Y032980D02*
X024505Y033489D01*
X024505Y034055D01*
X024505Y034105D01*
X023580Y035030D01*
X023480Y035030D01*
X023860Y035387D02*
X025625Y035387D01*
X025467Y035228D02*
X024018Y035228D01*
X024177Y035070D02*
X025308Y035070D01*
X025150Y034911D02*
X024335Y034911D01*
X024494Y034753D02*
X024991Y034753D01*
X024833Y034594D02*
X024652Y034594D01*
X024755Y034205D02*
X025830Y035280D01*
X026255Y034430D02*
X026005Y034180D01*
X025505Y034180D01*
X025255Y033930D01*
X025255Y033489D01*
X025255Y033930D01*
X025505Y034180D01*
X026005Y034180D01*
X026255Y034430D01*
X027130Y035305D01*
X027130Y036050D01*
X027130Y041555D01*
X027380Y041805D01*
X031005Y041805D01*
X031955Y041805D01*
X034255Y041805D01*
X034255Y042255D01*
X036710Y044710D01*
X036930Y044710D01*
X037310Y044738D02*
X037550Y044738D01*
X037550Y044749D02*
X037550Y044394D01*
X037608Y044255D01*
X037715Y044148D01*
X037854Y044090D01*
X038006Y044090D01*
X038145Y044148D01*
X038252Y044255D01*
X038310Y044394D01*
X038310Y044799D01*
X038559Y045048D01*
X038550Y045026D01*
X038550Y044394D01*
X038608Y044255D01*
X038715Y044148D01*
X038854Y044090D01*
X038999Y044090D01*
X038609Y043700D01*
X036439Y043700D01*
X036310Y043571D01*
X034540Y041801D01*
X034540Y041862D01*
X034497Y041966D01*
X034475Y041988D01*
X034475Y042164D01*
X036596Y044284D01*
X036608Y044255D01*
X036715Y044148D01*
X036854Y044090D01*
X037006Y044090D01*
X037145Y044148D01*
X037252Y044255D01*
X037310Y044394D01*
X037310Y044989D01*
X037550Y044749D01*
X037550Y044580D02*
X037310Y044580D01*
X037310Y044421D02*
X037550Y044421D01*
X037605Y044263D02*
X037255Y044263D01*
X037040Y044104D02*
X037820Y044104D01*
X038040Y044104D02*
X038820Y044104D01*
X038854Y043946D02*
X036257Y043946D01*
X036415Y044104D02*
X036820Y044104D01*
X036605Y044263D02*
X036574Y044263D01*
X036367Y043629D02*
X035940Y043629D01*
X036098Y043787D02*
X038696Y043787D01*
X038700Y043480D02*
X039930Y044710D01*
X040635Y044104D02*
X040820Y044104D01*
X041040Y044104D02*
X041820Y044104D01*
X042040Y044104D02*
X042820Y044104D01*
X043040Y044104D02*
X043820Y044104D01*
X043854Y044090D02*
X044006Y044090D01*
X044145Y044148D01*
X044252Y044255D01*
X044310Y044394D01*
X044310Y045026D01*
X044252Y045165D01*
X044145Y045272D01*
X044006Y045330D01*
X043854Y045330D01*
X043715Y045272D01*
X043608Y045165D01*
X043550Y045026D01*
X043550Y044394D01*
X043608Y044255D01*
X043715Y044148D01*
X043854Y044090D01*
X044040Y044104D02*
X047092Y044104D01*
X047092Y043946D02*
X040477Y043946D01*
X040318Y043787D02*
X047092Y043787D01*
X047092Y043629D02*
X040160Y043629D01*
X040001Y043470D02*
X047092Y043470D01*
X047092Y043312D02*
X039843Y043312D01*
X039684Y043153D02*
X047092Y043153D01*
X047092Y042995D02*
X039526Y042995D01*
X039400Y043180D02*
X040930Y044710D01*
X041310Y044738D02*
X041550Y044738D01*
X041550Y044580D02*
X041310Y044580D01*
X041310Y044421D02*
X041550Y044421D01*
X041605Y044263D02*
X041255Y044263D01*
X041310Y044897D02*
X041550Y044897D01*
X041562Y045055D02*
X041298Y045055D01*
X041204Y045214D02*
X041656Y045214D01*
X042160Y045480D02*
X042930Y044710D01*
X043310Y044738D02*
X043550Y044738D01*
X043550Y044580D02*
X043310Y044580D01*
X043310Y044421D02*
X043550Y044421D01*
X043605Y044263D02*
X043255Y044263D01*
X043310Y044897D02*
X043550Y044897D01*
X043562Y045055D02*
X043298Y045055D01*
X043204Y045214D02*
X043656Y045214D01*
X044204Y045214D02*
X047092Y045214D01*
X047092Y045372D02*
X042579Y045372D01*
X042421Y045531D02*
X047092Y045531D01*
X047092Y045689D02*
X042262Y045689D01*
X042160Y045480D02*
X038680Y045480D01*
X037930Y044730D01*
X037930Y044710D01*
X037900Y044710D01*
X037130Y045480D01*
X028900Y045480D01*
X028130Y044710D01*
X028510Y044738D02*
X028750Y044738D01*
X028750Y044580D02*
X028510Y044580D01*
X028510Y044421D02*
X028750Y044421D01*
X028750Y044394D02*
X028808Y044255D01*
X028915Y044148D01*
X029054Y044090D01*
X029206Y044090D01*
X029345Y044148D01*
X029452Y044255D01*
X029510Y044394D01*
X029510Y045026D01*
X029452Y045165D01*
X029357Y045260D01*
X035703Y045260D01*
X035608Y045165D01*
X035550Y045026D01*
X035550Y044641D01*
X034809Y043900D01*
X028251Y043900D01*
X028061Y044090D01*
X028206Y044090D01*
X028345Y044148D01*
X028452Y044255D01*
X028510Y044394D01*
X028510Y044779D01*
X028750Y045019D01*
X028750Y044394D01*
X028805Y044263D02*
X028455Y044263D01*
X028240Y044104D02*
X029020Y044104D01*
X029240Y044104D02*
X035013Y044104D01*
X035171Y044263D02*
X029455Y044263D01*
X029510Y044421D02*
X035330Y044421D01*
X035488Y044580D02*
X029510Y044580D01*
X029510Y044738D02*
X035550Y044738D01*
X035550Y044897D02*
X029510Y044897D01*
X029498Y045055D02*
X035562Y045055D01*
X035656Y045214D02*
X029404Y045214D01*
X028750Y044897D02*
X028628Y044897D01*
X028481Y045372D02*
X026779Y045372D01*
X026621Y045531D02*
X028639Y045531D01*
X028798Y045689D02*
X026462Y045689D01*
X026360Y045480D02*
X027295Y044545D01*
X027130Y044710D01*
X027295Y044545D02*
X028160Y043680D01*
X028330Y043680D01*
X034880Y043680D01*
X034900Y043680D01*
X035930Y044710D01*
X035697Y044166D02*
X035715Y044148D01*
X035801Y044112D01*
X034164Y042475D01*
X034035Y042346D01*
X034035Y042025D01*
X027289Y042025D01*
X027130Y041866D01*
X027100Y041896D01*
X027100Y041896D01*
X026971Y042025D01*
X026374Y042025D01*
X026415Y042123D01*
X026415Y042237D01*
X026372Y042341D01*
X026350Y042363D01*
X026350Y044153D01*
X026452Y044255D01*
X026510Y044394D01*
X026510Y045019D01*
X026750Y044779D01*
X026750Y044394D01*
X026808Y044255D01*
X026915Y044148D01*
X027054Y044090D01*
X027206Y044090D01*
X027345Y044148D01*
X027363Y044166D01*
X028069Y043460D01*
X034991Y043460D01*
X035697Y044166D01*
X035635Y044104D02*
X035793Y044104D01*
X035634Y043946D02*
X035477Y043946D01*
X035476Y043787D02*
X035318Y043787D01*
X035317Y043629D02*
X035160Y043629D01*
X035159Y043470D02*
X035001Y043470D01*
X035000Y043312D02*
X026350Y043312D01*
X026350Y043470D02*
X028059Y043470D01*
X027900Y043629D02*
X026350Y043629D01*
X026350Y043787D02*
X027742Y043787D01*
X027583Y043946D02*
X026350Y043946D01*
X026350Y044104D02*
X027020Y044104D01*
X027240Y044104D02*
X027425Y044104D01*
X027730Y044421D02*
X027750Y044421D01*
X027750Y044580D02*
X027572Y044580D01*
X027510Y044738D02*
X027750Y044738D01*
X027750Y044897D02*
X027510Y044897D01*
X027498Y045055D02*
X027762Y045055D01*
X027856Y045214D02*
X027404Y045214D01*
X026750Y044738D02*
X026510Y044738D01*
X026510Y044580D02*
X026750Y044580D01*
X026750Y044421D02*
X026510Y044421D01*
X026455Y044263D02*
X026805Y044263D01*
X026632Y044897D02*
X026510Y044897D01*
X026130Y044710D02*
X026130Y042180D01*
X026415Y042202D02*
X034035Y042202D01*
X034035Y042044D02*
X026382Y042044D01*
X026352Y042361D02*
X034049Y042361D01*
X034208Y042519D02*
X026350Y042519D01*
X026350Y042678D02*
X034366Y042678D01*
X034525Y042836D02*
X026350Y042836D01*
X026350Y042995D02*
X034683Y042995D01*
X034842Y043153D02*
X026350Y043153D01*
X025910Y043153D02*
X025350Y043153D01*
X025350Y042995D02*
X025910Y042995D01*
X025910Y042836D02*
X025350Y042836D01*
X025350Y042678D02*
X025910Y042678D01*
X025910Y042519D02*
X025350Y042519D01*
X025350Y042363D02*
X025350Y044153D01*
X025452Y044255D01*
X025510Y044394D01*
X025510Y045026D01*
X025452Y045165D01*
X025357Y045260D01*
X025903Y045260D01*
X025808Y045165D01*
X025750Y045026D01*
X025750Y044394D01*
X025808Y044255D01*
X025910Y044153D01*
X025910Y042363D01*
X025888Y042341D01*
X025845Y042237D01*
X025845Y042123D01*
X025886Y042025D01*
X025374Y042025D01*
X025415Y042123D01*
X025415Y042237D01*
X025372Y042341D01*
X025350Y042363D01*
X025352Y042361D02*
X025908Y042361D01*
X025845Y042202D02*
X025415Y042202D01*
X025382Y042044D02*
X025878Y042044D01*
X025957Y041410D02*
X025303Y041410D01*
X025409Y041251D02*
X025851Y041251D01*
X025731Y041093D02*
X025402Y041093D01*
X025130Y041180D02*
X022880Y041180D01*
X020130Y038430D01*
X020130Y036555D01*
X020280Y036405D01*
X020380Y036755D02*
X020680Y036455D01*
X020680Y036405D01*
X020822Y036655D02*
X021017Y036655D01*
X021243Y036655D02*
X022017Y036655D01*
X022243Y036655D02*
X022423Y036655D01*
X022582Y036813D02*
X020633Y036813D01*
X020600Y036972D02*
X022740Y036972D01*
X022860Y036780D02*
X022130Y036050D01*
X022130Y035930D01*
X023630Y034430D01*
X024005Y034055D01*
X024005Y033489D01*
X024005Y034055D01*
X023736Y033960D02*
X022994Y033960D01*
X022865Y034119D02*
X023630Y034119D01*
X023472Y034277D02*
X022811Y034277D01*
X022349Y034277D02*
X022269Y034277D01*
X022111Y034436D02*
X023313Y034436D01*
X023155Y034594D02*
X021952Y034594D01*
X021794Y034753D02*
X022996Y034753D01*
X022838Y034911D02*
X021635Y034911D01*
X021477Y035070D02*
X022679Y035070D01*
X022521Y035228D02*
X021318Y035228D01*
X021160Y035387D02*
X022362Y035387D01*
X021858Y035545D02*
X021402Y035545D01*
X021497Y035704D02*
X021763Y035704D01*
X021750Y035862D02*
X021510Y035862D01*
X021510Y036021D02*
X021750Y036021D01*
X021750Y036179D02*
X021510Y036179D01*
X021510Y036338D02*
X021750Y036338D01*
X021804Y036496D02*
X021456Y036496D01*
X020380Y036755D02*
X020380Y038055D01*
X023130Y040805D01*
X025755Y040805D01*
X026130Y041180D01*
X026880Y041805D02*
X027130Y041555D01*
X027350Y041464D02*
X027471Y041585D01*
X032046Y041585D01*
X034072Y041585D01*
X034094Y041563D01*
X034198Y041520D01*
X034259Y041520D01*
X033764Y041025D01*
X033764Y041025D01*
X033714Y040975D01*
X030039Y037300D01*
X030014Y037275D01*
X029589Y036850D01*
X029460Y036721D01*
X029460Y036486D01*
X029452Y036505D01*
X029345Y036612D01*
X029206Y036670D01*
X029054Y036670D01*
X028915Y036612D01*
X028808Y036505D01*
X028750Y036366D01*
X028750Y035734D01*
X028808Y035595D01*
X028915Y035488D01*
X029054Y035430D01*
X029069Y035430D01*
X028939Y035300D01*
X028438Y035300D01*
X028416Y035322D01*
X028312Y035365D01*
X028198Y035365D01*
X028094Y035322D01*
X028013Y035241D01*
X027970Y035137D01*
X027970Y035041D01*
X027912Y035065D01*
X027798Y035065D01*
X027694Y035022D01*
X027613Y034941D01*
X027570Y034837D01*
X027570Y034726D01*
X027363Y034726D01*
X027721Y035085D01*
X027850Y035214D01*
X027850Y035553D01*
X027915Y035488D01*
X028054Y035430D01*
X028206Y035430D01*
X028345Y035488D01*
X028452Y035595D01*
X028510Y035734D01*
X028510Y036366D01*
X028452Y036505D01*
X028345Y036612D01*
X028206Y036670D01*
X028054Y036670D01*
X027915Y036612D01*
X027850Y036547D01*
X027850Y039589D01*
X029156Y040895D01*
X029187Y040895D01*
X029291Y040938D01*
X029372Y041019D01*
X029415Y041123D01*
X029415Y041237D01*
X029372Y041341D01*
X029291Y041422D01*
X029187Y041465D01*
X029073Y041465D01*
X028969Y041422D01*
X028888Y041341D01*
X028845Y041237D01*
X028845Y041206D01*
X027410Y039771D01*
X027410Y036547D01*
X027350Y036607D01*
X027350Y041464D01*
X027350Y041410D02*
X028957Y041410D01*
X028851Y041251D02*
X027350Y041251D01*
X027350Y041093D02*
X028731Y041093D01*
X028573Y040934D02*
X027350Y040934D01*
X027350Y040776D02*
X028414Y040776D01*
X028256Y040617D02*
X027350Y040617D01*
X027350Y040459D02*
X028097Y040459D01*
X027939Y040300D02*
X027350Y040300D01*
X027350Y040142D02*
X027780Y040142D01*
X027622Y039983D02*
X027350Y039983D01*
X027350Y039825D02*
X027463Y039825D01*
X027410Y039666D02*
X027350Y039666D01*
X027350Y039508D02*
X027410Y039508D01*
X027410Y039349D02*
X027350Y039349D01*
X027350Y039191D02*
X027410Y039191D01*
X027410Y039032D02*
X027350Y039032D01*
X027350Y038874D02*
X027410Y038874D01*
X027410Y038715D02*
X027350Y038715D01*
X027350Y038557D02*
X027410Y038557D01*
X027410Y038398D02*
X027350Y038398D01*
X027350Y038240D02*
X027410Y038240D01*
X027410Y038081D02*
X027350Y038081D01*
X027350Y037923D02*
X027410Y037923D01*
X027410Y037764D02*
X027350Y037764D01*
X027350Y037606D02*
X027410Y037606D01*
X027410Y037447D02*
X027350Y037447D01*
X027350Y037289D02*
X027410Y037289D01*
X027410Y037130D02*
X027350Y037130D01*
X027350Y036972D02*
X027410Y036972D01*
X027410Y036813D02*
X027350Y036813D01*
X027350Y036655D02*
X027410Y036655D01*
X027850Y036655D02*
X028017Y036655D01*
X028243Y036655D02*
X029017Y036655D01*
X029243Y036655D02*
X029460Y036655D01*
X029456Y036496D02*
X029460Y036496D01*
X029680Y036630D02*
X029680Y035730D01*
X029030Y035080D01*
X028255Y035080D01*
X027970Y035070D02*
X027706Y035070D01*
X027601Y034911D02*
X027547Y034911D01*
X027570Y034753D02*
X027389Y034753D01*
X027380Y034390D02*
X027380Y034364D01*
X027031Y034015D01*
X026505Y033489D01*
X026734Y033326D02*
X029336Y033326D01*
X029295Y033485D02*
X029188Y033485D01*
X029005Y033705D02*
X029706Y033705D01*
X029730Y033681D01*
X030165Y033643D02*
X047092Y033643D01*
X047092Y033485D02*
X030165Y033485D01*
X030124Y033326D02*
X047092Y033326D01*
X047092Y033168D02*
X034411Y033168D01*
X034570Y033009D02*
X047092Y033009D01*
X047092Y032851D02*
X034728Y032851D01*
X034887Y032692D02*
X047092Y032692D01*
X047092Y032534D02*
X035045Y032534D01*
X035204Y032375D02*
X047092Y032375D01*
X047092Y032217D02*
X035362Y032217D01*
X035521Y032058D02*
X047092Y032058D01*
X047092Y031900D02*
X035679Y031900D01*
X035838Y031741D02*
X047092Y031741D01*
X047092Y031583D02*
X035996Y031583D01*
X036155Y031424D02*
X047092Y031424D01*
X047092Y031266D02*
X036313Y031266D01*
X036472Y031107D02*
X047092Y031107D01*
X047092Y030949D02*
X036630Y030949D01*
X036695Y030790D02*
X047092Y030790D01*
X047092Y030632D02*
X036695Y030632D01*
X036695Y030473D02*
X047092Y030473D01*
X047092Y030315D02*
X036695Y030315D01*
X036695Y030156D02*
X047092Y030156D01*
X047092Y029998D02*
X036695Y029998D01*
X036695Y029839D02*
X047092Y029839D01*
X047092Y029681D02*
X036695Y029681D01*
X036695Y029522D02*
X047092Y029522D01*
X047092Y029364D02*
X036695Y029364D01*
X036695Y029205D02*
X047092Y029205D01*
X047092Y029047D02*
X036695Y029047D01*
X036695Y028888D02*
X047092Y028888D01*
X047092Y028730D02*
X036695Y028730D01*
X036695Y028571D02*
X047092Y028571D01*
X047092Y028413D02*
X036695Y028413D01*
X036695Y028254D02*
X047092Y028254D01*
X047092Y028096D02*
X036980Y028096D01*
X036984Y027937D02*
X047092Y027937D01*
X047092Y027779D02*
X037135Y027779D01*
X037293Y027620D02*
X047092Y027620D01*
X047092Y027462D02*
X037452Y027462D01*
X037953Y027303D02*
X047092Y027303D01*
X047092Y027145D02*
X037987Y027145D01*
X037987Y026986D02*
X047092Y026986D01*
X047092Y026828D02*
X037987Y026828D01*
X037918Y026669D02*
X047092Y026669D01*
X047092Y026511D02*
X044861Y026511D01*
X044715Y026345D02*
X045005Y026055D01*
X045005Y010055D01*
X044630Y009680D01*
X037505Y009680D01*
X037130Y010055D01*
X037130Y010430D01*
X036838Y010185D02*
X033447Y010185D01*
X033535Y010344D02*
X036750Y010344D01*
X036750Y010502D02*
X033535Y010502D01*
X033462Y010661D02*
X036823Y010661D01*
X036910Y010027D02*
X033320Y010027D01*
X033320Y009868D02*
X037006Y009868D01*
X037164Y009710D02*
X033320Y009710D01*
X033320Y009551D02*
X037323Y009551D01*
X037940Y011929D02*
X006693Y011929D01*
X006255Y010930D02*
X016630Y010930D01*
X017130Y010430D01*
X017422Y010185D02*
X017838Y010185D01*
X017750Y010273D02*
X017940Y010083D01*
X017940Y007976D01*
X017855Y007976D01*
X017773Y007894D01*
X017773Y007385D01*
X017831Y007327D01*
X017803Y007311D01*
X017769Y007278D01*
X017746Y007237D01*
X017733Y007191D01*
X017733Y006989D01*
X018112Y006989D01*
X018112Y006952D01*
X018148Y006952D01*
X018148Y006594D01*
X018370Y006594D01*
X018416Y006606D01*
X018457Y006629D01*
X018491Y006663D01*
X018514Y006704D01*
X018527Y006750D01*
X018527Y006952D01*
X018148Y006952D01*
X018148Y006989D01*
X018527Y006989D01*
X018527Y007191D01*
X018514Y007237D01*
X018491Y007278D01*
X018457Y007311D01*
X018429Y007327D01*
X018487Y007385D01*
X018487Y007894D01*
X018405Y007976D01*
X018320Y007976D01*
X018320Y010083D01*
X018510Y010273D01*
X018510Y010587D01*
X018287Y010810D01*
X017973Y010810D01*
X017750Y010587D01*
X017750Y010273D01*
X017750Y010344D02*
X017510Y010344D01*
X017510Y010502D02*
X017750Y010502D01*
X017823Y010661D02*
X017437Y010661D01*
X017052Y010819D02*
X021555Y010819D01*
X021713Y010661D02*
X018437Y010661D01*
X018510Y010502D02*
X021775Y010502D01*
X021775Y010344D02*
X018510Y010344D01*
X018422Y010185D02*
X021863Y010185D01*
X022019Y010978D02*
X026271Y010978D01*
X026113Y011136D02*
X021860Y011136D01*
X022965Y010027D02*
X018320Y010027D01*
X018320Y009868D02*
X022965Y009868D01*
X022965Y009710D02*
X018320Y009710D01*
X018320Y009551D02*
X022965Y009551D01*
X022965Y009393D02*
X018320Y009393D01*
X018320Y009234D02*
X022965Y009234D01*
X022965Y009076D02*
X018320Y009076D01*
X018320Y008917D02*
X022965Y008917D01*
X022965Y008759D02*
X018320Y008759D01*
X018320Y008600D02*
X022965Y008600D01*
X022965Y008442D02*
X018320Y008442D01*
X018320Y008283D02*
X022965Y008283D01*
X022965Y008125D02*
X018320Y008125D01*
X018415Y007966D02*
X022845Y007966D01*
X022773Y007808D02*
X018487Y007808D01*
X018487Y007649D02*
X022773Y007649D01*
X022773Y007491D02*
X018487Y007491D01*
X018434Y007332D02*
X022826Y007332D01*
X022733Y007174D02*
X018527Y007174D01*
X018527Y007015D02*
X022733Y007015D01*
X022733Y006952D02*
X022733Y006750D01*
X022746Y006704D01*
X022769Y006663D01*
X022803Y006629D01*
X022844Y006606D01*
X022890Y006594D01*
X023112Y006594D01*
X023112Y006952D01*
X022733Y006952D01*
X022733Y006857D02*
X018527Y006857D01*
X018511Y006698D02*
X022749Y006698D01*
X023112Y006698D02*
X023148Y006698D01*
X023148Y006857D02*
X023112Y006857D01*
X018148Y006857D02*
X018112Y006857D01*
X018112Y006952D02*
X018112Y006594D01*
X017890Y006594D01*
X017844Y006606D01*
X017803Y006629D01*
X017769Y006663D01*
X017746Y006704D01*
X017733Y006750D01*
X017733Y006952D01*
X018112Y006952D01*
X018112Y006698D02*
X018148Y006698D01*
X017749Y006698D02*
X013511Y006698D01*
X013527Y006857D02*
X017733Y006857D01*
X017733Y007015D02*
X013527Y007015D01*
X013527Y007174D02*
X017733Y007174D01*
X017826Y007332D02*
X013434Y007332D01*
X013487Y007491D02*
X017773Y007491D01*
X017773Y007649D02*
X013487Y007649D01*
X013487Y007808D02*
X017773Y007808D01*
X017845Y007966D02*
X013415Y007966D01*
X013320Y008125D02*
X017940Y008125D01*
X017940Y008283D02*
X013320Y008283D01*
X013320Y008442D02*
X017940Y008442D01*
X017940Y008600D02*
X013320Y008600D01*
X013320Y008759D02*
X017940Y008759D01*
X017940Y008917D02*
X013320Y008917D01*
X013320Y009076D02*
X017940Y009076D01*
X017940Y009234D02*
X013320Y009234D01*
X013320Y009393D02*
X017940Y009393D01*
X017940Y009551D02*
X013320Y009551D01*
X013320Y009710D02*
X017940Y009710D01*
X017940Y009868D02*
X013320Y009868D01*
X013320Y010027D02*
X017940Y010027D01*
X016838Y010185D02*
X013422Y010185D01*
X013510Y010344D02*
X016750Y010344D01*
X016747Y010502D02*
X013510Y010502D01*
X013437Y010661D02*
X016588Y010661D01*
X012823Y010661D02*
X012437Y010661D01*
X012510Y010502D02*
X012750Y010502D01*
X012750Y010344D02*
X012510Y010344D01*
X012422Y010185D02*
X012838Y010185D01*
X013112Y006857D02*
X013148Y006857D01*
X013148Y006698D02*
X013112Y006698D01*
X010565Y014601D02*
X010565Y014601D01*
X010543Y014623D02*
X005475Y014623D01*
X005475Y014465D02*
X044785Y014465D01*
X044785Y014623D02*
X038592Y014623D01*
X038750Y014782D02*
X044785Y014782D01*
X044785Y014940D02*
X039918Y014940D01*
X039970Y015099D02*
X044785Y015099D01*
X044785Y015257D02*
X040015Y015257D01*
X039438Y015257D02*
X038881Y015257D01*
X038881Y015099D02*
X039400Y015099D01*
X039453Y014940D02*
X038881Y014940D01*
X040709Y015416D02*
X044785Y015416D01*
X044785Y015574D02*
X040709Y015574D01*
X040709Y015733D02*
X044785Y015733D01*
X044785Y015891D02*
X040709Y015891D01*
X040709Y016050D02*
X044785Y016050D01*
X044785Y016208D02*
X040709Y016208D01*
X040709Y016367D02*
X044785Y016367D01*
X044785Y016525D02*
X042195Y016525D01*
X042195Y016511D02*
X042195Y017099D01*
X042114Y017180D01*
X042195Y017261D01*
X042195Y017849D01*
X042114Y017930D01*
X042195Y018011D01*
X042195Y018599D01*
X042114Y018680D01*
X042195Y018761D01*
X042195Y019349D01*
X042113Y019431D01*
X042008Y019431D01*
X042008Y024854D01*
X042060Y024905D01*
X042103Y025010D01*
X042103Y025123D01*
X042060Y025228D01*
X041980Y025308D01*
X041875Y025352D01*
X041762Y025352D01*
X041657Y025308D01*
X041577Y025228D01*
X041533Y025123D01*
X041533Y025010D01*
X041577Y024905D01*
X041628Y024854D01*
X041628Y019431D01*
X041524Y019431D01*
X041442Y019349D01*
X041442Y018761D01*
X041523Y018680D01*
X041442Y018599D01*
X041442Y018011D01*
X041523Y017930D01*
X041442Y017849D01*
X041442Y017261D01*
X041523Y017180D01*
X041442Y017099D01*
X041442Y016511D01*
X041524Y016429D01*
X042113Y016429D01*
X042195Y016511D01*
X042195Y016684D02*
X044785Y016684D01*
X044785Y016842D02*
X042195Y016842D01*
X042195Y017001D02*
X044785Y017001D01*
X044785Y017159D02*
X042135Y017159D01*
X042195Y017318D02*
X044785Y017318D01*
X044785Y017476D02*
X042195Y017476D01*
X042195Y017635D02*
X044785Y017635D01*
X044785Y017793D02*
X042195Y017793D01*
X042135Y017952D02*
X044785Y017952D01*
X044785Y018110D02*
X042195Y018110D01*
X042195Y018269D02*
X044785Y018269D01*
X044785Y018427D02*
X042195Y018427D01*
X042195Y018586D02*
X044785Y018586D01*
X044785Y018744D02*
X042178Y018744D01*
X042195Y018903D02*
X044785Y018903D01*
X044785Y019061D02*
X042195Y019061D01*
X042195Y019220D02*
X044785Y019220D01*
X044785Y019378D02*
X042166Y019378D01*
X042008Y019537D02*
X044785Y019537D01*
X044785Y019695D02*
X042008Y019695D01*
X042008Y019854D02*
X044785Y019854D01*
X044785Y020012D02*
X042008Y020012D01*
X042008Y020171D02*
X044785Y020171D01*
X044785Y020329D02*
X042008Y020329D01*
X042008Y020488D02*
X044785Y020488D01*
X044785Y020646D02*
X042008Y020646D01*
X042008Y020805D02*
X044785Y020805D01*
X044785Y020963D02*
X042008Y020963D01*
X042008Y021122D02*
X044785Y021122D01*
X044785Y021280D02*
X042008Y021280D01*
X042008Y021439D02*
X044785Y021439D01*
X044785Y021597D02*
X042008Y021597D01*
X042008Y021756D02*
X044785Y021756D01*
X044785Y021914D02*
X042008Y021914D01*
X042008Y022073D02*
X044785Y022073D01*
X044785Y022231D02*
X042008Y022231D01*
X042008Y022390D02*
X044785Y022390D01*
X044785Y022548D02*
X042008Y022548D01*
X042008Y022707D02*
X044785Y022707D01*
X044785Y022865D02*
X042008Y022865D01*
X042008Y023024D02*
X044785Y023024D01*
X044785Y023182D02*
X042008Y023182D01*
X042008Y023341D02*
X044785Y023341D01*
X044785Y023499D02*
X042008Y023499D01*
X042008Y023658D02*
X044785Y023658D01*
X044785Y023816D02*
X042008Y023816D01*
X042008Y023975D02*
X044785Y023975D01*
X044785Y024133D02*
X042008Y024133D01*
X042008Y024292D02*
X044785Y024292D01*
X044785Y024450D02*
X042008Y024450D01*
X042008Y024609D02*
X044785Y024609D01*
X044785Y024767D02*
X042008Y024767D01*
X042068Y024926D02*
X044785Y024926D01*
X044785Y025084D02*
X042103Y025084D01*
X042046Y025243D02*
X044785Y025243D01*
X044785Y025401D02*
X036984Y025401D01*
X036984Y025560D02*
X044785Y025560D01*
X044785Y025718D02*
X036984Y025718D01*
X036984Y025877D02*
X044785Y025877D01*
X044714Y026035D02*
X037931Y026035D01*
X037630Y026345D02*
X035590Y026345D01*
X035255Y026680D01*
X034881Y026306D01*
X033130Y026306D01*
X032294Y026306D01*
X032255Y026345D01*
X032255Y026305D01*
X031630Y026305D01*
X031368Y026194D02*
X031285Y026194D01*
X031345Y026352D02*
X031220Y026352D01*
X031220Y026511D02*
X031432Y026511D01*
X031220Y026669D02*
X031933Y026669D01*
X031878Y026828D02*
X031220Y026828D01*
X031220Y026986D02*
X031878Y026986D01*
X031878Y027145D02*
X031220Y027145D01*
X031220Y027303D02*
X031892Y027303D01*
X032237Y027303D02*
X032273Y027303D01*
X032273Y027411D02*
X032273Y027033D01*
X032632Y027033D01*
X032632Y027255D01*
X032620Y027301D01*
X032596Y027342D01*
X032562Y027375D01*
X032521Y027399D01*
X032476Y027411D01*
X032273Y027411D01*
X032273Y027145D02*
X032237Y027145D01*
X032632Y027145D02*
X032655Y027145D01*
X032655Y027102D02*
X033082Y027102D01*
X033082Y027490D01*
X032811Y027490D01*
X032765Y027478D01*
X032724Y027454D01*
X032691Y027420D01*
X032667Y027379D01*
X032655Y027334D01*
X032655Y027102D01*
X032655Y026986D02*
X032632Y026986D01*
X032632Y026828D02*
X032655Y026828D01*
X032709Y026669D02*
X032577Y026669D01*
X032556Y026035D02*
X032695Y026035D01*
X031954Y026035D02*
X031723Y026035D01*
X031537Y026035D02*
X031444Y026035D01*
X031602Y025877D02*
X033776Y025877D01*
X033776Y025718D02*
X031761Y025718D01*
X031919Y025560D02*
X033776Y025560D01*
X033776Y025401D02*
X032078Y025401D01*
X032236Y025243D02*
X033765Y025243D01*
X033765Y025084D02*
X032395Y025084D01*
X032553Y024926D02*
X033686Y024926D01*
X033673Y024767D02*
X032712Y024767D01*
X032870Y024609D02*
X033773Y024609D01*
X033720Y024450D02*
X033029Y024450D01*
X033187Y024292D02*
X033754Y024292D01*
X033805Y024133D02*
X033346Y024133D01*
X033504Y023975D02*
X033720Y023975D01*
X033744Y023816D02*
X033508Y023816D01*
X033508Y023658D02*
X033829Y023658D01*
X033725Y023499D02*
X033508Y023499D01*
X033508Y023341D02*
X033734Y023341D01*
X033859Y023182D02*
X033508Y023182D01*
X033508Y023024D02*
X033735Y023024D01*
X033723Y022865D02*
X033508Y022865D01*
X033508Y022707D02*
X033825Y022707D01*
X033745Y022548D02*
X033508Y022548D01*
X033508Y022390D02*
X033720Y022390D01*
X033801Y022231D02*
X033508Y022231D01*
X033508Y022073D02*
X033756Y022073D01*
X033720Y021914D02*
X033508Y021914D01*
X033508Y021756D02*
X033602Y021756D01*
X033520Y021597D02*
X033508Y021597D01*
X033508Y021439D02*
X033545Y021439D01*
X033559Y021280D02*
X033508Y021280D01*
X033508Y021122D02*
X033520Y021122D01*
X033508Y020963D02*
X033569Y020963D01*
X033615Y020805D02*
X033508Y020805D01*
X033508Y020646D02*
X033615Y020646D01*
X033615Y020488D02*
X033508Y020488D01*
X033508Y020329D02*
X033615Y020329D01*
X033615Y020171D02*
X033508Y020171D01*
X033508Y020012D02*
X033615Y020012D01*
X033615Y019854D02*
X033508Y019854D01*
X033508Y019695D02*
X033615Y019695D01*
X033615Y019537D02*
X033508Y019537D01*
X032240Y020043D02*
X032240Y021362D01*
X032191Y021313D01*
X032087Y021270D01*
X031973Y021270D01*
X031869Y021313D01*
X031817Y021365D01*
X031253Y021365D01*
X031265Y021337D01*
X031265Y021223D01*
X031222Y021119D01*
X031141Y021038D01*
X031037Y020995D01*
X030964Y020995D01*
X030948Y020979D01*
X030948Y020590D01*
X030993Y020590D01*
X031041Y020541D01*
X031090Y020590D01*
X031135Y020590D01*
X031135Y020703D01*
X031220Y020789D01*
X031220Y020862D01*
X031263Y020966D01*
X031344Y021047D01*
X031448Y021090D01*
X031562Y021090D01*
X031666Y021047D01*
X031747Y020966D01*
X031790Y020862D01*
X031790Y020748D01*
X031747Y020644D01*
X031693Y020590D01*
X032127Y020590D01*
X032209Y020508D01*
X032209Y020012D01*
X032209Y020012D01*
X032240Y020043D01*
X032240Y020171D02*
X032209Y020171D01*
X032209Y020329D02*
X032240Y020329D01*
X032240Y020488D02*
X032209Y020488D01*
X032240Y020646D02*
X031748Y020646D01*
X031790Y020805D02*
X032240Y020805D01*
X032240Y020963D02*
X031748Y020963D01*
X031949Y021280D02*
X031265Y021280D01*
X031223Y021122D02*
X032240Y021122D01*
X032240Y021280D02*
X032111Y021280D01*
X032240Y021748D02*
X032191Y021797D01*
X032087Y021840D01*
X031973Y021840D01*
X031869Y021797D01*
X031817Y021745D01*
X024259Y021745D01*
X024277Y021787D01*
X024277Y021900D01*
X024260Y021940D01*
X024552Y021940D01*
X024577Y021880D01*
X024657Y021800D01*
X024762Y021757D01*
X024875Y021757D01*
X024980Y021800D01*
X025060Y021880D01*
X025103Y021985D01*
X025103Y022088D01*
X025120Y022071D01*
X025120Y021998D01*
X025163Y021894D01*
X025244Y021813D01*
X025348Y021770D01*
X025462Y021770D01*
X025566Y021813D01*
X025593Y021839D01*
X025619Y021813D01*
X025723Y021770D01*
X025837Y021770D01*
X025941Y021813D01*
X025968Y021839D01*
X025994Y021813D01*
X026098Y021770D01*
X026212Y021770D01*
X026316Y021813D01*
X026397Y021894D01*
X026440Y021998D01*
X026440Y022112D01*
X026397Y022216D01*
X026316Y022297D01*
X026300Y022303D01*
X025820Y022784D01*
X025709Y022895D01*
X023451Y022895D01*
X023251Y022695D01*
X020903Y022695D01*
X020915Y022723D01*
X020915Y022796D01*
X021234Y023115D01*
X028684Y023115D01*
X029114Y023545D01*
X029187Y023545D01*
X029291Y023588D01*
X029372Y023669D01*
X029415Y023773D01*
X029415Y023887D01*
X029372Y023991D01*
X029291Y024072D01*
X029187Y024115D01*
X029073Y024115D01*
X028969Y024072D01*
X028888Y023991D01*
X028845Y023887D01*
X028845Y023814D01*
X028526Y023495D01*
X021076Y023495D01*
X020965Y023384D01*
X020646Y023065D01*
X020573Y023065D01*
X020469Y023022D01*
X020388Y022941D01*
X020370Y022897D01*
X020370Y026551D01*
X021770Y027951D01*
X022270Y028451D01*
X022320Y028501D01*
X022920Y029101D01*
X022920Y029451D01*
X023234Y029765D01*
X023417Y029765D01*
X023469Y029713D01*
X023573Y029670D01*
X023687Y029670D01*
X023791Y029713D01*
X023813Y029735D01*
X023996Y029735D01*
X024846Y030585D01*
X024975Y030714D01*
X024975Y030896D01*
X025005Y030896D01*
X025117Y030896D01*
X025163Y030908D01*
X025204Y030932D01*
X025208Y030936D01*
X025535Y030936D01*
X025535Y030396D01*
X025460Y030321D01*
X025089Y029950D01*
X025089Y029950D01*
X024960Y029821D01*
X024960Y028021D01*
X023793Y026854D01*
X023767Y026865D01*
X023593Y026865D01*
X023433Y026799D01*
X023311Y026677D01*
X023245Y026517D01*
X023245Y026343D01*
X023311Y026183D01*
X023344Y026150D01*
X023271Y026150D01*
X023100Y026321D01*
X023100Y027089D01*
X023221Y027210D01*
X023300Y027210D01*
X023311Y027183D01*
X023433Y027061D01*
X023593Y026995D01*
X023767Y026995D01*
X023927Y027061D01*
X024049Y027183D01*
X024115Y027343D01*
X024115Y027517D01*
X024049Y027677D01*
X023927Y027799D01*
X023767Y027865D01*
X023593Y027865D01*
X023433Y027799D01*
X023311Y027677D01*
X023300Y027650D01*
X023039Y027650D01*
X022850Y027461D01*
X022850Y028089D01*
X022971Y028210D01*
X023300Y028210D01*
X023311Y028183D01*
X023433Y028061D01*
X023593Y027995D01*
X023767Y027995D01*
X023927Y028061D01*
X024049Y028183D01*
X024115Y028343D01*
X024115Y028517D01*
X024049Y028677D01*
X023927Y028799D01*
X023767Y028865D01*
X023593Y028865D01*
X023433Y028799D01*
X023311Y028677D01*
X023300Y028650D01*
X022789Y028650D01*
X022660Y028521D01*
X022410Y028271D01*
X022410Y024339D01*
X022539Y024210D01*
X023039Y023710D01*
X027721Y023710D01*
X027850Y023839D01*
X027850Y028622D01*
X027872Y028644D01*
X027915Y028748D01*
X027915Y028862D01*
X027872Y028966D01*
X027791Y029047D01*
X027687Y029090D01*
X027573Y029090D01*
X027469Y029047D01*
X027388Y028966D01*
X027350Y028874D01*
X027350Y028896D01*
X027221Y029025D01*
X026915Y029331D01*
X026915Y029362D01*
X026872Y029466D01*
X026791Y029547D01*
X026687Y029590D01*
X026573Y029590D01*
X026469Y029547D01*
X026388Y029466D01*
X026345Y029362D01*
X026345Y029248D01*
X026388Y029144D01*
X026469Y029063D01*
X026573Y029020D01*
X026604Y029020D01*
X026759Y028865D01*
X026593Y028865D01*
X026433Y028799D01*
X026311Y028677D01*
X026245Y028517D01*
X026245Y028343D01*
X026311Y028183D01*
X026433Y028061D01*
X026593Y027995D01*
X026767Y027995D01*
X026910Y028054D01*
X026910Y027806D01*
X026767Y027865D01*
X026593Y027865D01*
X026433Y027799D01*
X026311Y027677D01*
X026245Y027517D01*
X026245Y027343D01*
X026311Y027183D01*
X026433Y027061D01*
X026593Y026995D01*
X026767Y026995D01*
X026910Y027054D01*
X026910Y026806D01*
X026767Y026865D01*
X026593Y026865D01*
X026567Y026854D01*
X025400Y028021D01*
X025400Y029639D01*
X025771Y030010D01*
X025846Y030085D01*
X025901Y030140D01*
X030051Y030140D01*
X030240Y029951D01*
X030240Y025951D01*
X030351Y025840D01*
X032240Y023951D01*
X032240Y021748D01*
X032240Y021756D02*
X032233Y021756D01*
X032240Y021914D02*
X026405Y021914D01*
X026440Y022073D02*
X032240Y022073D01*
X032240Y022231D02*
X026382Y022231D01*
X026214Y022390D02*
X032240Y022390D01*
X032240Y022548D02*
X026056Y022548D01*
X025897Y022707D02*
X032240Y022707D01*
X032240Y022865D02*
X025739Y022865D01*
X025119Y022073D02*
X025103Y022073D01*
X025074Y021914D02*
X025155Y021914D01*
X024563Y021914D02*
X024271Y021914D01*
X024264Y021756D02*
X031827Y021756D01*
X031262Y020963D02*
X030948Y020963D01*
X030948Y020805D02*
X031220Y020805D01*
X031135Y020646D02*
X030948Y020646D01*
X030568Y020646D02*
X030381Y020646D01*
X030381Y020590D02*
X030381Y021162D01*
X030584Y021365D01*
X030707Y021365D01*
X030695Y021337D01*
X030695Y021264D01*
X030568Y021136D01*
X030568Y020979D01*
X030568Y020590D01*
X030523Y020590D01*
X030474Y020541D01*
X030426Y020590D01*
X030381Y020590D01*
X030381Y020805D02*
X030568Y020805D01*
X030568Y020963D02*
X030381Y020963D01*
X030381Y021122D02*
X030568Y021122D01*
X030499Y021280D02*
X030695Y021280D01*
X030046Y021365D02*
X030001Y021320D01*
X030001Y020590D01*
X029956Y020590D01*
X029907Y020541D01*
X029859Y020590D01*
X029389Y020590D01*
X029383Y020584D01*
X029377Y020590D01*
X029043Y020590D01*
X029097Y020644D01*
X029140Y020748D01*
X029140Y020862D01*
X029097Y020966D01*
X029016Y021047D01*
X028912Y021090D01*
X028798Y021090D01*
X028694Y021047D01*
X028613Y020966D01*
X028570Y020862D01*
X028570Y020789D01*
X028385Y020603D01*
X028385Y020590D01*
X028340Y020590D01*
X028291Y020541D01*
X028243Y020590D01*
X028198Y020590D01*
X028198Y020900D01*
X028291Y020938D01*
X028372Y021019D01*
X028415Y021123D01*
X028415Y021237D01*
X028372Y021341D01*
X028348Y021365D01*
X030046Y021365D01*
X030001Y021280D02*
X028397Y021280D01*
X028414Y021122D02*
X030001Y021122D01*
X030001Y020963D02*
X029098Y020963D01*
X029140Y020805D02*
X030001Y020805D01*
X030001Y020646D02*
X029098Y020646D01*
X028570Y020805D02*
X028198Y020805D01*
X028198Y020646D02*
X028427Y020646D01*
X028316Y020963D02*
X028612Y020963D01*
X027251Y020963D02*
X026345Y020963D01*
X026345Y020967D02*
X026397Y021019D01*
X026440Y021123D01*
X026440Y021237D01*
X026397Y021341D01*
X026373Y021365D01*
X027296Y021365D01*
X027251Y021320D01*
X027251Y020590D01*
X027206Y020590D01*
X027157Y020541D01*
X027109Y020590D01*
X026639Y020590D01*
X026557Y020508D01*
X026557Y019289D01*
X026639Y019207D01*
X026684Y019207D01*
X026684Y018982D01*
X026796Y018870D01*
X026373Y018870D01*
X026397Y018894D01*
X026440Y018998D01*
X026440Y019112D01*
X026397Y019216D01*
X026345Y019268D01*
X026345Y020967D01*
X026345Y020805D02*
X027251Y020805D01*
X027251Y020646D02*
X026345Y020646D01*
X026345Y020488D02*
X026557Y020488D01*
X026557Y020329D02*
X026345Y020329D01*
X026345Y020171D02*
X026557Y020171D01*
X026557Y020012D02*
X026345Y020012D01*
X026345Y019854D02*
X026557Y019854D01*
X026557Y019695D02*
X026345Y019695D01*
X026345Y019537D02*
X026557Y019537D01*
X026557Y019378D02*
X026345Y019378D01*
X026394Y019220D02*
X026627Y019220D01*
X026684Y019061D02*
X026440Y019061D01*
X026400Y018903D02*
X026764Y018903D01*
X027064Y019140D02*
X027334Y018870D01*
X027742Y018870D01*
X027720Y018923D01*
X027720Y019037D01*
X027763Y019141D01*
X027818Y019196D01*
X027818Y019207D01*
X027773Y019207D01*
X027724Y019256D01*
X027676Y019207D01*
X027206Y019207D01*
X027157Y019256D01*
X027109Y019207D01*
X027064Y019207D01*
X027064Y019140D01*
X027121Y019220D02*
X027193Y019220D01*
X027143Y019061D02*
X027730Y019061D01*
X027729Y018903D02*
X027301Y018903D01*
X027688Y019220D02*
X027760Y019220D01*
X027251Y021122D02*
X026439Y021122D01*
X026422Y021280D02*
X027251Y021280D01*
X028751Y023182D02*
X032240Y023182D01*
X032240Y023024D02*
X021142Y023024D01*
X020984Y022865D02*
X023421Y022865D01*
X023263Y022707D02*
X020908Y022707D01*
X020763Y023182D02*
X020370Y023182D01*
X020370Y023024D02*
X020473Y023024D01*
X020370Y023341D02*
X020922Y023341D01*
X020370Y023499D02*
X028530Y023499D01*
X028689Y023658D02*
X020370Y023658D01*
X020370Y023816D02*
X022933Y023816D01*
X022774Y023975D02*
X020370Y023975D01*
X020370Y024133D02*
X022616Y024133D01*
X022457Y024292D02*
X020370Y024292D01*
X020370Y024450D02*
X022410Y024450D01*
X022410Y024609D02*
X020370Y024609D01*
X020370Y024767D02*
X022410Y024767D01*
X022410Y024926D02*
X020370Y024926D01*
X020370Y025084D02*
X022410Y025084D01*
X022410Y025243D02*
X020370Y025243D01*
X020370Y025401D02*
X022410Y025401D01*
X022410Y025560D02*
X020370Y025560D01*
X020370Y025718D02*
X022410Y025718D01*
X022410Y025877D02*
X020370Y025877D01*
X020370Y026035D02*
X022410Y026035D01*
X022410Y026194D02*
X020370Y026194D01*
X020370Y026352D02*
X022410Y026352D01*
X022410Y026511D02*
X020370Y026511D01*
X020488Y026669D02*
X022410Y026669D01*
X022410Y026828D02*
X020646Y026828D01*
X020805Y026986D02*
X022410Y026986D01*
X022410Y027145D02*
X020963Y027145D01*
X021122Y027303D02*
X022410Y027303D01*
X022410Y027462D02*
X021280Y027462D01*
X021439Y027620D02*
X022410Y027620D01*
X022410Y027779D02*
X021597Y027779D01*
X021756Y027937D02*
X022410Y027937D01*
X022410Y028096D02*
X021914Y028096D01*
X022073Y028254D02*
X022410Y028254D01*
X022551Y028413D02*
X022231Y028413D01*
X022390Y028571D02*
X022710Y028571D01*
X022880Y028430D02*
X022630Y028180D01*
X022630Y024430D01*
X023130Y023930D01*
X027630Y023930D01*
X027630Y024555D01*
X027630Y028805D01*
X027410Y028622D02*
X027410Y024150D01*
X027016Y024150D01*
X027049Y024183D01*
X027115Y024343D01*
X027115Y024517D01*
X027049Y024677D01*
X026927Y024799D01*
X026767Y024865D01*
X026593Y024865D01*
X026433Y024799D01*
X026311Y024677D01*
X026245Y024517D01*
X026245Y024343D01*
X026311Y024183D01*
X026344Y024150D01*
X024016Y024150D01*
X024049Y024183D01*
X024115Y024343D01*
X024115Y024517D01*
X024049Y024677D01*
X023927Y024799D01*
X023767Y024865D01*
X023593Y024865D01*
X023433Y024799D01*
X023311Y024677D01*
X023245Y024517D01*
X023245Y024343D01*
X023311Y024183D01*
X023344Y024150D01*
X023221Y024150D01*
X022850Y024521D01*
X022850Y025949D01*
X023089Y025710D01*
X023344Y025710D01*
X023311Y025677D01*
X023245Y025517D01*
X023245Y025343D01*
X023311Y025183D01*
X023433Y025061D01*
X023593Y024995D01*
X023767Y024995D01*
X023927Y025061D01*
X024049Y025183D01*
X024115Y025343D01*
X024115Y025517D01*
X024049Y025677D01*
X024016Y025710D01*
X026344Y025710D01*
X026311Y025677D01*
X026245Y025517D01*
X026245Y025343D01*
X026311Y025183D01*
X026433Y025061D01*
X026593Y024995D01*
X026767Y024995D01*
X026927Y025061D01*
X027049Y025183D01*
X027115Y025343D01*
X027115Y025517D01*
X027049Y025677D01*
X026993Y025732D01*
X027100Y025839D01*
X027350Y026089D01*
X027350Y028736D01*
X027388Y028644D01*
X027410Y028622D01*
X027410Y028571D02*
X027350Y028571D01*
X027350Y028413D02*
X027410Y028413D01*
X027410Y028254D02*
X027350Y028254D01*
X027350Y028096D02*
X027410Y028096D01*
X027410Y027937D02*
X027350Y027937D01*
X027350Y027779D02*
X027410Y027779D01*
X027410Y027620D02*
X027350Y027620D01*
X027350Y027462D02*
X027410Y027462D01*
X027410Y027303D02*
X027350Y027303D01*
X027350Y027145D02*
X027410Y027145D01*
X027410Y026986D02*
X027350Y026986D01*
X027350Y026828D02*
X027410Y026828D01*
X027410Y026669D02*
X027350Y026669D01*
X027350Y026511D02*
X027410Y026511D01*
X027410Y026352D02*
X027350Y026352D01*
X027350Y026194D02*
X027410Y026194D01*
X027410Y026035D02*
X027296Y026035D01*
X027410Y025877D02*
X027138Y025877D01*
X027008Y025718D02*
X027410Y025718D01*
X027410Y025560D02*
X027097Y025560D01*
X027115Y025401D02*
X027410Y025401D01*
X027410Y025243D02*
X027073Y025243D01*
X026950Y025084D02*
X027410Y025084D01*
X027410Y024926D02*
X022850Y024926D01*
X022850Y025084D02*
X023410Y025084D01*
X023287Y025243D02*
X022850Y025243D01*
X022850Y025401D02*
X023245Y025401D01*
X023263Y025560D02*
X022850Y025560D01*
X022850Y025718D02*
X023081Y025718D01*
X022922Y025877D02*
X022850Y025877D01*
X023180Y025930D02*
X022880Y026230D01*
X022880Y026805D01*
X022880Y027180D01*
X023130Y027430D01*
X023680Y027430D01*
X024072Y027620D02*
X024559Y027620D01*
X024717Y027779D02*
X023947Y027779D01*
X023961Y028096D02*
X024960Y028096D01*
X024960Y028254D02*
X024078Y028254D01*
X024115Y028413D02*
X024960Y028413D01*
X024960Y028571D02*
X024093Y028571D01*
X023996Y028730D02*
X024960Y028730D01*
X024960Y028888D02*
X022707Y028888D01*
X022865Y029047D02*
X024960Y029047D01*
X024960Y029205D02*
X022920Y029205D01*
X022920Y029364D02*
X024960Y029364D01*
X024960Y029522D02*
X022991Y029522D01*
X023149Y029681D02*
X023548Y029681D01*
X023712Y029681D02*
X024960Y029681D01*
X024978Y029839D02*
X024100Y029839D01*
X024259Y029998D02*
X025136Y029998D01*
X025295Y030156D02*
X024417Y030156D01*
X024576Y030315D02*
X025453Y030315D01*
X025535Y030473D02*
X024734Y030473D01*
X024893Y030632D02*
X025535Y030632D01*
X025535Y030790D02*
X024975Y030790D01*
X025005Y030896D02*
X025005Y031371D01*
X025005Y031846D01*
X024893Y031846D01*
X024847Y031834D01*
X024806Y031810D01*
X024802Y031806D01*
X024475Y031806D01*
X024475Y031896D01*
X024161Y032210D01*
X025349Y032210D01*
X025035Y031896D01*
X025035Y031846D01*
X025005Y031846D01*
X025005Y031371D01*
X025005Y031371D01*
X025005Y031371D01*
X024984Y031371D01*
X024984Y031371D01*
X025005Y031371D01*
X025026Y031371D01*
X025026Y031371D01*
X025005Y031371D01*
X025005Y031371D01*
X025005Y030896D01*
X025005Y030949D02*
X025005Y030949D01*
X025005Y031107D02*
X025005Y031107D01*
X025005Y031266D02*
X025005Y031266D01*
X025005Y031371D02*
X025005Y031371D01*
X025005Y031424D02*
X025005Y031424D01*
X025005Y031583D02*
X025005Y031583D01*
X025005Y031741D02*
X025005Y031741D01*
X025038Y031900D02*
X024472Y031900D01*
X024313Y032058D02*
X025197Y032058D01*
X025255Y031805D02*
X025630Y032180D01*
X026005Y032180D01*
X026505Y032680D01*
X027005Y032680D01*
X027130Y032680D01*
X027380Y032305D02*
X026505Y032305D01*
X026130Y031930D01*
X025730Y031930D01*
X025505Y031705D01*
X025505Y031371D01*
X025255Y031371D02*
X025255Y031805D01*
X024755Y031371D02*
X024755Y030805D01*
X023905Y029955D01*
X023630Y029955D01*
X023905Y030330D02*
X023305Y030330D01*
X023905Y030330D02*
X024505Y030930D01*
X024505Y031371D01*
X024255Y031371D02*
X024255Y031805D01*
X023755Y032305D01*
X023180Y032305D01*
X019380Y036105D01*
X019380Y038680D01*
X018255Y039805D01*
X017970Y039825D02*
X017672Y039825D01*
X017605Y039983D02*
X018030Y039983D01*
X018004Y039666D02*
X017830Y039666D01*
X017989Y039508D02*
X018241Y039508D01*
X018147Y039349D02*
X018400Y039349D01*
X018306Y039191D02*
X018558Y039191D01*
X018464Y039032D02*
X018717Y039032D01*
X018623Y038874D02*
X018875Y038874D01*
X018781Y038715D02*
X019034Y038715D01*
X018940Y038557D02*
X019160Y038557D01*
X019160Y038398D02*
X019098Y038398D01*
X019130Y038055D02*
X017380Y039805D01*
X016850Y040300D02*
X018199Y040300D01*
X018040Y040459D02*
X016850Y040459D01*
X016850Y040617D02*
X017882Y040617D01*
X017723Y040776D02*
X016850Y040776D01*
X016850Y040934D02*
X017479Y040934D01*
X017909Y041251D02*
X019601Y041251D01*
X019608Y041093D02*
X018029Y041093D01*
X018187Y040934D02*
X019660Y040934D01*
X019660Y040776D02*
X018346Y040776D01*
X018504Y040617D02*
X019660Y040617D01*
X019660Y040459D02*
X018663Y040459D01*
X018821Y040300D02*
X019660Y040300D01*
X019660Y040142D02*
X018980Y040142D01*
X019138Y039983D02*
X019660Y039983D01*
X019660Y039825D02*
X019297Y039825D01*
X019455Y039666D02*
X019660Y039666D01*
X019660Y039508D02*
X019614Y039508D01*
X019630Y039180D02*
X019630Y036230D01*
X023305Y032555D01*
X023880Y032555D01*
X024005Y032430D01*
X025705Y032430D01*
X026080Y032805D01*
X026080Y032930D01*
X026080Y033055D01*
X026055Y033080D01*
X026005Y033130D01*
X026005Y033205D01*
X026005Y033489D01*
X025755Y033489D02*
X025755Y033005D01*
X025730Y032980D01*
X025730Y032955D01*
X025455Y032680D01*
X024130Y032680D01*
X024005Y032805D01*
X023430Y032805D01*
X019880Y036355D01*
X019880Y041180D01*
X020152Y041093D02*
X022481Y041093D01*
X022640Y041251D02*
X020159Y041251D01*
X020053Y041410D02*
X024957Y041410D01*
X024886Y042025D02*
X024016Y042025D01*
X023750Y042291D01*
X023750Y043396D01*
X023621Y043525D01*
X023056Y044090D01*
X023206Y044090D01*
X023345Y044148D01*
X023452Y044255D01*
X023510Y044394D01*
X023510Y045026D01*
X023452Y045165D01*
X023357Y045260D01*
X023903Y045260D01*
X023808Y045165D01*
X023750Y045026D01*
X023750Y044394D01*
X023808Y044255D01*
X023915Y044148D01*
X024054Y044090D01*
X024206Y044090D01*
X024345Y044148D01*
X024452Y044255D01*
X024510Y044394D01*
X024510Y045026D01*
X024452Y045165D01*
X024357Y045260D01*
X024903Y045260D01*
X024808Y045165D01*
X024750Y045026D01*
X024750Y044394D01*
X024808Y044255D01*
X024910Y044153D01*
X024910Y042363D01*
X024888Y042341D01*
X024845Y042237D01*
X024845Y042123D01*
X024886Y042025D01*
X024878Y042044D02*
X023998Y042044D01*
X023839Y042202D02*
X024845Y042202D01*
X024908Y042361D02*
X023750Y042361D01*
X023750Y042519D02*
X024910Y042519D01*
X024910Y042678D02*
X023750Y042678D01*
X023750Y042836D02*
X024910Y042836D01*
X024910Y042995D02*
X023750Y042995D01*
X023750Y043153D02*
X024910Y043153D01*
X024910Y043312D02*
X023750Y043312D01*
X023676Y043470D02*
X024910Y043470D01*
X024910Y043629D02*
X023518Y043629D01*
X023359Y043787D02*
X024910Y043787D01*
X024910Y043946D02*
X023201Y043946D01*
X023240Y044104D02*
X024020Y044104D01*
X024240Y044104D02*
X024910Y044104D01*
X024805Y044263D02*
X024455Y044263D01*
X024510Y044421D02*
X024750Y044421D01*
X024750Y044580D02*
X024510Y044580D01*
X024510Y044738D02*
X024750Y044738D01*
X024750Y044897D02*
X024510Y044897D01*
X024498Y045055D02*
X024762Y045055D01*
X024856Y045214D02*
X024404Y045214D01*
X023856Y045214D02*
X023404Y045214D01*
X023498Y045055D02*
X023762Y045055D01*
X023750Y044897D02*
X023510Y044897D01*
X023510Y044738D02*
X023750Y044738D01*
X023750Y044580D02*
X023510Y044580D01*
X023510Y044421D02*
X023750Y044421D01*
X023805Y044263D02*
X023455Y044263D01*
X022895Y043629D02*
X020390Y043629D01*
X020548Y043787D02*
X022737Y043787D01*
X022578Y043946D02*
X020707Y043946D01*
X020865Y044104D02*
X021020Y044104D01*
X021054Y044090D02*
X021206Y044090D01*
X021345Y044148D01*
X021452Y044255D01*
X021510Y044394D01*
X021510Y044749D01*
X021750Y044989D01*
X021750Y044394D01*
X021808Y044255D01*
X021915Y044148D01*
X022054Y044090D01*
X022206Y044090D01*
X022345Y044148D01*
X022361Y044163D01*
X023310Y043214D01*
X023310Y042273D01*
X023062Y042025D01*
X020124Y042025D01*
X020165Y042123D01*
X020165Y042237D01*
X020122Y042341D01*
X020100Y042363D01*
X020100Y043339D01*
X020912Y044151D01*
X020915Y044148D01*
X021054Y044090D01*
X021240Y044104D02*
X022020Y044104D01*
X022240Y044104D02*
X022420Y044104D01*
X021805Y044263D02*
X021455Y044263D01*
X021510Y044421D02*
X021750Y044421D01*
X021750Y044580D02*
X021510Y044580D01*
X021510Y044738D02*
X021750Y044738D01*
X021750Y044897D02*
X021658Y044897D01*
X021511Y045372D02*
X013999Y045372D01*
X013841Y045531D02*
X021669Y045531D01*
X021828Y045689D02*
X013682Y045689D01*
X013580Y045480D02*
X010100Y045480D01*
X009330Y044710D01*
X009710Y044738D02*
X009950Y044738D01*
X009950Y044580D02*
X009710Y044580D01*
X009710Y044421D02*
X009950Y044421D01*
X010005Y044263D02*
X009655Y044263D01*
X009440Y044104D02*
X010220Y044104D01*
X010440Y044104D02*
X010625Y044104D01*
X010783Y043946D02*
X008406Y043946D01*
X008440Y044104D02*
X009220Y044104D01*
X009005Y044263D02*
X008655Y044263D01*
X008710Y044421D02*
X008950Y044421D01*
X008950Y044580D02*
X008710Y044580D01*
X008710Y044738D02*
X008950Y044738D01*
X008950Y044897D02*
X008710Y044897D01*
X008698Y045055D02*
X008962Y045055D01*
X009056Y045214D02*
X008604Y045214D01*
X008056Y045214D02*
X007604Y045214D01*
X007698Y045055D02*
X007962Y045055D01*
X007950Y044897D02*
X007710Y044897D01*
X007710Y044738D02*
X007950Y044738D01*
X007950Y044580D02*
X007772Y044580D01*
X007930Y044421D02*
X007950Y044421D01*
X007625Y044104D02*
X007440Y044104D01*
X007220Y044104D02*
X006440Y044104D01*
X006406Y044090D02*
X006545Y044148D01*
X006652Y044255D01*
X006710Y044394D01*
X006710Y045026D01*
X006652Y045165D01*
X006545Y045272D01*
X006406Y045330D01*
X006254Y045330D01*
X006115Y045272D01*
X006008Y045165D01*
X005950Y045026D01*
X005950Y044394D01*
X006008Y044255D01*
X006115Y044148D01*
X006254Y044090D01*
X006406Y044090D01*
X006220Y044104D02*
X003260Y044104D01*
X003260Y043946D02*
X007783Y043946D01*
X007942Y043787D02*
X003260Y043787D01*
X003260Y043629D02*
X008100Y043629D01*
X008259Y043470D02*
X003260Y043470D01*
X003260Y043312D02*
X008417Y043312D01*
X008576Y043153D02*
X003260Y043153D01*
X003260Y042995D02*
X008734Y042995D01*
X008893Y042836D02*
X003260Y042836D01*
X003260Y042678D02*
X009051Y042678D01*
X009210Y042519D02*
X003260Y042519D01*
X003260Y042361D02*
X009368Y042361D01*
X009527Y042202D02*
X003260Y042202D01*
X003260Y042044D02*
X009685Y042044D01*
X009844Y041885D02*
X003260Y041885D01*
X003260Y041727D02*
X010002Y041727D01*
X010235Y041805D02*
X007330Y044710D01*
X006950Y044738D02*
X006710Y044738D01*
X006710Y044580D02*
X006950Y044580D01*
X006950Y044421D02*
X006710Y044421D01*
X006655Y044263D02*
X007005Y044263D01*
X006950Y044897D02*
X006710Y044897D01*
X006698Y045055D02*
X006962Y045055D01*
X007056Y045214D02*
X006604Y045214D01*
X006056Y045214D02*
X003260Y045214D01*
X003260Y045372D02*
X009681Y045372D01*
X009839Y045531D02*
X003260Y045531D01*
X003260Y045689D02*
X009998Y045689D01*
X009950Y044897D02*
X009828Y044897D01*
X010330Y044710D02*
X012485Y042555D01*
X014630Y042555D01*
X015005Y042180D01*
X014753Y042044D02*
X010308Y042044D01*
X010149Y042202D02*
X014672Y042202D01*
X015230Y042830D02*
X013210Y042830D01*
X011330Y044710D01*
X012330Y044710D02*
X013360Y043680D01*
X016630Y043680D01*
X017230Y043680D01*
X019630Y043680D01*
X019880Y043430D01*
X021130Y044680D01*
X021930Y045480D01*
X026360Y045480D01*
X025856Y045214D02*
X025404Y045214D01*
X025498Y045055D02*
X025762Y045055D01*
X025750Y044897D02*
X025510Y044897D01*
X025510Y044738D02*
X025750Y044738D01*
X025750Y044580D02*
X025510Y044580D01*
X025510Y044421D02*
X025750Y044421D01*
X025805Y044263D02*
X025455Y044263D01*
X025350Y044104D02*
X025910Y044104D01*
X025910Y043946D02*
X025350Y043946D01*
X025350Y043787D02*
X025910Y043787D01*
X025910Y043629D02*
X025350Y043629D01*
X025350Y043470D02*
X025910Y043470D01*
X025910Y043312D02*
X025350Y043312D01*
X025130Y042180D02*
X025130Y044710D01*
X023530Y043305D02*
X023530Y042200D01*
X023539Y042191D01*
X023925Y041805D01*
X024005Y041805D01*
X026880Y041805D01*
X027111Y041885D02*
X027149Y041885D01*
X027454Y041568D02*
X034089Y041568D01*
X034148Y041410D02*
X029303Y041410D01*
X029409Y041251D02*
X033990Y041251D01*
X033831Y041093D02*
X029402Y041093D01*
X029281Y040934D02*
X033673Y040934D01*
X033805Y040755D02*
X030130Y037080D01*
X030105Y037055D01*
X029680Y036630D01*
X029552Y036813D02*
X027850Y036813D01*
X027850Y036972D02*
X029710Y036972D01*
X029869Y037130D02*
X027850Y037130D01*
X027850Y037289D02*
X030027Y037289D01*
X030186Y037447D02*
X027850Y037447D01*
X027850Y037606D02*
X030344Y037606D01*
X030503Y037764D02*
X027850Y037764D01*
X027850Y037923D02*
X030661Y037923D01*
X030820Y038081D02*
X027850Y038081D01*
X027850Y038240D02*
X030978Y038240D01*
X031137Y038398D02*
X027850Y038398D01*
X027850Y038557D02*
X031295Y038557D01*
X031454Y038715D02*
X027850Y038715D01*
X027850Y038874D02*
X031612Y038874D01*
X031771Y039032D02*
X027850Y039032D01*
X027850Y039191D02*
X031929Y039191D01*
X032088Y039349D02*
X027850Y039349D01*
X027850Y039508D02*
X032246Y039508D01*
X032405Y039666D02*
X027927Y039666D01*
X028086Y039825D02*
X032563Y039825D01*
X032722Y039983D02*
X028244Y039983D01*
X028403Y040142D02*
X032880Y040142D01*
X033039Y040300D02*
X028561Y040300D01*
X028720Y040459D02*
X033197Y040459D01*
X033356Y040617D02*
X028878Y040617D01*
X029037Y040776D02*
X033514Y040776D01*
X033805Y040755D02*
X033855Y040805D01*
X036530Y043480D01*
X038700Y043480D01*
X038605Y044263D02*
X038255Y044263D01*
X038310Y044421D02*
X038550Y044421D01*
X038550Y044580D02*
X038310Y044580D01*
X038310Y044738D02*
X038550Y044738D01*
X038550Y044897D02*
X038408Y044897D01*
X038261Y045372D02*
X037549Y045372D01*
X037391Y045531D02*
X038419Y045531D01*
X038578Y045689D02*
X037232Y045689D01*
X037310Y044897D02*
X037402Y044897D01*
X036209Y043470D02*
X035781Y043470D01*
X035623Y043312D02*
X036050Y043312D01*
X035892Y043153D02*
X035464Y043153D01*
X035306Y042995D02*
X035733Y042995D01*
X035575Y042836D02*
X035147Y042836D01*
X034989Y042678D02*
X035416Y042678D01*
X035258Y042519D02*
X034830Y042519D01*
X034672Y042361D02*
X035099Y042361D01*
X034941Y042202D02*
X034513Y042202D01*
X034475Y042044D02*
X034782Y042044D01*
X034624Y041885D02*
X034530Y041885D01*
X035012Y041251D02*
X037498Y041251D01*
X037656Y041093D02*
X034854Y041093D01*
X034695Y040934D02*
X037815Y040934D01*
X037973Y040776D02*
X034537Y040776D01*
X034378Y040617D02*
X038132Y040617D01*
X038290Y040459D02*
X034220Y040459D01*
X034061Y040300D02*
X038449Y040300D01*
X038607Y040142D02*
X033903Y040142D01*
X033744Y039983D02*
X038766Y039983D01*
X038924Y039825D02*
X033586Y039825D01*
X033427Y039666D02*
X039083Y039666D01*
X039241Y039508D02*
X033269Y039508D01*
X033110Y039349D02*
X039400Y039349D01*
X039558Y039191D02*
X032952Y039191D01*
X032793Y039032D02*
X039717Y039032D01*
X039875Y038874D02*
X032635Y038874D01*
X032476Y038715D02*
X040034Y038715D01*
X040192Y038557D02*
X032318Y038557D01*
X032159Y038398D02*
X040351Y038398D01*
X040509Y038240D02*
X032001Y038240D01*
X031842Y038081D02*
X040668Y038081D01*
X040826Y037923D02*
X031684Y037923D01*
X031525Y037764D02*
X040985Y037764D01*
X041143Y037606D02*
X031367Y037606D01*
X031208Y037447D02*
X041302Y037447D01*
X041460Y037289D02*
X031050Y037289D01*
X030891Y037130D02*
X041619Y037130D01*
X041710Y037039D02*
X041710Y036607D01*
X041608Y036505D01*
X041550Y036366D01*
X041550Y035734D01*
X041608Y035595D01*
X041715Y035488D01*
X041854Y035430D01*
X042006Y035430D01*
X042145Y035488D01*
X042252Y035595D01*
X042310Y035734D01*
X042310Y036366D01*
X042252Y036505D01*
X042150Y036607D01*
X042150Y037221D01*
X037540Y041831D01*
X037540Y041862D01*
X037497Y041966D01*
X037416Y042047D01*
X037312Y042090D01*
X037198Y042090D01*
X037094Y042047D01*
X037013Y041966D01*
X036970Y041862D01*
X036970Y041748D01*
X037013Y041644D01*
X037094Y041563D01*
X037198Y041520D01*
X037229Y041520D01*
X041710Y037039D01*
X041710Y036972D02*
X030733Y036972D01*
X030574Y036813D02*
X041710Y036813D01*
X041710Y036655D02*
X041043Y036655D01*
X041006Y036670D02*
X040854Y036670D01*
X040715Y036612D01*
X040608Y036505D01*
X040550Y036366D01*
X040550Y035961D01*
X040301Y035712D01*
X040310Y035734D01*
X040310Y036366D01*
X040252Y036505D01*
X040145Y036612D01*
X040006Y036670D01*
X039854Y036670D01*
X039715Y036612D01*
X039608Y036505D01*
X039550Y036366D01*
X039550Y035734D01*
X039608Y035595D01*
X039703Y035500D01*
X039157Y035500D01*
X039252Y035595D01*
X039310Y035734D01*
X039310Y036366D01*
X039252Y036505D01*
X039145Y036612D01*
X039006Y036670D01*
X038854Y036670D01*
X038715Y036612D01*
X038608Y036505D01*
X038550Y036366D01*
X038550Y035734D01*
X038608Y035595D01*
X038703Y035500D01*
X038157Y035500D01*
X038252Y035595D01*
X038310Y035734D01*
X038310Y036366D01*
X038252Y036505D01*
X038145Y036612D01*
X038006Y036670D01*
X037854Y036670D01*
X037715Y036612D01*
X037608Y036505D01*
X037550Y036366D01*
X037550Y035741D01*
X037310Y035981D01*
X037310Y036366D01*
X037252Y036505D01*
X037145Y036612D01*
X037006Y036670D01*
X036854Y036670D01*
X036715Y036612D01*
X036608Y036505D01*
X036550Y036366D01*
X036550Y035734D01*
X036608Y035595D01*
X036715Y035488D01*
X036854Y035430D01*
X037006Y035430D01*
X037145Y035488D01*
X037163Y035506D01*
X037609Y035060D01*
X040271Y035060D01*
X040400Y035189D01*
X040707Y035496D01*
X040715Y035488D01*
X040854Y035430D01*
X041006Y035430D01*
X041145Y035488D01*
X041252Y035595D01*
X041310Y035734D01*
X041310Y036366D01*
X041252Y036505D01*
X041145Y036612D01*
X041006Y036670D01*
X040817Y036655D02*
X040043Y036655D01*
X039817Y036655D02*
X039043Y036655D01*
X038817Y036655D02*
X038043Y036655D01*
X037817Y036655D02*
X037043Y036655D01*
X036817Y036655D02*
X036043Y036655D01*
X036006Y036670D02*
X035854Y036670D01*
X035715Y036612D01*
X035608Y036505D01*
X035550Y036366D01*
X035550Y035734D01*
X035608Y035595D01*
X035715Y035488D01*
X035854Y035430D01*
X036006Y035430D01*
X036145Y035488D01*
X036252Y035595D01*
X036310Y035734D01*
X036310Y036366D01*
X036252Y036505D01*
X036145Y036612D01*
X036006Y036670D01*
X035817Y036655D02*
X030416Y036655D01*
X030257Y036496D02*
X035604Y036496D01*
X035550Y036338D02*
X030225Y036338D01*
X030225Y036179D02*
X035550Y036179D01*
X035550Y036021D02*
X030225Y036021D01*
X030225Y035862D02*
X035550Y035862D01*
X035563Y035704D02*
X030225Y035704D01*
X030225Y035545D02*
X035658Y035545D01*
X036202Y035545D02*
X036658Y035545D01*
X036563Y035704D02*
X036297Y035704D01*
X036310Y035862D02*
X036550Y035862D01*
X036550Y036021D02*
X036310Y036021D01*
X036310Y036179D02*
X036550Y036179D01*
X036550Y036338D02*
X036310Y036338D01*
X036256Y036496D02*
X036604Y036496D01*
X036930Y036050D02*
X037700Y035280D01*
X040180Y035280D01*
X040930Y036030D01*
X040930Y036050D01*
X041310Y036021D02*
X041550Y036021D01*
X041550Y036179D02*
X041310Y036179D01*
X041310Y036338D02*
X041550Y036338D01*
X041604Y036496D02*
X041256Y036496D01*
X040604Y036496D02*
X040256Y036496D01*
X040310Y036338D02*
X040550Y036338D01*
X040550Y036179D02*
X040310Y036179D01*
X040310Y036021D02*
X040550Y036021D01*
X040451Y035862D02*
X040310Y035862D01*
X040598Y035387D02*
X047092Y035387D01*
X047092Y035545D02*
X044202Y035545D01*
X044252Y035595D02*
X044310Y035734D01*
X044310Y036366D01*
X044252Y036505D01*
X044145Y036612D01*
X044006Y036670D01*
X043854Y036670D01*
X043715Y036612D01*
X043608Y036505D01*
X043550Y036366D01*
X043550Y035734D01*
X043608Y035595D01*
X043715Y035488D01*
X043854Y035430D01*
X044006Y035430D01*
X044145Y035488D01*
X044252Y035595D01*
X044297Y035704D02*
X047092Y035704D01*
X047092Y035862D02*
X044310Y035862D01*
X044310Y036021D02*
X047092Y036021D01*
X047092Y036179D02*
X044310Y036179D01*
X044310Y036338D02*
X047092Y036338D01*
X047092Y036496D02*
X044256Y036496D01*
X044043Y036655D02*
X047092Y036655D01*
X047092Y036813D02*
X042150Y036813D01*
X042150Y036655D02*
X042817Y036655D01*
X042854Y036670D02*
X042715Y036612D01*
X042608Y036505D01*
X042550Y036366D01*
X042550Y035734D01*
X042608Y035595D01*
X042715Y035488D01*
X042854Y035430D01*
X043006Y035430D01*
X043145Y035488D01*
X043252Y035595D01*
X043310Y035734D01*
X043310Y036366D01*
X043252Y036505D01*
X043145Y036612D01*
X043006Y036670D01*
X042854Y036670D01*
X043043Y036655D02*
X043817Y036655D01*
X043604Y036496D02*
X043256Y036496D01*
X043310Y036338D02*
X043550Y036338D01*
X043550Y036179D02*
X043310Y036179D01*
X043310Y036021D02*
X043550Y036021D01*
X043550Y035862D02*
X043310Y035862D01*
X043297Y035704D02*
X043563Y035704D01*
X043658Y035545D02*
X043202Y035545D01*
X042658Y035545D02*
X042202Y035545D01*
X042297Y035704D02*
X042563Y035704D01*
X042550Y035862D02*
X042310Y035862D01*
X042310Y036021D02*
X042550Y036021D01*
X042550Y036179D02*
X042310Y036179D01*
X042310Y036338D02*
X042550Y036338D01*
X042604Y036496D02*
X042256Y036496D01*
X042150Y036972D02*
X047092Y036972D01*
X047092Y037130D02*
X042150Y037130D01*
X042083Y037289D02*
X047092Y037289D01*
X047092Y037447D02*
X041924Y037447D01*
X041766Y037606D02*
X047092Y037606D01*
X047092Y037764D02*
X041607Y037764D01*
X041449Y037923D02*
X047092Y037923D01*
X047092Y038081D02*
X041290Y038081D01*
X041132Y038240D02*
X047092Y038240D01*
X047092Y038398D02*
X040973Y038398D01*
X040815Y038557D02*
X047092Y038557D01*
X047092Y038715D02*
X040656Y038715D01*
X040498Y038874D02*
X047092Y038874D01*
X047092Y039032D02*
X040339Y039032D01*
X040181Y039191D02*
X047092Y039191D01*
X047092Y039349D02*
X040022Y039349D01*
X039864Y039508D02*
X047092Y039508D01*
X047092Y039666D02*
X039705Y039666D01*
X039547Y039825D02*
X047092Y039825D01*
X047092Y039983D02*
X039388Y039983D01*
X039230Y040142D02*
X047092Y040142D01*
X047092Y040300D02*
X039071Y040300D01*
X038913Y040459D02*
X047092Y040459D01*
X047092Y040617D02*
X038754Y040617D01*
X038596Y040776D02*
X047092Y040776D01*
X047092Y040934D02*
X038437Y040934D01*
X038279Y041093D02*
X047092Y041093D01*
X047092Y041251D02*
X038120Y041251D01*
X037962Y041410D02*
X047092Y041410D01*
X047092Y041568D02*
X037803Y041568D01*
X037645Y041727D02*
X047092Y041727D01*
X047092Y041885D02*
X037530Y041885D01*
X037419Y042044D02*
X047092Y042044D01*
X047092Y042202D02*
X035963Y042202D01*
X035805Y042044D02*
X037091Y042044D01*
X036980Y041885D02*
X035646Y041885D01*
X035488Y041727D02*
X036979Y041727D01*
X037089Y041568D02*
X035329Y041568D01*
X035171Y041410D02*
X037339Y041410D01*
X037255Y041805D02*
X041930Y037130D01*
X041930Y036050D01*
X041550Y035862D02*
X041310Y035862D01*
X041297Y035704D02*
X041563Y035704D01*
X041658Y035545D02*
X041202Y035545D01*
X040439Y035228D02*
X047092Y035228D01*
X047092Y035070D02*
X040281Y035070D01*
X039658Y035545D02*
X039202Y035545D01*
X039297Y035704D02*
X039563Y035704D01*
X039550Y035862D02*
X039310Y035862D01*
X039310Y036021D02*
X039550Y036021D01*
X039550Y036179D02*
X039310Y036179D01*
X039310Y036338D02*
X039550Y036338D01*
X039604Y036496D02*
X039256Y036496D01*
X038604Y036496D02*
X038256Y036496D01*
X038310Y036338D02*
X038550Y036338D01*
X038550Y036179D02*
X038310Y036179D01*
X038310Y036021D02*
X038550Y036021D01*
X038550Y035862D02*
X038310Y035862D01*
X038297Y035704D02*
X038563Y035704D01*
X038658Y035545D02*
X038202Y035545D01*
X037550Y035862D02*
X037429Y035862D01*
X037310Y036021D02*
X037550Y036021D01*
X037550Y036179D02*
X037310Y036179D01*
X037310Y036338D02*
X037550Y036338D01*
X037604Y036496D02*
X037256Y036496D01*
X037282Y035387D02*
X030198Y035387D01*
X030039Y035228D02*
X037441Y035228D01*
X037599Y035070D02*
X029881Y035070D01*
X029722Y034911D02*
X047092Y034911D01*
X047092Y034753D02*
X030194Y034753D01*
X030205Y034594D02*
X047092Y034594D01*
X047092Y034436D02*
X029778Y034436D01*
X029682Y034436D02*
X028707Y034436D01*
X028707Y034277D02*
X029255Y034277D01*
X029263Y034119D02*
X028699Y034119D01*
X028667Y033960D02*
X028876Y033960D01*
X029134Y033960D02*
X029295Y033960D01*
X029005Y033705D02*
X028990Y033720D01*
X028330Y033720D01*
X028990Y033720D01*
X029005Y033705D01*
X028822Y033485D02*
X028667Y033485D01*
X028330Y033720D02*
X027380Y033720D01*
X027023Y033643D02*
X026970Y033643D01*
X027023Y033485D02*
X026812Y033485D01*
X026280Y033955D02*
X027630Y035305D01*
X027630Y039680D01*
X029130Y041180D01*
X028206Y043946D02*
X034854Y043946D01*
X036630Y043180D02*
X030005Y036555D01*
X030005Y035505D01*
X029280Y034780D01*
X027855Y034780D01*
X027737Y034521D02*
X027798Y034495D01*
X027912Y034495D01*
X027953Y034512D01*
X027953Y034408D01*
X028312Y034408D01*
X028312Y034371D01*
X027953Y034371D01*
X027953Y034149D01*
X027965Y034104D01*
X027989Y034063D01*
X028023Y034029D01*
X028026Y034027D01*
X027993Y033995D01*
X027993Y033940D01*
X027737Y033940D01*
X027737Y033975D01*
X027657Y034055D01*
X027737Y034135D01*
X027737Y034521D01*
X027737Y034436D02*
X027953Y034436D01*
X027953Y034277D02*
X027737Y034277D01*
X027720Y034119D02*
X027961Y034119D01*
X027993Y033960D02*
X027737Y033960D01*
X027737Y033485D02*
X027993Y033485D01*
X027593Y032115D02*
X030026Y032115D01*
X030640Y031501D01*
X030640Y030339D01*
X030370Y030609D01*
X030259Y030720D01*
X026459Y030720D01*
X026243Y030936D01*
X026358Y030936D01*
X026652Y030936D01*
X026734Y031018D01*
X026734Y031724D01*
X026652Y031806D01*
X026317Y031806D01*
X026596Y032085D01*
X027197Y032085D01*
X027219Y032063D01*
X027323Y032020D01*
X027437Y032020D01*
X027541Y032063D01*
X027593Y032115D01*
X027529Y032058D02*
X030083Y032058D01*
X030242Y031900D02*
X026411Y031900D01*
X026569Y032058D02*
X027231Y032058D01*
X026717Y031741D02*
X030400Y031741D01*
X030559Y031583D02*
X026734Y031583D01*
X026734Y031424D02*
X030640Y031424D01*
X030640Y031266D02*
X026734Y031266D01*
X026734Y031107D02*
X030640Y031107D01*
X030640Y030949D02*
X026664Y030949D01*
X026389Y030790D02*
X030640Y030790D01*
X030640Y030632D02*
X030347Y030632D01*
X030506Y030473D02*
X030640Y030473D01*
X031220Y030473D02*
X036315Y030473D01*
X036315Y030315D02*
X031220Y030315D01*
X031220Y030156D02*
X036315Y030156D01*
X036315Y029998D02*
X031220Y029998D01*
X031220Y029839D02*
X036315Y029839D01*
X036315Y029681D02*
X031220Y029681D01*
X031220Y029522D02*
X036315Y029522D01*
X036315Y029364D02*
X031220Y029364D01*
X031220Y029205D02*
X036315Y029205D01*
X036315Y029047D02*
X031220Y029047D01*
X031220Y028888D02*
X036315Y028888D01*
X036315Y028730D02*
X031220Y028730D01*
X031220Y028571D02*
X034553Y028571D01*
X034757Y028571D02*
X036315Y028571D01*
X036315Y028413D02*
X034919Y028413D01*
X034940Y028254D02*
X036315Y028254D01*
X035255Y027739D02*
X035255Y026680D01*
X035238Y026352D02*
X035272Y026352D01*
X035430Y026194D02*
X035080Y026194D01*
X035255Y026096D02*
X035255Y025621D01*
X035255Y025621D01*
X035255Y026096D01*
X035255Y026035D02*
X035255Y026035D01*
X035255Y025877D02*
X035255Y025877D01*
X035255Y025718D02*
X035255Y025718D01*
X035255Y025621D02*
X035276Y025621D01*
X035276Y025621D01*
X035255Y025621D01*
X035255Y025621D01*
X035255Y025621D01*
X035234Y025621D01*
X035234Y025621D01*
X035255Y025621D01*
X035255Y025146D01*
X035195Y025146D01*
X035195Y023889D01*
X035315Y024009D01*
X035315Y025146D01*
X035255Y025146D01*
X035255Y025621D01*
X035255Y025621D01*
X035255Y025560D02*
X035255Y025560D01*
X035255Y025401D02*
X035255Y025401D01*
X035255Y025243D02*
X035255Y025243D01*
X035195Y025084D02*
X035315Y025084D01*
X035315Y024926D02*
X035195Y024926D01*
X035195Y024767D02*
X035315Y024767D01*
X035315Y024609D02*
X035195Y024609D01*
X035195Y024450D02*
X035315Y024450D01*
X035315Y024292D02*
X035195Y024292D01*
X035195Y024133D02*
X035315Y024133D01*
X035281Y023975D02*
X035195Y023975D01*
X036445Y023975D02*
X041628Y023975D01*
X041628Y024133D02*
X036761Y024133D01*
X036815Y024292D02*
X041628Y024292D01*
X041628Y024450D02*
X036778Y024450D01*
X036695Y024609D02*
X041628Y024609D01*
X041628Y024767D02*
X036695Y024767D01*
X036695Y024926D02*
X041568Y024926D01*
X041533Y025084D02*
X036695Y025084D01*
X036958Y025243D02*
X041591Y025243D01*
X041628Y023816D02*
X036445Y023816D01*
X036445Y023658D02*
X041628Y023658D01*
X041628Y023499D02*
X036580Y023499D01*
X036738Y023341D02*
X041628Y023341D01*
X041628Y023182D02*
X036897Y023182D01*
X037055Y023024D02*
X041628Y023024D01*
X041628Y022865D02*
X037214Y022865D01*
X037372Y022707D02*
X041628Y022707D01*
X041628Y022548D02*
X037531Y022548D01*
X037689Y022390D02*
X041628Y022390D01*
X041628Y022231D02*
X037848Y022231D01*
X038006Y022073D02*
X041628Y022073D01*
X041628Y021914D02*
X038165Y021914D01*
X038323Y021756D02*
X041628Y021756D01*
X041628Y021597D02*
X038482Y021597D01*
X038640Y021439D02*
X041628Y021439D01*
X041628Y021280D02*
X038799Y021280D01*
X038957Y021122D02*
X041628Y021122D01*
X041628Y020963D02*
X039873Y020963D01*
X039915Y020805D02*
X041628Y020805D01*
X041628Y020646D02*
X040015Y020646D01*
X039345Y020805D02*
X039274Y020805D01*
X039387Y020963D02*
X039116Y020963D01*
X040709Y020488D02*
X041628Y020488D01*
X041628Y020329D02*
X040709Y020329D01*
X040709Y020171D02*
X041628Y020171D01*
X041628Y020012D02*
X040709Y020012D01*
X040709Y019854D02*
X041628Y019854D01*
X041628Y019695D02*
X040709Y019695D01*
X040709Y019537D02*
X041628Y019537D01*
X041471Y019378D02*
X041339Y019378D01*
X041368Y019220D02*
X041442Y019220D01*
X041442Y019061D02*
X041368Y019061D01*
X041368Y018903D02*
X041442Y018903D01*
X041459Y018744D02*
X041351Y018744D01*
X041368Y018586D02*
X041442Y018586D01*
X041442Y018427D02*
X041368Y018427D01*
X041368Y018269D02*
X041442Y018269D01*
X041442Y018110D02*
X041368Y018110D01*
X041309Y017952D02*
X041501Y017952D01*
X041442Y017793D02*
X041368Y017793D01*
X041368Y017635D02*
X041442Y017635D01*
X041442Y017476D02*
X041368Y017476D01*
X041368Y017318D02*
X041442Y017318D01*
X041502Y017159D02*
X041308Y017159D01*
X041368Y017001D02*
X041442Y017001D01*
X041442Y016842D02*
X041368Y016842D01*
X041368Y016684D02*
X041442Y016684D01*
X041442Y016525D02*
X041368Y016525D01*
X044785Y014306D02*
X005475Y014306D01*
X005475Y014148D02*
X044785Y014148D01*
X044785Y013989D02*
X005475Y013989D01*
X005475Y013831D02*
X044785Y013831D01*
X044785Y013672D02*
X005475Y013672D01*
X005483Y013514D02*
X044785Y013514D01*
X045225Y013514D02*
X047092Y013514D01*
X047092Y013672D02*
X045225Y013672D01*
X045225Y013831D02*
X047092Y013831D01*
X047092Y013989D02*
X045225Y013989D01*
X045225Y014148D02*
X047092Y014148D01*
X047092Y014306D02*
X045225Y014306D01*
X045225Y014465D02*
X047092Y014465D01*
X047092Y014623D02*
X045225Y014623D01*
X045225Y014782D02*
X047092Y014782D01*
X047092Y014940D02*
X045225Y014940D01*
X045225Y015099D02*
X047092Y015099D01*
X047092Y015257D02*
X045225Y015257D01*
X045225Y015416D02*
X047092Y015416D01*
X047092Y015574D02*
X045225Y015574D01*
X045225Y015733D02*
X047092Y015733D01*
X047092Y015891D02*
X045225Y015891D01*
X045225Y016050D02*
X047092Y016050D01*
X047092Y016208D02*
X045225Y016208D01*
X045225Y016367D02*
X047092Y016367D01*
X047092Y016525D02*
X045225Y016525D01*
X045225Y016684D02*
X047092Y016684D01*
X047092Y016842D02*
X045225Y016842D01*
X045225Y017001D02*
X047092Y017001D01*
X047092Y017159D02*
X045225Y017159D01*
X045225Y017318D02*
X047092Y017318D01*
X047092Y017476D02*
X045225Y017476D01*
X045225Y017635D02*
X047092Y017635D01*
X047092Y017793D02*
X045225Y017793D01*
X045225Y017952D02*
X047092Y017952D01*
X047092Y018110D02*
X045225Y018110D01*
X045225Y018269D02*
X047092Y018269D01*
X047092Y018427D02*
X045225Y018427D01*
X045225Y018586D02*
X047092Y018586D01*
X047092Y018744D02*
X045225Y018744D01*
X045225Y018903D02*
X047092Y018903D01*
X047092Y019061D02*
X045225Y019061D01*
X045225Y019220D02*
X047092Y019220D01*
X047092Y019378D02*
X045225Y019378D01*
X045225Y019537D02*
X047092Y019537D01*
X047092Y019695D02*
X045225Y019695D01*
X045225Y019854D02*
X047092Y019854D01*
X047092Y020012D02*
X045225Y020012D01*
X045225Y020171D02*
X047092Y020171D01*
X047092Y020329D02*
X045225Y020329D01*
X045225Y020488D02*
X047092Y020488D01*
X047092Y020646D02*
X045225Y020646D01*
X045225Y020805D02*
X047092Y020805D01*
X047092Y020963D02*
X045225Y020963D01*
X045225Y021122D02*
X047092Y021122D01*
X047092Y021280D02*
X045225Y021280D01*
X045225Y021439D02*
X047092Y021439D01*
X047092Y021597D02*
X045225Y021597D01*
X045225Y021756D02*
X047092Y021756D01*
X047092Y021914D02*
X045225Y021914D01*
X045225Y022073D02*
X047092Y022073D01*
X047092Y022231D02*
X045225Y022231D01*
X045225Y022390D02*
X047092Y022390D01*
X047092Y022548D02*
X045225Y022548D01*
X045225Y022707D02*
X047092Y022707D01*
X047092Y022865D02*
X045225Y022865D01*
X045225Y023024D02*
X047092Y023024D01*
X047092Y023182D02*
X045225Y023182D01*
X045225Y023341D02*
X047092Y023341D01*
X047092Y023499D02*
X045225Y023499D01*
X045225Y023658D02*
X047092Y023658D01*
X047092Y023816D02*
X045225Y023816D01*
X045225Y023975D02*
X047092Y023975D01*
X047092Y024133D02*
X045225Y024133D01*
X045225Y024292D02*
X047092Y024292D01*
X047092Y024450D02*
X045225Y024450D01*
X045225Y024609D02*
X047092Y024609D01*
X047092Y024767D02*
X045225Y024767D01*
X045225Y024926D02*
X047092Y024926D01*
X047092Y025084D02*
X045225Y025084D01*
X045225Y025243D02*
X047092Y025243D01*
X047092Y025401D02*
X045225Y025401D01*
X045225Y025560D02*
X047092Y025560D01*
X047092Y025718D02*
X045225Y025718D01*
X045225Y025877D02*
X047092Y025877D01*
X047092Y026035D02*
X045225Y026035D01*
X045178Y026194D02*
X047092Y026194D01*
X047092Y026352D02*
X045019Y026352D01*
X044715Y026345D02*
X037630Y026345D01*
X037329Y026035D02*
X036923Y026035D01*
X034335Y028254D02*
X031220Y028254D01*
X031220Y028096D02*
X033780Y028096D01*
X033776Y027937D02*
X031220Y027937D01*
X031220Y027779D02*
X033776Y027779D01*
X033776Y027620D02*
X031220Y027620D01*
X031220Y027462D02*
X032737Y027462D01*
X032655Y027303D02*
X032618Y027303D01*
X033082Y027303D02*
X033178Y027303D01*
X033178Y027145D02*
X033082Y027145D01*
X033082Y027462D02*
X033178Y027462D01*
X033523Y027462D02*
X033776Y027462D01*
X033884Y027303D02*
X033605Y027303D01*
X033605Y027145D02*
X033624Y027145D01*
X033565Y026035D02*
X033837Y026035D01*
X034391Y028413D02*
X031220Y028413D01*
X030240Y028413D02*
X027850Y028413D01*
X027850Y028571D02*
X030240Y028571D01*
X030240Y028730D02*
X027907Y028730D01*
X027904Y028888D02*
X030240Y028888D01*
X030240Y029047D02*
X027792Y029047D01*
X027468Y029047D02*
X027200Y029047D01*
X027350Y028888D02*
X027356Y028888D01*
X027350Y028730D02*
X027353Y028730D01*
X027130Y028805D02*
X027130Y026180D01*
X026880Y025930D01*
X023180Y025930D01*
X023228Y026194D02*
X023307Y026194D01*
X023245Y026352D02*
X023100Y026352D01*
X023100Y026511D02*
X023245Y026511D01*
X023308Y026669D02*
X023100Y026669D01*
X023100Y026828D02*
X023502Y026828D01*
X023350Y027145D02*
X023156Y027145D01*
X023100Y026986D02*
X023925Y026986D01*
X024010Y027145D02*
X024083Y027145D01*
X024099Y027303D02*
X024242Y027303D01*
X024115Y027462D02*
X024400Y027462D01*
X024706Y027145D02*
X025654Y027145D01*
X025496Y027303D02*
X024864Y027303D01*
X025023Y027462D02*
X025337Y027462D01*
X025180Y027619D02*
X026256Y026543D01*
X026245Y026517D01*
X026245Y026343D01*
X026311Y026183D01*
X026344Y026150D01*
X024016Y026150D01*
X024049Y026183D01*
X024115Y026343D01*
X024115Y026517D01*
X024104Y026543D01*
X025180Y027619D01*
X025180Y027930D02*
X023680Y026430D01*
X024053Y026194D02*
X026307Y026194D01*
X026245Y026352D02*
X024115Y026352D01*
X024115Y026511D02*
X026245Y026511D01*
X026130Y026669D02*
X024230Y026669D01*
X024389Y026828D02*
X025971Y026828D01*
X025813Y026986D02*
X024547Y026986D01*
X024876Y027937D02*
X022850Y027937D01*
X022850Y027779D02*
X023413Y027779D01*
X023399Y028096D02*
X022857Y028096D01*
X022880Y028430D02*
X023680Y028430D01*
X023364Y028730D02*
X022548Y028730D01*
X022850Y027620D02*
X023009Y027620D01*
X022850Y027462D02*
X022850Y027462D01*
X024097Y025560D02*
X026263Y025560D01*
X026245Y025401D02*
X024115Y025401D01*
X024073Y025243D02*
X026287Y025243D01*
X026410Y025084D02*
X023950Y025084D01*
X023959Y024767D02*
X026401Y024767D01*
X026283Y024609D02*
X024077Y024609D01*
X024115Y024450D02*
X026245Y024450D01*
X026266Y024292D02*
X024094Y024292D01*
X023266Y024292D02*
X023080Y024292D01*
X022921Y024450D02*
X023245Y024450D01*
X023283Y024609D02*
X022850Y024609D01*
X022850Y024767D02*
X023401Y024767D01*
X025960Y027462D02*
X026245Y027462D01*
X026261Y027303D02*
X026118Y027303D01*
X026277Y027145D02*
X026350Y027145D01*
X026435Y026986D02*
X026910Y026986D01*
X026910Y026828D02*
X026858Y026828D01*
X026680Y026430D02*
X025180Y027930D01*
X025180Y029730D01*
X025680Y030230D01*
X025755Y030305D01*
X025755Y031371D01*
X025705Y032430D02*
X026080Y032805D01*
X025505Y033155D02*
X025505Y033489D01*
X025505Y033830D01*
X025630Y033955D01*
X026280Y033955D01*
X025505Y033155D02*
X025330Y032980D01*
X024755Y033489D02*
X024755Y034180D01*
X024755Y034205D01*
X024755Y034180D02*
X023130Y035805D01*
X023130Y036050D01*
X023510Y036021D02*
X023750Y036021D01*
X023750Y036179D02*
X023510Y036179D01*
X023510Y036338D02*
X023750Y036338D01*
X023804Y036496D02*
X023456Y036496D01*
X022860Y036780D02*
X025405Y036780D01*
X026130Y036055D01*
X026130Y036050D01*
X026510Y036179D02*
X026750Y036179D01*
X026750Y036338D02*
X026510Y036338D01*
X026456Y036496D02*
X026804Y036496D01*
X027850Y035545D02*
X027858Y035545D01*
X027850Y035387D02*
X029025Y035387D01*
X028858Y035545D02*
X028402Y035545D01*
X028497Y035704D02*
X028763Y035704D01*
X028750Y035862D02*
X028510Y035862D01*
X028510Y036021D02*
X028750Y036021D01*
X028750Y036179D02*
X028510Y036179D01*
X028510Y036338D02*
X028750Y036338D01*
X028804Y036496D02*
X028456Y036496D01*
X028008Y035228D02*
X027850Y035228D01*
X029682Y034753D02*
X029778Y034753D01*
X029778Y034594D02*
X029682Y034594D01*
X030205Y034277D02*
X047092Y034277D01*
X047092Y034119D02*
X030197Y034119D01*
X030165Y033960D02*
X047092Y033960D01*
X047092Y033802D02*
X030165Y033802D01*
X030337Y032692D02*
X034349Y032692D01*
X034508Y032534D02*
X030495Y032534D01*
X030654Y032375D02*
X034666Y032375D01*
X034825Y032217D02*
X030812Y032217D01*
X030971Y032058D02*
X034983Y032058D01*
X035142Y031900D02*
X031129Y031900D01*
X031220Y031741D02*
X035300Y031741D01*
X035459Y031583D02*
X031220Y031583D01*
X031220Y031424D02*
X035617Y031424D01*
X035776Y031266D02*
X031220Y031266D01*
X031220Y031107D02*
X035934Y031107D01*
X036093Y030949D02*
X031220Y030949D01*
X031220Y030790D02*
X036251Y030790D01*
X036315Y030632D02*
X031220Y030632D01*
X030240Y029839D02*
X025600Y029839D01*
X025442Y029681D02*
X030240Y029681D01*
X030240Y029522D02*
X026816Y029522D01*
X026914Y029364D02*
X030240Y029364D01*
X030240Y029205D02*
X027041Y029205D01*
X027130Y028805D02*
X026630Y029305D01*
X026363Y029205D02*
X025400Y029205D01*
X025400Y029047D02*
X026509Y029047D01*
X026736Y028888D02*
X025400Y028888D01*
X025400Y028730D02*
X026364Y028730D01*
X026267Y028571D02*
X025400Y028571D01*
X025400Y028413D02*
X026245Y028413D01*
X026282Y028254D02*
X025400Y028254D01*
X025400Y028096D02*
X026399Y028096D01*
X026413Y027779D02*
X025643Y027779D01*
X025484Y027937D02*
X026910Y027937D01*
X026288Y027620D02*
X025801Y027620D01*
X025400Y029364D02*
X026346Y029364D01*
X026444Y029522D02*
X025400Y029522D01*
X025759Y029998D02*
X030194Y029998D01*
X030240Y028254D02*
X027850Y028254D01*
X027850Y028096D02*
X030240Y028096D01*
X030240Y027937D02*
X027850Y027937D01*
X027850Y027779D02*
X030240Y027779D01*
X030240Y027620D02*
X027850Y027620D01*
X027850Y027462D02*
X030240Y027462D01*
X030240Y027303D02*
X027850Y027303D01*
X027850Y027145D02*
X030240Y027145D01*
X030240Y026986D02*
X027850Y026986D01*
X027850Y026828D02*
X030240Y026828D01*
X030240Y026669D02*
X027850Y026669D01*
X027850Y026511D02*
X030240Y026511D01*
X030240Y026352D02*
X027850Y026352D01*
X027850Y026194D02*
X030240Y026194D01*
X030240Y026035D02*
X027850Y026035D01*
X027850Y025877D02*
X030315Y025877D01*
X030473Y025718D02*
X027850Y025718D01*
X027850Y025560D02*
X030632Y025560D01*
X030790Y025401D02*
X027850Y025401D01*
X027850Y025243D02*
X030949Y025243D01*
X031107Y025084D02*
X027850Y025084D01*
X027850Y024926D02*
X031266Y024926D01*
X031424Y024767D02*
X027850Y024767D01*
X027850Y024609D02*
X031583Y024609D01*
X031741Y024450D02*
X027850Y024450D01*
X027850Y024292D02*
X031900Y024292D01*
X032058Y024133D02*
X027850Y024133D01*
X027850Y023975D02*
X028881Y023975D01*
X028845Y023816D02*
X027827Y023816D01*
X027410Y024292D02*
X027094Y024292D01*
X027115Y024450D02*
X027410Y024450D01*
X027410Y024609D02*
X027077Y024609D01*
X026959Y024767D02*
X027410Y024767D01*
X028909Y023341D02*
X032240Y023341D01*
X032240Y023499D02*
X029068Y023499D01*
X029361Y023658D02*
X032240Y023658D01*
X032240Y023816D02*
X029415Y023816D01*
X029379Y023975D02*
X032217Y023975D01*
X032868Y016990D02*
X032942Y016990D01*
X032942Y016511D01*
X033024Y016429D01*
X033613Y016429D01*
X033695Y016511D01*
X033695Y016542D01*
X033748Y016520D01*
X033862Y016520D01*
X033966Y016563D01*
X034047Y016644D01*
X034090Y016748D01*
X034090Y016862D01*
X034047Y016966D01*
X034023Y016990D01*
X035421Y016990D01*
X035184Y016753D01*
X035184Y016653D01*
X035139Y016653D01*
X035057Y016571D01*
X035057Y015352D01*
X035139Y015270D01*
X035609Y015270D01*
X035657Y015319D01*
X035706Y015270D01*
X035751Y015270D01*
X035751Y014915D01*
X035796Y014870D01*
X031668Y014870D01*
X031747Y014949D01*
X031790Y015054D01*
X031790Y015167D01*
X031747Y015270D01*
X032127Y015270D01*
X032209Y015352D01*
X032209Y016429D01*
X032786Y016429D01*
X032868Y016511D01*
X032868Y016990D01*
X032868Y016842D02*
X032942Y016842D01*
X032942Y016684D02*
X032868Y016684D01*
X032868Y016525D02*
X032942Y016525D01*
X033695Y016525D02*
X033736Y016525D01*
X033874Y016525D02*
X035057Y016525D01*
X035057Y016367D02*
X032209Y016367D01*
X032209Y016208D02*
X035057Y016208D01*
X035057Y016050D02*
X032209Y016050D01*
X032209Y015891D02*
X035057Y015891D01*
X035057Y015733D02*
X032209Y015733D01*
X032209Y015574D02*
X035057Y015574D01*
X035057Y015416D02*
X032209Y015416D01*
X031753Y015257D02*
X035751Y015257D01*
X035751Y015099D02*
X031790Y015099D01*
X031738Y014940D02*
X035751Y014940D01*
X035577Y013355D02*
X005641Y013355D01*
X005670Y013015D02*
X034505Y013015D01*
X034862Y013038D02*
X034929Y013038D01*
X034862Y013197D02*
X035087Y013197D01*
X032848Y010661D02*
X032462Y010661D01*
X032535Y010502D02*
X032775Y010502D01*
X032775Y010344D02*
X032535Y010344D01*
X033320Y009393D02*
X047092Y009393D01*
X047092Y009551D02*
X044812Y009551D01*
X044971Y009710D02*
X047092Y009710D01*
X047092Y009868D02*
X045129Y009868D01*
X045225Y010027D02*
X047092Y010027D01*
X047092Y010185D02*
X045225Y010185D01*
X045225Y010344D02*
X047092Y010344D01*
X047092Y010502D02*
X045225Y010502D01*
X045225Y010661D02*
X047092Y010661D01*
X047092Y010819D02*
X045225Y010819D01*
X045225Y010978D02*
X047092Y010978D01*
X047092Y011136D02*
X045225Y011136D01*
X045225Y011295D02*
X047092Y011295D01*
X047092Y011453D02*
X045225Y011453D01*
X045225Y011612D02*
X047092Y011612D01*
X047092Y011770D02*
X045225Y011770D01*
X045225Y011929D02*
X047092Y011929D01*
X047092Y012087D02*
X045225Y012087D01*
X045225Y012246D02*
X047092Y012246D01*
X047092Y012404D02*
X045225Y012404D01*
X045225Y012563D02*
X047092Y012563D01*
X047092Y012721D02*
X045225Y012721D01*
X045225Y012880D02*
X047092Y012880D01*
X047092Y013038D02*
X045225Y013038D01*
X045225Y013197D02*
X047092Y013197D01*
X047092Y013355D02*
X045225Y013355D01*
X047092Y009234D02*
X033320Y009234D01*
X033320Y009076D02*
X047092Y009076D01*
X047092Y008917D02*
X033320Y008917D01*
X033320Y008759D02*
X047092Y008759D01*
X047092Y008600D02*
X033320Y008600D01*
X033320Y008442D02*
X047092Y008442D01*
X047092Y008283D02*
X033320Y008283D01*
X033320Y008125D02*
X047092Y008125D01*
X047092Y007966D02*
X033415Y007966D01*
X033487Y007808D02*
X047092Y007808D01*
X047092Y007649D02*
X033487Y007649D01*
X033487Y007491D02*
X047092Y007491D01*
X047092Y007332D02*
X033434Y007332D01*
X033527Y007174D02*
X047092Y007174D01*
X047092Y007015D02*
X033527Y007015D01*
X033527Y006857D02*
X047092Y006857D01*
X047092Y006698D02*
X033511Y006698D01*
X033148Y006698D02*
X033112Y006698D01*
X033112Y006857D02*
X033148Y006857D01*
X032749Y006698D02*
X028511Y006698D01*
X027296Y014870D02*
X023168Y014870D01*
X023247Y014949D01*
X023290Y015054D01*
X023290Y015167D01*
X023247Y015270D01*
X023627Y015270D01*
X023709Y015352D01*
X023709Y016429D01*
X024286Y016429D01*
X024368Y016511D01*
X024368Y016990D01*
X024442Y016990D01*
X024442Y016511D01*
X024524Y016429D01*
X025113Y016429D01*
X025195Y016511D01*
X025195Y016615D01*
X025942Y016615D01*
X025994Y016563D01*
X026098Y016520D01*
X026212Y016520D01*
X026316Y016563D01*
X026397Y016644D01*
X026440Y016748D01*
X026440Y016862D01*
X026397Y016966D01*
X026373Y016990D01*
X026921Y016990D01*
X026684Y016753D01*
X026684Y016653D01*
X026639Y016653D01*
X026557Y016571D01*
X026557Y015352D01*
X026639Y015270D01*
X027109Y015270D01*
X027157Y015319D01*
X027206Y015270D01*
X027251Y015270D01*
X027251Y014915D01*
X027296Y014870D01*
X027251Y014940D02*
X023238Y014940D01*
X023290Y015099D02*
X027251Y015099D01*
X027251Y015257D02*
X023253Y015257D01*
X023709Y015416D02*
X026557Y015416D01*
X026557Y015574D02*
X023709Y015574D01*
X023709Y015733D02*
X026557Y015733D01*
X026557Y015891D02*
X023709Y015891D01*
X023709Y016050D02*
X026557Y016050D01*
X026557Y016208D02*
X023709Y016208D01*
X023709Y016367D02*
X026557Y016367D01*
X026557Y016525D02*
X026224Y016525D01*
X026086Y016525D02*
X025195Y016525D01*
X024442Y016525D02*
X024368Y016525D01*
X024368Y016684D02*
X024442Y016684D01*
X024442Y016842D02*
X024368Y016842D01*
X023312Y017370D02*
X016695Y017370D01*
X016695Y017451D01*
X016764Y017520D01*
X016837Y017520D01*
X016941Y017563D01*
X017022Y017644D01*
X017065Y017748D01*
X017065Y017862D01*
X017022Y017966D01*
X016941Y018047D01*
X016837Y018090D01*
X016723Y018090D01*
X016695Y018078D01*
X016695Y018490D01*
X023312Y018490D01*
X023288Y018466D01*
X023245Y018362D01*
X023245Y018248D01*
X023288Y018144D01*
X023369Y018063D01*
X023473Y018020D01*
X023587Y018020D01*
X023615Y018032D01*
X023615Y018011D01*
X023696Y017930D01*
X023615Y017849D01*
X023615Y017828D01*
X023587Y017840D01*
X023473Y017840D01*
X023369Y017797D01*
X023288Y017716D01*
X023245Y017612D01*
X023245Y017498D01*
X023288Y017394D01*
X023312Y017370D01*
X023254Y017476D02*
X016720Y017476D01*
X017013Y017635D02*
X023254Y017635D01*
X023365Y017793D02*
X017065Y017793D01*
X017028Y017952D02*
X023675Y017952D01*
X023322Y018110D02*
X016695Y018110D01*
X016695Y018269D02*
X023245Y018269D01*
X023272Y018427D02*
X016695Y018427D01*
X017053Y016990D02*
X018421Y016990D01*
X018184Y016753D01*
X018184Y016653D01*
X018139Y016653D01*
X018057Y016571D01*
X018057Y015352D01*
X018139Y015270D01*
X018609Y015270D01*
X018657Y015319D01*
X018706Y015270D01*
X018751Y015270D01*
X018751Y014915D01*
X018796Y014870D01*
X014668Y014870D01*
X014747Y014949D01*
X014790Y015054D01*
X014790Y015167D01*
X014747Y015270D01*
X015127Y015270D01*
X015209Y015352D01*
X015209Y016429D01*
X015302Y016429D01*
X015302Y016265D01*
X015370Y016196D01*
X015370Y016123D01*
X015413Y016019D01*
X015494Y015938D01*
X015598Y015895D01*
X015712Y015895D01*
X015816Y015938D01*
X015897Y016019D01*
X015940Y016123D01*
X015940Y016237D01*
X015897Y016341D01*
X015816Y016422D01*
X015790Y016433D01*
X015868Y016511D01*
X015868Y016990D01*
X015942Y016990D01*
X015942Y016511D01*
X016024Y016429D01*
X016613Y016429D01*
X016695Y016511D01*
X016695Y016615D01*
X016759Y016615D01*
X016764Y016620D01*
X016837Y016620D01*
X016941Y016663D01*
X017022Y016744D01*
X017065Y016848D01*
X017065Y016962D01*
X017053Y016990D01*
X017062Y016842D02*
X018273Y016842D01*
X018184Y016684D02*
X016962Y016684D01*
X016695Y016525D02*
X018057Y016525D01*
X018057Y016367D02*
X015872Y016367D01*
X015868Y016525D02*
X015942Y016525D01*
X015942Y016684D02*
X015868Y016684D01*
X015868Y016842D02*
X015942Y016842D01*
X015940Y016208D02*
X018057Y016208D01*
X018057Y016050D02*
X015909Y016050D01*
X015401Y016050D02*
X015209Y016050D01*
X015209Y016208D02*
X015358Y016208D01*
X015302Y016367D02*
X015209Y016367D01*
X015209Y015891D02*
X018057Y015891D01*
X018057Y015733D02*
X015209Y015733D01*
X015209Y015574D02*
X018057Y015574D01*
X018057Y015416D02*
X015209Y015416D01*
X014753Y015257D02*
X018751Y015257D01*
X018751Y015099D02*
X014790Y015099D01*
X014738Y014940D02*
X018751Y014940D01*
X015175Y017952D02*
X005475Y017952D01*
X005475Y018110D02*
X014747Y018110D01*
X014670Y018269D02*
X005475Y018269D01*
X005475Y018427D02*
X014697Y018427D01*
X014790Y017793D02*
X005475Y017793D01*
X005475Y017635D02*
X014679Y017635D01*
X014679Y017476D02*
X005475Y017476D01*
X005475Y017318D02*
X012999Y017318D01*
X010090Y017159D02*
X005475Y017159D01*
X005475Y017001D02*
X009932Y017001D01*
X009773Y016842D02*
X005475Y016842D01*
X005475Y016684D02*
X009684Y016684D01*
X009557Y016525D02*
X005475Y016525D01*
X005475Y016367D02*
X009557Y016367D01*
X009557Y016208D02*
X005475Y016208D01*
X005475Y016050D02*
X009557Y016050D01*
X009557Y015891D02*
X005475Y015891D01*
X005475Y015733D02*
X009557Y015733D01*
X009557Y015574D02*
X005475Y015574D01*
X005475Y015416D02*
X009557Y015416D01*
X010251Y015257D02*
X005475Y015257D01*
X005475Y015099D02*
X010251Y015099D01*
X010251Y014940D02*
X005475Y014940D01*
X005475Y014782D02*
X010385Y014782D01*
X010081Y018586D02*
X005475Y018586D01*
X005475Y018744D02*
X009922Y018744D01*
X010065Y018601D02*
X010065Y018601D01*
X009764Y018903D02*
X005475Y018903D01*
X005475Y019061D02*
X009684Y019061D01*
X009627Y019220D02*
X005475Y019220D01*
X005475Y019378D02*
X009557Y019378D01*
X009557Y019537D02*
X005475Y019537D01*
X005475Y019695D02*
X009557Y019695D01*
X009557Y019854D02*
X005475Y019854D01*
X005475Y020012D02*
X009557Y020012D01*
X009557Y020171D02*
X005475Y020171D01*
X005475Y020329D02*
X009557Y020329D01*
X009557Y020488D02*
X005475Y020488D01*
X005337Y023024D02*
X005225Y023024D01*
X005225Y023182D02*
X005496Y023182D01*
X005654Y023341D02*
X005225Y023341D01*
X005225Y023499D02*
X005813Y023499D01*
X005971Y023658D02*
X005225Y023658D01*
X005225Y023816D02*
X006130Y023816D01*
X006288Y023975D02*
X005225Y023975D01*
X005056Y024767D02*
X004975Y024767D01*
X004975Y024926D02*
X005214Y024926D01*
X005373Y025084D02*
X004995Y025084D01*
X005154Y025243D02*
X005531Y025243D01*
X005007Y025718D02*
X004725Y025718D01*
X004725Y025560D02*
X004848Y025560D01*
X004788Y025877D02*
X005165Y025877D01*
X005324Y026035D02*
X004946Y026035D01*
X005105Y026194D02*
X005482Y026194D01*
X005641Y026352D02*
X005263Y026352D01*
X004799Y026511D02*
X004475Y026511D01*
X004475Y026352D02*
X004641Y026352D01*
X004482Y026194D02*
X004475Y026194D01*
X003260Y035387D02*
X007662Y035387D01*
X007980Y035380D02*
X007330Y036030D01*
X007330Y036050D01*
X006950Y036021D02*
X006710Y036021D01*
X006710Y036179D02*
X006950Y036179D01*
X006950Y036338D02*
X006710Y036338D01*
X006656Y036496D02*
X007004Y036496D01*
X006950Y035862D02*
X006710Y035862D01*
X006697Y035704D02*
X006963Y035704D01*
X007058Y035545D02*
X006602Y035545D01*
X006058Y035545D02*
X003260Y035545D01*
X003260Y035704D02*
X005963Y035704D01*
X005950Y035862D02*
X003260Y035862D01*
X003260Y036021D02*
X005950Y036021D01*
X005950Y036179D02*
X003260Y036179D01*
X003260Y036338D02*
X005950Y036338D01*
X006004Y036496D02*
X003260Y036496D01*
X007809Y035862D02*
X007950Y035862D01*
X008443Y036655D02*
X008623Y036655D01*
X010235Y041805D02*
X013255Y041805D01*
X016130Y041805D01*
X016380Y041805D01*
X016471Y042025D02*
X016630Y041866D01*
X016789Y042025D01*
X017386Y042025D01*
X017345Y042123D01*
X017345Y042237D01*
X017388Y042341D01*
X017469Y042422D01*
X017573Y042465D01*
X017687Y042465D01*
X017791Y042422D01*
X017872Y042341D01*
X017915Y042237D01*
X017915Y042123D01*
X017874Y042025D01*
X019636Y042025D01*
X019595Y042123D01*
X019595Y042237D01*
X019638Y042341D01*
X019660Y042363D01*
X019660Y043339D01*
X019539Y043460D01*
X013269Y043460D01*
X012563Y044166D01*
X012545Y044148D01*
X012406Y044090D01*
X012261Y044090D01*
X013301Y043050D01*
X015321Y043050D01*
X015450Y042921D01*
X015906Y042465D01*
X015937Y042465D01*
X016041Y042422D01*
X016122Y042341D01*
X016165Y042237D01*
X016165Y042123D01*
X016124Y042025D01*
X016471Y042025D01*
X016611Y041885D02*
X016649Y041885D01*
X016880Y041805D02*
X016630Y041555D01*
X016880Y041805D02*
X020505Y041805D01*
X023153Y041805D01*
X023539Y042191D01*
X023310Y042361D02*
X020102Y042361D01*
X020100Y042519D02*
X023310Y042519D01*
X023310Y042678D02*
X020100Y042678D01*
X020100Y042836D02*
X023310Y042836D01*
X023310Y042995D02*
X020100Y042995D01*
X020100Y043153D02*
X023310Y043153D01*
X023212Y043312D02*
X020100Y043312D01*
X020231Y043470D02*
X023054Y043470D01*
X023530Y043305D02*
X022130Y044705D01*
X022130Y044710D01*
X020856Y045214D02*
X014604Y045214D01*
X014698Y045055D02*
X020762Y045055D01*
X020750Y044897D02*
X014710Y044897D01*
X014710Y044738D02*
X020750Y044738D01*
X020718Y044580D02*
X014710Y044580D01*
X014710Y044421D02*
X020560Y044421D01*
X020401Y044263D02*
X014655Y044263D01*
X014440Y044104D02*
X020243Y044104D01*
X020084Y043946D02*
X013406Y043946D01*
X013440Y044104D02*
X014220Y044104D01*
X014005Y044263D02*
X013655Y044263D01*
X013710Y044421D02*
X013950Y044421D01*
X013950Y044580D02*
X013710Y044580D01*
X013710Y044738D02*
X013950Y044738D01*
X013852Y044897D02*
X013710Y044897D01*
X013580Y045480D02*
X014330Y044730D01*
X014330Y044710D01*
X013100Y043629D02*
X012723Y043629D01*
X012564Y043787D02*
X012942Y043787D01*
X012783Y043946D02*
X012406Y043946D01*
X012440Y044104D02*
X012625Y044104D01*
X012881Y043470D02*
X013259Y043470D01*
X013040Y043312D02*
X019660Y043312D01*
X019660Y043153D02*
X013198Y043153D01*
X012368Y042361D02*
X009991Y042361D01*
X009832Y042519D02*
X012210Y042519D01*
X012051Y042678D02*
X009674Y042678D01*
X009515Y042836D02*
X011893Y042836D01*
X011734Y042995D02*
X009357Y042995D01*
X009198Y043153D02*
X011576Y043153D01*
X011417Y043312D02*
X009040Y043312D01*
X008881Y043470D02*
X011259Y043470D01*
X011100Y043629D02*
X008723Y043629D01*
X008564Y043787D02*
X010942Y043787D01*
X015230Y042830D02*
X015880Y042180D01*
X016165Y042202D02*
X017345Y042202D01*
X017378Y042044D02*
X016132Y042044D01*
X016102Y042361D02*
X017408Y042361D01*
X017852Y042361D02*
X019658Y042361D01*
X019660Y042519D02*
X015852Y042519D01*
X015694Y042678D02*
X019660Y042678D01*
X019660Y042836D02*
X015535Y042836D01*
X015377Y042995D02*
X019660Y042995D01*
X019880Y043430D02*
X019880Y042180D01*
X020165Y042202D02*
X023239Y042202D01*
X023080Y042044D02*
X020132Y042044D01*
X019628Y042044D02*
X017882Y042044D01*
X017915Y042202D02*
X019595Y042202D01*
X019707Y041410D02*
X017803Y041410D01*
X020100Y040934D02*
X022323Y040934D01*
X022164Y040776D02*
X020100Y040776D01*
X020100Y040617D02*
X022006Y040617D01*
X021847Y040459D02*
X020100Y040459D01*
X020100Y040300D02*
X021689Y040300D01*
X021530Y040142D02*
X020100Y040142D01*
X020100Y039983D02*
X021372Y039983D01*
X021213Y039825D02*
X020100Y039825D01*
X020100Y039666D02*
X021055Y039666D01*
X020896Y039508D02*
X020100Y039508D01*
X020100Y039349D02*
X020738Y039349D01*
X020579Y039191D02*
X020100Y039191D01*
X020100Y039032D02*
X020421Y039032D01*
X020262Y038874D02*
X020100Y038874D01*
X020100Y038715D02*
X020104Y038715D01*
X019130Y038055D02*
X019130Y035980D01*
X023055Y032055D01*
X023655Y032055D01*
X024005Y031705D01*
X024005Y031371D01*
X023526Y031561D02*
X023526Y031724D01*
X023601Y031798D01*
X023564Y031835D01*
X022964Y031835D01*
X022165Y032634D01*
X022165Y032623D01*
X022122Y032519D01*
X022070Y032467D01*
X022070Y030339D01*
X023292Y031561D01*
X023526Y031561D01*
X023526Y031583D02*
X022070Y031583D01*
X022070Y031741D02*
X023543Y031741D01*
X023155Y031424D02*
X022070Y031424D01*
X022070Y031266D02*
X022997Y031266D01*
X022838Y031107D02*
X022070Y031107D01*
X022070Y030949D02*
X022680Y030949D01*
X022521Y030790D02*
X022070Y030790D01*
X022070Y030632D02*
X022363Y030632D01*
X022204Y030473D02*
X022070Y030473D01*
X022070Y031900D02*
X022899Y031900D01*
X022741Y032058D02*
X022070Y032058D01*
X022070Y032217D02*
X022582Y032217D01*
X022424Y032375D02*
X022070Y032375D01*
X022128Y032534D02*
X022265Y032534D01*
X021690Y032375D02*
X021119Y032375D01*
X021052Y032217D02*
X021690Y032217D01*
X021690Y032058D02*
X020929Y032058D01*
X021277Y032534D02*
X021632Y032534D01*
X021595Y032692D02*
X021436Y032692D01*
X023152Y033802D02*
X023526Y033802D01*
X023526Y033643D02*
X023311Y033643D01*
X023469Y033485D02*
X023526Y033485D01*
X023701Y035545D02*
X023858Y035545D01*
X023763Y035704D02*
X023543Y035704D01*
X023510Y035862D02*
X023750Y035862D01*
X024402Y035545D02*
X024858Y035545D01*
X024763Y035704D02*
X024497Y035704D01*
X024510Y035862D02*
X024750Y035862D01*
X024750Y036021D02*
X024510Y036021D01*
X024510Y036179D02*
X024750Y036179D01*
X024750Y036338D02*
X024510Y036338D01*
X024456Y036496D02*
X024804Y036496D01*
X023692Y041727D02*
X023386Y041727D01*
X019926Y043787D02*
X019834Y043787D01*
X018910Y036496D02*
X014656Y036496D01*
X014710Y036338D02*
X018910Y036338D01*
X018910Y036179D02*
X014710Y036179D01*
X014710Y036021D02*
X018910Y036021D01*
X018937Y035862D02*
X014710Y035862D01*
X014697Y035704D02*
X019095Y035704D01*
X019465Y024767D02*
X017011Y024767D01*
X016852Y024609D02*
X019465Y024609D01*
X019465Y024450D02*
X016694Y024450D01*
X019848Y021365D02*
X021546Y021365D01*
X021501Y021320D01*
X021501Y020590D01*
X021456Y020590D01*
X021407Y020541D01*
X021359Y020590D01*
X020889Y020590D01*
X020883Y020584D01*
X020877Y020590D01*
X020443Y020590D01*
X020497Y020644D01*
X020540Y020748D01*
X020540Y020862D01*
X020497Y020966D01*
X020416Y021047D01*
X020312Y021090D01*
X020198Y021090D01*
X020094Y021047D01*
X020013Y020966D01*
X019970Y020862D01*
X019970Y020789D01*
X019885Y020703D01*
X019885Y020590D01*
X019840Y020590D01*
X019791Y020541D01*
X019743Y020590D01*
X019698Y020590D01*
X019698Y020900D01*
X019791Y020938D01*
X019872Y021019D01*
X019915Y021123D01*
X019915Y021237D01*
X019872Y021341D01*
X019848Y021365D01*
X019897Y021280D02*
X021501Y021280D01*
X021501Y021122D02*
X019914Y021122D01*
X019816Y020963D02*
X020012Y020963D01*
X019970Y020805D02*
X019698Y020805D01*
X019698Y020646D02*
X019885Y020646D01*
X020498Y020646D02*
X021501Y020646D01*
X021501Y020805D02*
X020540Y020805D01*
X020498Y020963D02*
X021501Y020963D01*
X021881Y020963D02*
X022068Y020963D01*
X022068Y021036D02*
X022068Y020590D01*
X022023Y020590D01*
X021974Y020541D01*
X021926Y020590D01*
X021881Y020590D01*
X021881Y021162D01*
X022084Y021365D01*
X022307Y021365D01*
X022295Y021337D01*
X022295Y021264D01*
X022179Y021148D01*
X022179Y021148D01*
X022068Y021036D01*
X022153Y021122D02*
X021881Y021122D01*
X021999Y021280D02*
X022295Y021280D01*
X022564Y020995D02*
X022637Y020995D01*
X022741Y021038D01*
X022822Y021119D01*
X022865Y021223D01*
X022865Y021337D01*
X022853Y021365D01*
X023723Y021365D01*
X023707Y021325D01*
X023707Y021212D01*
X023750Y021107D01*
X023802Y021055D01*
X023802Y019431D01*
X023709Y019431D01*
X023709Y020508D01*
X023627Y020590D01*
X023293Y020590D01*
X023347Y020644D01*
X023390Y020748D01*
X023390Y020862D01*
X023347Y020966D01*
X023266Y021047D01*
X023162Y021090D01*
X023048Y021090D01*
X022944Y021047D01*
X022863Y020966D01*
X022820Y020862D01*
X022820Y020789D01*
X022635Y020603D01*
X022635Y020590D01*
X022590Y020590D01*
X022541Y020541D01*
X022493Y020590D01*
X022448Y020590D01*
X022448Y020879D01*
X022564Y020995D01*
X022532Y020963D02*
X022862Y020963D01*
X022823Y021122D02*
X023744Y021122D01*
X023707Y021280D02*
X022865Y021280D01*
X022820Y020805D02*
X022448Y020805D01*
X022448Y020646D02*
X022677Y020646D01*
X023348Y020646D02*
X023802Y020646D01*
X023802Y020488D02*
X023709Y020488D01*
X023709Y020329D02*
X023802Y020329D01*
X023802Y020171D02*
X023709Y020171D01*
X023709Y020012D02*
X023802Y020012D01*
X023802Y019854D02*
X023709Y019854D01*
X023709Y019695D02*
X023802Y019695D01*
X023802Y019537D02*
X023709Y019537D01*
X024182Y019537D02*
X024628Y019537D01*
X024628Y019431D02*
X024524Y019431D01*
X024442Y019349D01*
X024442Y018870D01*
X024368Y018870D01*
X024368Y019349D01*
X024286Y019431D01*
X024182Y019431D01*
X024182Y021055D01*
X024233Y021107D01*
X024277Y021212D01*
X024277Y021325D01*
X024260Y021365D01*
X024589Y021365D01*
X024577Y021353D01*
X024533Y021248D01*
X024533Y021135D01*
X024577Y021030D01*
X024628Y020979D01*
X024628Y019431D01*
X024471Y019378D02*
X024339Y019378D01*
X024368Y019220D02*
X024442Y019220D01*
X024442Y019061D02*
X024368Y019061D01*
X024368Y018903D02*
X024442Y018903D01*
X024628Y019695D02*
X024182Y019695D01*
X024182Y019854D02*
X024628Y019854D01*
X024628Y020012D02*
X024182Y020012D01*
X024182Y020171D02*
X024628Y020171D01*
X024628Y020329D02*
X024182Y020329D01*
X024182Y020488D02*
X024628Y020488D01*
X024628Y020646D02*
X024182Y020646D01*
X024182Y020805D02*
X024628Y020805D01*
X024628Y020963D02*
X024182Y020963D01*
X024239Y021122D02*
X024539Y021122D01*
X024547Y021280D02*
X024277Y021280D01*
X023802Y020963D02*
X023348Y020963D01*
X023390Y020805D02*
X023802Y020805D01*
X022068Y020805D02*
X021881Y020805D01*
X021881Y020646D02*
X022068Y020646D01*
X026440Y016842D02*
X026773Y016842D01*
X026684Y016684D02*
X026413Y016684D01*
X034063Y016684D02*
X035184Y016684D01*
X035273Y016842D02*
X034090Y016842D01*
X036122Y042361D02*
X047092Y042361D01*
X047092Y042519D02*
X036280Y042519D01*
X036439Y042678D02*
X047092Y042678D01*
X047092Y042836D02*
X036597Y042836D01*
X036630Y043180D02*
X039400Y043180D01*
X042255Y044263D02*
X042605Y044263D01*
X042550Y044421D02*
X042310Y044421D01*
X042310Y044580D02*
X042550Y044580D01*
X042550Y044738D02*
X042310Y044738D01*
X042310Y044897D02*
X042432Y044897D01*
X044298Y045055D02*
X047092Y045055D01*
X047092Y044897D02*
X044310Y044897D01*
X044310Y044738D02*
X047092Y044738D01*
X047092Y044580D02*
X044310Y044580D01*
X044310Y044421D02*
X047092Y044421D01*
X047092Y044263D02*
X044255Y044263D01*
X047092Y045848D02*
X003260Y045848D01*
X003260Y046006D02*
X047092Y046006D01*
X047092Y046165D02*
X003260Y046165D01*
X003260Y046323D02*
X047092Y046323D01*
X047092Y046482D02*
X003260Y046482D01*
X003260Y046640D02*
X047092Y046640D01*
X047092Y046799D02*
X003260Y046799D01*
X003260Y046957D02*
X047092Y046957D01*
X005962Y045055D02*
X003260Y045055D01*
X003260Y044897D02*
X005950Y044897D01*
X005950Y044738D02*
X003260Y044738D01*
X003260Y044580D02*
X005950Y044580D01*
X005950Y044421D02*
X003260Y044421D01*
X003260Y044263D02*
X006005Y044263D01*
D22*
X010580Y030755D03*
X010630Y006930D03*
X039630Y006930D03*
X039630Y030755D03*
D23*
X037005Y026680D03*
X036580Y026680D03*
X036155Y026680D03*
X035730Y026680D03*
X034730Y026880D03*
X034230Y026880D03*
X033730Y026880D03*
X034655Y028305D03*
X031630Y026305D03*
X033955Y024830D03*
X034005Y024430D03*
X034005Y023930D03*
X034005Y023430D03*
X034005Y022930D03*
X034005Y022430D03*
X034005Y021930D03*
X033805Y021555D03*
X033805Y021130D03*
X034180Y021130D03*
X034555Y021130D03*
X036005Y021855D03*
X036305Y021180D03*
X036855Y020805D03*
X037380Y021180D03*
X037705Y021555D03*
X037905Y020855D03*
X039630Y020805D03*
X040130Y019055D03*
X040405Y018305D03*
X040030Y017930D03*
X040405Y017555D03*
X037905Y017930D03*
X037055Y017930D03*
X037055Y017430D03*
X036508Y016758D03*
X036230Y017055D03*
X036230Y017430D03*
X035941Y016769D03*
X037255Y015110D03*
X039685Y015110D03*
X037755Y019055D03*
X036508Y019033D03*
X034555Y018980D03*
X034180Y018980D03*
X033805Y018980D03*
X033780Y018230D03*
X034155Y018230D03*
X033805Y017555D03*
X033805Y016805D03*
X032430Y016230D03*
X032430Y015455D03*
X031505Y015110D03*
X031905Y016805D03*
X031905Y017555D03*
X031905Y018305D03*
X031430Y018205D03*
X031155Y017930D03*
X031530Y018980D03*
X031980Y018980D03*
X032730Y019530D03*
X033030Y019780D03*
X032430Y019830D03*
X031505Y020805D03*
X031505Y021180D03*
X030980Y021280D03*
X030480Y021155D03*
X029905Y021155D03*
X029805Y021930D03*
X028855Y020805D03*
X028130Y021180D03*
X028130Y021930D03*
X026630Y021180D03*
X026155Y021180D03*
X025780Y021180D03*
X025405Y021180D03*
X024818Y021192D03*
X024818Y022042D03*
X025405Y022055D03*
X025780Y022055D03*
X026155Y022055D03*
X026430Y020530D03*
X026155Y019055D03*
X025780Y019055D03*
X025405Y019055D03*
X025405Y018305D03*
X025780Y017555D03*
X026155Y016805D03*
X025755Y016180D03*
X028005Y016755D03*
X028755Y015110D03*
X030758Y016758D03*
X029255Y018180D03*
X029255Y019055D03*
X028005Y018980D03*
X027455Y018980D03*
X026580Y018980D03*
X024405Y020155D03*
X023992Y021268D03*
X023992Y021843D03*
X023105Y021180D03*
X023105Y020805D03*
X022580Y021280D03*
X022055Y021180D03*
X021055Y021180D03*
X020255Y020805D03*
X019630Y021180D03*
X020630Y022780D03*
X019030Y023680D03*
X017505Y021180D03*
X016780Y021180D03*
X016230Y021180D03*
X016230Y020380D03*
X015630Y019605D03*
X014955Y019055D03*
X014505Y019055D03*
X014955Y018305D03*
X014955Y017555D03*
X014955Y016755D03*
X015655Y016180D03*
X016780Y016905D03*
X017430Y016455D03*
X017430Y015480D03*
X017430Y017480D03*
X016780Y017805D03*
X016780Y019430D03*
X017505Y020405D03*
X019505Y018980D03*
X020805Y019055D03*
X022255Y018980D03*
X023130Y019055D03*
X023530Y019055D03*
X023530Y018305D03*
X023530Y017555D03*
X023530Y016805D03*
X022258Y016733D03*
X023005Y015110D03*
X020255Y015110D03*
X019505Y016730D03*
X014505Y015110D03*
X011575Y015110D03*
X011008Y015108D03*
X012255Y019055D03*
X011755Y020805D03*
X012555Y021180D03*
X013880Y021180D03*
X014505Y020805D03*
X014130Y023905D03*
X011880Y025655D03*
X011880Y026655D03*
X011880Y027655D03*
X011880Y028655D03*
X010330Y035080D03*
X015330Y036055D03*
X016730Y039805D03*
X017380Y039805D03*
X018255Y039805D03*
X017630Y041180D03*
X017630Y042180D03*
X016755Y042180D03*
X015880Y042180D03*
X015005Y042180D03*
X014130Y042180D03*
X018755Y042180D03*
X019880Y042180D03*
X020380Y042180D03*
X019880Y041180D03*
X024130Y042180D03*
X025130Y042180D03*
X025630Y042180D03*
X026130Y042180D03*
X026130Y041180D03*
X025130Y041180D03*
X027130Y042180D03*
X029130Y041180D03*
X032530Y044680D03*
X033355Y042280D03*
X033355Y041330D03*
X034255Y041805D03*
X037255Y041805D03*
X037430Y044030D03*
X028255Y035080D03*
X027855Y034780D03*
X026730Y035405D03*
X026630Y035780D03*
X026255Y034430D03*
X026430Y032980D03*
X026080Y032930D03*
X025730Y032980D03*
X025330Y032980D03*
X024905Y032980D03*
X024505Y032980D03*
X024005Y034055D03*
X023480Y035030D03*
X022580Y034105D03*
X021530Y033055D03*
X021880Y032680D03*
X022255Y032355D03*
X020780Y032305D03*
X021030Y033580D03*
X020680Y036405D03*
X020280Y036405D03*
X024630Y036480D03*
X027130Y032680D03*
X027380Y032305D03*
X026630Y030830D03*
X026630Y029730D03*
X026630Y029305D03*
X025630Y029555D03*
X025355Y030680D03*
X023630Y029955D03*
X023305Y030330D03*
X022255Y030680D03*
X021830Y029430D03*
X025130Y026430D03*
X025130Y025430D03*
X028130Y023930D03*
X029130Y023830D03*
X032030Y021555D03*
X030758Y019008D03*
X036530Y024305D03*
X041818Y025067D03*
X029005Y033705D03*
X027630Y028805D03*
X011008Y021055D03*
D24*
X011008Y019899D01*
X011575Y019899D02*
X011575Y020625D01*
X011755Y020805D01*
X012142Y019899D02*
X012142Y019168D01*
X012255Y019055D01*
X012624Y019061D02*
X013005Y018680D01*
X010255Y018680D01*
X009874Y019061D01*
X009874Y019899D01*
X010441Y019899D02*
X010441Y021241D01*
X010755Y021555D01*
X013505Y021555D01*
X010755Y021555D01*
X012624Y019899D02*
X012624Y019061D01*
X013005Y018680D02*
X018755Y018680D01*
X021505Y018680D01*
X027255Y018680D01*
X030005Y018680D01*
X035505Y018680D01*
X035755Y018680D01*
X035505Y018680D01*
X035630Y018805D02*
X035755Y018680D01*
X037880Y018680D01*
X038124Y018924D01*
X038124Y019899D01*
X038124Y020636D01*
X037905Y020855D01*
X037642Y020918D02*
X037380Y021180D01*
X037642Y020918D02*
X037642Y019899D01*
X037642Y019168D01*
X037755Y019055D01*
X037075Y019899D02*
X037075Y020525D01*
X037075Y020585D01*
X036855Y020805D01*
X036508Y020883D02*
X036508Y020977D01*
X036305Y021180D01*
X036508Y020883D02*
X036508Y019899D01*
X036508Y019033D01*
X035941Y019899D02*
X035941Y021241D01*
X036255Y021555D01*
X037705Y021555D01*
X038691Y020569D01*
X038691Y019899D01*
X039258Y019899D02*
X039258Y020552D01*
X038555Y021255D01*
X036255Y023555D01*
X036255Y025621D01*
X036005Y025621D02*
X036005Y023180D01*
X036005Y021855D01*
X036255Y021555D02*
X033930Y021555D01*
X033805Y021555D01*
X033805Y021130D02*
X033805Y018980D01*
X034180Y018980D02*
X034180Y021130D01*
X034555Y021130D02*
X034555Y018980D01*
X034155Y018230D02*
X037605Y018230D01*
X037905Y017930D01*
X037755Y017055D02*
X036230Y017055D01*
X036030Y017055D01*
X036005Y017055D01*
X035880Y017180D01*
X030130Y017180D01*
X027380Y017180D01*
X021630Y017180D01*
X018880Y017180D01*
X013130Y017180D01*
X013005Y017055D01*
X010255Y017055D01*
X009874Y016674D01*
X009874Y015961D01*
X010441Y015961D02*
X010441Y014994D01*
X010755Y014680D01*
X013505Y014680D01*
X010755Y014680D01*
X011008Y015108D02*
X011008Y015961D01*
X011575Y015961D02*
X011575Y015110D01*
X012624Y015961D02*
X012624Y016674D01*
X013005Y017055D01*
X013755Y016555D02*
X013755Y015805D01*
X013758Y015808D01*
X013758Y015961D01*
X014325Y015961D02*
X014325Y015291D01*
X014505Y015110D01*
X013505Y014680D02*
X019255Y014680D01*
X022005Y014680D01*
X019255Y014680D01*
X018941Y014994D01*
X018941Y015961D01*
X019505Y015964D02*
X019505Y016730D01*
X019505Y015964D02*
X019508Y015961D01*
X020075Y015961D02*
X020075Y015291D01*
X020255Y015110D01*
X021124Y015961D02*
X021124Y016674D01*
X021630Y017180D01*
X022258Y016733D02*
X022258Y015961D01*
X022825Y015961D02*
X022825Y015291D01*
X023005Y015110D01*
X022005Y014680D02*
X027755Y014680D01*
X030505Y014680D01*
X027755Y014680D01*
X027441Y014994D01*
X027441Y015961D01*
X028005Y015964D02*
X028005Y016755D01*
X027380Y017180D02*
X026874Y016674D01*
X026874Y015961D01*
X026155Y016805D02*
X024818Y016805D01*
X024818Y017555D02*
X025780Y017555D01*
X025580Y017930D02*
X026130Y018480D01*
X031730Y018480D01*
X031905Y018305D01*
X032230Y018305D01*
X032380Y018305D01*
X032492Y018305D01*
X032492Y017555D02*
X031905Y017555D01*
X031430Y018205D02*
X031380Y018255D01*
X029330Y018255D01*
X029255Y018180D01*
X030005Y018680D02*
X029624Y019061D01*
X029624Y019899D01*
X029142Y019899D02*
X029142Y019168D01*
X029255Y019055D01*
X030191Y019899D02*
X030191Y021241D01*
X030505Y021555D01*
X030755Y021555D01*
X031905Y021555D01*
X032030Y021555D01*
X031505Y020805D02*
X031325Y020625D01*
X031325Y019899D01*
X031892Y019899D02*
X031892Y019342D01*
X031530Y018980D01*
X031980Y018980D02*
X032055Y019055D01*
X032492Y019055D01*
X032730Y019530D02*
X032730Y023980D01*
X030680Y026030D01*
X030630Y026080D01*
X030630Y030080D01*
X030180Y030530D01*
X026380Y030530D01*
X026030Y030880D01*
X026005Y030905D01*
X026005Y031371D01*
X025780Y030330D02*
X025680Y030230D01*
X025780Y030330D02*
X030130Y030330D01*
X030430Y030030D01*
X030430Y026030D01*
X032430Y024030D01*
X032430Y019830D01*
X033030Y019780D02*
X033030Y023930D01*
X030830Y026130D01*
X030830Y031580D01*
X030105Y032305D01*
X027380Y032305D01*
X027130Y032680D02*
X030080Y032680D01*
X030180Y032580D01*
X031030Y031730D01*
X031030Y026180D01*
X031480Y025730D01*
X032930Y024280D01*
X033318Y023892D01*
X033318Y019055D01*
X033318Y018305D02*
X033705Y018305D01*
X033780Y018230D01*
X033805Y017555D02*
X033318Y017555D01*
X033318Y016805D02*
X033805Y016805D01*
X032492Y016805D02*
X031905Y016805D01*
X031325Y015961D02*
X031325Y015291D01*
X031505Y015110D01*
X030505Y014680D02*
X036255Y014680D01*
X038255Y014680D01*
X036255Y014680D01*
X035941Y014994D01*
X035941Y015961D01*
X035941Y016769D01*
X035880Y017180D02*
X035374Y016674D01*
X035374Y015961D01*
X036508Y015961D02*
X036508Y016758D01*
X036230Y017430D02*
X037055Y017430D01*
X037055Y017930D02*
X031155Y017930D01*
X030758Y019008D02*
X030758Y019899D01*
X030758Y021058D01*
X030980Y021280D01*
X030755Y021555D02*
X030505Y021555D01*
X027755Y021555D01*
X022005Y021555D01*
X019255Y021555D01*
X013505Y021555D01*
X013191Y021241D01*
X013191Y019899D01*
X013758Y019899D02*
X013758Y021058D01*
X013880Y021180D01*
X015005Y021180D01*
X015630Y020555D01*
X015630Y019605D01*
X015492Y019055D02*
X015155Y019055D01*
X014955Y019055D01*
X014892Y019442D02*
X014505Y019055D01*
X014892Y019442D02*
X014892Y019899D01*
X014325Y019899D02*
X014325Y020625D01*
X014505Y020805D01*
X016318Y019055D02*
X016405Y019055D01*
X016780Y019430D01*
X016780Y021180D01*
X018374Y019899D02*
X018374Y019061D01*
X018755Y018680D01*
X019505Y018980D02*
X019505Y019896D01*
X019508Y019899D01*
X019508Y021058D01*
X019630Y021180D01*
X019255Y021555D02*
X022005Y021555D01*
X021691Y021241D01*
X021691Y019899D01*
X022255Y019896D02*
X022258Y019899D01*
X022258Y020958D01*
X022580Y021280D01*
X023105Y020805D02*
X022825Y020525D01*
X022825Y019899D01*
X023392Y019899D02*
X023392Y019317D01*
X023130Y019055D01*
X023530Y019055D02*
X023992Y019055D01*
X023992Y021268D01*
X023928Y021780D02*
X023992Y021843D01*
X023928Y021780D02*
X023780Y021780D01*
X019805Y021780D01*
X019030Y022555D01*
X019030Y023680D01*
X019830Y022555D02*
X019830Y026205D01*
X019830Y026780D01*
X021980Y028930D01*
X022330Y029280D01*
X022330Y029780D01*
X023280Y030730D01*
X023980Y030730D01*
X024255Y031005D01*
X024255Y031371D01*
X024005Y031371D02*
X024005Y031055D01*
X023880Y030930D01*
X023230Y030930D01*
X022130Y029830D01*
X022130Y029330D01*
X019655Y026855D01*
X019655Y022430D01*
X020105Y021980D01*
X023730Y021980D01*
X023880Y022130D01*
X024730Y022130D01*
X024818Y022042D01*
X025130Y022330D02*
X023780Y022330D01*
X023605Y022155D01*
X020230Y022155D01*
X019830Y022555D01*
X020005Y022680D02*
X020005Y026705D01*
X022530Y029230D01*
X022530Y029580D01*
X023280Y030330D01*
X023305Y030330D01*
X023155Y029955D02*
X022730Y029530D01*
X022730Y029180D01*
X022130Y028580D01*
X022080Y028530D01*
X021580Y028030D01*
X020180Y026630D01*
X020180Y026205D01*
X020180Y022780D01*
X020455Y022505D01*
X023330Y022505D01*
X023530Y022705D01*
X025630Y022705D01*
X026155Y022180D01*
X026155Y022055D01*
X025780Y022055D02*
X025780Y022180D01*
X025430Y022530D01*
X023680Y022530D01*
X023480Y022330D01*
X020355Y022330D01*
X020005Y022680D01*
X020630Y022780D02*
X021155Y023305D01*
X028605Y023305D01*
X029130Y023830D01*
X027755Y021555D02*
X027441Y021241D01*
X027441Y019899D01*
X028008Y019899D02*
X028008Y018983D01*
X028005Y018980D01*
X027255Y018680D02*
X026874Y019061D01*
X026874Y019899D01*
X026155Y019055D02*
X026155Y021180D01*
X025780Y021180D02*
X025780Y019055D01*
X025405Y019055D02*
X025405Y021180D01*
X024818Y021192D02*
X024818Y019055D01*
X024818Y018305D02*
X025405Y018305D01*
X025580Y017930D02*
X024367Y017930D01*
X023992Y018305D01*
X023530Y018305D01*
X023530Y017555D02*
X023992Y017555D01*
X023992Y016805D02*
X023530Y016805D01*
X021691Y015961D02*
X021691Y014994D01*
X022005Y014680D01*
X018880Y017180D02*
X018374Y016674D01*
X018374Y015961D01*
X016780Y016905D02*
X016680Y016805D01*
X016318Y016805D01*
X015655Y016180D02*
X015492Y016343D01*
X015492Y016805D01*
X014955Y016755D02*
X013955Y016755D01*
X013755Y016555D01*
X013191Y015961D02*
X013191Y014994D01*
X013505Y014680D01*
X014955Y017555D02*
X015492Y017555D01*
X015492Y018305D02*
X014955Y018305D01*
X016318Y018305D02*
X016318Y017555D01*
X016530Y017555D01*
X016780Y017805D01*
X018941Y019899D02*
X018941Y021241D01*
X019255Y021555D01*
X020075Y020625D02*
X020255Y020805D01*
X020075Y020625D02*
X020075Y019899D01*
X020642Y019899D02*
X020642Y019218D01*
X020805Y019055D01*
X021124Y019061D02*
X021505Y018680D01*
X021124Y019061D02*
X021124Y019899D01*
X022255Y019896D02*
X022255Y018980D01*
X025405Y022055D02*
X025130Y022330D01*
X027755Y021555D02*
X030505Y021555D01*
X030755Y021555D01*
X028855Y020805D02*
X028575Y020525D01*
X028575Y019899D01*
X028008Y019899D02*
X028008Y021058D01*
X028130Y021180D01*
X030130Y017180D02*
X029624Y016674D01*
X029624Y015961D01*
X030191Y015961D02*
X030191Y014994D01*
X030505Y014680D01*
X030758Y015961D02*
X030758Y016758D01*
X028755Y015110D02*
X028575Y015291D01*
X028575Y015961D01*
X028008Y015961D02*
X028005Y015964D01*
X028130Y010430D02*
X028130Y007640D01*
X023155Y007665D02*
X023130Y007640D01*
X023155Y007665D02*
X023155Y010430D01*
X018130Y010430D02*
X018130Y007640D01*
X013130Y007640D02*
X013130Y010430D01*
X013380Y024530D02*
X016505Y024530D01*
X017414Y025439D01*
X021405Y029430D01*
X021830Y029430D01*
X021830Y029596D01*
X021830Y029830D01*
X022080Y030080D01*
X023371Y031371D01*
X023755Y031371D01*
X023630Y029955D02*
X023155Y029955D01*
X021880Y030180D02*
X017880Y026180D01*
X016855Y025155D01*
X013505Y025155D01*
X013005Y024905D02*
X013005Y025655D01*
X013130Y025780D01*
X013505Y026155D01*
X013005Y024905D02*
X013380Y024530D01*
X020780Y032305D02*
X021530Y033055D01*
X021880Y032680D02*
X021880Y030180D01*
X023655Y033030D02*
X022580Y034105D01*
X023655Y033030D02*
X024155Y033030D01*
X024255Y033130D01*
X024255Y033489D01*
X026255Y033489D02*
X026255Y033155D01*
X026430Y032980D01*
X034330Y032980D01*
X036505Y030805D01*
X036505Y027739D01*
X036755Y027739D02*
X036906Y027739D01*
X037630Y027015D01*
X037005Y026680D02*
X036630Y027055D01*
X036255Y027430D01*
X036255Y027739D01*
X036005Y027739D02*
X036005Y027255D01*
X036580Y026680D01*
X036155Y026680D02*
X035755Y027080D01*
X035755Y027739D01*
X035505Y027739D02*
X035505Y026905D01*
X035730Y026680D01*
X035005Y027155D02*
X034730Y026880D01*
X035005Y027155D02*
X035005Y027739D01*
X034755Y027739D02*
X034755Y027405D01*
X034230Y026880D01*
X033730Y026880D02*
X034255Y027405D01*
X034255Y027739D01*
X034505Y027739D02*
X034505Y028155D01*
X034655Y028305D01*
X034755Y025621D02*
X034755Y024180D01*
X034005Y023430D01*
X034005Y022930D02*
X035005Y023930D01*
X035005Y025621D01*
X034505Y025621D02*
X034505Y024430D01*
X034005Y023930D01*
X034005Y024430D02*
X034255Y024680D01*
X034255Y025621D01*
X034005Y025621D02*
X034005Y025255D01*
X033980Y025230D01*
X033955Y025205D01*
X033955Y024830D01*
X035505Y025621D02*
X035505Y023930D01*
X034005Y022430D01*
X034005Y021930D02*
X035755Y023680D01*
X035755Y025621D01*
X036505Y025621D02*
X036505Y024330D01*
X036530Y024305D01*
X036255Y021555D02*
X037705Y021555D01*
X037630Y021555D01*
X037705Y021555D01*
X037630Y021555D01*
X038555Y021255D02*
X038630Y021180D01*
X039630Y020805D02*
X039825Y020610D01*
X039825Y019899D01*
X040392Y019899D02*
X040392Y019317D01*
X040130Y019055D01*
X040405Y018680D02*
X039508Y018680D01*
X039258Y018930D01*
X039258Y019899D01*
X039508Y018680D02*
X039258Y018430D01*
X039258Y015961D01*
X038691Y015961D02*
X038691Y014991D01*
X038380Y014680D01*
X038255Y014680D01*
X037255Y015110D02*
X037075Y015291D01*
X037075Y015961D01*
X038124Y015961D02*
X038124Y016686D01*
X037755Y017055D01*
X039685Y015110D02*
X039825Y015250D01*
X039825Y015961D01*
X040405Y016805D02*
X040030Y017180D01*
X040030Y017930D01*
X040405Y018305D02*
X040992Y018305D01*
X040405Y018680D02*
X040780Y019055D01*
X040992Y019055D01*
X041818Y019055D02*
X041818Y018305D01*
X041818Y017555D01*
X041818Y016805D01*
X040992Y016805D02*
X040405Y016805D01*
X040405Y017555D02*
X040992Y017555D01*
X041818Y019055D02*
X041818Y025067D01*
X035374Y019899D02*
X035374Y019061D01*
X035630Y018805D01*
X035947Y013054D02*
X035214Y013054D01*
X034505Y012345D01*
X033155Y010430D02*
X033130Y010405D01*
X033130Y007640D01*
X036813Y012680D02*
X037148Y013015D01*
X038130Y013015D01*
X038130Y012345D02*
X038130Y010430D01*
X021130Y044680D02*
X021130Y044710D01*
M02*
